<svg width="300" height="300" viewBox="0 0 159 159" xmlns="http://www.w3.org/2000/svg"><defs><radialGradient id="a" cx="62.925" cy="97.085" r=".5" gradientTransform="matrix(-147.9852 -2.072 -2.10012 149.95361 9595.058 -14347.646)" gradientUnits="userSpaceOnUse"><stop offset="0" stop-color="#00457c"/><stop offset=".486" stop-color="#0076bd"/><stop offset=".832" stop-color="#0076bd"/><stop offset="1" stop-color="#00457c"/></radialGradient><radialGradient id="b" cx="63.074" cy="96.927" r=".499" gradientTransform="matrix(-108 0 0 108.22356 6891.2 -10410.6)" gradientUnits="userSpaceOnUse"><stop offset="0" stop-color="#fabb00"/><stop offset=".67" stop-color="#ffe608"/><stop offset="1" stop-color="#fabb00"/></radialGradient><radialGradient id="c" cx="61.547" cy="96.544" r=".683" gradientTransform="matrix(0 64.79964 65.16482 0 -6211.775 -3903.488)" gradientUnits="userSpaceOnUse"><stop offset="0" stop-color="#e30613"/><stop offset=".492" stop-color="#d51317"/><stop offset="1" stop-color="#a81e1c"/></radialGradient></defs><path d="M2 79.6A77.6 77.6 0 1079.6 2 77.6 77.6 0 002 79.6z" fill="#fff" stroke="#fff" stroke-width="3"/><path d="M79.205 5.2a74 74 0 1052.33 21.683A74 74 0 0079.205 5.2z" fill="url(#a)"/><path d="M80 134.8a54.8 54.8 0 1138.75-16.05A54.8 54.8 0 0180 134.8z" fill="#064981"/><path d="M23.6 79.6a56 56 0 1056-56 56 56 0 00-56 56z" fill="#fff"/><path d="M127.023 118.972l1.97-2.42-1.183-.952-3.17 3.9 4.448 3.557 1.183-1.453c-.355-.279-.756-.812-.396-1.251.552-.683 1.564.191 2.054.584 1.043.838 1.455 1.288.97 1.888a.622.622 0 01-.6.274 1.375 1.375 0 01-.636-.331l-1.225 1.505c1.34 1.143 2.497.78 3.503-.455 1.241-1.552 1.267-2.741-.787-4.38-1.658-1.33-2.82-1.66-3.816-.43a1.543 1.543 0 00-.36 1.49h-.042l-1.913-1.552zm-1.762 10.483c1.267 1.344 2.367 1.086 3.56-.073 2.018-1.955.246-3.816-1.449-5.533-1.934-1.965-3.55-3.62-5.594-1.645-1.564 1.505-.876 3.015.475 4.39.917.932 2.267 1.5 3.326.477a2.133 2.133 0 00.693-1.552c1.637 1.665 2.279 2.162 1.564 2.829a.634.634 0 01-.63.186 1.403 1.403 0 01-.584-.398l-1.382 1.345zm-1.893-4.494c-.422-.43-1.22-1.236-.615-1.826s1.371.181 1.804.62 1.194 1.273.6 1.847-1.361-.207-1.789-.641m.063 9.169c1.423-1.138 1.668-2.358.521-3.786-.76-.936-1.527-1.598-2.784-1.174.673-.9.355-1.686-.302-2.492-1.121-1.381-2.357-1.438-3.743-.326s-1.601 2.317-.475 3.703c.652.801 1.36 1.282 2.388.822-.688 1.122-.198 2.007.563 2.943 1.157 1.427 2.414 1.448 3.837.31m-5.438-6.708c.522-.424 1.095.145 1.398.517s.776 1.066.24 1.495-1.106-.155-1.424-.548-.745-1.034-.214-1.464m2.607 3.191c.678-.543 1.382.367 1.752.822s.766 1.097.188 1.552-1.142-.072-1.497-.517-1.12-1.334-.443-1.877m-7.659 2.87a9.654 9.654 0 00.756-1.805l4.171 6.278 1.742-1.143-5.417-8.155-1.564 1.034a5.975 5.975 0 01-.725 2.28l1.017 1.552zm-2.481 6.594l.87 1.629 1.465-.766-.88-1.603-1.47.77zm-3.27 3.537l2.243-.972-1.669-10.302-1.887.817 1.376 7.421h-.026l-4.39-6.107-1.986.863 6.34 8.275zm-5.213 0l.62 1.743 1.565-.548-.615-1.743-1.564.548zm-.97 2.332l-.411-1.5-3.379.968-.782-2.85 2.993-.801-.412-1.5-2.987.801-.657-2.404 3.237-.87-.406-1.499-5.255 1.412 2.664 9.753 5.364-1.442zm-18.247-6.94l.151 1.67 2.315-.201.751 8.388 2.085-.18-.818-8.312 2.315-.201-.146-1.67-6.71.589zm-5.354 4.111l.052-4.044-2.085-.03-.146 10.12h2.085l.057-4.504 2.393.026-.057 4.51 2.085.025.13-10.105H79.84l-.052 4.044-2.393-.026zm-7.82 5.529c1.923.315 3.128-.367 3.566-3.03l-2.034-.337c-.161.786-.328 2.033-1.282 1.878-1.158-.192-1.126-1.324-.694-3.874s.762-3.62 1.919-3.444c.615.098.761.636.521 1.96l2.018.336c.438-2.13-.209-3.44-2.31-3.786-3.394-.558-3.816 1.95-4.26 4.587s-.86 5.172 2.535 5.69m-6.523-5.322l-1.908-.564 2.17-3.91-.288 4.469zm-3.941 2.792l1.189-1.98 2.726.806-.114 2.297 2.085.625.313-10.446-2.607-.781-5.537 8.926 1.976.584zm-5.678-6.547l.522.212c1.47.636.954 1.552.469 2.632a4.653 4.653 0 00-.59 1.883l1.873.812a14.53 14.53 0 01.985-2.808 1.778 1.778 0 00-.855-2.545 2.19 2.19 0 002.7-1.551c.694-1.583.235-2.788-1.073-3.357l-3.53-1.551-4.087 9.257 1.913.828 1.69-3.827zm1.768-4.003l.85.367c.604.264.823.76.438 1.645-.261.59-.819 1.267-1.564.93l-.845-.366 1.136-2.586zm-7.873-5.91l-.86 1.426 1.997 1.174-4.327 7.24 1.798 1.035 4.328-7.24 1.996 1.174.86-1.448-5.792-3.403zm-11.329 4.281l4.536-5.86-2.372 7.51 2.205 1.701 6.2-8.016-1.565-1.179-4.29 5.555 2.179-7.22-2.237-1.701-6.199 8.036 1.564 1.174zm-3.237-2.772l6.944-7.39-1.533-1.412-6.939 7.39zm-3.092-2.875l1.173-1.035-2.304-2.585 2.226-1.96 2.054 2.296 1.173-1.034-2.085-2.297 1.882-1.655 2.226 2.493 1.173-1.034-3.566-4.019L26 124.144l3.686 4.137zm104.681-14.512a1.818 1.818 0 10-.665-2.513 1.838 1.838 0 00.665 2.513m1.642-15.54l6.975 2.647-7.946-.104-.978 2.607 9.538 3.65.696-1.836-6.606-2.518v-.026l7.547.026 1.008-2.648-9.542-3.65-.692 1.835zm.905-3.181l9.916 2.424.52-2.038-9.911-2.425-.52 2.039zm.774-3.003l1.56.255.566-3.44 2.942.49-.52 3.07 1.56.256.519-3.07 2.479.416-.546 3.326 1.56.261.893-5.401-10.067-1.674-.91 5.511zm5.463-10.656v.521c-.063 1.611-1.087 1.46-2.303 1.413a4.715 4.715 0 00-1.985.146l-.078 2.054a14.187 14.187 0 012.999-.12 1.803 1.803 0 002.079-1.746h.026c.176 1.366 1.127 1.903 2.432 1.955 1.736.068 2.702-.813 2.754-2.247l.146-3.874-10.192-.385-.083 2.085 4.225.161zm4.407.167l-.037.928c-.026.667-.41 1.042-1.382 1.042-.65-.026-1.486-.297-1.46-1.126l.036-.933 2.843.11zm-8.628-3.618l1.56-.1-.219-3.477 2.978-.192.193 3.128 1.559-.1-.193-3.127 2.51-.157.214 3.368 1.559-.1-.343-5.463-10.181.662zm-1.299-11.204l.463 2.414 10.519.683-.39-2.033-7.614-.287v-.031l6.996-2.925-.411-2.143-9.558 4.353zm7.016-12.423l-1.61.521.727 2.252-8.092 2.607.644 1.997 8.092-2.607.723 2.22 1.61-.52-2.078-6.439zm-7.89-2.961l.23.49c.68 1.46-.302 1.798-1.404 2.314a4.82 4.82 0 00-1.7 1.043l.869 1.866a14.465 14.465 0 012.598-1.485 1.79 1.79 0 001.04-2.503h.026a2.195 2.195 0 003.056.626c1.559-.74 2.032-1.966 1.43-3.264l-1.638-3.508-9.246 4.327.883 1.903zm3.998-1.872l.41.829c.28.605.12 1.126-.764 1.564-.587.276-1.455.422-1.808-.334l-.39-.844 2.572-1.205zM129.46 47.3c1.897 2.888 4.07 1.455 6.299 0s4.402-2.909 2.505-5.797-4.044-1.475-6.3 0-4.401 2.909-2.504 5.797m1.289-.85c-.645-.985.218-1.736 2.4-3.175s3.213-1.939 3.857-.954-.213 1.736-2.396 3.18-3.212 1.94-3.862.95m-7.66-7.82l1.35 1.6 3.177-2.69.997 1.188c1.56 1.877 3.202.944 4.085.193 1.43-1.21 1.85-2.549.619-4.014l-2.448-2.878-7.796 6.61zm7.93-3.994l.682.803c.608.72.213 1.35-.427 1.887a1.254 1.254 0 01-1.725.083l-.754-.891zm-6.756 1.136c2.183-2.356-1.013-5.109.307-6.532a.98.98 0 011.56-.062c.618.578.176 1.235-.344 1.793l1.492 1.392c1.559-1.47 1.45-2.846-.037-4.238-1.866-1.742-3.28-1.32-4.37-.146-2.08 2.23.935 5.213-.318 6.537a1.037 1.037 0 01-1.559.136c-.842-.788-.312-1.418.354-2.133l-1.534-1.428c-1.283 1.22-1.99 2.69-.093 4.463 1.164 1.09 2.765 2.158 4.568.219m-9.719-7.028l-1.102 1.512 1.347.98 1.096-1.512zm1.482-9.045l-3.607 6.13c-.577.976-1.253 1.299-2.038.835-.66-.391-.857-1.085-.218-2.174l3.607-6.126-1.798-1.069-3.68 6.256c-.982 1.658-.645 3.274 1.336 4.447 2.193 1.304 3.737.34 4.516-.974l3.685-6.256-1.803-1.043zm-14.033-.641l-.546 1.334 3.144 1.288.52-1.335zm-8.118 2.21l1.949-7.226h.026l.686 7.94 2.655.725 2.667-9.88-1.882-.52-1.85 6.844h-.026l-.717-7.538-2.729-.74-2.666 9.905 1.887.521zm-6.565-5.542l.52.078c1.59.225 1.336 1.23 1.17 2.44a4.795 4.795 0 00-.058 1.997l2.032.281a14.339 14.339 0 01.182-3.008 1.8 1.8 0 00-1.517-2.247v-.026c1.377-.036 2.006-.933 2.188-2.226.239-1.725-.52-2.778-1.95-2.982l-3.824-.521-1.414 10.14 2.079.292.587-4.202zm.608-4.379l.92.13c.66.089 1.009.522.874 1.48-.094.647-.442 1.455-1.269 1.34l-.914-.13.39-2.82zm-6.522-2.085l-.089 7.11c0 1.137-.436 1.757-1.35 1.742-.765 0-1.285-.522-1.269-1.773l.094-7.116-2.08-.026-.093 7.257c0 1.929 1.07 3.164 3.368 3.19 2.552.032 3.415-1.563 3.435-3.101l.089-7.257h-2.08zm-13.362.74l.192 1.689 2.313-.266.966 8.482 2.08-.24-.973-8.492 2.313-.266-.192-1.694-6.7.771zm-6.954 7.81l.52-.141c1.558-.423 1.71.604 2.031 1.783a4.7 4.7 0 00.728 1.856l1.98-.522a14.28 14.28 0 01-1.008-2.836 1.8 1.8 0 00-2.276-1.47 2.2 2.2 0 001.138-2.909c-.452-1.684-1.56-2.346-2.957-1.97l-3.727 1.01 2.666 9.906 2.017-.547zm-1.154-4.27l.894-.245c.644-.172 1.128.078 1.382 1.042.167.631.161 1.512-.64 1.731l-.893.245-.743-2.752zm-.681 9.264l-.593-1.455-3.217 1.32-1.133-2.769 2.874-1.178-.592-1.46-2.874 1.178-.951-2.335 3.118-1.278-.592-1.454-5.057 2.085 3.861 9.473 5.156-2.085zm-9.854-3.514c-.936-1.929-2.599-2.33-4.408-1.33-2.988 1.674-1.819 4.025-.566 6.257 1.892 3.393 2.968 4.494 6.04 2.773a19.175 19.175 0 002.307-1.658l-2.52-4.53-2.818 1.564.764 1.371.993-.553 1.102 1.976a3.199 3.199 0 01-.811.683c-1.04.584-1.56.24-3.118-2.56-.967-1.73-1.84-3.305-.707-3.94.966-.522 1.507.114 1.96.948l1.813-1.043zm-3.384 10.244l-5.836-8.414-1.72 1.194 5.81 8.414zm-2.598 1.705l-1.04-1.199-2.656 2.252-1.923-2.283 2.37-2.013-1.04-1.199-2.37 2.007-1.626-1.929L37.75 24.7l-1.04-1.199-4.157 3.535 6.59 7.82zM31.694 42.795l1.507-1.705-4.433-6.256 6.621 3.79 1.56-1.736-6.17-8.508-1.377 1.564 4.532 5.709-6.356-3.624-1.632 1.851 4.308 5.97-6.236-3.796-1.43 1.606 9.106 5.135zm-9.282 3.06l-3.467-2.169-1.107 1.783 8.654 5.417 1.112-1.778-3.862-2.419 1.268-2.038 3.872 2.419 1.107-1.778-8.669-5.443-1.107 1.778 3.472 2.19-1.268 2.038zm2.536 8.785c.785-1.794.405-3.128-2.079-4.223l-.826 1.897c.727.35 1.912.819 1.522 1.71-.473 1.085-1.559.767-3.965-.281s-3.368-1.648-2.895-2.727c.25-.573.806-.584 2.079-.041l.821-1.882c-1.975-.96-3.42-.652-4.272 1.308-1.383 3.17.972 4.202 3.446 5.286s4.828 2.122 6.236-1.042m-4.62 3.227c-3.077-.918-4.111 3.18-5.967 2.606a.985.985 0 01-.805-1.34c.244-.807 1.04-.708 1.751-.49l.582-1.954c-2.006-.746-3.185-.042-3.768 1.918-.727 2.45.281 3.53 1.81 3.988 2.915.871 4.225-3.128 5.981-2.606a1.043 1.043 0 01.811 1.345c-.327 1.105-1.123.912-2.079.63l-.598 2.013c1.664.61 3.29.589 4.028-1.903.458-1.528.702-3.44-1.834-4.17m-.375 13.512l-7.359-1.225 7.796-1.48.452-2.727-10.036-1.741-.317 1.934 6.98 1.157-7.406 1.476-.473 2.836 10.067 1.673.317-1.929zm-10.67 5.214l7.095.088c1.128 0 1.746.443 1.736 1.361 0 .761-.52 1.282-1.773 1.267l-7.094-.089-.026 2.086 7.235.093c1.923.026 3.154-1.074 3.18-3.378.037-2.554-1.559-3.425-3.092-3.44l-7.235-.095-.026 2.086zm6.632 9.003l.229 1.986-4.49-.448 4.261-1.512zm4.158 2.534l-2.313-.308-.29-2.872 2.182-.808-.25-2.195-9.833 3.868.317 2.748L20.317 90.2l-.27-2.054zm-2.677 7.862l-.13-.522c-.379-1.564.65-1.705 1.83-1.991a4.777 4.777 0 001.87-.688l-.488-1.997a14.207 14.207 0 01-2.853.943 1.802 1.802 0 00-1.518 2.242h-.03c-.52-1.272-1.607-1.522-2.87-1.215-1.689.412-2.38 1.528-2.037 2.915l.915 3.769 9.911-2.43-.494-2.038-4.106 1.006zm-4.282 1.042l-.213-.923c-.156-.651.104-1.126 1.04-1.36.628-.157 1.506-.125 1.704.683l.223.902-2.76.677zm10.358 3.968c-.333-.824-1.273-2.826-3.638-1.846-1.3.521-2.079 1.262-1.69 2.721h-.025a2.067 2.067 0 00-2.724-.73c-2.016.824-1.949 2.227-1.346 3.702l1.404 3.446 9.443-3.868-1.398-3.436zm-7.385 4.77l-.489-1.2a1.22 1.22 0 01.748-1.61 1.132 1.132 0 011.617.521l.52 1.303-2.407.986zm3.861-1.564l-.462-1.132a1.237 1.237 0 01.82-1.835 1.261 1.261 0 011.882.788l.442 1.084zm3.082 8.018a1.816 1.816 0 101.38-.25 1.818 1.818 0 00-1.38.25" fill="#fff"/><path d="M25.2 79.2a54 54 0 1054-54 54 54 0 00-54 54z" fill="url(#b)"/><path d="M117.457 45.2H40.4v10.556c0 31.785 11.322 53.676 39.07 75.557l.365.287.36-.298C107.4 108.706 118 87.525 118 55.756v-10.55z" fill="#fff"/><path d="M107.434 84.576a4.665 4.665 0 00-2.809 2.019c-1.43-2.47-2.519-3.985-2.923-4.841a1.558 1.558 0 01.047-1.479 6.815 6.815 0 011.897-2.075c1.923-1.416 3.939-1.629 5.603-2.568a4.46 4.46 0 002.114-5.396 5.185 5.185 0 01-3.073 2.874c-2.006.815-3.478.675-5.977 2.512a10.43 10.43 0 00-2.653 2.962 4.37 4.37 0 01-.607-.898 2.271 2.271 0 01.353-1.945 9.424 9.424 0 015.183-4.11c1.456-.518 3.499-.824 5.183-2.474 1.887-1.863 1.348-4.986 1.348-4.986-.156 1.51-2.032 2.594-3.333 3.222a25.064 25.064 0 01-4.027 1.318 10.523 10.523 0 00-3.732 1.847 11.884 11.884 0 00-3.11 3.813 4.188 4.188 0 01-.461-.861 2.767 2.767 0 01.42-2.22 12.047 12.047 0 015.898-4.629 38.707 38.707 0 005.318-2.184c4.11-2.246 2.67-6.008 2.67-6.008-1.095 1.967-3.38 3.113-5.873 4.068a41.067 41.067 0 00-5.702 2.521 13.58 13.58 0 00-4.245 4.052 7.131 7.131 0 012.835-5.707c2.426-1.826 6.35-3.05 7.734-3.631s4.405-1.842 4.597-5.246c.156-2.677-1.809-4.27-4.147-4.737a14.204 14.204 0 00-5.079-.17c-1.037.129-1.913.336-2.073.32a11.454 11.454 0 01-1.67-.783c-.818-.425-2.503-.99-3.669 0a3.15 3.15 0 00-1.208 3.217 2.88 2.88 0 012.592-.96 3.486 3.486 0 01.923.244 2.988 2.988 0 00-1.037 1.49c-.575 1.405-1.244 1.556-1.244 1.556a4.542 4.542 0 002.41.358 7.868 7.868 0 00.803-.172 3.116 3.116 0 01-1.394 2.138 1.89 1.89 0 01-1.498-.176 2.755 2.755 0 002.618 1.753c1.923-.104 2.856-1.847 3.234-2.521a17.425 17.425 0 00.866-2.906 3.273 3.273 0 01.725 3.113 9.8 9.8 0 001.555-1.37c.736-.82 1.478-1.675 2.24-1.613 1.036.088 1.834.934.834 2.288s-3.794 2.47-5.702 3.258-5.126 2.46-6.691 4.815-2.778 5.816-1.037 10.895a19.59 19.59 0 003.095 5.308 3.157 3.157 0 00-2.374.41 14.783 14.783 0 015.634 4.15c2.296 2.89 4.146 7.134 1.773 8.877-1.685 1.245-5.453-1.364-6.324-2.122-1.27-1.1-3.11-3.045-6.64-9.857a54.126 54.126 0 01-3.477-9.946s3.224 2.682 5.281-.457c0 0-4.447-.83-4.665-4.986a1.378 1.378 0 001.125.483c.845-.104 2.353.285 2.25 1.769a3.448 3.448 0 00-.742-4.742s3.281.623 3.629-2.423a4.035 4.035 0 01-3.52-.695 2.53 2.53 0 01-.912-.908s2.732.477 3.447-1.966a4.131 4.131 0 01-3.421-1.707 9.112 9.112 0 00-.187-3.959c-.6-1.68-2.84-2.179-3.11-2.226a3.423 3.423 0 01-1.648-1.966s-2.467.768-2.897 2.039a13.733 13.733 0 00-2.861.083c-.576.182-.778 1.09-.995 1.281s-2.836.198-2.898.296a.862.862 0 00-.104.483c0 .249.047.845.187.845h.104a4.039 4.039 0 00-.088.431 7.618 7.618 0 000 2.075c.15.68.435.696.435.696a1.746 1.746 0 00.244.072 10.532 10.532 0 01.518 1.038h-.353c-3.26.218-5.266-1.987-5.266-3.632a2.356 2.356 0 00-1.295 3.544 3.99 3.99 0 003.11 1.857 14.416 14.416 0 003.814-.29 9.346 9.346 0 00-.274.923c-.343 0-.56 0-.576.244a11.903 11.903 0 00.026 2.168.44.44 0 00.322.296c.248.042.958.068 1.078.286a2.534 2.534 0 01-.4 1.556 1.875 1.875 0 01-1.518.436c-2.073-.12-8.812-1.557-12.403-7.15 0 0 2.436-1.623 2.436-3.735s-.762-3.502-3.535-4.15c0 0 .622.41.622 1.872 0 0-3.426.623-2.203 4.815a3.043 3.043 0 01-1.27-.991s.435-3.86-2.11-4.53a3.948 3.948 0 00-4.763 2.569 1.76 1.76 0 011.866-.125s-.788 2.594 3.11 3.357c0 0-6.22 1.894-4.09 7.357a7.673 7.673 0 01.695-2.158s3.996 2.277 4.665-1.63c0 0 1.918.457 2.182 1.92a2.71 2.71 0 01-1.415 3.212s7.624 1.188 13.207 4.633c0 0-7.687 2.88-14.394 2.931a2.876 2.876 0 00-1.555-3.165 3.568 3.568 0 00-2.825-.072 4.185 4.185 0 00-2.467 2.443 1.839 1.839 0 011.628-.384 4.26 4.26 0 002.467 3.191 4.985 4.985 0 00-4.479 2.371 3.733 3.733 0 00.218 4.29s.14-1.343 1.099-1.7a2.79 2.79 0 003.95-1.656s.29 4.483 3.591 5.443a3.52 3.52 0 01-.575-2.04 2.48 2.48 0 001.654-3.813s3.913-1.857 4.846 3.01a3.035 3.035 0 001.99-3.046s6.738-1.92 14.337 5.992c0 0-6.308-.95-8.558 2.397-1.596 2.371-.083 7.093-.083 7.093a9.818 9.818 0 01-6.878 3.242 3.779 3.779 0 00-1.555-4.794 3.408 3.408 0 00-4.716 1.007s1.27-.265 1.82.576c0 0-1.82 2.106 1.316 3.787 0 0-3.11-.975-5.028.623a3.815 3.815 0 00-1.125 2.9 1.819 1.819 0 011.628-.768 2.075 2.075 0 001.606 2.18 2.409 2.409 0 002.628-.888 4.592 4.592 0 002.851 5.084 2.752 2.752 0 01-.43-1.707 3.302 3.302 0 001.918-1.198 2.866 2.866 0 00-.363-3.113 4.391 4.391 0 014.727 2.594 2.963 2.963 0 001.555-2.661s6.987.913 9.117-2.325a3.92 3.92 0 01-.933-3.808c.55-2.537 3.426-2.184 3.426-2.184a4.31 4.31 0 00-.959 3.632c.265 2.526 1.037 4.794-1.125 6.37 0 0 3.665.52 4.453-2.391 0 0 2.591 7.331-2.706 12.67 0 0-.425-3.632-3.815-3.31s-3.11 3.828-3.11 3.828a2.332 2.332 0 011.773-1.037s-.798 1.23 1.099 2.801c0 0-3.343 2.646-1.923 6.185 0 0 .223-1.35 1.125-1.624a2.826 2.826 0 003.24.467c1.684-1.007 1.72-2.008 1.72-2.008s1.622 3.435 4.566 4.192c0 0-.824-1.25-.124-2.034 0 0 2.348-1.452-.155-4.43a56.828 56.828 0 008.06-10.465s-4.033-6.485-2.743-11.975a19.516 19.516 0 005.899 4.452c.124.073 0 .628.17 1.152a2.594 2.594 0 00.913 1.13c.202.156 1.177 1.24.876 2.2-.399 1.272-1.368 1.235-1.368 1.235s2.426 1.313 3.732-.705a3.212 3.212 0 00.217-3.56 7.806 7.806 0 003.872-.518c2.866-1.557 2.592-3.3 2.592-3.3a2.771 2.771 0 01-2.965.623 3.87 3.87 0 001.368-1.635 16.175 16.175 0 00.804-3.206 7.698 7.698 0 011.378-3.222 4.733 4.733 0 013.027-1.81 5.104 5.104 0 00-3.814-.52zM75.45 59.466h-.948a7.784 7.784 0 01-.726-1.038c.321-.062.97-.135 1.342-.218.239-.052.472-.088.695-.114a7.201 7.201 0 00-.363 1.406zm-1.612-2.532c.14-.265.3-.576.44-.825q.52-.001 1.037-.052c.104.16.306.482.477.773-.518.03-1.41.067-1.98.104zm4.878 2.422a3.418 3.418 0 01-1.395.166 15.516 15.516 0 01-1.213-1.494 6.453 6.453 0 013.297.576 1.25 1.25 0 01-.69.752zm-2.39-2.557c.171-.43.394-1.007.518-1.297a.477.477 0 01.332-.177 2.075 2.075 0 012.234 1.297l-3.11.177zm3.063-5.583c0 .068-.207.275-.321.566a1.473 1.473 0 01-1.145 1.11 1.264 1.264 0 01-1.39-.752c-.103-.172-.285-.203.12-.395a8.728 8.728 0 012.56-.596c.047 0 .176-.031.176.078z" fill="url(#c)"/></svg>
