<svg clip-rule="evenodd" fill-rule="evenodd" height="355.847993" image-rendering="optimizeQuality" shape-rendering="geometricPrecision" text-rendering="geometricPrecision" viewBox="0 0 2058 2606" width="281.018868" xmlns="http://www.w3.org/2000/svg"><path d="m979.5-.5h97c158.27 5.90756 315.27 24.0742 471 54.5 103.87 20.2993 205.2 49.299 304 87 27.8 10.9 55.14 22.9 82 36 16.57 44.385 30.74 89.552 42.5 135.5 48.04 184.453 75.21 371.787 81.5 562v137c-5.18 199.43-39.68 393.77-103.5 583-98.8 282.55-259.96 522.72-483.5 720.5-131.56 114.32-275.22 211.15-431 290.5-7.33 0-14.67 0-22 0-155.776-79.35-299.443-176.18-431-290.5-297.448-266.26-482.282-597.09-554.5-992.5-18.3692-103.03-29.20258-206.7-32.5-311 0-45.667 0-91.333 0-137 6.90163-213.798 40.4016-423.464 100.5-629 7.046-23.138 14.879-45.971 23.5-68.5 85.271-39.981 173.604-71.648 265-95 153.119-38.6309 308.453-63.6309 466-75 41.794-3.02489 83.461-5.52489 125-7.5z" fill="#fefefe" opacity=".997"/><path d="m1553.5 2139.5c-1.33-162.67-1.33-325.33 0-488 1.5 15.94 2.67 31.94 3.5 48 1.03 5.11 3.2 9.61 6.5 13.5 1.63.49 3.3.66 5 .5.06.54.39.88 1 1 .99-3.61 1.32-7.27 1-11-.27-22.87 1.73-45.53 6-68-.59-6.76-1.75-13.43-3.5-20-.33-18.67-.67-37.33-1-56-6.59-38.39-13.42-76.73-20.5-115-.33-15.84 0-31.51 1-47 17.58 39.04 27.08 80.04 28.5 123 2.54 63.41 6.04 126.74 10.5 190 1.52 19.23-.98 37.9-7.5 56-1.41 3.16-3.08 6.16-5 9-.67 3-.67 6 0 9 21.49-11.85 35.16-29.85 41-54 8.68-36.98 11.85-74.48 9.5-112.5 1.41-101.68-14.42-200.51-47.5-296.5-8.07-21.48-18.24-41.81-30.5-61 0-13 0-26 0-39 11.21-1.17 19.04-6.84 23.5-17 1.03-9.22.03-18.22-3-27-6.59-15.5-13.42-30.84-20.5-46 0-7.67 0-15.33 0-23 1.97 2.15 3.8 4.48 5.5 7 13.55 26.48 25.05 53.81 34.5 82 .88.75 1.88 1.25 3 1.5 14.27 1.65 27.94-.52 41-6.5-5.86-10.69-14.19-18.86-25-24.5-3.54-3.2-6.7-6.7-9.5-10.5-3.3-10.16-5.97-20.49-8-31-7.49-14.33-15.49-28.33-24-42-5.84-11.34-11.34-22.68-16.5-34-.33-9.85.01-19.51 1-29 15.87 37.07 33.37 73.41 52.5 109 12.37 22.7 26.71 44.03 43 64 7.86 8.2 16.03 16.03 24.5 23.5 8.98 6.32 18.64 11.32 29 15 1.67.67 3.33.67 5 0 3.08-2.62 6.24-5.12 9.5-7.5 4.02-18.19.02-34.52-12-49-13.03-14.7-27.03-28.37-42-41-7.97-7.78-13.81-16.94-17.5-27.5-3.76-12.86-7.59-25.69-11.5-38.5-1.17-2.33-2.33-4.67-3.5-7-4.44.15-7.28-1.85-8.5-6-2.46-8.9-4.46-17.9-6-27-8.5-21.33-18.83-41.665-31-61-11.08-16.233-21.91-32.566-32.5-49 0-68.333 0-136.667 0-205-116.5-.333-232.83 0-349 1v265c-2.46-2.07-5.13-3.904-8-5.5-17.67-.333-35.33-.667-53-1-23.71-9.674-44.04-24.008-61-43-6.33-.667-12.67-.667-19 0-.81 2.105-1.81 4.105-3 6 1.78 3.735 3.95 7.235 6.5 10.5 13.26 13.454 28.26 24.454 45 33 2.37 10.574 4.21 21.24 5.5 32 4.83-.44 9.49-1.61 14-3.5 6.67-3.67 13.33-7.33 20-11 2.31-.662 4.65-1.162 7-1.5-.92 14.33-1.92 28.66-3 43-.07 7.96 1.43 15.62 4.5 23 2.06 2.95 4.9 4.79 8.5 5.5 10.35.64 20.68.47 31-.5h5v119c-2.96-.48-5.29-1.98-7-4.5-4.65-.5-9.32-.67-14-.5.81 5.3 2.98 9.96 6.5 14 4.67 5.5 9.5 10.84 14.5 16v50c-5.92-6.42-12.59-11.92-20-16.5-4.36-2.68-9.03-4.52-14-5.5-1.07-.93-2.4-1.27-4-1v37c1.25 20.27-2.92 39.27-12.5 57-6.64 7.64-13.64 14.97-21 22-1.59 2.17-2.92 4.5-4 7-16.84 1.72-33.68 3.89-50.5 6.5-7.52 3.85-14.18 8.85-20 15-3.75 2.29-7.59 4.46-11.5 6.5-.5 4.32-.67 8.65-.5 13 7.67.17 15.34 0 23-.5 7-7.67 14-15.33 21-23 11.66-.07 23 1.93 34 6 5.31 1 10.65 1.33 16 1 11.57-10.9 22.4-22.4 32.5-34.5 8.06-13.24 12.89-27.57 14.5-43 3.67 2.17 7.33 4.33 11 6.5-1.1 17.3-6.27 33.47-15.5 48.5-6.78 10.44-13.94 20.61-21.5 30.5-2.65.5-5.31.66-8 .5-.16 2.69 0 5.35.5 8 2.73 8.37 5.57 16.7 8.5 25 8.78-3.48 16.28-8.81 22.5-16 7.01-8.71 13.51-17.71 19.5-27v24c-8.54 14.54-20.87 24.21-37 29-.17 18.34 0 36.67.5 55 5.1 3.13 9.93 6.63 14.5 10.5 1.97.5 3.97.66 6 .5-.17-12.67 0-25.34.5-38 3.61-7.11 8.78-12.78 15.5-17v59 37c.33 295.67 0 591.33-1 887-56.07 36.71-114.07 70.38-174 101-60.419-30.97-118.919-64.97-175.5-102-.5-297.33-.667-594.67-.5-892 2.673-6.2 4.006-12.7 4-19.5-.548-7.24-1.548-14.4-3-21.5-.329-13.51.004-26.84 1-40 4.308 2.81 8.141 6.14 11.5 10 .582 11.41 1.749 22.74 3.5 34 5.818-2.41 11.485-5.08 17-8 1.166-18.66 1.333-37.32.5-56-6.612-3.54-13.445-6.71-20.5-9.5-4.911-4.41-9.245-9.24-13-14.5-.325-7.85.008-15.52 1-23 12.431 12.27 23.598 25.6 33.5 40 6.824-7.48 11.991-15.98 15.5-25.5-2.066-6.08-5.732-11.08-11-15-5.842-3.75-11.509-7.75-17-12-2.557-2.89-4.724-6.06-6.5-9.5-3.143-14.23-6.976-28.23-11.5-42 .664-7.33 3.497-13.66 8.5-19 2.403 1.81 4.07 4.14 5 7 1.422 9.05 3.089 18.05 5 27 5.609 10.62 13.109 19.79 22.5 27.5 7 5.67 14 11.33 21 17 3.366.33 6.699 0 10-1 7.333-2 14.667-4 22-6 4.333-.67 8.667-.67 13 0 7.738 7.07 14.738 14.73 21 23 7.326.5 14.66.67 22 .5-1.59-17.76-11.254-27.92-29-30.5-10.297-1.36-20.63-2.36-31-3-15.038-1.39-26.871-8.22-35.5-20.5-19.267-26.91-27.1-56.91-23.5-90 .33-6.7-.003-13.37-1-20-.607.12-.94.46-1 1-7.111 1.61-13.444 4.78-19 9.5-4.9 5.67-9.9 11.17-15 16.5 0-19 0-38 0-57 4.995-5.92 11.162-10.25 18.5-13 .499-4.65.666-9.32.5-14-7.111-1.54-12.778.46-17 6-.999-39.83-1.332-79.83-1-120 2.308-.41 4.642-.75 7-1 12.62 3.39 25.287 3.72 38 1 .667-23.33 1.333-46.67 2-70 7.892 3.28 15.559 7.11 23 11.5 6.092 2.53 12.425 3.7 19 3.5-.166-10.34 0-20.672.5-31 16.288-13.106 33.788-24.439 52.5-34 1.657-6.2.324-11.7-4-16.5-10.747.191-20.747 3.191-30 9-7.628 5.96-14.962 12.293-22 19-4.997 3.834-10.33 7.167-16 10-19.347 1.534-38.68 3.201-58 5-4.129.327-8.129 1.16-12 2.5-.994-10.153-1.328-20.486-1-31 5.048.373 9.715-.794 14-3.5 5.167-4.5 10.333-9 15.5-13.5.989-13.661 1.822-27.328 2.5-41-9 0-18 0-27 0-.402 6.785-1.402 13.451-3 20-.996-13.823-1.329-27.823-1-42 13.735.53 25.902-3.47 36.5-12 4.086-6.507 8.42-12.84 13-19 1.741-15.186.408-30.186-4-45-5.812-1.255-11.645-1.088-17.5.5-2.117 1.731-3.617 3.898-4.5 6.5-2.523 15.619-6.19 30.952-11 46-3.73.96-7.563 1.293-11.5 1v3c-.667-43.667-1.333-87.333-2-131-115.832-1-231.832-1.333-348-1v194c-25.913 37.138-47.746 76.804-65.5 119-7.466 22.06-15.133 44.06-23 66-5.085 14.17-11.752 27.5-20 40-16.333 15.67-32.667 31.33-49 47-5.827 6.49-9.661 13.99-11.5 22.5.533 4.83 1.033 9.66 1.5 14.5 1.324 9.44 6.824 14.44 16.5 15 8.16-1.25 15.493-4.41 22-9.5 22.549-19.87 41.383-42.71 56.5-68.5 21.095-36.52 41.428-73.52 61-111 3.226-11.59 7.059-22.92 11.5-34 .996 13.49 1.329 27.16 1 41-2.55.06-4.05 1.39-4.5 4-7.618 19.57-14.951 39.23-22 59-6.414 18.17-15.414 34.83-27 50-7.45 8.64-16.616 14.64-27.5 18-2.862 12.27 1.138 21.44 12 27.5 8.403-.22 16.403-2.22 24-6 2.664-2.67 4.498-5.84 5.5-9.5 1.787-8.73 3.787-17.39 6-26 9.676-20.7 20.842-40.37 33.5-59v21c-3.884 12.86-8.384 25.52-13.5 38-2.28 3.95-4.947 7.61-8 11-.667 11-.667 22 0 33 1.167 5.17 4.333 8.33 9.5 9.5 3.991.64 7.991 1.14 12 1.5v35c-13.558 19.12-23.391 40.12-29.5 63-4.667 16.01-9.334 32.01-14 48-9.363 42.48-19.363 84.82-30 127-.114 21.34-.114 42.67 0 64-4.181 16.42-6.847 33.09-8 50-1.092 27.72-.425 55.38 2 83 1.405 17.29 6.072 33.62 14 49 8.343 12.69 17.176 25.02 26.5 37 2.928.98 5.928 1.32 9 1-.378-5.39-1.212-10.73-2.5-16-3.794-13.97-7.46-27.97-11-42-.898-5.97-1.398-11.97-1.5-18 1.404-33.51 4.57-66.85 9.5-100 1.372-31.65 2.372-63.32 3-95 10.175-39.37 20.342-78.7 30.5-118 .998 24.49 1.331 49.16 1 74-5.203 24.15-11.036 48.15-17.5 72-1.397 34.27-3.897 68.43-7.5 102.5-.41 25.55 2.423 50.72 8.5 75.5.953 1.96 2.287 3.62 4 5 3.109-9.44 5.109-19.1 6-29 .609-14.67 1.275-29.34 2-44 .634-6.8 1.8-13.47 3.5-20 1.333 171 1.333 342 0 513-175.816-190.86-298.316-412.53-367.5-665-52.0363-196.6-74.3696-396.6-67-600 6.9365-197.312 36.603-390.979 89-581 6.13-22.223 12.963-44.223 20.5-66 65.165-28.889 132.165-52.722 201-71.5 126.389-33.676 254.722-57.343 385-71 87.726-9.8993 175.726-15.7326 264-17.5 184.67 4.1677 367.33 25.3344 548 63.5 103.86 22.295 204.52 54.462 302 96.5 37.56 118.345 65.4 239.012 83.5 362 31.93 211.594 34.93 423.59 9 636-24.11 186.47-76.44 364.47-157 534-68.33 139.76-155.16 266.43-260.5 380z" fill="#0266a3"/><path d="m416.5 307.5c9.672-.166 19.339 0 29 .5 9.817 2.37 19.484 5.204 29 8.5.167 12.005 0 24.005-.5 36-12.702-10.465-27.202-14.965-43.5-13.5-25.294 8.417-34.461 25.584-27.5 51.5 9.244 19.37 24.411 26.536 45.5 21.5 9.602-2.302 18.269-6.468 26-12.5 1.166 11.319 1.332 22.652.5 34-23.535 13.268-48.035 15.434-73.5 6.5-25.489-13.96-37.489-35.627-36-65-.218-35.807 16.782-58.307 51-67.5z" fill="#fdfdfe"/><path d="m554.5 307.5c50.43-4.73 77.43 18.104 81 68.5.172 22.846-8.162 41.846-25 57-22.554 14.259-46.221 16.259-71 6-19.546-11.563-30.713-28.73-33.5-51.5-4.268-27.501 3.898-50.334 24.5-68.5 7.447-5.225 15.447-9.059 24-11.5z" fill="#fdfefe"/><path d="m829.5 307.5c9.006-.166 18.006 0 27 .5 10.112 2.539 20.112 5.372 30 8.5.332 12.018-.001 24.018-1 36-12.179-10.226-26.179-14.726-42-13.5-23.734 6.43-33.901 21.93-30.5 46.5 6.57 20.87 20.737 30.037 42.5 27.5 11.475-1.656 21.641-6.156 30.5-13.5.833 11.681.666 23.348-.5 35-20.258 10.699-41.591 13.532-64 8.5-27.457-9.691-42.29-29.191-44.5-58.5-3.327-27.815 5.84-50.315 27.5-67.5 7.828-4.881 16.161-8.048 25-9.5z" fill="#fdfdfe"/><path d="m1233.5 307.5c17.94-2.679 34.61.655 50 10 1.33 10.667 1.33 21.333 0 32-7.04-5.529-14.7-10.029-23-13.5-6.54-2.218-12.87-1.885-19 1-4.43 6.23-3.76 11.897 2 17 13.6 6.936 26.1 15.436 37.5 25.5 11.3 16.916 11.3 33.916 0 51-7.25 8.374-16.41 13.207-27.5 14.5-16.98 1.63-32.81-1.87-47.5-10.5-.67-11-.67-22 0-33 7.48 5.656 15.64 10.156 24.5 13.5 6.75.877 13.42.544 20-1 5.29-5.537 5.29-11.037 0-16.5-8.01-5.338-16.34-10.172-25-14.5-18.93-12.843-25.1-30.343-18.5-52.5 5.36-11.871 14.19-19.538 26.5-23z" fill="#fcfdfe"/><path d="m1084.5 309.5c28.16-.998 56.5-1.331 85-1v27c-.33 0-.67 0-1 0 0-8.667 0-17.333 0-26-28 0-56 0-84 0z" fill="#bed8e7"/><path d="m699.5 308.5v1c-11.333 0-22.667 0-34 0v134c-.999-44.83-1.332-89.83-1-135z" fill="#8ab9d5"/><path d="m699.5 309.5v102h53v32c-29 0-58 0-87 0 0-44.667 0-89.333 0-134z" fill="#fefefe"/><path d="m699.5 308.5c.998 33.829 1.332 67.829 1 102 17.508-.33 34.841.003 52 1-17.667 0-35.333 0-53 0 0-34 0-68 0-102 0-.333 0-.667 0-1z" fill="#5295c0"/><path d="m961.5 309.5c-11.333 0-22.667 0-34 0v134c-.999-44.83-1.332-89.83-1-135 11.845-.328 23.512.005 35 1z" fill="#bed8e7"/><path d="m961.5 309.5v48c17.159.997 34.492 1.33 52 1 0-16.333 0-32.667 0-49h34v134c-11.33 0-22.67 0-34 0 0-17.667 0-35.333 0-53-17.508-.33-34.841.003-52 1v52c-11.333 0-22.667 0-34 0 0-44.667 0-89.333 0-134z" fill="#fefffe"/><path d="m1047.5 309.5c-11.33 0-22.67 0-34 0v49c-17.508.33-34.841-.003-52-1h51c0-16.333 0-32.667 0-49 11.85-.328 23.51.005 35 1z" fill="#8dbad6"/><path d="m1084.5 309.5h84v26c-16.67 0-33.33 0-50 0-.33 8.517.01 16.85 1 25h47v27c-16 0-32 0-48 0v29h52v27c-28.67 0-57.33 0-86 0 0-44.667 0-89.333 0-134z" fill="#fefffe"/><path d="m1431.5 341.5c-14 0-28 0-42 0v102c-11.33 0-22.67 0-34 0 0-34 0-68 0-102-14 0-28 0-42 0 0-11 0-22 0-33h118z" fill="#fdfefe"/><path d="m1550.5 308.5v1c-28 0-56 0-84 0v134c-1-44.83-1.33-89.83-1-135z" fill="#bed8e7"/><path d="m1550.5 309.5v26c-16.84-.33-33.51.003-50 1v24h48v27c-16 0-32 0-48 0v29h52v27c-28.67 0-57.33 0-86 0 0-44.667 0-89.333 0-134z" fill="#fefefe"/><path d="m1631.5 391.5c-2.79-.977-5.79-1.31-9-1v53c-11.33 0-22.67 0-34 0 0-45 0-90 0-135 23.71-.449 47.38.051 71 1.5 15.74 5.742 24.91 16.909 27.5 33.5 2.67 17.351-3.16 30.851-17.5 40.5 3.54 3.201 6.7 6.701 9.5 10.5 7.26 16.009 14.09 32.175 20.5 48.5-12.66.5-25.33.667-38 .5-4.31-13.635-9.48-26.968-15.5-40-2.9-6.408-7.74-10.408-14.5-12z" fill="#fdfefe"/><path d="m1168.5 335.5h1c-16.49.997-33.16 1.33-50 1v23 1c-.99-8.15-1.33-16.483-1-25z" fill="#80b3d2"/><path d="m1550.5 308.5c.99 9.152 1.33 18.485 1 28-17 0-34 0-51 0 16.49-.997 33.16-1.33 50-1 0-8.667 0-17.333 0-26 0-.333 0-.667 0-1z" fill="#7fb2d1"/><path d="m1637.5 335.5c-4.67 0-9.33 0-14 0v31h10c-3.46.982-7.13 1.315-11 1 0-11 0-22 0-33 5.19-.321 10.19.013 15 1z" fill="#5094bf"/><path d="m1637.5 335.5c12.81 1.923 17.31 9.257 13.5 22-.89 4.708-3.72 7.542-8.5 8.5-2.98.498-5.98.665-9 .5-3.33 0-6.67 0-10 0 0-10.333 0-20.667 0-31z" fill="#0366a4"/><path d="m563.5 341.5c19.191-1.96 31.025 6.374 35.5 25 1.851 11.268.184 21.935-5 32-11.975 13.397-25.808 15.563-41.5 6.5-10.355-10.397-14.188-22.897-11.5-37.5 2.399-13.223 9.899-21.89 22.5-26z" fill="#0667a4"/><path d="m1431.5 341.5c-13.49.996-27.16 1.329-41 1 .33 33.837 0 67.504-1 101 0-34 0-68 0-102z" fill="#408cbb"/><path d="m961.5 391.5c17.159-.997 34.492-1.33 52-1v53c-1-17.159-1.33-34.492-1-52-17 0-34 0-51 0z" fill="#80b3d2"/><path d="m1631.5 391.5c-2.67 0-5.33 0-8 0 .33 17.508 0 34.841-1 52 0-17.667 0-35.333 0-53 3.21-.31 6.21.023 9 1z" fill="#4c91be"/><path d="m1119.5 360.5c0-.333 0-.667 0-1h48v29c-16 0-32 0-48 0v27c17.17-.33 34.17.003 51 1-17.33 0-34.67 0-52 0 0-9.667 0-19.333 0-29h48c0-9 0-18 0-27-15.67 0-31.33 0-47 0z" fill="#5195c0"/><path d="m1499.5 505.5c7.71-.142 15.37.358 23 1.5 9.84 2.336 19.51 5.17 29 8.5.17 12.005 0 24.005-.5 36-10.36-8.847-22.36-13.514-36-14-17.87 1.536-29.54 10.869-35 28-3.52 20.794 3.98 35.961 22.5 45.5 18.09 3.415 34.26-.752 48.5-12.5.83 11.681.67 23.348-.5 35-25.82 13.979-51.82 14.479-78 1.5-16.89-12.943-26.06-30.11-27.5-51.5-3.4-25.468 4.1-46.968 22.5-64.5 9.68-7.01 20.34-11.51 32-13.5z" fill="#fdfdfe"/><path d="m1031.5 508.5c27.49-.998 55.16-1.331 83-1v27c-.33 0-.67 0-1 0 0-8.667 0-17.333 0-26-27.33 0-54.67 0-82 0z" fill="#bed8e7"/><path d="m589.5 574.5c.997-21.827 1.331-43.827 1-66h33c.167 28.335 0 56.669-.5 85-5.692 32.626-25.192 49.626-58.5 51-33.653-.892-53.153-17.892-58.5-51-.5-28.665-.667-57.331-.5-86h33c-.378 26.023.122 52.023 1.5 78 3.887 21.194 16.054 28.361 36.5 21.5 7.144-6.115 11.311-13.949 12.5-23.5.498-2.982.665-5.982.5-9z" fill="#fdfefe"/><path d="m623.5 508.5c-11 0-22 0-33 0 .331 22.173-.003 44.173-1 66 0-22.333 0-44.667 0-67 11.512-.328 22.846.005 34 1z" fill="#bed8e7"/><path d="m690.5 508.5c-10 0-20 0-30 0v134c-.999-44.83-1.332-89.83-1-135 10.514-.328 20.847.006 31 1z" fill="#bed8e7"/><path d="m690.5 508.5c18.825 24.303 37.658 48.637 56.5 73 .5-24.331.667-48.664.5-73h33v134c-10.006.166-20.006 0-30-.5-18.712-24.59-37.546-49.09-56.5-73.5-.5 24.664-.667 49.331-.5 74-11 0-22 0-33 0 0-44.667 0-89.333 0-134z" fill="#fefefe"/><path d="m747.5 508.5c11.154-.995 22.488-1.328 34-1 .332 45.17-.001 90.17-1 135 0-44.667 0-89.333 0-134-11 0-22 0-33 0z" fill="#bed8e7"/><path d="m815.5 507.5h34v135c-11.333 0-22.667 0-34 0 0-45 0-90 0-135z" fill="#fefefe"/><path d="m881.5 507.5h115v33c-13.667 0-27.333 0-41 0v102c-11 0-22 0-33 0 0-34 0-68 0-102-13.667 0-27.333 0-41 0 0-11 0-22 0-33z" fill="#fdfefe"/><path d="m1031.5 508.5h82v26c-16.33 0-32.67 0-49 0-.33 8.517.01 16.85 1 25h46v27c-15.33 0-30.67 0-46 0-.99 9.486-1.33 19.152-1 29h51v27c-28 0-56 0-84 0 0-44.667 0-89.333 0-134z" fill="#fefffe"/><path d="m1150.5 507.5c19.34-.167 38.67 0 58 .5 28.17 3.165 46.33 18.332 54.5 45.5 3.88 18.205 3.21 36.205-2 54-4.58 11.898-12.08 21.398-22.5 28.5-5.75 2.806-11.75 4.806-18 6-23.33.5-46.66.667-70 .5 0-45 0-90 0-135z" fill="#fdfefe"/><path d="m1412.5 507.5v1c-26.33 0-52.67 0-79 0v134c-1-44.83-1.33-89.83-1-135z" fill="#bed8e7"/><path d="m1412.5 508.5v26c-15.51-.33-30.84.004-46 1v25h46v27c-15.33 0-30.67 0-46 0v55c-11 0-22 0-33 0 0-44.667 0-89.333 0-134z" fill="#fefffe"/><path d="m1113.5 534.5h1c-16.16.996-32.49 1.33-49 1v23 1c-.99-8.15-1.33-16.483-1-25z" fill="#80b3d2"/><path d="m1412.5 507.5c.99 9.152 1.33 18.485 1 28-15.67 0-31.33 0-47 0 15.16-.996 30.49-1.33 46-1 0-8.667 0-17.333 0-26 0-.333 0-.667 0-1z" fill="#7fb2d1"/><path d="m1184.5 535.5c31.29-4.537 46.96 8.963 47 40.5.35 7.414-.81 14.58-3.5 21.5-4.62 9.265-12.12 14.765-22.5 16.5-6.99.5-13.99.666-21 .5 0-26.333 0-52.667 0-79z" fill="#0366a4"/><path d="m881.5 507.5v33h41v102c-.998-33.496-1.332-67.163-1-101-13.667 0-27.333 0-41 0-.328-11.512.005-22.846 1-34z" fill="#74aacd"/><path d="m996.5 540.5c-13.156.996-26.49 1.329-40 1 .332 33.837-.002 67.504-1 101 0-34 0-68 0-102z" fill="#408cbb"/><path d="m1065.5 559.5c0-.333 0-.667 0-1h47v29c-15.67 0-31.33 0-47 0 0-.333 0-.667 0-1h46c0-9 0-18 0-27-15.33 0-30.67 0-46 0z" fill="#4d93bf"/><path d="m1065.5 586.5v1 27c16.84-.33 33.51.003 50 1-17 0-34 0-51 0-.33-9.848.01-19.514 1-29z" fill="#80b3d2"/><path d="m1113.5 712.5c4.68-.166 9.35.001 14 .5 3.69.294 6.19 2.127 7.5 5.5 1.61 14.265 1.95 28.598 1 43-.83.833-1.67 1.667-2.5 2.5-11.02.168-22.02.668-33 1.5-1.38 9.543-6.71 15.377-16 17.5-5.66.499-11.32.666-17 .5v52c8.01.166 16.01 0 24-.5 5.02-.673 9.69-2.34 14-5 3.67-4.333 7.33-8.667 11-13 2.44-1.303 4.94-2.47 7.5-3.5 5.59 5.447 7.59 12.114 6 20-2.78 4.451-5.95 8.617-9.5 12.5-6.57 3.523-13.57 5.856-21 7-19.64 1.311-39.31 1.811-59 1.5v14c-6.23 1.506-12.57 2.173-19 2-.33-5.706 0-11.372 1-17 22.18-13.316 31.68-32.982 28.5-59-9.73-7.119-15.06-16.785-16-29-.5-10.328-.67-20.661-.5-31h17v22h16c-.17-4.679 0-9.345.5-14 13.27-13.139 28.43-23.139 45.5-30z" fill="#faaf40"/><path d="m852.5 715.5c-115.667 0-231.333 0-347 0v192c0 .667-.333 1-1 1 0-64.667 0-129.333 0-194 116.168-.333 232.168 0 348 1z" fill="#5b9ac3"/><path d="m852.5 715.5c-.332 46.503.001 92.836 1 139-.844 3.599-1.177 7.266-1 11-.33 15.842.004 31.509 1 47-.617 1.729-1.617 3.229-3 4.5-3.73 2.023-7.563 3.856-11.5 5.5-.892 7.118-.392 14.118 1.5 21 3.952.994 7.952 1.66 12 2-.328 10.514.006 20.847 1 31-4.621 2.656-8.954 5.823-13 9.5-4.352 2.677-9.018 4.511-14 5.5-2.748-.539-5.415-1.372-8-2.5-18.756-1.618-37.089-5.284-55-11-25.356-12.031-42.189-31.531-50.5-58.5-5.195-26.467 4.305-45.634 28.5-57.5 5.695-2.757 11.695-4.257 18-4.5-1.128-4.919.372-8.585 4.5-11 .265-19.946-8.902-33.779-27.5-41.5-24.68-8.791-49.68-9.791-75-3-7.326.5-14.659.666-22 .5v6c-4.346-.166-8.679.001-13 .5-9.607 5.942-18.94 12.275-28 19-4.551 1.215-9.218 1.881-14 2-15.996 10.655-30.83 22.821-44.5 36.5-12.469 12.997-23.969 26.663-34.5 41 0-64 0-128 0-192z" fill="#fffefe"/><path d="m852.5 715.5c.667 43.667 1.333 87.333 2 131-.765 2.596-1.099 5.263-1 8-.999-46.164-1.332-92.497-1-139z" fill="#7fb2d1"/><path d="m1203.5 715.5h348v203c-7.31-12.607-15.14-24.94-23.5-37-4.75-5.621-10.58-9.621-17.5-12 .54-1.248 1.21-2.415 2-3.5-2.29-.822-4.62-1.489-7-2-20.8-16.233-42.46-31.233-65-45-50.34-28.515-99.68-27.015-148 4.5-1.82 10.084.01 19.418 5.5 28 8.93 5.216 18.1 10.049 27.5 14.5 6.95 8.743 13.79 17.576 20.5 26.5-.34 8.705-1.34 17.371-3 26-3.3 11.042-6.46 22.042-9.5 33-2.09-2.089-3.93-2.089-5.5 0-2.35 6.866-5.85 13.032-10.5 18.5-4.88 2.607-9.88 4.94-15 7-12.61 3.538-24.95 7.871-37 13-5.33.333-10.67.667-16 1-10.1 3.173-20.43 4.173-31 3-5.79-3.625-10.79-8.125-15-13.5 0-88.333 0-176.667 0-265z" fill="#fefefe"/><path d="m1203.5 715.5c116.17-1 232.5-1.333 349-1v205c-.67 0-1-.333-1-1 0-67.667 0-135.333 0-203-116 0-232 0-348 0z" fill="#5b9ac3"/><path d="m992.5 729.5h20v29c-18.797-2.685-33.297 3.982-43.5 20-3.66 7.313-6.327 14.98-8 23-.785 1.786-1.951 3.286-3.5 4.5-8.498 2.472-17.165 3.972-26 4.5.083-6.925-.584-13.758-2-20.5.395-6.89 1.228-13.723 2.5-20.5 6.74-6.07 12.74-12.737 18-20 10.887-13.526 25.054-20.193 42.5-20z" fill="#faaf40"/><path d="m992.5 729.5c6.813-.991 13.81-1.325 21-1 .33 10.181-.01 20.181-1 30 0-9.667 0-19.333 0-29-6.67 0-13.333 0-20 0z" fill="#b59b5c"/><path d="m1181.5 776.5c-.34.838-1.01 1.172-2 1-6.34-.166-12.68 0-19 .5-1.33.667-2.67 1.333-4 2-5.36 5.892-10.36 12.058-15 18.5-4.13 3.215-8.8 5.382-14 6.5-5.32-.471-10.65-1.304-16-2.5-5.07.401-10.07 1.234-15 2.5-2.95 6.04-6.78 11.54-11.5 16.5-3.03-5.27-4.03-10.937-3-17 6.24-11.371 15.74-18.204 28.5-20.5 7.67-.333 15.33-.667 23-1 5.78-7.785 12.28-14.952 19.5-21.5 7.79 1.994 15.63 3.827 23.5 5.5 1.93 3.076 3.59 6.242 5 9.5z" fill="#f8ae41"/><path d="m994.5 767.5h8v24c-7.333 0-14.667 0-22 0 0-2.667 0-5.333 0-8 12.678 1.98 17.344-3.353 14-16z" fill="#fbaf40"/><path d="m1181.5 776.5c1.38.802 1.22 1.469-.5 2-.76-.07-1.26-.403-1.5-1 .99.172 1.66-.162 2-1z" fill="#878d6f"/><path d="m853.5 865.5c-.333 0-.667 0-1 0-.177-3.734.156-7.401 1-11-.099-2.737.235-5.404 1-8 0-1 0-2 0-3 3.937.293 7.77-.04 11.5-1 4.81-15.048 8.477-30.381 11-46 .883-2.602 2.383-4.769 4.5-6.5 5.855-1.588 11.688-1.755 17.5-.5 4.408 14.814 5.741 29.814 4 45-4.58 6.16-8.914 12.493-13 19-10.598 8.53-22.765 12.53-36.5 12z" fill="#f9af41"/><path d="m853.5 976.5c3.871-1.34 7.871-2.173 12-2.5 19.32-1.799 38.653-3.466 58-5 5.67-2.833 11.003-6.166 16-10 7.038-6.707 14.372-13.04 22-19 9.253-5.809 19.253-8.809 30-9 4.324 4.8 5.657 10.3 4 16.5-18.712 9.561-36.212 20.894-52.5 34-.5 10.328-.666 20.66-.5 31-6.575.2-12.908-.97-19-3.5-7.441-4.39-15.108-8.22-23-11.5-.06-.543-.393-.876-1-1-1 23.66-1.333 47.32-1 71-12.713 2.72-25.38 2.39-38-1-2.358.25-4.692.59-7 1-.333 0-.667 0-1 0-12.062.41-24.062-.09-36-1.5-19.251-8.53-38.584-16.86-58-25-22.337-10.16-43.004-22.82-62-38-18.748-16.998-28.748-38.165-30-63.5-4.938.034-9.604 1.201-14 3.5-6.105 5.194-11.772 10.86-17 17-4.333.333-8.667.667-13 1-21.033 20.035-42.366 39.7-64 59-10.775 9.05-23.109 14.89-37 17.5-1.465-3.89-1.965-7.89-1.5-12 5-8.67 10-17.33 15-26 7.438-7.641 16.271-13.141 26.5-16.5 6.899-5.901 12.732-12.734 17.5-20.5 7.236-15.476 15.236-30.476 24-45 15.617-17.266 35.117-24.599 58.5-22-.636-10.179-2.303-20.179-5-30-29.793 5.978-53.96 20.978-72.5 45-7.245 9.49-14.245 19.156-21 29-5.667 3.667-11.333 7.333-17 11-1.652 4.906-2.985 9.906-4 15-3.54 2.184-7.207 4.184-11 6-.173 4.041-.673 8.041-1.5 12-3 1.333-6 2.667-9 4-.827 3.959-1.327 7.959-1.5 12-4.024 2.35-8.191 4.52-12.5 6.5-.805 1.11-1.472 2.28-2 3.5-4.441 11.08-8.274 22.41-11.5 34-19.572 37.48-39.905 74.48-61 111-15.117 25.79-33.951 48.63-56.5 68.5-6.507 5.09-13.84 8.25-22 9.5-9.676-.56-15.176-5.56-16.5-15-.467-4.84-.967-9.67-1.5-14.5 1.839-8.51 5.673-16.01 11.5-22.5 16.333-15.67 32.667-31.33 49-47 8.248-12.5 14.915-25.83 20-40 7.867-21.94 15.534-43.94 23-66 17.754-42.196 39.587-81.862 65.5-119 .667 0 1-.333 1-1 10.531-14.337 22.031-28.003 34.5-41 13.67-13.679 28.504-25.845 44.5-36.5 4.782-.119 9.449-.785 14-2 9.06-6.725 18.393-13.058 28-19 4.321-.499 8.654-.666 13-.5 0-2 0-4 0-6 7.341.166 14.674 0 22-.5 25.32-6.791 50.32-5.791 75 3 18.598 7.721 27.765 21.554 27.5 41.5-4.128 2.415-5.628 6.081-4.5 11-6.305.243-12.305 1.743-18 4.5-24.195 11.866-33.695 31.033-28.5 57.5 8.311 26.969 25.144 46.469 50.5 58.5 17.911 5.716 36.244 9.382 55 11 2.585 1.128 5.252 1.961 8 2.5 4.982-.989 9.648-2.823 14-5.5 4.046-3.677 8.379-6.844 13-9.5z" fill="#fbb040"/><path d="m1551.5 918.5c0 .667.33 1 1 1 10.59 16.434 21.42 32.767 32.5 49 12.17 19.335 22.5 39.67 31 61 1.54 9.1 3.54 18.1 6 27 1.22 4.15 4.06 6.15 8.5 6 1.17 2.33 2.33 4.67 3.5 7 3.91 12.81 7.74 25.64 11.5 38.5 3.69 10.56 9.53 19.72 17.5 27.5 14.97 12.63 28.97 26.3 42 41 12.02 14.48 16.02 30.81 12 49-3.26 2.38-6.42 4.88-9.5 7.5-1.67.67-3.33.67-5 0-10.36-3.68-20.02-8.68-29-15-8.47-7.47-16.64-15.3-24.5-23.5-16.29-19.97-30.63-41.3-43-64-19.13-35.59-36.63-71.93-52.5-109-.61-.89-.94-1.89-1-3-3.94-11.32-8.94-22.155-15-32.5-2.93-.272-5.43-1.438-7.5-3.5-3.87-10.753-9.54-20.419-17-29-10.36-10.697-21.03-21.03-32-31-15.68-22.347-35.18-40.514-58.5-54.5-7.7-3.248-15.7-4.248-24-3-1.22 1.648-2.05 3.481-2.5 5.5-.67 7.667-.67 15.333 0 23 18.76 1.627 35.26 8.627 49.5 21 .38 1.521.55 3.187.5 5 5.56 2.224 9.89 5.891 13 11 4.14 9.418 8.47 18.752 13 28 13.79 16.79 28.62 32.624 44.5 47.5 2.31.66 4.65 1.16 7 1.5 2.72 5.12 5.22 10.45 7.5 16 .5 2.98.66 5.98.5 9-3.59 1.26-7.25 1.76-11 1.5-1.29-2.29-2.96-4.29-5-6-5.55-2.94-11.21-5.61-17-8-2.27-4.54-5.27-8.54-9-12-8.16-5.58-16.5-10.916-25-16-6.96-10.624-15.62-19.624-26-27-14.79-12.066-31.13-21.566-49-28.5-3.35 28.541-16.02 52.041-38 70.5-23.16 18.08-48.82 31.75-77 41-22.81 8.24-46.14 14.41-70 18.5-2.24-.29-4.24.04-6 1-10.32.97-20.65 1.14-31 .5-3.6-.71-6.44-2.55-8.5-5.5-3.07-7.38-4.57-15.04-4.5-23 1.08-14.34 2.08-28.67 3-43-2.35.338-4.69.838-7 1.5-6.67 3.67-13.33 7.33-20 11-4.51 1.89-9.17 3.06-14 3.5-1.29-10.76-3.13-21.426-5.5-32-16.74-8.546-31.74-19.546-45-33-2.55-3.265-4.72-6.765-6.5-10.5 1.19-1.895 2.19-3.895 3-6 6.33-.667 12.67-.667 19 0 16.96 18.992 37.29 33.326 61 43 17.67.333 35.33.667 53 1 2.87 1.596 5.54 3.43 8 5.5 4.21 5.375 9.21 9.875 15 13.5 10.57 1.173 20.9.173 31-3 5.33-.333 10.67-.667 16-1 12.05-5.129 24.39-9.462 37-13 5.12-2.06 10.12-4.393 15-7 4.65-5.468 8.15-11.634 10.5-18.5 1.57-2.089 3.41-2.089 5.5 0 3.04-10.958 6.2-21.958 9.5-33 1.66-8.629 2.66-17.295 3-26-6.71-8.924-13.55-17.757-20.5-26.5-9.4-4.451-18.57-9.284-27.5-14.5-5.49-8.582-7.32-17.916-5.5-28 48.32-31.515 97.66-33.015 148-4.5 22.54 13.767 44.2 28.767 65 45 2.38.511 4.71 1.178 7 2-.79 1.085-1.46 2.252-2 3.5 6.92 2.379 12.75 6.379 17.5 12 8.36 12.06 16.19 24.393 23.5 37z" fill="#fbb040"/><path d="m1007.5 799.5h25c.17 9.339 0 18.673-.5 28-7.93 7.651-15.76 15.484-23.5 23.5-3.94 2.804-8.28 4.804-13 6-8.66.5-17.327.666-26 .5 0-4.667 0-9.333 0-14-7.333 0-14.667 0-22 0-.01-7.4-.676-14.733-2-22 15.337.167 30.67 0 46-.5 3.534-3.869 7.367-7.369 11.5-10.5 2.56-3.231 4.06-6.898 4.5-11z" fill="#faaf40"/><path d="m925.5 897.5c-9.667 0-19.333 0-29 0 .237-1.291-.096-2.291-1-3-1.076-17.99 2.424-34.99 10.5-51 7.192-11.013 17.359-16.346 30.5-16 .217 9.041-.283 18.041-1.5 27-3.045 14.496-6.211 28.83-9.5 43z" fill="#faaf40"/><path d="m1552.5 1018.5c-.99 10.49-1.33 21.15-1 32-9.2-1.73-18.54-2.39-28-2 .59 9.69 2.75 19.02 6.5 28 6.63 11.11 13.8 21.78 21.5 32v23c-7.79-16.91-16.62-33.24-26.5-49-1.17-1.83-2.67-3.33-4.5-4.5-4.58-1.87-8.75-4.37-12.5-7.5-.17-4.04-.67-8.04-1.5-12-2.88-1.61-5.88-2.94-9-4-.83-4.3-1.33-8.63-1.5-13-9.95-10.29-20.79-19.46-32.5-27.5-6.85-5.51-12.19-12.18-16-20-7.33-.5-14.66-.666-22-.5.55-7.429-.45-14.596-3-21.5-12.52.398-23.86 4.398-34 12-9.17 6.5-17 14.333-23.5 23.5-1.69 3.14-2.86 6.48-3.5 10-1.67-1.39-3.34-1.72-5-1-1.53 3.16-2.19 6.49-2 10-3.73-.32-7.39.01-11 1 1.05 1.96 1.55 3.96 1.5 6-.67-.67-1.33-1.33-2-2-9.06 6.05-17.22 13.22-24.5 21.5-1.67 1-3.33 2-5 3-3.75-.19-7.42-1.02-11-2.5-9.9 2.8-19.57 6.3-29 10.5-8 .33-16 .67-24 1-8.51 7.51-17.85 13.84-28 19-2.93.95-5.93 1.45-9 1.5-.38 6.48-1.54 12.81-3.5 19-.75 3.18-2.25 5.85-4.5 8 0-15.33 0-30.67 0-46 23.86-4.09 47.19-10.26 70-18.5 28.18-9.25 53.84-22.92 77-41 21.98-18.459 34.65-41.959 38-70.5 17.87 6.934 34.21 16.434 49 28.5 10.38 7.376 19.04 16.376 26 27 8.5 5.084 16.84 10.42 25 16 3.73 3.46 6.73 7.46 9 12 5.79 2.39 11.45 5.06 17 8 2.04 1.71 3.71 3.71 5 6 3.75.26 7.41-.24 11-1.5.16-3.02 0-6.02-.5-9-2.28-5.55-4.78-10.88-7.5-16-2.35-.34-4.69-.84-7-1.5-15.88-14.876-30.71-30.71-44.5-47.5-4.53-9.248-8.86-18.582-13-28-3.11-5.109-7.44-8.776-13-11 .05-1.813-.12-3.479-.5-5-14.24-12.373-30.74-19.373-49.5-21-.67-7.667-.67-15.333 0-23 .45-2.019 1.28-3.852 2.5-5.5 8.3-1.248 16.3-.248 24 3 23.32 13.986 42.82 32.153 58.5 54.5 10.97 9.97 21.64 20.303 32 31 7.46 8.581 13.13 18.247 17 29 2.07 2.062 4.57 3.228 7.5 3.5 6.06 10.345 11.06 21.18 15 32.5z" fill="#fffefc"/><path d="m852.5 865.5h1c-.329 14.177.004 28.177 1 42-.129 1.716-.462 3.383-1 5-.996-15.491-1.33-31.158-1-47z" fill="#7fb0cc"/><path d="m1048.5 868.5c3.02-.165 6.02.002 9 .5 4.66 8.539 6.16 17.706 4.5 27.5-2.64 3.572-4.3 7.572-5 12-6.69 4.429-13.86 7.929-21.5 10.5-11.96 1.276-23.96 1.776-36 1.5-.262-1.478.071-2.811 1-4 4.03-1.863 6.86-4.863 8.5-9 1.38-6.576 1.88-13.243 1.5-20h30c-.3-7.725 2.37-14.059 8-19z" fill="#f8ae41"/><path d="m955.5 876.5c12.758-.486 25.425.18 38 2-1.787 13.74-7.454 25.573-17 35.5-2.882 1.608-5.882 2.941-9 4-6 .333-12 .667-18 1-3.67 4.17-7.67 8.003-12 11.5-1.166-9.983-1.332-19.983-.5-30 7.386-7.128 13.553-15.128 18.5-24z" fill="#f9af41"/><path d="m852.5 945.5c-4.048-.34-8.048-1.006-12-2-1.892-6.882-2.392-13.882-1.5-21 3.937-1.644 7.77-3.477 11.5-5.5 1.383-1.271 2.383-2.771 3-4.5.538-1.617.871-3.284 1-5 1.598-6.549 2.598-13.215 3-20h27c-.678 13.672-1.511 27.339-2.5 41-5.167 4.5-10.333 9-15.5 13.5-4.285 2.706-8.952 3.873-14 3.5z" fill="#fbaf41"/><path d="m1097.5 892.5c13.34-.751 26.01 1.749 38 7.5-7.2 3.559-14.87 5.559-23 6-2.95.806-5.61 2.139-8 4-3.82 5.807-6.99 11.973-9.5 18.5-1 2.333-2.67 4-5 5-4.93-4.935-10.43-9.101-16.5-12.5-2.06-1.719-3.72-3.719-5-6 5.97-3.989 11.97-7.989 18-12 4.17-3.002 7.83-6.502 11-10.5z" fill="#f9af41"/><path d="m895.5 894.5c.904.709 1.237 1.709 1 3h29c-9.819.994-19.819 1.327-30 1 0-1.333 0-2.667 0-4z" fill="#bc9d59"/><path d="m895.5 917.5c8.333.667 16.667 1.333 25 2 .166 6.675 0 13.342-.5 20-3.637 7.11-8.137 13.61-13.5 19.5-3.448 1.927-7.115 3.261-11 4-7.841 2.125-15.841 3.292-24 3.5 0-6.333 0-12.667 0-19 5.375.328 10.708-.005 16-1 1.167-2.333 2.333-4.667 3.5-7 1.017-7.533 2.517-14.866 4.5-22z" fill="#faaf41"/><path d="m1026.5 960.5c6.26 4.758 12.1 10.091 17.5 16 5.09 7.18 10.42 14.18 16 21 7.78 8.81 17.28 14.97 28.5 18.5 15.2 1.78 30.2 4.44 45 8 4.11 6.61 5.61 13.78 4.5 21.5-6.74 3.06-13.57 5.89-20.5 8.5-3.81 1.77-7.81 2.6-12 2.5-12.71-1.51-25.38-3.34-38-5.5-14.15-16.32-28.48-32.48-43-48.5-5.32 14.81-13.65 27.65-25 38.5-3.333 2-6.667 4-10 6-9.403 2.2-18.736 4.54-28 7-14.185 1.36-27.851-.64-41-6-3.639-5.38-4.972-11.22-4-17.5 1.816-1.31 3.483-2.81 5-4.5 8.241-2.95 16.574-5.62 25-8 9.667-.33 19.333-.67 29-1 1.833-2.5 3.667-5 5.5-7.5 12.333-12 24.67-24 37-36 3.35-4.049 6.19-8.382 8.5-13z" fill="#faaf40"/><path d="m1551.5 1131.5c7.08 15.16 13.91 30.5 20.5 46 3.03 8.78 4.03 17.78 3 27-4.46 10.16-12.29 15.83-23.5 17-5.99 1.2-11.99 1.2-18 0-6.57-9.08-14.07-17.41-22.5-25-1-1.67-2-3.33-3-5-.33-13-.67-26-1-39-1.7-.91-3.53-1.24-5.5-1 0-9 0-18 0-27-2.58.42-4.75-.25-6.5-2-1.4-10.43-3.07-20.76-5-31-3.42-1.47-6.75-3.14-10-5-.5-3.65-.67-7.32-.5-11-2.03.16-4.03 0-6-.5-4.83-6.83-9.67-13.67-14.5-20.5-2.04-.92-4.21-1.26-6.5-1 .17-3.68 0-7.35-.5-11-3.75-3.13-7.92-5.63-12.5-7.5-1.5-1.5-3-3-4.5-4.5-2.64-7.23-4.97-14.56-7-22-1.59-3.76-4.09-6.76-7.5-9-4.07 6.29-8.73 12.12-14 17.5-11.15 8.41-22.82 16.08-35 23-5.7 3.37-9.54 8.2-11.5 14.5-1.08 4.97-1.91 9.97-2.5 15-8.32-.85-16.65-1.02-25-.5-2.93 1.27-5.6 2.94-8 5-7.04 8.7-15.04 16.37-24 23-16.7 1.98-33.36 4.15-50 6.5-7.14 13.45-14.14 26.95-21 40.5-12.99 2.85-21.32-1.98-25-14.5 0-5.67 0-11.33 0-17 2.25-2.15 3.75-4.82 4.5-8 1.96-6.19 3.12-12.52 3.5-19 3.07-.05 6.07-.55 9-1.5 10.15-5.16 19.49-11.49 28-19 8-.33 16-.67 24-1 9.43-4.2 19.1-7.7 29-10.5 3.58 1.48 7.25 2.31 11 2.5 1.67-1 3.33-2 5-3 7.28-8.28 15.44-15.45 24.5-21.5l2 2c.05-2.04-.45-4.04-1.5-6 3.61-.99 7.27-1.32 11-1-.19-3.51.47-6.84 2-10 1.66-.72 3.33-.39 5 1 .64-3.52 1.81-6.86 3.5-10 6.5-9.167 14.33-17 23.5-23.5 10.14-7.602 21.48-11.602 34-12 2.55 6.904 3.55 14.071 3 21.5 7.34-.166 14.67 0 22 .5 3.81 7.82 9.15 14.49 16 20 11.71 8.04 22.55 17.21 32.5 27.5.17 4.37.67 8.7 1.5 13 3.12 1.06 6.12 2.39 9 4 .83 3.96 1.33 7.96 1.5 12 3.75 3.13 7.92 5.63 12.5 7.5 1.83 1.17 3.33 2.67 4.5 4.5 9.88 15.76 18.71 32.09 26.5 49z" fill="#fbb041"/><path d="m635.5 971.5c15.692 2.854 28.525 10.521 38.5 23 7.284 10.28 14.95 20.28 23 30 11.339 12.43 25.173 20.93 41.5 25.5 19.392 5.46 38.726 11.13 58 17 15.859 4.88 29.359 13.38 40.5 25.5 9.134 12.86 13.134 27.2 12 43-6.774 6.92-14.94 9.42-24.5 7.5-6.431-11.79-10.765-24.29-13-37.5-20.077-2.95-40.077-6.28-60-10 0-2 0-4 0-6-3.018.16-6.018 0-9-.5-5.77-4.26-9.77-9.76-12-16.5-1.836-1.42-3.836-2.59-6-3.5-8.302-1.05-16.635-1.55-25-1.5.166-6.34 0-12.68-.5-19-16.536-7.88-32.036-17.38-46.5-28.5-14.474-12.12-21.474-27.615-21-46.5 1.88.271 3.213-.396 4-2z" fill="#fcb041"/><path d="m505.5 1222.5c-4.009-.36-8.009-.86-12-1.5-5.167-1.17-8.333-4.33-9.5-9.5-.667-11-.667-22 0-33 3.053-3.39 5.72-7.05 8-11 5.116-12.48 9.616-25.14 13.5-38 1.495-3.15 3.162-6.32 5-9.5 2.067-.54 3.901-.04 5.5 1.5 16.679-34.04 37.346-65.38 62-94 10.883-10.52 22.049-20.68 33.5-30.5 4.041-.827 8.041-.66 12 .5 1.919 6.2 2.419 12.53 1.5 19-2.826 2.98-5.159 6.32-7 10-2.078 7.23-4.744 14.23-8 21-6.652 4.99-12.319 10.99-17 18-11.168 17-21.835 34.33-32 52-.378 4.8-1.378 9.47-3 14-8.755 20.26-15.088 41.26-19 63-4.634 17.13-15.801 26.47-33.5 28z" fill="#fbb041"/><path d="m900.5 997.5c-.667 23.33-1.333 46.67-2 70-.333-23.68 0-47.34 1-71 .607.124.94.457 1 1z" fill="#40798a"/><path d="m1552.5 1018.5c.06 1.11.39 2.11 1 3-.99 9.49-1.33 19.15-1 29-.33 0-.67 0-1 0-.33-10.85.01-21.51 1-32z" fill="#448cb8"/><path d="m1400.5 1031.5c7.4 2.53 14.06 6.37 20 11.5 21.32 22.32 39.16 47.16 53.5 74.5 10.07 18.15 19.07 36.81 27 56 .99 2.92 1.65 5.92 2 9 .67 10.67 1.33 21.33 2 32 .08 4.69.91 9.19 2.5 13.5-3.68 2.3-7.68 2.96-12 2-7.76-11.33-16.6-21.83-26.5-31.5-1.58 1.36-3.42 2.03-5.5 2-.53-9.07-3.36-17.41-8.5-25-11.92-18.83-23.58-37.83-35-57-10.99-18.31-18.32-37.98-22-59-.91-9.52-.08-18.85 2.5-28z" fill="#fcb041"/><path d="m641.5 1037.5h17c.145 7.44-.688 14.77-2.5 22-4.397 14.86-9.397 29.52-15 44-1.919 6.93-3.586 13.93-5 21-1.085-.79-2.252-1.46-3.5-2-3.125 15.92-8.792 30.92-17 45-3.263 1.76-6.097 4.09-8.5 7-6.252 10.17-12.252 20.5-18 31-5.497 7.86-11.997 14.7-19.5 20.5-4.258 2.31-8.758 3.81-13.5 4.5-1.981-.13-3.647-.8-5-2-1.522-11.29-1.856-22.62-1-34 3.507-5.01 6.507-10.34 9-16 5.027-15.44 10.361-30.78 16-46 18.237-34.49 40.404-66.16 66.5-95z" fill="#fcb041"/><path d="m1020.5 1040.5c13.87 1.35 25.37 7.35 34.5 18 1.92 3.34 3.42 6.84 4.5 10.5-1.39 4.94-2.39 9.94-3 15-10.94 5.82-22.61 8.99-35 9.5-20.57-2.76-28.57-14.43-24-35 9.46-3.8 17.12-9.8 23-18z" fill="#faaf40"/><path d="m505.5 1108.5c-12.658 18.63-23.824 38.3-33.5 59-2.213 8.61-4.213 17.27-6 26-1.002 3.66-2.836 6.83-5.5 9.5-7.597 3.78-15.597 5.78-24 6-10.862-6.06-14.862-15.23-12-27.5 10.884-3.36 20.05-9.36 27.5-18 11.586-15.17 20.586-31.83 27-50 7.049-19.77 14.382-39.43 22-59 .45-2.61 1.95-3.94 4.5-4 9.461-2.63 17.795-.46 25 6.5-1.321 4.44-2.321 8.94-3 13.5-2.222-.32-4.056.34-5.5 2-4.707 12.41-10.207 24.41-16.5 36z" fill="#f9af41"/><path d="m1551.5 1050.5h1c5.16 11.32 10.66 22.66 16.5 34 8.51 13.67 16.51 27.67 24 42 2.03 10.51 4.7 20.84 8 31 2.8 3.8 5.96 7.3 9.5 10.5 10.81 5.64 19.14 13.81 25 24.5-13.06 5.98-26.73 8.15-41 6.5-1.12-.25-2.12-.75-3-1.5-9.45-28.19-20.95-55.52-34.5-82-1.7-2.52-3.53-4.85-5.5-7-7.7-10.22-14.87-20.89-21.5-32-3.75-8.98-5.91-18.31-6.5-28 9.46-.39 18.8.27 28 2z" fill="#faaf41"/><path d="m672.5 1059.5c4.701.46 9.368 1.12 14 2 2.471 8.24 5.638 16.24 9.5 24 1.352 5.42 2.185 10.92 2.5 16.5-1.527 9.97-3.694 19.8-6.5 29.5-.498 2.98-.665 5.98-.5 9-1.43.08-2.764-.25-4-1-2.141 12.97-7.641 24.3-16.5 34-9.078 17.83-19.411 34.83-31 51-14.846 18.34-34.012 26.01-57.5 23-.164-2.69.003-5.35.5-8 1.085.79 2.252 1.46 3.5 2 4.832-12.5 10.832-24.33 18-35.5 3.048-.61 5.548-2.11 7.5-4.5 4.923-9.51 9.59-19.18 14-29l27-42c6.737-13.18 10.237-27.18 10.5-42 .994-9.49 1.327-19.15 1-29z" fill="#fcb041"/><path d="m1376.5 1059.5h13c-.88 35.16 7.62 67.83 25.5 98 9.33 14.67 18.67 29.33 28 44 6.94 10.21 14.61 19.88 23 29 4.22 6.11 7.05 12.77 8.5 20-5.6-1.65-11.26-3.15-17-4.5-8.44-.05-16.77-.88-25-2.5-13.64-18.81-27.47-37.47-41.5-56-9.94-14.21-18.61-29.21-26-45-9.1-22.45-9.77-45.12-2-68 2.69-6.79 7.19-11.79 13.5-15z" fill="#fcb041"/><path d="m672.5 1059.5c-2.667 0-5.333 0-8 0 .327 9.85-.006 19.51-1 29 0-10 0-20 0-30 3.213-.31 6.213.02 9 1z" fill="#fee2ba"/><path d="m852.5 1067.5h1c-.332 40.17.001 80.17 1 120-.342.84-1.008 1.17-2 1 0-40.33 0-80.67 0-121z" fill="#80b2d1"/><path d="m982.5 1070.5c1.068-.93 2.401-1.27 4-1 .295 2.24-.039 4.24-1 6 0-1.67 0-3.33 0-5-1 0-2 0-3 0z" fill="#5f807f"/><path d="m982.5 1070.5h3v5c-.356 3.06.477 5.73 2.5 8 4.39 2.94 8.223 6.44 11.5 10.5-2 .33-4 .67-6 1-12.119 8.03-25.453 11.7-40 11-8.663-8.16-15.997-17.32-22-27.5 16.916-3.18 33.916-5.85 51-8z" fill="#f9af41"/><path d="m1070.5 1069.5c15.89-.03 31.22 2.81 46 8.5 2.35 1.01 4.01 2.68 5 5-8.59 6.1-15.25 13.93-20 23.5-12.69-.75-25.02-3.59-37-8.5-3.66-1.5-7-3.5-10-6 4.57-2.2 8.73-5.04 12.5-8.5 1.99-4.46 3.16-9.13 3.5-14z" fill="#f8ae41"/><path d="m893.5 1118.5c-5.333 0-10.667 0-16 0 0-7 0-14 0-21 .521-6.35 1.187-12.69 2-19 11.353-.33 22.686 0 34 1 4.755 7.18 9.755 14.18 15 21-2.075 5.22-3.742 10.56-5 16-9.945 1.41-19.945 2.08-30 2z" fill="#faaf40"/><path d="m1148.5 1078.5h28v41c-10.34-.35-20.67-.85-31-1.5-4.53-.05-8.87-.88-13-2.5-3.49-6.59-4.99-13.59-4.5-21 7.88-4.05 14.71-9.39 20.5-16z" fill="#faaf40"/><path d="m1307.5 1102.5c9.35-1.23 17.85.77 25.5 6 1.61 2.88 2.94 5.88 4 9 .67 11.03 3.67 21.36 9 31 8.55 12.6 16.71 25.43 24.5 38.5-1.29 2.05-1.79 4.22-1.5 6.5 15.13 16.25 27.79 34.25 38 54 1.08 2.56 1.58 5.23 1.5 8-3.82-.57-7.49-1.74-11-3.5-9.78-.61-19.44-1.94-29-4-5.41-2.42-9.91-5.92-13.5-10.5-8.75-17.4-19.09-33.73-31-49-12.63-18.56-20.97-38.89-25-61-.73-7.37-.56-14.7.5-22 3.04-.23 5.71-1.23 8-3z" fill="#fcb041"/><path d="m726.5 1105.5c8.34-.17 16.673 0 25 .5 4.611 9.67 6.111 19.84 4.5 30.5-3.451 3.46-6.118 7.46-8 12-10.357 28.72-24.357 55.39-42 80-14.618 16.82-33.118 24.82-55.5 24-.162-2.03.005-4.03.5-6 9.667-7 18-15.33 25-25 16.98-23.29 30.314-48.62 40-76 1.24-8.35 2.574-16.68 4-25 1.648-5.29 3.815-10.29 6.5-15z" fill="#fcb041"/><path d="m1012.5 1105.5h4c-.55 5.95 2.11 9.45 8 10.5 3.65.5 7.32.67 11 .5-.37-7.63 3.3-11.3 11-11 10.44 5.77 21.11 11.27 32 16.5-8.21 11.48-12.55 24.31-13 38.5-15.01.46-30.01 1.13-45 2-11.53-.01-22.865-1.51-34-4.5-.592-6.89-1.758-13.72-3.5-20.5-2.608-6.33-5.108-12.66-7.5-19 4.187.11 8.187-.73 12-2.5 8.217-4.12 16.55-7.62 25-10.5z" fill="#faaf40"/><path d="m877.5 1097.5v21h16c-5.475.99-11.142 1.32-17 1-.325-7.52.008-14.85 1-22z" fill="#a59664"/><path d="m974.5 1176.5c-1.302 1.53-2.969 2.53-5 3-8.27 5.04-17.27 8.2-27 9.5-15.649 1.32-31.315 1.66-47 1-1.201-.9-2.035-2.07-2.5-3.5-2.791-11.92-6.458-23.59-11-35-1.157-4.28-1.99-8.62-2.5-13 9.755.21 19.422-.63 29-2.5 16.31-4.99 32.643-9.83 49-14.5.586.21 1.086.54 1.5 1 3.184 13.7 7.517 27.04 13 40 1.363 4.58 2.197 9.25 2.5 14z" fill="#faaf40"/><path d="m1094.5 1124.5c5.71-.03 11.38.47 17 1.5 13.23 3.74 26.56 7.08 40 10 8.3 1.12 16.63 1.62 25 1.5-.05 3.07-.55 6.07-1.5 9-5.65 14.28-10.48 28.78-14.5 43.5-21.96 1.82-43.62.16-65-5-4.45-1.39-8.45-3.56-12-6.5-1.78-4.53-2.28-9.19-1.5-14 6.67-12.52 10.84-25.85 12.5-40z" fill="#faaf40"/><path d="m1198.5 1067.5c1.76-.96 3.76-1.29 6-1v46 17c.33 19.17 0 38.17-1 57 0-39.67 0-79.33 0-119-1.67 0-3.33 0-5 0z" fill="#bdd4df"/><path d="m788.5 1130.5h6c.545 11.4-1.288 22.4-5.5 33-9.266 17.59-18.932 34.92-29 52-5.047 12.86-7.88 26.19-8.5 40-1.726-.31-3.393-.48-5-.5-1.782 10.54-7.782 17.54-18 21-9.344 3.45-19.011 4.95-29 4.5-.16-1.7.006-3.37.5-5 3.194-5.05 5.861-10.39 8-16 4.324-17.65 10.991-34.31 20-50 18.083-27.92 38.25-54.25 60.5-79z" fill="#fcb041"/><path d="m1258.5 1129.5c4.05-.32 8.05.01 12 1 19.66 25.98 38.82 52.31 57.5 79 11.03 17.07 19.36 35.41 25 55 1.09 5.28 1.59 10.61 1.5 16-8.37.33-16.37-1.17-24-4.5-5.83-4.5-11-9.67-15.5-15.5-1.33-3.33-2.67-6.67-4-10-.85-12.55-4.52-24.21-11-35-6.84-10.36-14.18-20.36-22-30-12.77-16.47-19.27-35.13-19.5-56z" fill="#fcb042"/><path d="m1233.5 1157.5c2.1.91 4.1 2.08 6 3.5 3.67 4.33 7.33 8.67 11 13 1.32-.15 2.49.02 3.5.5 6.8 16.75 13.8 33.41 21 50 1.8 3.43 3.96 6.59 6.5 9.5 1.61.72 3.11.55 4.5-.5 5.69 8.23 7.52 17.23 5.5 27-6.47-.16-12.81-1.16-19-3 .54-1.25 1.21-2.41 2-3.5-8.7-1.04-14.87-5.54-18.5-13.5-5.41-11.82-11.08-23.49-17-35-7-5-14-10-21-15-.17-3.33-.33-6.67-.5-10 .11-3.98.78-7.81 2-11.5-.24-.87-.57-1.71-1-2.5 4.6-3.79 9.6-6.79 15-9z" fill="#fcb042"/><path d="m813.5 1160.5c6.922-.31 13.756.02 20.5 1 3.61 9.42 4.776 19.08 3.5 29-6.599 3.76-12.099 8.76-16.5 15-7 11.33-14 22.67-21 34-9.182 13.67-22.016 20.67-38.5 21-.842-3-1.342-6-1.5-9 6.158-7.65 11.825-15.65 17-24 11.685-22.71 23.852-45.05 36.5-67z" fill="#fcb041"/><path d="m974.5 1176.5c.904.71 1.237 1.71 1 3-2 0-4 0-6 0 2.031-.47 3.698-1.47 5-3z" fill="#ac9860"/><path d="m1067.5 1179.5c-26.84-.33-53.51 0-80 1-.789-.28-1.456-.78-2-1.5 27.5-.83 54.84-.66 82 .5z" fill="#7d8a72"/><path d="m987.5 1180.5c26.49-1 53.16-1.33 80-1-.76 3.29-2.6 5.95-5.5 8-5.02 7.56-7.52 15.9-7.5 25-.99 5.81-1.32 11.81-1 18-17 0-34 0-51 0 .27-16.8-2.728-32.97-9-48.5-2.086-.32-4.086-.82-6-1.5z" fill="#fbaf40"/><path d="m852.5 1208.5c-3.832 4.32-6.665 9.32-8.5 15-1.707 10.6-2.874 21.26-3.5 32-14.835 5.35-27.668 13.68-38.5 25-1.586 2.17-2.92 4.5-4 7-.333 13.67-.667 27.33-1 41-7.742 15.46-20.242 23.79-37.5 25 .019-16.08 1.186-32.08 3.5-48 .483-3.97 1.816-7.63 4-11 8.42-9.42 14.754-20.09 19-32 5.07.11 9.237-1.73 12.5-5.5 4.865-1.95 9.365-4.45 13.5-7.5 2.527-3.72 4.527-7.72 6-12 1.135-7.41 3.468-14.41 7-21 8.672-9.84 17.839-19.17 27.5-28 .992.17 1.658-.16 2-1 4.222-5.54 9.889-7.54 17-6 .166 4.68-.001 9.35-.5 14-7.338 2.75-13.505 7.08-18.5 13z" fill="#fbb041"/><path d="m1203.5 1186.5c5.83 2.17 11 5.51 15.5 10 .86 6.78 2.19 13.44 4 20 3.38 2.52 7.04 4.52 11 6 .33 4 .67 8 1 12 5.12 7.45 10.62 14.62 16.5 21.5 6.78 2.81 13.45 5.81 20 9 3.4 3.97 5.9 8.47 7.5 13.5l3.5 3.5c3.19-1.25 6.53-2.58 10-4 11.45-.97 22.12 1.53 32 7.5 1.5-1.25 3.17-2.25 5-3 4.15 3.65 8.15 7.48 12 11.5 1.61.72 3.11.55 4.5-.5 13.05 10.43 20.05 24.1 21 41 .33 17 .67 34 1 51 .89 12.9 4.56 24.9 11 36 7.73 9.14 14.73 18.8 21 29 1.88 3.81 3.05 7.81 3.5 12-7.66-1.49-14.66-4.66-21-9.5-13.48-13.11-23.31-28.61-29.5-46.5-7.34-20.68-14.67-41.34-22-62-6.64-18.46-17.14-34.3-31.5-47.5-4.8-3.48-9.96-6.32-15.5-8.5-.67 1.67-.67 3.33 0 5 4.29 5.25 6.96 11.25 8 18 2.16 13.91 3 27.91 2.5 42-5.71.33-11.37 0-17-1-6.69-11.38-12.86-23.05-18.5-35-1.83-11.62-3.33-23.29-4.5-35-1.67-1.33-3.33-2.67-5-4-2.81-3.98-5.81-7.81-9-11.5-15.33.36-24.5-7.14-27.5-22.5-.33-9-.67-18-1-27-2.71-2.22-5.55-4.22-8.5-6-5-5.16-9.83-10.5-14.5-16-3.52-4.04-5.69-8.7-6.5-14 4.68-.17 9.35 0 14 .5 1.71 2.52 4.04 4.02 7 4.5z" fill="#fbb041"/><path d="m1075.5 1231.5c-2.11-.97-4.44-1.3-7-1 0-2.33 0-4.67 0-7-.31-10.11 1.53-19.77 5.5-29 1.39-1.73 3.06-3.06 5-4 9.28 5.86 19.45 9.03 30.5 9.5 14.33.5 28.66.67 43 .5-.61 11.04-1.61 22.04-3 33-24.67-.71-49.33-1.38-74-2z" fill="#f9af41"/><path d="m972.5 1192.5c5.802-1.49 9.636.51 11.5 6 2.229 11.55 3.063 23.21 2.5 35-26.667 0-53.333 0-80 0-2.639-11.51-4.306-23.17-5-35 10.64 1.46 21.307 2.79 32 4 13.45-2.16 26.45-5.49 39-10z" fill="#faaf41"/><g fill="#faaf40"><path d="m413.5 1209.5c3.726-.32 7.393.01 11 1 2.808 4.28 4.474 8.94 5 14-5.974 5.28-10.474 11.61-13.5 19-8.132 25.4-16.465 50.73-25 76-7.583 25.49-12.583 51.49-15 78-8.071 102.48 1.929 203.15 30 302 3.868 10.6 7.534 21.27 11 32 3.931 20.92 8.931 41.59 15 62 3.164 11.36 9.497 20.36 19 27 3.049-2.46 6.549-3.96 10.5-4.5 5.623-1.03 11.29-1.53 17-1.5.659 9.13 2.159 18.13 4.5 27 .83 6.03.664 12.03-.5 18-6.49 4.15-11.49 9.65-15 16.5-8.607 3.66-17.607 5.16-27 4.5-.896-4.62-1.896-9.28-3-14-3 0-6 0-9 0-2.233-17.87-7.4-34.87-15.5-51-.333-8-.667-16-1-24-3.61-8.22-6.943-16.55-10-25-11.271-36.48-22.938-72.81-35-109-.168-10.04-.835-20.04-2-30-8.082-22.74-13.749-46.08-17-70-2.447-19.6-4.114-39.26-5-59-.667-43-.667-86 0-129 1.191-35.88 7.191-70.88 18-105 6.198-18.26 16.698-33.42 31.5-45.5 6.701-4.06 13.701-7.22 21-9.5z"/><path d="m1631.5 1209.5c10.95.4 21.62 2.4 32 6 2.44 3.94 5.44 7.44 9 10.5 10.57 6.28 17.4 15.44 20.5 27.5 5.28 15.49 9.94 31.16 14 47 1.37 6.95 2.37 13.95 3 21-.32 23.33-.32 46.66 0 70 4.38 27.48 5.71 55.15 4 83-2.35 24.81-5.68 49.47-10 74-.33 13.67-.67 27.33-1 41-13.42 56.34-28.08 112.34-44 168-3.78 26.57-8.78 52.9-15 79-3.84 17.54-13 31.38-27.5 41.5-5.22 2.51-10.72 4.01-16.5 4.5-2.89.24-5.39-.59-7.5-2.5-6.17-4.83-11.67-10.33-16.5-16.5-4.75-9.46-6.75-19.46-6-30 3.59-5.44 5.42-11.44 5.5-18 6.64-4.83 13.98-6.49 22-5 1.99 5.46 5.66 8.12 11 8 9.81-26.27 20.31-52.27 31.5-78-.07-5.66-.07-11.33 0-17 9.68-28.71 18.35-57.71 26-87 .67-4.67 1.33-9.33 2-14 .57-17.34 1.24-34.67 2-52 10.1-54.86 14.1-110.19 12-166-5.72-35.26-12.72-70.26-21-105-6.51-19.69-15.18-38.36-26-56-4.87-10.16-7.21-20.83-7-32 1.3-.58 2.47-1.25 3.5-2z"/><path d="m1652.5 1633.5c-2.89.9-5.89 1.24-9 1-3.3-11.74-5.14-23.74-5.5-36-.09-41.02.58-82.02 2-123-2.27-5.14-3.94-10.47-5-16-.72-15.36-1.72-30.7-3-46-9.13-28.25-20.46-55.59-34-82-.33-4.67-.67-9.33-1-14-13.48-16.46-21.65-35.3-24.5-56.5 1.75-4.08 4.75-7.08 9-9l12.5-12.5c.5-7.33.67-14.66.5-22h9c1.86 6.41 4.03 12.74 6.5 19 11.53 22.39 22.53 45.06 33 68 14.18 46.58 21.85 94.25 23 143 2.82 62.57-1.68 124.57-13.5 186z"/><path d="m458.5 1217.5c.368 7.75 1.868 15.41 4.5 23 5.65 5.99 10.983 12.32 16 19 .989 2.96 1.822 5.96 2.5 9-.056 1.24-.556 2.24-1.5 3-.333 6-.667 12-1 18-.667 1.33-1.333 2.67-2 4-4.699 5.03-9.699 9.7-15 14-.975 7.93-2.975 15.59-6 23-10.341 23.7-20.675 47.37-31 71-7.773 25.41-12.106 51.41-13 78-.506 51.67-.34 103.34.5 155-2.667 0-5.333 0-8 0-10.339-64.92-14.506-130.26-12.5-196 1.312-35.2 6.312-69.87 15-104 9.996-26.99 18.996-54.32 27-82 3.553-8.77 7.886-17.11 13-25 3.812-3.47 7.645-6.8 11.5-10z"/></g><path d="m1068.5 1223.5v7c2.56-.3 4.89.03 7 1-2.67 0-5.33 0-8 0-.31-2.89.03-5.55 1-8z" fill="#a79762"/><path d="m1054.5 1212.5v19c-17.51.33-34.84 0-52-1h51c-.32-6.19.01-12.19 1-18z" fill="#798974"/><path d="m886.5 1239.5c.667 6.33 1.333 12.67 2 19-3.6 33.09 4.233 63.09 23.5 90 8.629 12.28 20.462 19.11 35.5 20.5 10.37.64 20.703 1.64 31 3 17.746 2.58 27.41 12.74 29 30.5-7.34.17-14.674 0-22-.5-6.262-8.27-13.262-15.93-21-23-4.333-.67-8.667-.67-13 0-7.333 2-14.667 4-22 6-3.301 1-6.634 1.33-10 1-7-5.67-14-11.33-21-17-9.391-7.71-16.891-16.88-22.5-27.5-1.911-8.95-3.578-17.95-5-27-.93-2.86-2.597-5.19-5-7-5.003 5.34-7.836 11.67-8.5 19 4.524 13.77 8.357 27.77 11.5 42 1.776 3.44 3.943 6.61 6.5 9.5 5.491 4.25 11.158 8.25 17 12 5.268 3.92 8.934 8.92 11 15-3.509 9.52-8.676 18.02-15.5 25.5-9.902-14.4-21.069-27.73-33.5-40-.333-1-1-1.67-2-2-4.068-5.25-7.568-10.92-10.5-17-2.957-10.45-6.124-20.78-9.5-31-7.286 4.87-15.286 7.54-24 8 1.881-19.92 8.881-37.75 21-53.5 1.451.26 2.784.1 4-.5-1.075-2.94-1.241-5.94-.5-9 8.066-5.23 14.566-11.9 19.5-20 5.1-5.33 10.1-10.83 15-16.5 5.556-4.72 11.889-7.89 19-9.5z" fill="#faaf41"/><path d="m886.5 1239.5c.06-.54.393-.88 1-1 .997 6.63 1.33 13.3 1 20-.667-6.33-1.333-12.67-2-19z" fill="#3f788b"/><path d="m1169.5 1239.5c-1 0-2 0-3 0 .33 12.18 0 24.18-1 36 0-12.33 0-24.67 0-37 1.6-.27 2.93.07 4 1z" fill="#7a8973"/><path d="m1169.5 1239.5c4.97.98 9.64 2.82 14 5.5 7.41 4.58 14.08 10.08 20 16.5 14.56 16.09 26.39 34.09 35.5 54 5.51 11.04 8.34 22.7 8.5 35-8.26-.29-15.93-2.62-23-7-6.76 13.85-13.76 27.51-21 41-5.99 9.29-12.49 18.29-19.5 27-6.22 7.19-13.72 12.52-22.5 16-2.93-8.3-5.77-16.63-8.5-25-.5-2.65-.66-5.31-.5-8 2.69.16 5.35 0 8-.5 7.56-9.89 14.72-20.06 21.5-30.5 9.23-15.03 14.4-31.2 15.5-48.5-3.67-2.17-7.33-4.33-11-6.5-1.61 15.43-6.44 29.76-14.5 43-10.1 12.1-20.93 23.6-32.5 34.5-5.35.33-10.69 0-16-1-11-4.07-22.34-6.07-34-6-7 7.67-14 15.33-21 23-7.66.5-15.33.67-23 .5-.17-4.35 0-8.68.5-13 3.91-2.04 7.75-4.21 11.5-6.5 5.82-6.15 12.48-11.15 20-15 16.82-2.61 33.66-4.78 50.5-6.5 1.08-2.5 2.41-4.83 4-7 7.36-7.03 14.36-14.36 21-22 9.58-17.73 13.75-36.73 12.5-57 1-11.82 1.33-23.82 1-36z" fill="#faaf41"/><path d="m1551.5 1260.5c12.26 19.19 22.43 39.52 30.5 61 33.08 95.99 48.91 194.82 47.5 296.5 2.35 38.02-.82 75.52-9.5 112.5-5.84 24.15-19.51 42.15-41 54-.67-3-.67-6 0-9 1.92-2.84 3.59-5.84 5-9 6.52-18.1 9.02-36.77 7.5-56-4.46-63.26-7.96-126.59-10.5-190-1.42-42.96-10.92-83.96-28.5-123-11.9-22.46-22.73-45.46-32.5-69-9.4-24.51-13.4-49.84-12-76 7.86-4.59 15.86-8.93 24-13 7.77 5.93 14.27 12.93 19.5 21z" fill="#faaf40"/><path d="m504.5 1386.5c-.333 1.33-.667 2.67-1 4-10.158 39.3-20.325 78.63-30.5 118-.628 31.68-1.628 63.35-3 95-4.93 33.15-8.096 66.49-9.5 100 .102 6.03.602 12.03 1.5 18 3.54 14.03 7.206 28.03 11 42 1.288 5.27 2.122 10.61 2.5 16-3.072.32-6.072-.02-9-1-9.324-11.98-18.157-24.31-26.5-37-7.928-15.38-12.595-31.71-14-49-2.425-27.62-3.092-55.28-2-83 1.153-16.91 3.819-33.58 8-50-.114-21.33-.114-42.66 0-64 10.637-42.18 20.637-84.52 30-127 4.666-15.99 9.333-31.99 14-48 6.109-22.88 15.942-43.88 29.5-63 6.647-7.08 14.814-11.41 24.5-13 2.78 2.2 5.447 2.2 8 0 1.914 3.59 4.248 6.92 7 10 4.174 9.23 5.507 18.9 4 29-2.527 3.72-4.527 7.72-6 12-2.555 12.55-5.888 24.89-10 37-5.087 7.84-10.42 15.51-16 23-.499 4.65-.666 9.32-.5 14-2.099-.73-4.099-.73-6 0-2.009 5.7-4.009 11.36-6 17z" fill="#faaf40"/><path d="m1056.5 1244.5c.29 6.76-.04 13.42-1 20-7.83 4.08-15.83 7.91-24 11.5-5.27 1.19-10.6 1.69-16 1.5.32-3.07-.02-6.07-1-9-10.83-4.33-14.834-12.33-12-24z" fill="#faaf40"/><path d="m1056.5 1244.5c.67 3.15 1 6.48 1 10-.01 3.74-.68 7.07-2 10 .96-6.58 1.29-13.24 1-20z" fill="#7c8a73"/><path d="m983.5 1253.5c1.644 5.09 2.644 10.42 3 16 1.468 2.11 1.135 3.94-1 5.5-3.965 1.13-7.965 2.13-12 3-19.676.66-39.343.5-59-.5-1.506-6.23-2.173-12.56-2-19 16.67.17 33.337 0 50-.5 7.173-.86 14.173-2.36 21-4.5z" fill="#f7ae42"/><path d="m983.5 1253.5c.709-.9 1.709-1.24 3-1v17c-.356-5.58-1.356-10.91-3-16z" fill="#7d8a72"/><path d="m1073.5 1253.5c-1.67 0-3.33 0-5 0-.33 7.85.01 15.52 1 23-.06.54-.39.88-1 1-1-8.31-1.33-16.64-1-25 2.24-.29 4.24.04 6 1z" fill="#ba9d5a"/><path d="m1073.5 1253.5c15.25 8.77 31.58 11.27 49 7.5 7.43-1.52 14.77-3.36 22-5.5.17 4.01 0 8.01-.5 12-1.52 2.07-2.36 4.4-2.5 7-12.33-.23-24.67-.57-37-1-11.8-.26-23.47.74-35 3-.99-7.48-1.33-15.15-1-23z" fill="#f9af41"/><path d="m1551.5 1444.5c7.08 38.27 13.91 76.61 20.5 115 .33 18.67.67 37.33 1 56 1.75 6.57 2.91 13.24 3.5 20-4.27 22.47-6.27 45.13-6 68-.67 3.33-1.33 6.67-2 10-1.7.16-3.37-.01-5-.5-3.3-3.89-5.47-8.39-6.5-13.5-.83-16.06-2-32.06-3.5-48-.13-1.72-.46-3.38-1-5-4.44-16.67-8.94-33.34-13.5-50-4.22-13.35-9.22-26.35-15-39-.5-7.99-.67-15.99-.5-24-1.67 0-3.33 0-5 0 0-5.33 0-10.67 0-16-2 0-4 0-6 0 0-5.33 0-10.67 0-16-2 0-4 0-6 0-1.45-11.61-2.61-23.28-3.5-35-.67-3.53-2.84-4.86-6.5-4 .17-7.34 0-14.67-.5-22-10.39-23.12-21.06-46.12-32-69-.33-6-.67-12-1-18-4.04-3.7-7.7-7.7-11-12-1.74-8.3-3.24-16.63-4.5-25-1.92-.81-3.92-1.31-6-1.5-.63-.75-1.13-1.58-1.5-2.5-.21-7.05-.88-14.05-2-21-5.63-7.29-11.63-14.29-18-21-2.97-4.61-4.81-9.61-5.5-15 10.75.1 21.08 2.27 31 6.5 14.06 8.18 29.06 13.68 45 16.5 2.28 8.66 5.44 16.99 9.5 25 6 9.33 12 18.67 18 28 .33 4 .67 8 1 12l10 10c.33 5.67.67 11.33 1 17l9 9c.5 5.99.67 11.99.5 18h6c.74 12.33 1.57 24.67 2.5 37 1.1 3.48 2.27 6.81 3.5 10z" fill="#fbb040"/><path d="m504.5 1622.5c-.734 1.21-1.067 2.54-1 4-1.7 6.53-2.866 13.2-3.5 20-.725 14.66-1.391 29.33-2 44-.891 9.9-2.891 19.56-6 29-1.713-1.38-3.047-3.04-4-5-6.077-24.78-8.91-49.95-8.5-75.5 3.603-34.07 6.103-68.23 7.5-102.5 6.464-23.85 12.297-47.85 17.5-72 .934-1.07 1.268-2.4 1-4 7.724-34.86 18.557-68.86 32.5-102 5.096-22.29 12.763-43.63 23-64 4.278-7.61 10.445-13.11 18.5-16.5 9.605-3.9 19.605-6.23 30-7 5.067-1.03 9.4-3.37 13-7 3.652-.5 7.318-.67 11-.5.163 2.36-.003 4.69-.5 7-8.074 8.47-14.407 18.14-19 29-6.459 17.5-12.459 35.16-18 53-9.615 21.23-20.282 41.9-32 62-1.251 9.26-1.918 18.59-2 28-3.477 7.62-7.477 14.96-12 22-.333 7-.667 14-1 21-15.937 45.31-30.77 90.98-44.5 137z" fill="#fbb040"/><path d="m1378.5 1271.5c13.26 3.71 24.76 10.38 34.5 20 12.75 17.82 24.75 36.15 36 55 4.13 28.11 9.13 56.11 15 84 3.6 12.13 7.6 24.13 12 36 10.89 24.44 21.22 49.1 31 74 5.78 15.13 8.28 30.79 7.5 47 .21 22.2-2.96 43.87-9.5 65-2.04.92-4.21 1.26-6.5 1-1.6-35.06-6.1-69.72-13.5-104-9.45-15.23-20.12-29.56-32-43-8.92-15.51-17.59-31.17-26-47-1.33-.67-2.67-1.33-4-2-.23-4.08-.9-8.08-2-12-8.28-12.57-13.78-26.23-16.5-41-2.51-1.42-4.84-3.09-7-5-5.08-16.99-8.58-34.32-10.5-52-2.05-18.62-3.55-37.29-4.5-56-4.8-1.13-7.46-4.13-8-9 .95-3.85 2.28-7.52 4-11z" fill="#fcb041"/><path d="m666.5 1274.5h12c.452 3.38 1.118 6.71 2 10-6.598 4.19-10.431 10.19-11.5 18-.667 5.67-.667 11.33 0 17 1.726 11.78 2.892 23.61 3.5 35.5-.633 6.7-2.133 13.2-4.5 19.5-17.795 46.93-40.795 90.93-69 132-4.74 14.55-10.074 28.89-16 43-2.055.35-4.055-.32-6-2-3.922 6.84-7.588 13.84-11 21-.333 9-.667 18-1 27-3.336 12.67-6.67 25.34-10 38-1.699.91-3.533 1.24-5.5 1 .16-1.7-.006-3.37-.5-5-7.526-12.3-10.193-25.63-8-40 .503-4.69 1.17-9.36 2-14 5.939-22.98 11.773-45.98 17.5-69 1.669 1.39 3.336 1.72 5 1-1.044-2.27-1.211-4.6-.5-7 3.667-5.67 7.333-11.33 11-17 .333-4.33.667-8.67 1-13 4.448-12.23 9.448-24.23 15-36 .333-7 .667-14 1-21 6.627-22.1 12.293-44.43 17-67 7.541-26.54 23.041-47.04 46.5-61.5 3.537-3.37 6.871-6.87 10-10.5z" fill="#fcb041"/><path d="m752.5 1277.5c6.904.39 12.904 2.89 18 7.5-1.124.25-2.124.75-3 1.5-2.046 4.55-5.046 8.38-9 11.5-6.837 4.25-13.837 8.25-21 12-8.808 7.39-13.642 16.89-14.5 28.5-1.943 12.32-3.776 24.65-5.5 37-1.248-.54-2.415-1.21-3.5-2-1.362 12.06-5.028 23.4-11 34-11.385 20.91-26.218 39.07-44.5 54.5-4.308 2.99-8.975 5.15-14 6.5.424-2.85 1.424-5.52 3-8 6.582-3.81 10.749-9.47 12.5-17 11.302-14.26 20.302-29.93 27-47 .911-6.13 1.411-12.3 1.5-18.5-1.433-17.19-1.266-34.36.5-51.5 9.023-21.69 24.189-37.52 45.5-47.5 6.181-.17 12.181-.67 18-1.5z" fill="#fcb041"/><path d="m915.5 1315.5c0-4.33 0-8.67 0-13 4.202.32 8.202-.02 12-1 9.42-.44 18.754-1.61 28-3.5 11.923-3.48 23.923-6.65 36-9.5v27c-25.333 0-50.667 0-76 0z" fill="#faaf40"/><path d="m1062.5 1288.5c16.04 3.18 32.04 6.68 48 10.5 10.27 1.59 20.61 2.59 31 3 .72 1.99 1.72 3.82 3 5.5-.53 2.11-1.53 3.95-3 5.5-4.43 2.14-9.1 3.48-14 4-20.8.84-41.47-.5-62-4-1.69-8.04-2.69-16.21-3-24.5z" fill="#f9af41"/><path d="m1002.5 1293.5c16.34-.17 32.67 0 49 .5 1.44 4.04 2.44 8.2 3 12.5-17.32 1-34.65 1.33-52 1 0-4.67 0-9.33 0-14z" fill="#fbaf40"/><path d="m927.5 1301.5c-3.798.98-7.798 1.32-12 1v13c-.986-4.47-1.319-9.14-1-14z" fill="#bb9d59"/><path d="m999.5 1319.5c18.16-1 36.49-1.33 55-1 .48 3.81-.52 7.14-3 10-5.86 1.12-11.36 3.12-16.5 6-7.14-.95-14.31-1.79-21.5-2.5-6.78-1.95-11.45-6.12-14-12.5z" fill="#f8af41"/><path d="m1079.5 1362.5c-2.19 1.4-4.53 2.4-7 3-32.34.24-64.68-.09-97-1 1.125-5.44-.875-8.94-6-10.5-8.982-1.7-17.982-3.04-27-4-5.052-.73-10.052-.56-15 .5-1.333 0-2.667 0-4 0 0-6.33 0-12.67 0-19 5.902-1.14 11.902-2.3 18-3.5 16.671-.42 33.337-.26 50 .5v17h71c0-5.33 0-10.67 0-16 22.72-1.08 45.38-.42 68 2v17c-15.34.7-30.67 1.53-46 2.5-2.91 3.31-4.57 7.14-5 11.5z" fill="#f9af41"/><path d="m923.5 1331.5v19h4c-1.419.95-3.085 1.28-5 1-.324-6.85.009-13.52 1-20z" fill="#788974"/><path d="m852.5 1411.5c-.172.99.162 1.66 1 2 3.755 5.26 8.089 10.09 13 14.5 7.055 2.79 13.888 5.96 20.5 9.5.833 18.68.666 37.34-.5 56-5.515 2.92-11.182 5.59-17 8-1.751-11.26-2.918-22.59-3.5-34-3.359-3.86-7.192-7.19-11.5-10 0-.67-.333-1-1-1-11.526-10.03-21.026-21.69-28.5-35-.278-7-2.111-13.5-5.5-19.5-.916-.37-1.75-.87-2.5-1.5-7.281 8.56-16.448 13.89-27.5 16 1.175-14.02 6.008-26.69 14.5-38 6.692-9.36 15.192-16.53 25.5-21.5 1.293-.49 2.627-.66 4-.5.996 20.33 7.33 38.66 19 55z" fill="#fbb041"/><path d="m1203.5 1544.5c0-12.33 0-24.67 0-37 1.13-20.4 4.96-40.4 11.5-60 2.83-6 5.83-11.67 9-17-6.25 6.84-13.08 12.84-20.5 18-6.72 4.22-11.89 9.89-15.5 17-.5 12.66-.67 25.33-.5 38-2.03.16-4.03 0-6-.5-4.57-3.87-9.4-7.37-14.5-10.5-.5-18.33-.67-36.66-.5-55 16.13-4.79 28.46-14.46 37-29 10.21-14.62 15.88-30.95 17-49 4.05-.32 8.05.01 12 1 8.36 9.85 16.52 19.85 24.5 30 4.42 7.42 6.92 15.42 7.5 24-2.03.16-4.03 0-6-.5-7.5-6.58-16.16-10.75-26-12.5.17 3.68 0 7.35-.5 11-1.37 4.78-2.71 9.44-4 14 7.56-8.87 17.06-12.87 28.5-12 4.3 7.47 8.8 14.8 13.5 22 2.15 5.22 2.65 10.56 1.5 16-9.01-2.42-17.51-6.09-25.5-11-2.2 9.14-4.87 18.14-8 27-7.39 16.84-14.39 33.84-21 51-2.15 8.23-3.65 16.56-4.5 25-3 0-6 0-9 0z" fill="#fbb042"/><path d="m1079.5 1362.5v3c-2.33 0-4.67 0-7 0 2.47-.6 4.81-1.6 7-3z" fill="#69817e"/><path d="m504.5 1386.5c.998 24.49 1.331 49.16 1 74 .268 1.6-.066 2.93-1 4 .331-24.84-.002-49.51-1-74 .333-1.33.667-2.67 1-4z" fill="#458bb7"/><path d="m852.5 1388.5c1 .33 1.667 1 2 2-.992 7.48-1.325 15.15-1 23-.838-.34-1.172-1.01-1-2 0-7.67 0-15.33 0-23z" fill="#81b0ca"/><path d="m1099.5 1397.5c6.76 4.94 11.93 11.27 15.5 19 3.66 11.32 7.33 22.66 11 34 9.05 17.76 16.71 36.09 23 55 9.13 31.54 17.8 63.21 26 95 6.48 17.43 12.14 35.1 17 53-.19 14.81.98 29.47 3.5 44-4.38.33-8.72-.01-13-1-6.48-22.3-14.65-43.96-24.5-65-1.87-5.27-3.54-10.61-5-16-.71-1.47-1.88-2.14-3.5-2-.17 7.34 0 14.67.5 22 2.12 3.7 3.45 7.7 4 12 4.71 28.52 5.71 57.19 3 86-1 4.51-2.5 8.84-4.5 13-2.44 1.49-5.11 2.49-8 3-4.57-11.96-7.74-24.3-9.5-37-4.33-31.25-7.99-62.58-11-94-1.69-13.45-4.02-26.78-7-40 2.14-30.32-1.2-59.99-10-89-1.75-1.75-3.92-2.42-6.5-2-.17 16.67 0 33.34.5 50 .67 1.33 1.33 2.67 2 4 1.34 27.07 3.34 54.07 6 81 4.89 25.48 8.56 51.15 11 77 2.31 24.58-.36 48.58-8 72-3.73 9.07-10.4 14.4-20 16-.83-.33-1.67-.67-2.5-1-2.8-10.07-7.13-19.4-13-28-3.61 8.32-6.27 16.82-8 25.5-4.44 1.39-8.78 3.06-13 5-2.84 3.25-4.84 6.92-6 11-10.93 4.5-22.27 5.67-34 3.5-12.77-13.54-21.937-29.21-27.5-47-5.085 7.91-9.418 16.24-13 25-5.631 5.04-12.131 6.71-19.5 5-11.247-31.05-15.081-63.05-11.5-96 5.427-43.75 11.427-87.42 18-131 3.408-24.04 3.241-48.04-.5-72-1 0-2 0-3 0-.429 3.52-1.929 6.52-4.5 9-.333 5.33-.667 10.67-1 16-1.893 3.12-3.226 6.45-4 10-.156 10.01-.156 20.01 0 30-4.274 28.96-8.274 57.96-12 87-.333 15-.667 30-1 45-4.999 21-9.999 42-15 63-3.494 1.88-7.327 2.54-11.5 2 .162-2.03-.005-4.03-.5-6-5.68-10.38-8.18-21.55-7.5-33.5.844-12.24 2.344-24.41 4.5-36.5 3.439-14.53 6.105-29.19 8-44 .793-6.38.626-12.72-.5-19-7.05 23.26-15.884 46.59-26.5 70-2.221 5.49-3.721 11.16-4.5 17-4.667 0-9.333 0-14 0 .542-23.54 4.375-46.54 11.5-69 3.002-8.68 6.002-17.34 9-26 .333-8.33.667-16.67 1-25 12.393-31.84 24.393-63.84 36-96 5.426-19.52 11.426-38.85 18-58 4.051-10.05 10.885-17.55 20.5-22.5 1.973-.5 3.973-.66 6-.5 4.119 8.95 10.786 15.45 20 19.5 25.52 10.92 51.52 12.26 78 4 2.67-1.33 5.33-2.67 8-4 7.56-7.73 15.23-15.23 23-22.5z" fill="#fbaf40"/><path d="m852.5 1492.5c-.284 1.91.049 3.58 1 5 1.452 7.1 2.452 14.26 3 21.5.006 6.8-1.327 13.3-4 19.5-2.365 2.36-5.032 4.36-8 6-.613-9.9-2.446-19.56-5.5-29-6.377-14.42-13.043-28.76-20-43-3.981-8.95-6.481-18.29-7.5-28-8.346.52-16.679 1.19-25 2-.166-4.68.001-9.35.5-14 3.717-4.26 7.55-8.43 11.5-12.5 5.875-3.17 12.208-4.33 19-3.5 14.374 24.08 26.041 49.42 35 76z" fill="#fbb042"/><path d="m1203.5 1507.5c0-19.67 0-39.33 0-59 7.42-5.16 14.25-11.16 20.5-18-3.17 5.33-6.17 11-9 17-6.54 19.6-10.37 39.6-11.5 60z" fill="#f6f6f4"/><path d="m853.5 1456.5c.667 0 1 .33 1 1-.996 13.16-1.329 26.49-1 40-.951-1.42-1.284-3.09-1-5-.328-12.18.005-24.18 1-36z" fill="#7fb0cc"/><path d="m789.5 1468.5c6.368-.33 12.702 0 19 1-2.486 10.75-4.486 21.58-6 32.5.056 6.33 1.056 12.5 3 18.5 9.399-.08 18.733.58 28 2 .502 7.35 1.169 14.68 2 22-13.548 2.57-26.881 6.07-40 10.5-6.667.67-13.333.67-20 0-11.193-4.4-22.527-8.4-34-12-12.373-.53-24.706-.03-37 1.5 4.539-9.7 11.873-16.54 22-20.5 14.622-1.39 29.289-1.89 44-1.5-.739-18.14 2.927-35.31 11-51.5 2.879-.55 5.546-1.38 8-2.5z" fill="#fcb041"/><path d="m1245.5 1468.5c8.36-.33 16.69 0 25 1 6.19 13.09 10.69 26.76 13.5 41 3.28 6.9 8.78 10.73 16.5 11.5 13.63 1.28 27.3 1.78 41 1.5 2.59 6.86 4.92 13.86 7 21-9.73-1.4-19.4-3.23-29-5.5-7.27-1.15-14.27-.32-21 2.5-.81 1.92-1.31 3.92-1.5 6-11.72 6.39-24.22 8.89-37.5 7.5-13.88-4.02-27.88-7.52-42-10.5-.16-3.02 0-6.02.5-9 1.81-3.75 2.98-7.75 3.5-12 .79.43 1.63.76 2.5 1 1.19-1.52 2.69-2.69 4.5-3.5 6.33-.33 12.67-.67 19-1 4.99-10.26 6.82-21.09 5.5-32.5-3.86-5.74-6.36-12.07-7.5-19z" fill="#fcb041"/><path d="m1365.5 1523.5c3.35-.17 6.68 0 10 .5 8.68 2.92 17.01 6.58 25 11 6.97 7.08 9.64 15.58 8 25.5-15.54-4.46-30.87-9.62-46-15.5-2.81-6.2-3.65-12.7-2.5-19.5 1.95-.61 3.78-1.28 5.5-2z" fill="#fcb143"/><path d="m673.5 1525.5h23v22c-6.045-.07-12.045.43-18 1.5-8.878 2.77-17.545 6.11-26 10-2.254 1.15-4.587 1.48-7 1 .481-10.76 4.481-20.09 12-28 5.107-3.06 10.44-5.23 16-6.5z" fill="#fcb042"/><path d="m822.5 1550.5h19v49c-3 0-6 0-9 0 .165-3.35-.002-6.68-.5-10-2.667-8.67-5.333-17.33-8-26-1.075-4.27-1.575-8.6-1.5-13z" fill="#fcb041"/><path d="m1215.5 1550.5c5.36.45 10.7 1.12 16 2 .17 5.01 0 10.01-.5 15-3.05 3.44-5.05 7.44-6 12-.87 6.44-2.2 12.77-4 19-1.2 2.41-2.87 4.41-5 6-.5-18-.67-36-.5-54z" fill="#fcb042"/><path d="m1324.5 1550.5c2.03-.16 4.03 0 6 .5 9.04 14.04 11.71 29.04 8 45-2.67 2-5.33 4-8 6-2.85 1.43-5.85 2.26-9 2.5-.02-5.37-.52-10.71-1.5-16-2-7.32-4-14.65-6-22-2.46-1.82-5.29-2.49-8.5-2 0-3 0-6 0-9 6.57-1.08 12.9-2.75 19-5z" fill="#fcb142"/><path d="m736.5 1552.5c2.424-.31 4.757.03 7 1 2.056 2.95 3.723 6.11 5 9.5-5.561 4.57-10.061 10.07-13.5 16.5-1.876 8.21-2.709 16.55-2.5 25-3.277.28-6.443-.05-9.5-1-7.081-9.91-10.081-20.91-9-33 3.453-5.12 7.286-9.95 11.5-14.5 3.661-1.59 7.328-2.76 11-3.5z" fill="#fcb143"/><path d="m504.5 1622.5c1.166 172.83 1.333 345.83.5 519-.717-.54-1.217-1.21-1.5-2 1.333-171 1.333-342 0-513-.067-1.46.266-2.79 1-4z" fill="#408cba"/><path d="m1652.5 1633.5c-1.01 1.26-2.51 1.93-4.5 2-1.71-.01-3.21-.34-4.5-1 3.11.24 6.11-.1 9-1z" fill="#7a8974"/><path d="m1552.5 1646.5c.54 1.62.87 3.28 1 5-1.33 162.67-1.33 325.33 0 488-.28.79-.78 1.46-1.5 2-.83-165.17-.67-330.17.5-495z" fill="#408cba"/><path d="m1570.5 1703.5c.32 3.73-.01 7.39-1 11-.61-.12-.94-.46-1-1 .67-3.33 1.33-6.67 2-10z" fill="#798974"/></svg>