<?xml version="1.0" encoding="UTF-8"?>
<svg xmlns="http://www.w3.org/2000/svg" viewBox="0 0 665.08 849.89" width="279" height="356">
  <defs>
    <style>
      .cls-1 {
        fill: #000913;
      }

      .cls-2, .cls-3 {
        fill: #fff;
      }

      .cls-2, .cls-4 {
        fill-rule: evenodd;
      }

      .cls-5, .cls-4 {
        fill: #e0c090;
      }

      .cls-6 {
        fill: #1b263a;
      }
    </style>
  </defs>
  <g>
    <g>
      <path class="cls-6" d="M638.19,33.48C572.52,13.45,449.69,0,332.54,0S92.55,13.46,26.84,33.49C10.79,38.43,0,53.02,0,69.82v451.4c0,43.2,15.94,86.73,47.36,129.4,24.32,33.03,58.18,65.86,100.66,97.59,72.1,53.87,147.74,88.97,169.22,98.45,4.86,2.14,10.01,3.22,15.31,3.22s10.46-1.08,15.34-3.23c21.46-9.47,97.09-44.58,169.19-98.44,42.47-31.73,76.34-64.57,100.65-97.59,31.42-42.67,47.35-86.2,47.35-129.4V69.82c0-16.8-10.79-31.4-26.88-36.34ZM649.07,521.22c0,39.71-14.88,80.05-44.23,119.91-23.39,31.76-56.14,63.48-97.35,94.26-70.75,52.86-145,87.32-166.07,96.62-2.83,1.24-5.81,1.87-8.88,1.87s-6.05-.63-8.86-1.87c-21.09-9.31-95.34-43.77-166.09-96.63-41.21-30.79-73.96-62.5-97.35-94.26-29.35-39.86-44.23-80.2-44.23-119.91V69.82c0-9.72,6.23-18.18,15.53-21.03C95.86,29.17,216.82,16,332.54,16s236.68,13.17,300.98,32.78c9.32,2.86,15.56,11.31,15.56,21.04v451.4Z"/>
      <path class="cls-5" d="M633.52,48.78c-64.3-19.61-185.26-32.78-300.98-32.78S95.86,29.17,31.54,48.79c-9.29,2.85-15.54,11.31-15.54,21.03v451.4c0,39.71,14.89,80.05,44.24,119.91,23.39,31.76,56.14,63.48,97.35,94.26,70.75,52.86,145,87.32,166.09,96.63,2.81,1.24,5.79,1.87,8.86,1.87s6.05-.63,8.88-1.87c21.07-9.3,95.33-43.76,166.07-96.62,41.21-30.79,73.96-62.5,97.35-94.26,29.35-39.86,44.23-80.2,44.23-119.91V69.82c0-9.72-6.23-18.18-15.55-21.04ZM637.07,521.22c0,161.62-264.53,283.94-300.5,299.82-2.57,1.13-5.49,1.13-8.06,0-35.97-15.88-300.5-138.2-300.5-299.82,0-107.49,0-392.11,0-451.4,0-4.4,2.86-8.28,7.06-9.56C99.96,40.47,219.66,28,332.54,28s232.58,12.47,297.48,32.26c4.2,1.28,7.06,5.17,7.06,9.56,0,59.28,0,343.9,0,451.4Z"/>
      <path class="cls-3" d="M503.89,48.28c-54.32-6.07-113.58-9.28-171.35-9.28s-117.03,3.21-171.35,9.28c-50.59,5.65-92.58,13.32-122.19,22.28v117.45c0,109.97,0,261.27,0,333.21,0,36.99,15.18,75.12,45.13,113.35,24.54,31.33,58.92,62.71,102.17,93.26,27.77,19.62,55.7,36.37,79.83,49.68v-6.28c-23.36-12.97-50.06-29.1-76.66-47.89-42.82-30.25-76.8-61.25-101.01-92.16-29.17-37.24-43.96-74.23-43.96-109.96,0-71.94,0-223.24,0-333.21v-113.34c29.04-8.37,69.46-15.58,117.3-20.92,54.13-6.05,113.17-9.25,170.74-9.25s116.61,3.2,170.74,9.25c47.84,5.34,88.26,12.55,117.3,20.92v113.34c0,109.97,0,261.27,0,333.21,0,35.73-14.79,72.72-43.96,109.96-24.21,30.91-58.19,61.91-101.01,92.16-32.27,22.79-64.68,41.67-91.1,55.76l-1.02,6.76c27.18-14.36,61.35-34.06,95.29-58.03,43.25-30.55,77.63-61.93,102.17-93.26,29.95-38.23,45.13-76.36,45.13-113.35,0-71.94,0-223.24,0-333.21v-117.45c-29.61-8.96-71.6-16.63-122.19-22.28Z"/>
      <path class="cls-6" d="M630.02,60.26c-64.9-19.79-184.6-32.26-297.48-32.26S99.96,40.47,35.06,60.26c-4.2,1.29-7.06,5.17-7.06,9.56,0,59.29,0,343.91,0,451.4,0,161.62,264.53,283.94,300.5,299.82,2.57,1.13,5.49,1.13,8.06,0,35.97-15.88,300.5-138.2,300.5-299.82,0-107.49,0-392.11,0-451.4,0-4.39-2.86-8.27-7.06-9.56ZM626.08,188.01c0,109.97,0,261.27,0,333.21,0,36.99-15.18,75.12-45.13,113.35-24.54,31.33-58.92,62.71-102.17,93.26-33.94,23.97-68.11,43.67-95.29,58.03l1.02-6.76c26.42-14.09,58.83-32.97,91.1-55.76,42.82-30.25,76.8-61.25,101.01-92.16,29.17-37.24,43.96-74.23,43.96-109.96,0-71.94,0-223.24,0-333.21v-113.34c-29.04-8.37-69.46-15.58-117.3-20.92-54.13-6.05-113.17-9.25-170.74-9.25s-116.61,3.2-170.74,9.25c-47.84,5.34-88.26,12.55-117.3,20.92v113.34c0,109.97,0,261.27,0,333.21,0,35.73,14.79,72.72,43.96,109.96,24.21,30.91,58.19,61.91,101.01,92.16,26.6,18.79,53.3,34.92,76.66,47.89v6.28c-24.13-13.31-52.06-30.06-79.83-49.68-43.25-30.55-77.63-61.93-102.17-93.26-29.95-38.23-45.13-76.36-45.13-113.35,0-71.94,0-223.24,0-333.21v-117.45c29.61-8.96,71.6-16.63,122.19-22.28,54.32-6.07,113.58-9.28,171.35-9.28s117.03,3.21,171.35,9.28c50.59,5.65,92.58,13.32,122.19,22.28v117.45Z"/>
      <g>
        <path class="cls-5" d="M65.74,174.46v-1.08c6.12,0,6.48-4.5,6.48-11.16v-41.04c0-6.66-.36-11.16-6.48-11.16v-1.08h29.16c22.05,0,32.76,11.43,32.76,31.95s-11.88,33.57-33.57,33.57h-28.35ZM109.3,141.43c0-19.26-3.69-29.97-13.77-29.97h-2.61c-2.16,0-3.42,1.08-3.42,3.24v51.48c0,3.96,1.26,5.76,6.48,5.76,9.72,0,13.32-9.63,13.32-30.51Z"/>
        <path class="cls-5" d="M136.03,153.22v-32.04c0-6.66-.36-11.16-6.48-11.16v-1.08h30.24v1.08c-6.12,0-6.48,4.5-6.48,11.16v32.4c0,12.78,5.49,17.28,13.23,17.28,7.11,0,12.87-4.14,12.87-18v-26.28c0-8.46-1.08-14.76-6.84-16.56v-1.08h16.2v1.08c-5.76,1.8-6.3,8.1-6.3,16.56v26.28c0,16.02-7.83,22.68-22.59,22.68s-23.85-6.3-23.85-22.32Z"/>
        <path class="cls-5" d="M229.8,108.94h17.1v1.08c-5.22.36-6.3,8.1-6.3,16.56v49.32h-2.34l-38.52-56.43v33.75c0,12.06,3.06,19.8,8.28,20.16v1.08h-18.72v-1.08c5.22-.72,7.38-8.1,7.38-20.16v-32.22c0-7.38-3.96-10.26-7.38-10.98v-1.08h23.13l25.11,37.62v-19.98c0-8.46-1.8-14.76-7.74-16.56v-1.08Z"/>
        <path class="cls-5" d="M272.83,162.22c0,6.66.36,11.16,6.48,11.16v1.08h-30.24v-1.08c6.12,0,6.48-4.5,6.48-11.16v-41.04c0-6.66-.36-11.16-6.48-11.16v-1.08h30.24v1.08c-6.12,0-6.48,4.5-6.48,11.16v41.04ZM286.42,130.81c14.4,29.88,21.6,41.13,24.75,42.57v1.08c-3.24.36-10.26.36-12.42.36-10.08,0-12.42-5.4-24.48-32.76l12.96-17.28c3.69-4.86,5.58-7.83,5.58-11.43,0-2.16-.9-3.15-3.15-3.33v-1.08h19.89v1.08c-5.04,1.44-12.6,7.11-19.8,16.47l-3.33,4.32Z"/>
        <path class="cls-5" d="M362.01,155.92l-2.43,18.54h-48.78v-1.08c6.12,0,6.48-4.5,6.48-11.16v-41.04c0-6.66-.36-11.16-6.48-11.16v-1.08h47.34l1.44,16.56h-1.08c-6.12-10.44-10.44-14.04-20.52-14.04h-3.42v27.36h1.8c9.36,0,12.24-2.7,14.76-8.46h1.08v20.88h-1.08c-2.7-6.66-5.4-9.36-14.76-9.36h-1.8v25.92c0,2.43.63,4.14,3.6,4.14h.72c8.91,0,15.03-2.88,22.05-16.02h1.08Z"/>
        <path class="cls-5" d="M426.54,173.38v1.08c-2.16.18-9.18.36-12.78.36-8.46,0-10.17-1.53-20.97-28.17-1.17-2.79-1.62-3.51-4.5-3.51h-.18v19.08c0,6.66.72,11.16,6.84,11.16v1.08h-30.6v-1.08c6.12,0,6.48-4.5,6.48-11.16v-41.04c0-6.66-.36-11.16-6.48-11.16v-1.08h30.96c16.2,0,23.58,6.12,23.58,16.56,0,8.46-5.49,14.22-14.31,16.38v.18c2.7,1.35,5.04,4.41,7.65,9.36,9.9,18.72,11.43,21.06,14.31,21.96ZM388.11,140.62h3.96c5.76,0,9.36-3.87,9.36-13.86s-2.88-15.3-9.09-15.3h-.81c-2.16,0-3.42,1.08-3.42,3.24v25.92Z"/>
        <path class="cls-5" d="M503.58,181.75c-5.67,3.96-11.34,6.21-19.26,6.21-8.46,0-18-2.7-27.99-12.42h-1.44c-19.26,0-30.87-13.14-30.87-33.66s11.97-34.02,31.05-34.02,30.87,13.14,30.87,33.66c0,13.05-5.49,23.49-14.22,29.16,7.2,9.36,13.14,12.69,19.62,12.69,4.05,0,7.11-1.08,11.34-3.15l.9,1.53ZM455.07,173.02c9.18,0,12.51-12.6,12.51-31.32s-3.42-31.32-12.6-31.32-12.6,12.6-12.6,31.32,3.33,31.32,12.69,31.32Z"/>
        <path class="cls-5" d="M494.22,153.22v-32.04c0-6.66-.36-11.16-6.48-11.16v-1.08h30.24v1.08c-6.12,0-6.48,4.5-6.48,11.16v32.4c0,12.78,5.49,17.28,13.23,17.28,7.11,0,12.87-4.14,12.87-18v-26.28c0-8.46-1.08-14.76-6.84-16.56v-1.08h16.2v1.08c-5.76,1.8-6.3,8.1-6.3,16.56v26.28c0,16.02-7.83,22.68-22.59,22.68s-23.85-6.3-23.85-22.32Z"/>
        <path class="cls-5" d="M599.52,155.92l-2.43,18.54h-48.78v-1.08c6.12,0,6.48-4.5,6.48-11.16v-41.04c0-6.66-.36-11.16-6.48-11.16v-1.08h47.34l1.44,16.56h-1.08c-6.12-10.44-10.44-14.04-20.52-14.04h-3.42v27.36h1.8c9.36,0,12.24-2.7,14.76-8.46h1.08v20.88h-1.08c-2.7-6.66-5.4-9.36-14.76-9.36h-1.8v25.92c0,2.43.63,4.14,3.6,4.14h.72c8.91,0,15.03-2.88,22.05-16.02h1.08Z"/>
      </g>
      <path class="cls-2" d="M222.64,244.61c-16.11,10.06-30.74,22.29-43.7,36.56l-1.56,1.56-.02.04c-.29.21-.66.44-1.13.69H55.51v-38.85h167.13Z"/>
      <path class="cls-2" d="M609.57,244.61v38.85h-126.5c-3.91-5.92-8.62-11.67-14.13-17.25-8.66-8.76-18.2-15.95-27-21.6h167.63Z"/>
      <path class="cls-2" d="M124.89,360.8c.02.12.05.23.07.36H55.51v-38.85h33.94c-2.18,5.81-1.1,10.69-.08,13.4,3.74,9.87,13.24,12.28,20.18,14.04,3.6.91,8.54,2.16,10.46,3.9,4.04,3.66,4.43,4.9,4.88,7.15Z"/>
      <path class="cls-2" d="M609.57,322.31v38.85h-77.06c.82-9.53-3.86-18.73-13.25-25.04-1.94-1.31-4.08-2.51-6.54-3.65h-.03s-.02-.02-.02-.02c-8.01-3.69-12.87-6.79-15.62-8.83-.03-.44-.06-.87-.1-1.31h112.62Z"/>
      <path class="cls-2" d="M125.06,420.66c0,6.11.26,12.18.79,18.2H55.51v-38.85h69.71c-.09,6.07-.16,12.92-.16,20.65Z"/>
      <path class="cls-2" d="M228.43,422.3c-.45.91-.88,1.84-1.31,2.76.05-1.09.55-2.07,1.31-2.76Z"/>
      <path class="cls-2" d="M609.57,400.01v38.85h-70.33c.38-4.38.62-8.78.73-13.21.03-1.7.05-3.17.05-4.55v-.43c-.13-6.98-.98-14.38-2.37-20.66h71.92Z"/>
      <path class="cls-4" d="M227.12,425.06c.43-.92.86-1.85,1.31-2.76-.76.69-1.26,1.67-1.31,2.76ZM521.15,400.01c-1.37-4.67-3.16-7.87-5.2-7.87-1.32,0-2.76,1.35-4.26,4.5-.4,1.14-.84,2.27-1.32,3.37-3.63,8.55-9.13,15.91-13.97,21.33-5.54,6.19-10.2,9.85-10.2,9.85-4.43-5.7-8.67-9.96-12.66-13.11-8.03-6.33-15.04-8.17-20.47-8.17-7.55,0-12.06,3.54-12.06,3.54,4.4,7.98,7.95,16.48,10.51,25.41,3.14,10.89,4.82,22.4,4.82,34.3,0,68.38-55.43,123.8-123.8,123.8s-123.8-55.42-123.8-123.8c0-11.9,1.68-23.41,4.82-34.3,4.07-14.15,10.6-27.27,19.1-38.85,6.69-9.12,14.59-17.29,23.48-24.27,0,0-14.14,2.18-26.85,2.18-10.86,0-20.67-1.59-19.73-7.49.65-4.05,5.15-5.49,10.2-9.27,1.46-1.09,2.96-2.38,4.43-3.98,12.35-13.45,18.34-20.24,22.22-34.4,0,0,2.59,20.57-8.23,38.38-.49.82-1.02,1.63-1.57,2.43-1.19,1.73.01,4.08,2.1,4.08h.17c8.52,0,25.73-.77,40.17-6.18.23-.11.46-.22.69-.33,1.92-.92,3.87-1.78,5.85-2.58.01-.01.02-.01.03-.02,21.47-11.26,31.63-18.51,39.27-18.51,0,0-10.27,6.51-17.7,11.91,8.19-1.7,16.66-2.6,25.35-2.6.59,0,1.18,0,1.76,0,36.6.32,47.61,10.48,75.3,10.48,9.89,0,18.02.49,24.99,1.31,18.4,2.18,28.69,6.71,42.05,10.84,13.01,4.01,20.74,6.75,24.68,6.75,1.64,0,2.62-.47,3.06-1.52,1.97-4.67-.45-5.92-3.18-7.73-1.69-1.13-8.11-5.32-12.74-8.34-2.72-1.77-4.82-3.15-4.99-3.25,2.39.9,6,2.07,10.01,3.25,7.07,2.08,15.38,4.2,20.46,4.92,0,0,.77-.88,1.48-2.33.36-.74.7-1.61.91-2.59.73-3.28.06-7.71-6.02-11.78-1.21-.82-2.65-1.62-4.33-2.4-20.35-9.37-24.79-16.37-24.79-16.37.08-2.84-.03-5.6-.32-8.3-1.61-15.1-8.67-28.07-17.8-38.85-14.31-16.87-33.68-28.37-45.15-34.22-.64-.33-1.25-.64-1.84-.93-.74-.36-1.44-.7-2.09-1.01-.91-.43-1.73-.81-2.45-1.14-.03-.01-.05-.03-.08-.03-.31-.14-.63-.28-.95-.43-.29-.13-.56-.25-.8-.35-.16-.07-.31-.13-.44-.19-.14-.06-.26-.11-.37-.16-.16-.07-.29-.12-.38-.16-.09-.04-.16-.06-.2-.08-.03-.01-.05-.02-.05-.02-.1-.04-.2-.09-.3-.13-23.14-9.94-48.65-15.44-75.43-15.44s-52.29,5.5-75.44,15.44c-21.75,9.33-41.43,22.58-58.14,38.85-2.9,2.83-5.71,5.75-8.43,8.75,0,0-.01.01-.02.03,0,.01-.03.04-.05.06-.15.2-.56.71-1.25,1.38-.02.02-.04.03-.06.06-2.76,2.66-9.9,7.86-23.45,7.86h-.99c-17.07,0-44.33,9.95-55.9,20.71-1.41,1.31-2.59,2.63-3.49,3.95-6.23,9.14,14.59,5.69,25.44,15.54,6.62,6.01,9.35,10.56,10.36,19.36.91,8.01.4,19.53.11,38.85-.1,6.07-.17,12.91-.17,20.65,0,6.14.29,12.21.86,18.2,9.16,97.21,91.01,173.28,190.62,173.28s181.46-76.07,190.63-173.28c.42-4.49.69-9.02.8-13.59.03-1.38.05-2.77.05-4.17v-.15c-.12-7.08-1.18-15.15-2.87-20.94ZM416.89,306.71c9.22,0,17,6.19,19.4,14.63l-11.28-4.33c.39.77.6,1.65.57,2.58-.03,1-.34,1.93-.85,2.72-.95,1.48-2.61,2.45-4.48,2.45h-.18c-1.82-.06-3.4-1.03-4.32-2.45-.57-.88-.88-1.94-.85-3.07.08-2.21,1.47-4.05,3.41-4.8l-12.14-4.65c3.11-1.95,6.78-3.08,10.72-3.08Z"/>
      <path class="cls-6" d="M227.12,425.06c.43-.92.86-1.85,1.31-2.76-.76.69-1.26,1.67-1.31,2.76Z"/>
      <path class="cls-5" d="M275.7,747.84h-4.68v-4.85l9.43-8.24,4.47-.06v52.92l-9.23-4.89v-34.88Z"/>
      <path class="cls-5" d="M311.78,739.93c-1.28-2.61-2.94-4.28-4.91-5.19-1.27-.6-2.69-.87-4.22-.87-7.62,0-12.39,6.85-12.39,15.25v10.55c0,7.98,3.72,13.23,8.31,13.23.28,0,.55-.01.82-.04,2.96-.29,5.47-2.16,6.68-4.76v3.32c0,6.41-.8,13.11-3.34,13.11-1.85,0-3.34-1.12-3.34-4.61v-4.52l-9.13,2.22v.82c0,16.62,7.5,17.41,12.39,17.41,7.16,0,12.4-6.17,12.4-23.8v-10.9c0-10.1-1.15-16.92-3.27-21.22ZM305.27,757.28c0,3-.94,5.51-2.76,5.51-3.11,0-3.11-3.15-3.11-5.43v-4.46c0-1.74,0-8.13,3.11-8.13,2.76,0,2.76,6.21,2.76,8.13v4.38Z"/>
      <path class="cls-5" d="M371.87,739.93c-1.28-2.61-2.94-4.28-4.91-5.19-1.27-.6-2.69-.87-4.22-.87-7.62,0-12.39,6.85-12.39,15.25v10.55c0,7.98,3.72,13.23,8.31,13.23.28,0,.55-.01.82-.04,2.96-.29,5.47-2.16,6.68-4.76v3.32c0,6.41-.8,13.11-3.34,13.11-1.85,0-3.34-1.12-3.34-4.61v-4.52l-9.13,2.22v.82c0,16.62,7.5,17.41,12.39,17.41,7.16,0,12.4-6.17,12.4-23.8v-10.9c0-10.1-1.15-16.92-3.27-21.22ZM365.35,757.28c0,3-.94,5.51-2.76,5.51-3.11,0-3.11-3.15-3.11-5.43v-4.46c0-1.74,0-8.13,3.11-8.13,2.76,0,2.76,6.21,2.76,8.13v4.38Z"/>
      <path class="cls-5" d="M332.54,733.87c-7.73,0-13.39,7.56-13.39,29.15v17.62c0,21.59,5.66,29.15,13.39,29.15s13.39-7.56,13.39-29.15v-17.62c0-21.59-5.66-29.15-13.39-29.15ZM336.23,779.86c0,7.85-.86,12.85-3.6,12.85h-.18c-2.73,0-3.6-5-3.6-12.85v-16.06c0-7.85.86-12.85,3.6-12.85h.18c2.73,0,3.6,5,3.6,12.85v16.06Z"/>
      <g>
        <path class="cls-3" d="M276.47,391.44v125.21c0,10.58-8.22,18.76-16.76,18.76h-3.73c-5.6,0-10.8-2.93-13.69-7.73l-.05-.08c-9.6-15.89-15.13-34.52-15.13-54.44v-47.89c0-.07,0-.14.01-.21.43-.92.86-1.85,1.31-2.76.7-.64,1.64-1.03,2.68-1.03h7.13c2.21,0,4,1.79,4,4v47.89c0,16.39,4.37,31.76,12.01,45.01,1.94,3.38,7.1,2.03,7.1-1.87v-120.89c2.79-2.56,5.72-4.97,8.77-7.22,2.63-1.93,6.35-.02,6.35,3.25Z"/>
        <path class="cls-3" d="M228.43,422.3c-.45.91-.88,1.84-1.31,2.76.05-1.09.55-2.07,1.31-2.76Z"/>
        <path class="cls-3" d="M378.15,557.8v10.43c-7.95,3.83-16.45,6.67-25.36,8.41-4.93.95-9.98,1.57-15.13,1.82v-206.31c0-2.34,2.01-4.2,4.34-3.99,2.5.22,4.97.53,7.41.92,1.95.32,3.38,1.99,3.38,3.96v188.14c6.85-1.57,13.4-3.92,19.56-6.95,2.67-1.32,5.8.58,5.8,3.57Z"/>
        <path class="cls-3" d="M437.97,473.16c0,35.23-17.29,66.42-43.84,85.57-.02.02-.06.04-.11.08-2.65,1.84-6.29-.05-6.29-3.28v-10.9c1.91-1.48,3.77-3.03,5.55-4.66,18.16-16.51,29.56-40.33,29.56-66.81,0-12.14-2.4-23.72-6.76-34.3-5.12-12.49-12.97-23.57-22.8-32.51v107.39c0,2.76-2.24,5-5,5h-5.13c-2.76,0-5-2.24-5-5v-129.05c0-3.05,3.29-5,5.95-3.5,3.16,1.77,6.23,3.71,9.18,5.79,5.47,3.86,10.55,8.23,15.16,13.03,10.57,10.94,18.77,24.16,23.82,38.85,3.7,10.75,5.71,22.29,5.71,34.3Z"/>
        <path class="cls-3" d="M312.48,418.85v-27.31c0-3.33-3.22-5.71-6.4-4.73l-.1.03c-2.08.64-3.5,2.56-3.5,4.74v47.28c0,3.6,0,15.26,8.97,27.72.32.45.67.89,1.03,1.31.38.46.78.9,1.18,1.35,13.95,15.39,13.95,31.34,13.95,35.07v50.81c0,12.96-12.26,22.56-24.78,19.21-.13-.04-.25-.07-.35-.1-.39-.12-.79-.24-1.18-.36-8.3-2.56-13.95-10.26-13.95-18.95v-22.41c0-1.93,1.57-3.5,3.5-3.5h8.13c1.93,0,3.5,1.57,3.5,3.5v22.23c0,2.18,1.42,4.1,3.5,4.74l.09.03c3.19.97,6.41-1.41,6.41-4.74v-40.81c0-6.46,0-19.73-8.97-32.6-.32-.46-.67-.89-1.03-1.32-.4-.47-.81-.92-1.23-1.37-13.8-14.6-13.9-29.1-13.9-39.37v-47.4c0-8.44,5.2-16,13.08-19.02l2.05-.79,1.37-.23c12.43-2.1,23.76,7.48,23.76,20.09v26.9h-15.13Z"/>
      </g>
      <path class="cls-1" d="M55.51,480.88s45.07-16.81,73.43-16.81c0,0,5.19,17.58,4.59,17.84-2.54,1.06-9.77,4.97-16.24,16.75-8,14.59-5.23,24.5,3.88,29.18s25.88,4.56,33.03-1.29l3.15,6.89s-6.17,7.23-20.76,7.23-26-6.59-32-26.59c0,0-5.77,11.88,4.59,21.3,0,0-9.18,1.53-14.35-11.3,0,0-13.88,6.82-30.59,6.47,0,0-1.18-1.41,6.47-4l-.13-4.58s14.97-2.33,33.81-22.13c15.78-16.58,6.04-19.25-3.48-17.51-9.01,1.64-23.93,11.34-45.38,32.39v-33.83Z"/>
      <path class="cls-1" d="M274.53,642.39c3.59-7.33,11.67-19.45,11.67-19.45-6.46-1.5-12.49-3.08-17.01-4.93,0,0-38.33,25.29-73.57,18.03-5.33-1.09-10.42-3.13-15.15-5.8l-20.14-11.34s3.08,12.56,14.98,20.27c0,0-20.71,9.69-63.67-23.79,0,0-2.64,6.38,16.08,19.38,0,0-40.75-17.89-40.75-39.43s14.6-23.04,21.49-23.04c19.35,0,24.84,16.23,17.62,24.67.1-.21,1.71-3.65,1.71-8.89,0-4.64-5.54-13.42-14.4-13.42-3.44,0-14.56,3.97-14.56,18.46,0,7.65,8.04,15.58,16.19,15.58,7.24,0,22.32-2.35,22.32-20.4,0-21.04-20.09-25.35-29.39-25.35-8.18,0-31.16,7.07-31.16,32.93,0,.15,0,.3.01.44,8.79,14.03,19.05,27.6,29.96,40.71l23.73,5.48h-18.55l8.16,8.15c22.33,3.42,98.15,11.94,147.25-20.19,0,0-9.42,15.37,2.84,21.95,6.73,2.84,11.67-3.89,11.67-3.89,0,0-10.92,1.2-7.33-6.13ZM113.23,599.29c-4.5,0-8.14-3.64-8.14-8.14,0-1.74.55-3.35,1.48-4.68.41,3.31,3.24,5.87,6.66,5.87s6.25-2.57,6.65-5.88c.94,1.33,1.49,2.95,1.49,4.69,0,4.5-3.65,8.14-8.14,8.14Z"/>
      <path class="cls-1" d="M161.39,562.94v3.63s24.4,13.14,42.65,18.1c-1.73-2.14-2.79-3.46-2.79-3.46l-17.9-6.22,15.53,4.19c-.91-.88-1.77-1.73-2.1-2.29l-35.39-13.95Z"/>
      <path class="cls-1" d="M315.95,627.42c-2.25,2.57-6.05,5.87-9.38,5.87,0,0,1.27,3.83-.73,4.79s-7.33,4.07-7.33,4.07c0,0,17.86.08,31.09-7.17,0,0,5.1,10.92,14.35,10.92,0,0-5.47-3.11-6.21-17.92-8.16,0-14.77-.36-21.78-.55Z"/>
      <path class="cls-1" d="M349.65,627.87c1.35,6.73,6.13,12.57,21.32,12.57,17.3,0,20.17-9.62,20.17-13.61v-6.98c3.5-1.08,5.66-1.51,5.66-1.51v8.65c0,7.09-5.66,22.56-26.54,22.56s-27.34-14.42-29.13-21.58c5.59,0,5.98-.1,8.54-.1Z"/>
      <path class="cls-1" d="M443.72,720.15c-5.58,0-6.31-2.69-8.07-8.07s-5.07-11.9-8.28-17.49c-3.2-5.59-7.24-10.24-16.45-7.86s-8.28,8.07-7.45,13.76c.83,5.69,5.28,4.97,9,3.83,3.73-1.14,2.69-6.73,1.76-9.21-.93-2.49.42-3.93,6,.93,5.59,4.86,8.26,13.28,8.71,19.71.44,6.43-54.3-2.44-54.3-2.44l10.19-9.97-4.21-9.75s-3.77,8.2-8.64,12.41c-4.88,4.21-29.48,4.43-20.61-5.98,8.86-10.42,38.27-17.57,38.27-17.57v-3.31h-20.87c9.6-22.28,49.12-22.9,49.12-22.9-47.05-15.82-71.49,27.73-71.49,27.73l-2.46-11.52s-9.89,18.53-12.14,21.62c-2.26,3.08-33.5-12.24-42.52-16.16-9.03-3.92-34.38-3.73-34.38-3.73,57.41-5.5,62.52,8.85,62.52,8.85,3.34-5.51-6.1-15.73-6.1-15.73,11.21-3.93,13.77-13.02,13.77-13.02,0,0-61.15,20.1-95.95,10.66-28.61-7.76-71.18,4.55-85.41,9.18l9.66,8.68c24.52-9.38,48.88-9.54,48.88-9.54,16.15,14.41,34.23,15.89,40.23,27.43,4.86,9.35-.27,17.39-3.42,21.07-.65.76-1.9.26-1.85-.75.25-4.62,1-13.14-3.35-13.65-4.95-.59-9.09-1.46-13.78,3.57-4.68,5.04-5.38,20.66,7.64,25.87,13.02,5.21,21.18-1.22,27.78-20.66,6.6-19.44-11.4-33.01-11.4-33.01,8.43,4.22,23.08,5.59,23.08,5.59v-2.32l-19.62-6.54c12.68,1.63,67.48,17.38,97.94,35.16,24.61,14.37,76.02,18.32,94.89,19.31l22.39-14.18h-19.08ZM408.71,700.9c-3.39,0-1.97-7.81-1.97-7.81.28-3.7,6.17,7.82,1.97,7.81ZM304.16,667.15v1.89h-21.11l21.11-1.89ZM226.96,723.94c-2.82,0-3.81-2.27-3.81-4.03,0-2.04,4.41-6.1,4.41-6.1,0,0,4.42,1.91,4.42,4.98s-2.2,5.15-5.02,5.15ZM248.9,710.12s.37-13.55-9.2-21.25c-7.9-6.37-16.11-9.11-34.12-16.67h3.48s26.62,7.47,34.47,17.62c7.86,10.15,5.37,20.3,5.37,20.3ZM341.78,692.55l2.84-2.26-2.3,2.97h-3.39l2.85-.71ZM340.97,698.26c.31-.49,10.54-16.28,26.78-28.13,0,0-20,23.25-26.78,28.13Z"/>
      <path class="cls-1" d="M459.45,602c-.54-3.23-1.48-6.34-3.5-6.34s-7.56,0-7.56,4.86.71,7.35-1.85,6.14c-2.23-1.06-5.68-4.02-7.75-7.8-.31-.55-4.77,1.76-4.36,2.97,1.3,3.79,5.06,11.64,13.83,11.64,11.19,0,11.73-8.23,11.19-11.47ZM454.51,607.91c-1.38.14-1.94-5.91-1.94-5.91-.29-2.13,2.78-2.63,3.62-1.08.84,1.54-.3,6.85-1.68,6.99Z"/>
      <path class="cls-1" d="M513.94,588.92c-18.55-9.27-33.78-13.4-41.46-15.08-3.58,3.28-12.17,10.68-12.17,10.68l28.63,4.75s-9.27,5.94-10.67,8.39c-1,1.76.51,7.22,1.44,10.15.19.6,1.03.6,1.24,0,2.47-7.03,6.7-10.14,13.54-13,8.07-3.37,20.76,3.5,14.81,8.42-12.36,10.24-36.8,14.71-36.8,14.71l-1.05,2.63,20.28,1.57c-10.84,20.98-49.13,19.58-49.13,19.58,19.41,7.17,34.8,3.67,45.81-1.75,11.02-5.42,23.95-20.98,23.95-20.98l1.75,11.02s11.37-17.49,12.77-20.28c1.13-2.28,28.83,11.85,39.17,17.22l7.89-9.42c-13.58-5.14-34.41-15.82-60-28.61ZM489.89,632.21l27.54-27.03,1.23.58c-6.74,9.13-26.91,25-28.77,26.45ZM527.96,603.55l-2.88,2.37,1.44-3.23,3.6.57-2.16.29Z"/>
      <path class="cls-1" d="M525.14,671.02l-5.84,5.23c-5.54-10.19-10.32-11.22-22.63-11.22-19.21,0-22.14,9.81-22.14,18.51s19.65,6.04,19.65,6.04l-9.1,7.73c-11.68,3.3-22.18-11.44-14.77-26.82,7.16-14.86,20.98-15.4,27.95-15.4,15.9,0,23.84,10.5,26.88,15.93Z"/>
      <path class="cls-1" d="M609.57,482.44v26.43c-5.16,4.27-14.48,11.82-29.52,23.38-26.77,20.59-34.08,20.87-34.08,20.87l3.25-5.8s-22.26,8.58-29.22,8.58h-15.07l-1.16-2.55s31.53-10.2,39.65-12.52c8.11-2.32,17.16-6.49,23.65-10.9,6.49-4.4,14.84-12.75,17.16-13.68,2.32-.92,6.72-6.49,7.65-11.13,0,0-7.19,11.13-12.75,9.16,0,0-37.67,22.23-81.28,31.78,6.65-8.53,14.53-21.84,17.51-27.55,4.79,1.04,11.75,1.73,18.32-.63,11.59-4.18,23.19-8.12,23.19-8.12,0,0-10.9-7.88-10.9-19.01s-7.84-14.82-8.33-15.06l12.97,3.23s12.44-11.47,24.57-3.24c13.57,9.19,4.43,20.93-3.11,22.13-6.79,1.08-11.87-1.82-11.87-9.09,0-5.45,8.49-9.8,16.79-.85,0,0,1.05-9.01-8.3-8.95-8.65.07-15,10.92-7.42,19.02,6.74,7.19,13.02,3.12,20.67-1.52,7.03-4.26,18.96-10.94,27.63-13.98Z"/>
      <path class="cls-1" d="M534.5,662.65l-5.59,5c-1.55-5.82-5.98-9.55-5.98-9.55,4.44-.06,8.91,2.61,11.57,4.55Z"/>
      <path class="cls-1" d="M558.85,635.55l-7.67.6,6.31,1.02-5.84,6.97c-4.43.25-11.74,1.19-20.52,4.24,0,0,.72-7.32,13.92-11.69,0,0-7.1-8.73-3.84-14.63,0,0,6.27,7.18,21.67,8.67l-4.03,4.82Z"/>
      <line class="cls-1" x1="462.8" y1="720.15" x2="440.41" y2="734.33"/>
      <line class="cls-1" x1="534.5" y1="662.65" x2="528.91" y2="667.65"/>
      <line class="cls-1" x1="525.14" y1="671.02" x2="519.3" y2="676.25"/>
      <line class="cls-1" x1="573.94" y1="617.53" x2="566.05" y2="626.95"/>
      <line class="cls-1" x1="562.88" y1="630.73" x2="558.85" y2="635.55"/>
      <line class="cls-1" x1="557.49" y1="637.17" x2="551.65" y2="644.14"/>
      <line class="cls-1" x1="153.39" y1="682.8" x2="143.73" y2="674.12"/>
      <line class="cls-1" x1="120.1" y1="650.65" x2="111.94" y2="642.5"/>
      <path class="cls-1" d="M76.8,596.31c8.79,14.03,19.05,27.6,29.96,40.71"/>
    </g>
  </g>
</svg>