<?xml version="1.0"?>
<svg xmlns="http://www.w3.org/2000/svg" width="271.788157" height="349.120833" viewBox="-3.47319 -3.47319 115.77308 148.59764">
  <path
     d="m 54.473586,145.18003 c 15.2163,0 48.160004,-24.109 53.664004,-59.049999 5.502,-34.94 6.346,-64.025 -2.369,-75.8513 -7.173004,-9.73244996 -22.626304,-14.9712 -51.295004,-13.5962 -25.9263,1.24375 -44.7300005,5.17125 -52.3700005,11.88 -7.63875,6.7088 -6.7975,42.6275 -1.29374996,77.5675 C 6.3123355,121.07103 39.258586,145.18003 54.473586,145.18003"
     style="fill:#003867;fill-rule:nonzero;stroke:none" />
  <path
     d="m 98.913586,15.312531 c -24.4975,-24.01625 -106.4837505,2.3725 -92.7362505,69.2975 6.3962505,31.140999 31.6725505,53.144999 48.2962505,53.144999 16.625,0 43.345,-21.699 48.297004,-53.144999 4.953,-31.4475 6.124,-59.5125 -3.857004,-69.2975 m -59.9375,31.1025 -13.3663,0 0,7.22 12.4588,0 0,5.075 -12.4588,0 0,11.3863 -7.0137,0 0,-29.1688 20.38,0 0,5.4875 z m 19.515,24.0938 c -10.685,0 -16.1725,-5.2401 -16.1725,-14.8113 0,-10.1488 5.405,-15.1813 16.0075,-15.1813 4.3325,0 6.89,0.7838 9.0762,1.7738 l -1.8562,5.0737 c -2.7638,-0.7425 -3.92,-1.0312 -7.1375,-1.0725 -5.2813,-0.083 -8.9525,2.8888 -8.9525,8.9938 0,6.1062 3.8787,9.365 9.7775,9.365 2.8462,0 4.5387,-0.2475 6.7662,-0.825 l 1.485,5.2813 c -2.805,1.0312 -5.2387,1.4025 -8.9937,1.4025 m 37.75,-1.6913 c -3.3013,1.2787 -6.065,1.6913 -9.6125,1.6913 -9.695,0 -16.0075,-4.7026 -16.0075,-14.8113 0,-10.5613 5.735,-15.1813 16.3375,-15.1813 4.125,0 6.4362,0.825 8.7462,1.7738 l -1.8575,5.0737 c -2.7637,-0.7012 -4.0425,-1.0725 -7.0125,-1.0725 -5.1987,0 -9.0762,2.5575 -9.0762,8.9938 0,6.4362 4.29,9.365 9.6125,9.365 0.66,0 1.2787,-0.041 1.8562,-0.041 l 0,-8.9525 7.0138,0 0,13.1613 z"
     style="fill:#ffffff;fill-rule:nonzero;stroke:none" />
  <path
     d="m 13.432386,98.847031 c 5.805,13.049999 14.9275,23.390999 24.1075,29.499999 l 0,-40.459999 c -14.7237,4.6913 -22.3475,9.713 -24.1075,10.96 m 31.9362,-13.2245 0,46.898499 c 3.2175,1.279 6.3213,1.955 9.16,1.955 5.075,0 11.1388,-2.131 17.1888,-6.01 l 0,-47.747299 c -10.2138,1.2263 -18.9638,2.9713 -26.3488,4.9038 m 34.1775,-5.7113 0,42.505799 c 9.8,-8.942 18.3315,-22.342 20.865504,-38.428299 0.267,-1.7012 0.523,-2.6787 0.766,-4.3562 -7.900204,-0.2388 -14.971504,-0.1575 -21.631504,0.2787"
     style="fill:#69b033;fill-rule:nonzero;stroke:none" />
</svg>

