<svg xmlns="http://www.w3.org/2000/svg" xmlns:xlink="http://www.w3.org/1999/xlink" id="uuid-b9224629-43e8-49d0-a486-d0b4e7b4ba30" viewBox="0.0 0.0 400.0 518.6888" width="277.68405380024933" height="360.12150727219836"><defs><style>.uuid-2974fb3c-01ef-462b-b4f0-cc7c6907d36b{fill:none;}.uuid-2974fb3c-01ef-462b-b4f0-cc7c6907d36b,.uuid-665003fe-9c66-41b5-bc48-6a905c0819b3,.uuid-07a1f9e4-e06d-4d86-900a-e6ded7daa473,.uuid-26bc4305-1954-41b7-9752-d3df9357386d,.uuid-dc1a53ac-6891-4410-9c37-e24fadef1abf,.uuid-8c836503-e00c-4559-9902-c8adf0942769,.uuid-5f9c7282-8053-4188-a8a0-e09eed05212e,.uuid-486b7d6d-438a-4c4e-8efe-aab632961505{stroke-width:0px;}.uuid-665003fe-9c66-41b5-bc48-6a905c0819b3{fill:#1d1d1b;}.uuid-07a1f9e4-e06d-4d86-900a-e6ded7daa473{fill:#2c2353;}.uuid-26bc4305-1954-41b7-9752-d3df9357386d{fill:#ffec00;}.uuid-dc1a53ac-6891-4410-9c37-e24fadef1abf{fill:#e20613;}.uuid-8c836503-e00c-4559-9902-c8adf0942769{fill:#c6c6c5;}.uuid-5f9c7282-8053-4188-a8a0-e09eed05212e{fill:#1d70b7;}.uuid-486b7d6d-438a-4c4e-8efe-aab632961505{fill:#fff;}.uuid-c793edb5-761a-4392-87e1-858642eef53d{clip-path:url(#uuid-d84338aa-066d-42bc-9598-a582af8928f3);}</style><clipPath id="uuid-d84338aa-066d-42bc-9598-a582af8928f3"><path class="uuid-2974fb3c-01ef-462b-b4f0-cc7c6907d36b" d="M125.0361,81.0468c-43.4991,21.6988-99.5539,38.2822-99.5539,38.2822-16.8941,77.383-1.4343,135.6667,62.0666,225.2587h253.5908c44.0729-91.2174,41.6945-144.2483,36.1129-224.6193,0,0-47.2999-12.1193-90.7752-33.8181-62.5386-31.2245-85.9884-58.469-85.9884-58.469-.006,0-12.9381,22.141-75.4528,53.3655"/></clipPath></defs><path class="uuid-486b7d6d-438a-4c4e-8efe-aab632961505" d="M393.9798,114.3054h.0281l-2.2092-11.7426-8.7666-1.8496c-.0266-.007-.1498-.0359-.3666-.0835-8.3361-1.8386-51.9008-12.1179-91.0175-34.0001-59.5519-33.3355-80.8264-54.8909-81.6736-55.7607l-9.9476-10.869-9.957,10.7831c-2.2373,2.2911-23.5384,23.3199-81.6393,55.8449-40.3492,22.4938-86.1169,32.9088-91.2031,34.022l-9.0319,1.9143-1.6616,8.9062c-8.6012,46.2358-8.712,92.811-.3214,138.4796l3.7225,18.1964,1.0375,4.1563c11.8137,48.0362,32.6654,92.8367,61.9764,133.1562,31.8089,43.8113,72.2174,80.5331,120.1195,109.1577l6.9256,4.0721,6.9553-4.0814c47.8178-28.5762,88.2498-65.298,120.1772-109.1499,29.247-40.3555,50.0847-85.1544,61.9499-133.2296l4.7413-22.3254c8.1894-44.6764,8.2424-90.2827.1623-135.5972Z"/><path class="uuid-07a1f9e4-e06d-4d86-900a-e6ded7daa473" d="M384.4285,116.3379l-1.3267-7.0696-7.0696-1.494c-.4721-.1255-47.1386-9.8604-88.6538-33.0831-59.2041-33.1428-79.1399-54.0289-79.3372-54.2261l-7.8943-8.6293-7.9062,8.5636c-.1972.1972-20.1988,21.2148-79.2893,54.2918-41.5451,23.1629-88.2175,32.9575-88.7374,33.0831l-7.0576,1.494-1.3207,7.0696c-8.2409,44.3059-8.3604,88.8689-.3167,132.6489l3.5677,17.4499.9979,4.0218c11.3006,45.9254,31.2424,88.8688,59.3953,127.5932,30.4656,41.9693,69.2138,77.1918,115.1333,104.6335l5.5098,3.239,5.5218-3.239c45.9195-27.4417,84.6499-62.6642,115.1991-104.6335,28.0752-38.7244,48.0051-81.602,59.3535-127.5932l4.5596-21.4717c8.0258-43.78,7.8944-88.3429-.3406-132.6489h.0119Z"/><g class="uuid-c793edb5-761a-4392-87e1-858642eef53d"><path class="uuid-26bc4305-1954-41b7-9752-d3df9357386d" d="M164.6426,95.6479c-1.9422,1.8824-4.0458,3.9262-6.215,6.0358-1.8646-1.4522-3.6573-2.8506-5.5636-4.3326,1.4163-2.5817,2.8207-5.1453,4.3086-7.8883-2.7071-1.5657-5.229-3.0238-7.954-4.5955-.8008,1.3506-1.5239,2.5697-2.259,3.7888-.729,1.243-1.4701,2.48-2.2828,3.8425-2.1692-.9084-4.3027-1.7988-6.5377-2.731.6932-2.9282,1.3625-5.7668,2.0676-8.7428-2.9939-.8008-5.7549-1.5359-8.6532-2.3187-1.3565,2.7489-1.5956,5.7429-2.6593,8.5695-2.2529-.2749-4.5-.5498-6.968-.8486-.263-2.8505.0298-5.7848-.1614-8.7728h-8.8863v8.7249c-2.5338.3466-4.9003.6693-7.464,1.0219-.8247-2.8506-1.6435-5.7071-2.5218-8.7309-2.9582.7769-5.7131,1.506-8.6891,2.2828.2092,3.1135,1.5059,5.9401,2.0259,8.9879-2.1454.9143-4.243,1.7988-6.4899,2.7549-1.5478-2.5876-3.0776-5.1453-4.6912-7.8405-2.6832,1.5358-5.1693,2.9641-7.8763,4.5119,1.1892,2.8984,2.976,5.3963,4.3863,8.2349-1.7748,1.4342-3.5497,2.8505-5.456,4.3863-2.1932-2.1573-4.3745-4.3027-6.3883-6.2807-2.1394,2.1573-4.1473,4.1832-6.3405,6.4003,1.8824,1.9422,4.0458,4.1832,6.2987,6.5078-1.3805,1.8765-2.7251,3.7051-4.1473,5.6354-2.7848-1.5239-5.5278-3.0179-8.462-4.6075-1.5418,2.6772-3.006,5.205-4.6075,7.966,2.8505,1.6792,5.5935,3.2868,8.462,4.96-.7829,2.0438-1.5478,4.0338-2.3666,6.1792-.496-.0419-1.004-.0239-1.476-.1375-2.1633-.5139-4.3147-1.0817-6.4719-1.6016-.5499-.1255-1.1176-.1614-1.8227-.257-.7769,2.9282-1.512,5.6831-2.3067,8.6771,3.2927.9203,6.4182,1.7868,9.7229,2.7131-.2151,2.1812-.4302,4.3087-.6633,6.6393-3.4064.2331-6.7887-.0299-10.1293.1434-.4183,1.4821-.49,6.962-.0896,9.2448h10.3803c.3526,2.3486.6693,4.4581.992,6.6214-3.5199.998-6.8903,1.9482-10.3683,2.9282.4542,1.9183.8546,3.6095,1.2969,5.4501H-6.6351c-.4004-1.3506,43.1406-142.4376,43.559-146.6029h161.0408v146.6148h-11.5815c.4482-1.7808.8785-3.478,1.3386-5.3007-3.1553-1.3506-6.4242-1.745-9.6034-2.9342.3167-2.1334.6275-4.2549.9801-6.6154,3.2569-.2689,6.5855.0777,9.9739-.2092v-9.1672h-9.705c-.2869-2.3844-.5438-4.5657-.8247-6.9381,3.0059-.8426,5.9819-1.6733,9.209-2.5816-.7769-2.9402-1.494-5.6951-2.2649-8.6233-3.1674.1554-6.0059,1.4164-9.1732,1.9303-.8188-2.0737-1.6494-4.1772-2.5338-6.4062,2.5995-1.5418,5.1572-3.0717,7.96-4.739-1.5419-2.6832-2.988-5.1991-4.5538-7.9182-2.737,1.4761-5.3067,2.8745-8.0078,4.3386-1.3924-1.8466-2.8087-3.7111-4.3087-5.7011,2.0737-2.1394,4.1653-4.2908,6.1135-6.2927-2.1394-2.1514-4.1534-4.1832-6.3405-6.3764"/><path class="uuid-26bc4305-1954-41b7-9752-d3df9357386d" d="M93.015,148.5133c-4.1473,6.723-8.217,13.3025-12.2627,19.894-.3824.6275-.8426.8964-1.5896.8904-3.6693-.0299-7.3445-.0119-10.9839-.0119-7.5237-14.928-7.1054-40.7203,11.0975-59.0069,18.412-18.5016,47.3059-21.2386,68.7896-6.2748,21.9916,15.3104,28.4396,42.9853,18.8601,65.1681-.4482.0359-.9562.1076-1.4701.1076-3.0836.012-6.1672,0-9.2448.006-.729,0-1.3745.0119-1.8525-.759-4.1055-6.6393-8.2528-13.2487-12.3763-19.8701-.0299-.0419-.006-.1195-.006-.3705,5.5636-5.8983,11.2169-11.8922,16.924-17.9459-1.6015-.49-77.2993-.6932-82.6657-.2749-.0299.0597-.0718.1135-.0837.1793-.0179.0538-.0298.1494,0,.1793,5.5876,5.9939,11.1691,11.9759,16.8643,18.0893"/><path class="uuid-dc1a53ac-6891-4410-9c37-e24fadef1abf" d="M206.5359,350.5894v-52.6419s-.0657-54.8356-.0657-60.7399v-47.4075c.7112-.0478,1.2789-.1255,1.8466-.1255,11.8683-.012,134.1668-.006,157.4492-.006h2.4502c0,28.5353.1315,96.2689.1016,108.7348,0,2.2231-34.3275,49.419-34.447,52.1859,0,0-126.6655-.3825-127.3349,0Z"/><path class="uuid-26bc4305-1954-41b7-9752-d3df9357386d" d="M92.3194,169.2021c.765-1.2968,1.249-2.2828,1.8884-3.1613,3.9023-5.3605,9.209-8.6771,15.5556-10.2847,10.8046-2.737,20.635-.753,29.1449,6.6035,1.6015,1.3864,2.7908,3.2689,4.1055,4.972.3765.4841.5199,1.1414.8366,1.8705h-51.5309Z"/><polygon class="uuid-26bc4305-1954-41b7-9752-d3df9357386d" points="386.5033 177.3994 206.5306 177.2739 206.5306 22.3943 368.42 22.3943 386.5033 177.3994"/><path class="uuid-5f9c7282-8053-4188-a8a0-e09eed05212e" d="M295.3517,177.0091v-16.2188h-16.3443l.0059,16.5296c-5.9819.0299-9.8065-.0418-14.9339.0299,2.3187-6.2389,4.9182-12.203,7.1831-18.1491-4.6732-1.9183-9.2508-3.7947-14.0675-5.7668-2.3904,5.9162-4.8584,12.0297-7.3982,18.2985,4.2131,2.235,9.0656,3.8545,13.434,5.5876l-43.5351-.0299c-.018-.0359-.1613.0418-.2749-.2868-.0119-.0597-.0358-.1374-.0119-.1852.1135-.1494.2271-.3167.3705-.4542,9.5855-9.6213,19.171-19.2427,28.7505-28.864.0419-.0358.0239-.1195-.0239.2032-2.8984-2.8625-5.6413-5.5696-8.5277-8.4262-10.8404,10.8404-21.9796,21.9916-33.3938,33.3998v-30.0233c9.2807-3.9442,18.6511-7.9242,27.8839-11.8564-1.9721-4.6971-3.8605-9.203-5.8386-13.9241-7.2011,3.0478-14.5157,6.1373-22.0274,9.3165v-17.4379h20.3541v-16.2607h-20.3901v-16.165c3.8545,1.2131,7.4341,2.9043,11.1094,4.3505,3.6393,1.4342,7.2668,2.9103,10.7567,4.3147,1.9243-4.7449,3.7888-9.3345,5.719-14.0854-9.0775-3.6812-18.3403-7.4281-27.621-11.187v-30.7285c.1135-.0538.1673-.1016.2271-.1076.0597-.006.1314.0119.1672.0478.251.2092.5021.4184.7351.6454,10.8286,10.7986,21.639,21.6032,32.4675,32.4018.0359.0358.1136.0478-.0537-.0179,2.7489-2.8207,5.4321-5.5697,8.3125-8.5218-9.9679-9.9739-20.2885-20.2884-30.5731-30.5791.0657-.1554.0777-.2271.1135-.2749.0359-.0478.0896-.1076.1375-.1076,13.9061-.0179,27.8182-.0419,41.7243-.0538,6.2867-.0119,12.5735,0,19.0753,0v17.9519h16.3921v-17.8264h14.7248c-2.5995,6.472-5.1812,12.8842-7.7269,19.2307,4.6613,1.8466,9.2687,3.6812,14.1451,5.6174,2.5578-6.3106,5.1992-12.8364,7.9003-19.5056-4.1832-2.235-8.5456-3.6992-12.8543-5.3844h44.7601c.0179.0299.0597.0837.0777.1434.0179.0538.0358.1315.0059.1673-.1016.1614-.2151.3347-.3525.4661-10.1114,10.1173-20.2288,20.2287-30.4895,30.4835,1.4582,1.3805,2.8984,2.6653,4.2609,4.0397,1.3805,1.3864,2.6952,2.8565,4.1653,4.4282,11.3782-11.3842,22.7266-22.7267,34.1228-34.1288.4303,1.6016.5857,25.0095.2211,29.5213-9.5795,4.0757-19.2427,8.1811-28.7684,12.2329,2.0259,4.7091,3.9561,9.203,5.964,13.8762,7.452-3.1553,15.0176-6.3585,22.7744-9.6393v18.3283h-20.9338v16.2248l30.6389,1.745.0956,18.5674c-7.5655-2.9163-24.7465-10.0098-32.1687-12.9738-1.9003,4.721-3.7409,9.3106-5.6772,14.1272,9.2448,3.741,34.2006,13.942,43.6486,17.7726l2.3964,29.8321c-.1135.0478-4.2489-.49-4.3087-.484-.0597.006-8.7368.1972-8.7727.1614-11.229-11.3125-27.6987-27.1668-38.6527-38.2164-2.9701,2.982-5.719,5.731-8.5995,8.6114,9.4421,9.448,20.7905,19.7327,30.6568,29.605-4.464,0-58.4511.0179-61.1761-.0777M342.06,100.6062c.1673-30.4536-25.0035-54.8536-54.6384-55.0269-29.3361-.1733-54.979,23.5215-55.3077,54.3934-.3347,31.3321,25.3621,55.5587,54.8655,55.6185,29.9277.0538,55.236-24.4896,55.0806-54.985M270.4497,42.1909c-2.731-6.4421-5.4799-12.9261-8.2947-19.5474-4.9421,1.4044-9.5436,3.2629-14.0435,5.6354,2.8804,6.8007,5.6772,13.3922,8.4201,19.8522,4.6613-1.99,9.1552-3.9083,13.918-5.9401M325.2017,171.3917c-2.6234-6.1851-5.1931-12.2388-7.733-18.2327-4.6971,1.984-9.2508,3.9023-13.9479,5.8804,2.4801,5.8385,4.9959,11.7787,7.5656,17.8264,4.9362-1.3924,9.5376-3.1613,14.1153-5.474"/><path class="uuid-26bc4305-1954-41b7-9752-d3df9357386d" d="M342.0635,100.605c.1434,30.4895-25.1529,55.0269-55.0806,54.9671-29.5094-.0538-55.2062-24.2744-54.8715-55.6006.3347-30.8659,25.9776-54.5488,55.3078-54.3814,29.6408.1733,54.8117,24.5673,54.6444,55.0149"/><path class="uuid-26bc4305-1954-41b7-9752-d3df9357386d" d="M270.4509,42.2065c-4.7689,2.0318-9.2508,3.9442-13.918,5.9341-2.743-6.454-5.5397-13.0456-8.4262-19.8403,4.5119-2.3784,9.1014-4.231,14.0495-5.6353,2.8146,6.6214,5.5636,13.0993,8.2947,19.5414"/><path class="uuid-26bc4305-1954-41b7-9752-d3df9357386d" d="M325.2011,171.3732c-4.5776,2.3127-9.1791,4.0816-14.1153,5.468-2.5697-6.0417-5.0855-11.9759-7.5656-17.8204,4.6972-1.9721,9.2508-3.8903,13.9479-5.8684,2.5398,5.982,5.1095,12.0476,7.733,18.2208"/><path class="uuid-8c836503-e00c-4559-9902-c8adf0942769" d="M224.161,195.6924c-3.0597,3.0298-6.3046,6.2449-9.5974,9.5078-2.5457-2.5458-5.0198-4.984-7.452-7.47-.3287-.3347-.5976-.8844-.6155-1.3446-.0598-2.1454-.024-4.3027-.024-6.5796.7112-.0538,1.2789-.1315,1.8407-.1315,11.8743-.006,23.7486.006,35.6228-.0299,1.1414,0,1.9541.3347,2.7489,1.1534,6.8007,6.9262,13.6372,13.8165,20.4678,20.7128.6813.6872,1.4163,1.3207,2.2768,2.1155,3.4064-3.3704,6.7051-6.6214,10.1592-10.0337,10.6253,10.7388,21.1311,21.3582,31.7086,32.0432-3.3644,3.3944-6.6811,6.7409-9.8065,9.8962,10.6552,10.6432,21.1669,21.149,31.8161,31.7922,3.1494-3.1195,6.484-6.4242,9.723-9.6333,1.2729,1.1952,2.4381,2.241,3.5437,3.3466,6.8306,6.8126,13.6313,13.6491,20.4797,20.4379.8904.8904,1.3207,1.7689,1.3147,3.0657-.0478,12.4659-.0179,24.9318-.0478,37.3977,0,2.2231-.1793,4.4402-.2988,7.207-5.8325-5.6174-11.0735-11.1333-16.7208-16.5475-3.4959,3.1493-6.5676,6.5377-9.6213,9.4301-10.7089-10.4341-21.3522-20.8203-32.091-31.2902,3.3884-3.4183,6.5617-6.6214,9.5556-9.6393-10.6253-10.6253-21.1311-21.1251-31.8041-31.7982-2.9701,2.9342-6.1732,6.0955-9.5019,9.3883-10.458-10.5476-20.8383-21.0116-31.3499-31.613,3.2329-3.2689,6.442-6.5079,9.4958-9.5915-10.6372-10.6253-21.143-21.1251-31.8221-31.7922"/><path class="uuid-8c836503-e00c-4559-9902-c8adf0942769" d="M291.0537,319.2053c3.2688-3.245,6.5617-6.5258,9.7648-9.711,10.5954,10.5954,21.1132,21.0952,31.7086,31.6847-3.2091,3.239-6.472,6.5198-9.9141,9.9918,4.0816,4.2071,8.0914,8.1393,12.0595,12.1253,3.98,3.986,7.966,7.972,12.0297,12.0296-5.229,3.7888-10.8404,6.3585-16.8821,8.0437-.7529.2032-1.2251-.0837-1.721-.5856-1.4642-1.5059-2.9641-2.976-4.4522-4.4641-3.9382-3.9382-7.8943-7.8704-11.8145-11.8324-.5976-.6096-1.0279-1.3745-1.6374-2.1992-3.9382,3.233-6.8664,6.7648-10.446,9.9799-10.5834-10.5715-21.167-21.0952-31.7086-31.9715,3.2091-3.239,6.4003-6.472,9.454-9.5556-10.6134-10.6253-21.0833-21.1132-31.6907-31.7385-3.2987,2.7251-6.197,6.1971-9.6333,9.3166-.4004-.3227-.8127-.6096-1.1593-.9621-9.203-9.2628-18.394-18.5315-27.5791-27.8003-1.4522-1.4701-1.3984-4.4641.0956-5.9581,1.7988-1.8167,3.6155-3.6155,5.4143-5.4322.502-.502.9621-1.0458,1.5537-1.7032-1.4461-1.4821-2.8146-2.8685-4.1832-4.2609-1.237-1.2669-2.976-2.3247-3.5916-3.8366-.6454-1.5896-.245-3.6095-.245-5.4441-.0119-5.9043-.006-11.8085-.006-17.7128v-2.4502c7.2609,7.1114,14.0317,14.0675,21.167,21.0474,3.4063-3.3585,6.6931-6.6035,9.8305-9.711,10.5476,10.5476,20.9697,20.9757,31.4874,31.4875-3.1553,3.1792-6.4242,6.478-9.6632,9.7468.8965,1.6374,29.8142,30.6448,31.7624,31.8759"/><path class="uuid-8c836503-e00c-4559-9902-c8adf0942769" d="M206.5389,401.2448v-103.3008c7.0995,7.201,13.93,14.1153,20.8801,21.161-3.3167,3.3525-6.6155,6.6871-9.8843,9.9859.9263,1.5717,29.4018,30.1967,31.7146,31.8819,3.2988-3.2629,6.6333-6.5557,9.956-9.8424,10.685,10.6014,21.2864,21.1191,31.8579,31.601-.8127,1.5836-1.9362,2.0677-3.5736,2.0498-7.9361-.0837-15.8722-.0179-23.8143-.0418-20.0136-.0478-38.4853,5.3605-55.5946,15.6212-.4302.257-.8785.502-1.5418.8844"/><path class="uuid-8c836503-e00c-4559-9902-c8adf0942769" d="M370.6066,275.4401c-5.6114-5.6951-13.3264-11.0974-18.7347-16.5893,3.233-3.2689,6.4062-6.472,9.3942-9.4839-10.6253-10.6193-21.1311-21.1311-31.7982-31.7982-2.976,2.9342-6.1791,6.1015-9.4959,9.3763-10.5535-10.6372-21.0295-21.1849-31.6607-31.8938,1.6672-1.6673,3.3047-3.3286,4.9779-4.9481.251-.239.6813-.3586,1.0458-.4064.5139-.0717,1.0458-.0239,1.5717-.0239h101.024l-26.3242,85.7673Z"/></g><path class="uuid-dc1a53ac-6891-4410-9c37-e24fadef1abf" d="M198.2557,188.1215v156.4692H63.8259c-28.7206-56.2519-41.8559-90.076-43.8877-165.5168,97.4324,0,178.3174.1972,178.3174.1972v8.8504Z"/><path class="uuid-665003fe-9c66-41b5-bc48-6a905c0819b3" d="M143.9836,316.1563l-2.5099.0239c-25.8999.2271-51.7998.4362-77.7057.7171-1.5238.0119-2.6175-.4243-3.6573-1.494-2.4023-2.4621-4.9003-4.8286-7.3325-7.2608-1.2669-1.2669-1.2969-1.5836-.0837-2.8446,2.6294-2.7489,5.3186-5.4441,7.9839-8.1572.5319-.5438,1.1415-.8546,1.9362-.7649.4183.0359.8426,0,1.2729,0,25.8402-.2271,51.6743-.4542,77.5144-.6813l2.4024-.0179c-.0119-1.7271-.0358-3.3346-.0419-4.9422-.0059-2.0019.2809-2.2948,2.3067-2.3247,2.7729-.0358,5.5517-.0597,8.3246-.0717,2.0258-.006,2.3366.2868,2.3665,2.2649.0239,1.5597.0299,3.1255.0419,4.8764.747.0239,1.3805.0657,2.0199.0597,7.4222-.0597,14.8562-.0478,22.2784-.233,2.6832-.0657,4.3505,1.1235,5.4681,3.3465,1.47,2.8924,1.7808,6.0118,1.3684,9.1672-.2151,1.6494-.7111,3.3167-1.3864,4.8286-.9621,2.1394-2.6474,3.233-5.1693,3.2211-7.5477-.0359-15.0953.0896-22.637.1614-.5319.006-1.0578.0657-1.7629.1076.0179,2.0139.0419,3.9322.0478,5.8505.0119,2.0916-.2749,2.3844-2.4083,2.4083-2.7848.0358-5.5576.0657-8.3365.0777-1.8465,0-2.2111-.3765-2.2469-2.2231-.0299-1.9721-.0358-3.9441-.0538-6.0955"/><path class="uuid-486b7d6d-438a-4c4e-8efe-aab632961505" d="M55.0268,306.6742c2.3844-2.4023,4.6254-4.6852,6.9083-6.9142.3525-.3406.9143-.49,1.4103-.6334.3347-.1016.7171-.0299,1.0817-.0299,25.7684-.2271,51.5369-.4482,77.3053-.6753l1.7809-.0179c.3944,1.3267.5916,12.2926.2748,14.934-.5558.0418-1.1414.1016-1.721.1076-25.9477.2331-51.8955.4542-77.8492.7052-1.1115.0119-1.9242-.2629-2.707-1.0757-2.0498-2.1274-4.2011-4.1533-6.484-6.4003"/><path class="uuid-486b7d6d-438a-4c4e-8efe-aab632961505" d="M146.5006,291.1988l7.3385-.0657c.3945,1.3924.6873,28.5413.3347,30.4417l-7.4102.0657-.263-30.4416Z"/><path class="uuid-486b7d6d-438a-4c4e-8efe-aab632961505" d="M175.2278,298.1979l3.5139-.0299c1.2848,4.8943,2.5756,9.7887,3.9023,14.8324l-3.5438.0299c-1.2788-4.8883-2.5457-9.7468-3.8724-14.8324"/><path class="uuid-486b7d6d-438a-4c4e-8efe-aab632961505" d="M164.1788,298.2911l2.7729-.0239c1.2788,4.8764,2.5518,9.7349,3.8664,14.7726l-2.7908.0239c-1.2669-4.8644-2.5338-9.7289-3.8485-14.7726"/><path class="uuid-486b7d6d-438a-4c4e-8efe-aab632961505" d="M165.2216,313.1701l-2.7848.0239c-1.2669-4.8585-2.5398-9.7349-3.8605-14.7726l2.7729-.0239c1.2609,4.7987,2.5338,9.6691,3.8724,14.7726"/><path class="uuid-486b7d6d-438a-4c4e-8efe-aab632961505" d="M176.2724,313.0602l-2.5995.0239c-1.2669-4.8406-2.5518-9.7468-3.8724-14.7965l2.5995-.0239c1.2669,4.8346,2.5338,9.6931,3.8724,14.7965"/><path class="uuid-486b7d6d-438a-4c4e-8efe-aab632961505" d="M184.631,309.7351c-1.0458-3.98-2.0199-7.6851-3.006-11.4141.8487-.4243,1.4104-.1016,1.8167.4542.3885.5319.7411,1.1175.9801,1.7211,1.0219,2.6533,1.1593,5.3903.6454,8.1692-.0478.2749-.2092.5319-.4362,1.0697"/><path class="uuid-486b7d6d-438a-4c4e-8efe-aab632961505" d="M157.1905,304.0059c.7828,3.0179,1.5777,6.0357,2.3964,9.1911l-2.5338.0239-.0837-9.1672c.0718-.0179.1495-.0359.2211-.0478"/><path class="uuid-665003fe-9c66-41b5-bc48-6a905c0819b3" d="M143.9836,263.1242l-2.5099.0239c-25.8999.2271-51.7998.4362-77.7057.7171-1.5238.0119-2.6175-.4243-3.6573-1.494-2.4023-2.4621-4.9003-4.8286-7.3325-7.2608-1.2669-1.2669-1.2969-1.5836-.0837-2.8446,2.6294-2.7489,5.3186-5.4441,7.9839-8.1572.5319-.5438,1.1415-.8546,1.9362-.7649.4183.0359.8426,0,1.2729,0,25.8402-.2271,51.6743-.4542,77.5144-.6813l2.4024-.0179c-.0119-1.7271-.0358-3.3346-.0419-4.9422-.0059-2.0019.2809-2.2948,2.3067-2.3247,2.7729-.0358,5.5517-.0597,8.3246-.0717,2.0258-.006,2.3366.2868,2.3665,2.2649.0239,1.5597.0299,3.1255.0419,4.8764.747.0239,1.3805.0657,2.0199.0597,7.4222-.0597,14.8562-.0478,22.2784-.233,2.6832-.0657,4.3505,1.1235,5.4681,3.3465,1.47,2.8924,1.7808,6.0118,1.3684,9.1672-.2151,1.6494-.7111,3.3167-1.3864,4.8286-.9621,2.1394-2.6474,3.233-5.1693,3.2211-7.5477-.0359-15.0953.0896-22.637.1614-.5319.006-1.0578.0657-1.7629.1076.0179,2.0139.0419,3.9322.0478,5.8505.0119,2.0916-.2749,2.3844-2.4083,2.4083-2.7848.0358-5.5576.0657-8.3365.0777-1.8465,0-2.2111-.3765-2.2469-2.2231-.0299-1.9721-.0358-3.9441-.0538-6.0955"/><path class="uuid-486b7d6d-438a-4c4e-8efe-aab632961505" d="M55.0268,253.6422c2.3844-2.4023,4.6254-4.6852,6.9083-6.9142.3525-.3406.9143-.49,1.4103-.6334.3347-.1016.7171-.0299,1.0817-.0299,25.7684-.2271,51.5369-.4482,77.3053-.6753l1.7809-.0179c.3944,1.3267.5916,12.2926.2748,14.934-.5558.0418-1.1414.1016-1.721.1076-25.9477.2331-51.8955.4542-77.8492.7052-1.1115.0119-1.9242-.2629-2.707-1.0757-2.0498-2.1274-4.2011-4.1533-6.484-6.4003"/><path class="uuid-486b7d6d-438a-4c4e-8efe-aab632961505" d="M146.5006,238.1667l7.3385-.0657c.3945,1.3924.6873,28.5413.3347,30.4417l-7.4102.0657-.263-30.4416Z"/><path class="uuid-486b7d6d-438a-4c4e-8efe-aab632961505" d="M175.2278,245.1658l3.5139-.0299c1.2848,4.8943,2.5756,9.7887,3.9023,14.8324l-3.5438.0299c-1.2788-4.8883-2.5457-9.7468-3.8724-14.8324"/><path class="uuid-486b7d6d-438a-4c4e-8efe-aab632961505" d="M164.1788,245.259l2.7729-.0239c1.2788,4.8764,2.5518,9.7349,3.8664,14.7726l-2.7908.0239c-1.2669-4.8644-2.5338-9.7289-3.8485-14.7726"/><path class="uuid-486b7d6d-438a-4c4e-8efe-aab632961505" d="M165.2216,260.138l-2.7848.0239c-1.2669-4.8585-2.5398-9.7349-3.8605-14.7726l2.7729-.0239c1.2609,4.7987,2.5338,9.6691,3.8724,14.7726"/><path class="uuid-486b7d6d-438a-4c4e-8efe-aab632961505" d="M176.2724,260.0281l-2.5995.0239c-1.2669-4.8406-2.5518-9.7468-3.8724-14.7965l2.5995-.0239c1.2669,4.8346,2.5338,9.6931,3.8724,14.7965"/><path class="uuid-486b7d6d-438a-4c4e-8efe-aab632961505" d="M184.631,256.703c-1.0458-3.98-2.0199-7.6851-3.006-11.4141.8487-.4243,1.4104-.1016,1.8167.4542.3885.5319.7411,1.1175.9801,1.7211,1.0219,2.6533,1.1593,5.3903.6454,8.1692-.0478.2749-.2092.5319-.4362,1.0697"/><path class="uuid-486b7d6d-438a-4c4e-8efe-aab632961505" d="M157.1905,250.9739c.7828,3.0179,1.5777,6.0417,2.3964,9.1911l-2.5338.0239-.0837-9.1672c.0718-.0179.1495-.0359.2211-.0478"/><path class="uuid-665003fe-9c66-41b5-bc48-6a905c0819b3" d="M143.9836,210.0922l-2.5099.0239c-25.8999.2271-51.7998.4362-77.7057.7171-1.5238.0119-2.6175-.4243-3.6573-1.494-2.4023-2.4621-4.9003-4.8286-7.3325-7.2608-1.2669-1.2669-1.2969-1.5836-.0837-2.8446,2.6294-2.7489,5.3186-5.4441,7.9839-8.1572.5319-.5438,1.1415-.8546,1.9362-.7649.4183.0418.8426,0,1.2729,0,25.8402-.2271,51.6743-.4542,77.5144-.6813l2.4024-.0179c-.0119-1.727-.0358-3.3346-.0419-4.9421-.0059-2.0019.2809-2.2948,2.3067-2.3247,2.7729-.0359,5.5517-.0597,8.3246-.0717,2.0258-.006,2.3366.2868,2.3665,2.2649.0239,1.5597.0299,3.1255.0419,4.8764.747.0239,1.3805.0657,2.0199.0597,7.4222-.0597,14.8562-.0478,22.2784-.233,2.6832-.0657,4.3505,1.1235,5.4681,3.3465,1.47,2.8924,1.7808,6.0118,1.3684,9.1672-.2151,1.6494-.7111,3.3167-1.3864,4.8286-.9621,2.1394-2.6474,3.233-5.1693,3.2211-7.5477-.0359-15.0953.0896-22.637.1614-.5319.006-1.0578.0657-1.7629.1076.0179,2.0139.0419,3.9322.0478,5.8505.0119,2.0916-.2749,2.3844-2.4083,2.4083-2.7848.0358-5.5576.0657-8.3365.0777-1.8465,0-2.2111-.3765-2.2469-2.2231-.0299-1.9721-.0358-3.9441-.0538-6.0955"/><path class="uuid-486b7d6d-438a-4c4e-8efe-aab632961505" d="M55.0268,200.6101c2.3844-2.4023,4.6254-4.6852,6.9083-6.9142.3525-.3406.9143-.49,1.4103-.6334.3347-.1016.7171-.0299,1.0817-.0299,25.7684-.2271,51.5369-.4482,77.3053-.6753l1.7809-.0179c.3944,1.3267.5916,12.2926.2748,14.934-.5558.0418-1.1414.1016-1.721.1076-25.9477.2331-51.8955.4542-77.8492.7052-1.1115.0119-1.9242-.2629-2.707-1.0757-2.0498-2.1274-4.2011-4.1533-6.484-6.4003"/><path class="uuid-486b7d6d-438a-4c4e-8efe-aab632961505" d="M146.5006,185.1347l7.3385-.0657c.3945,1.3924.6873,28.5413.3347,30.4417l-7.4102.0657-.263-30.4417Z"/><path class="uuid-486b7d6d-438a-4c4e-8efe-aab632961505" d="M175.2278,192.1338l3.5139-.0299c1.2848,4.8943,2.5756,9.7887,3.9023,14.8324l-3.5438.0299c-1.2788-4.8883-2.5457-9.7468-3.8724-14.8324"/><path class="uuid-486b7d6d-438a-4c4e-8efe-aab632961505" d="M164.1788,192.2264l2.7729-.0239c1.2788,4.8764,2.5518,9.7349,3.8664,14.7726l-2.7908.0239c-1.2669-4.8644-2.5338-9.7289-3.8485-14.7726"/><path class="uuid-486b7d6d-438a-4c4e-8efe-aab632961505" d="M165.2216,207.106l-2.7848.0239c-1.2669-4.8585-2.5398-9.7349-3.8605-14.7726l2.7729-.0239c1.2609,4.7987,2.5338,9.6691,3.8724,14.7726"/><path class="uuid-486b7d6d-438a-4c4e-8efe-aab632961505" d="M176.2724,206.996l-2.5995.0239c-1.2669-4.8406-2.5518-9.7468-3.8724-14.7965l2.5995-.0239c1.2669,4.8346,2.5338,9.6931,3.8724,14.7965"/><path class="uuid-486b7d6d-438a-4c4e-8efe-aab632961505" d="M184.631,203.671c-1.0458-3.98-2.0199-7.6851-3.006-11.4141.8487-.4243,1.4104-.1016,1.8167.4542.3885.5319.7411,1.1175.9801,1.7211,1.0219,2.6533,1.1593,5.3903.6454,8.1692-.0478.2749-.2092.5319-.4362,1.0697"/><path class="uuid-486b7d6d-438a-4c4e-8efe-aab632961505" d="M157.1905,197.9412c.7828,3.0179,1.5777,6.0357,2.3964,9.1911l-2.5338.0239-.0837-9.1672c.0718-.0179.1495-.0359.2211-.0478"/><polygon class="uuid-486b7d6d-438a-4c4e-8efe-aab632961505" points="93.5482 361.4998 93.5482 365.5933 84.13 365.5933 84.13 371.4199 91.9705 371.4199 91.9705 375.5194 84.13 375.5194 84.13 384.4476 78.7755 384.4476 78.7755 361.4998 93.5482 361.4998"/><path class="uuid-486b7d6d-438a-4c4e-8efe-aab632961505" d="M92.5705,381.9741c0-.3765.0717-.7291.2151-1.0518.1375-.3287.3347-.6095.5797-.8546.245-.239.5379-.4303.8725-.5737.3406-.1434.7052-.2151,1.1056-.2151.3884,0,.7529.0717,1.0876.2151.3347.1434.6275.3347.8785.5737.257.245.4482.5259.5916.8546.1434.3227.2151.6753.2151,1.0518s-.0717.735-.2151,1.0637-.3347.6155-.5916.8605c-.2509.239-.5438.4303-.8785.5617-.3347.1374-.6992.2092-1.0876.2092-.4004,0-.765-.0717-1.1056-.2092-.3346-.1315-.6275-.3227-.8725-.5617-.245-.245-.4422-.5319-.5797-.8605-.1434-.3287-.2151-.6872-.2151-1.0637"/><path class="uuid-486b7d6d-438a-4c4e-8efe-aab632961505" d="M115.6127,378.5092c.1255,0,.251.0239.3765.0717.1255.0478.2509.1315.3645.245l2.1096,2.2171c-.9263,1.2071-2.0797,2.1215-3.4721,2.737s-3.0358.9203-4.9361.9203c-1.745,0-3.3048-.2988-4.6852-.8904-1.3805-.5916-2.5518-1.4103-3.5139-2.4561s-1.6972-2.2828-2.2111-3.7171c-.5199-1.4342-.7769-2.994-.7769-4.6732,0-1.7091.2988-3.2808.8844-4.7151.5857-1.4342,1.4104-2.6713,2.4621-3.7111,1.0578-1.0398,2.3187-1.8466,3.7888-2.4263,1.4701-.5737,3.0956-.8665,4.8704-.8665.8605,0,1.6672.0777,2.4322.2331.7589.1494,1.4701.3586,2.1334.6275.6634.2689,1.273.5857,1.8286.9621.5558.3705,1.0458.7828,1.4761,1.237l-1.7928,2.4083c-.1135.1494-.2509.2809-.4123.4004-.1554.1195-.3765.1793-.6574.1793-.1912,0-.3705-.0418-.5378-.1195-.1673-.0896-.3466-.1912-.5319-.3108-.1912-.1195-.4004-.251-.6275-.3944-.2211-.1434-.49-.2689-.8008-.3944-.3108-.1195-.6693-.2211-1.0876-.3048-.4123-.0837-.9024-.1255-1.4582-.1255-.9622,0-1.8466.1673-2.6414.508-.8008.3466-1.4821.8307-2.0558,1.4701-.5737.6335-1.0218,1.4044-1.3386,2.3067-.3227.9024-.484,1.9123-.484,3.0358,0,1.1773.1613,2.2231.484,3.1374.3168.9143.753,1.6793,1.3028,2.3067.5558.6275,1.1952,1.0996,1.9302,1.4223.7351.3287,1.5239.49,2.3666.49.478,0,.9203-.0239,1.3207-.0717.4004-.0478.7709-.1255,1.1116-.245.3406-.1135.6633-.2629.9741-.4482.3108-.1793.6215-.4123.9382-.6813.1256-.1076.263-.1912.4123-.2629.1434-.0657.2988-.1016.4542-.1016"/><path class="uuid-486b7d6d-438a-4c4e-8efe-aab632961505" d="M119.9435,381.9741c0-.3765.0717-.7291.2151-1.0518.1375-.3287.3347-.6095.5797-.8546.245-.239.5379-.4303.8726-.5737.3406-.1434.7051-.2151,1.1055-.2151.3885,0,.7529.0717,1.0876.2151.3347.1434.6275.3347.8785.5737.257.245.4482.5259.5916.8546.1434.3227.2151.6753.2151,1.0518s-.0717.735-.2151,1.0637-.3347.6155-.5916.8605c-.2509.239-.5438.4303-.8785.5617-.3347.1374-.6991.2092-1.0876.2092-.4004,0-.765-.0717-1.1055-.2092-.3347-.1315-.6275-.3227-.8726-.5617-.245-.245-.4422-.5319-.5797-.8605-.1434-.3287-.2151-.6872-.2151-1.0637"/><polygon class="uuid-486b7d6d-438a-4c4e-8efe-aab632961505" points="139.7252 380.1945 148.229 380.1945 148.229 384.4494 134.4005 384.4494 134.4005 361.5016 139.7252 361.5016 139.7252 380.1945"/><path class="uuid-486b7d6d-438a-4c4e-8efe-aab632961505" d="M160.2945,380.2417c.7112,0,1.3506-.1195,1.9124-.3526.5617-.239,1.0398-.5737,1.4283-1.0159.3884-.4422.6813-.9801.8903-1.6135.2033-.6394.3048-1.3565.3048-2.1693v-13.5894h5.3245v13.5894c0,1.4103-.2271,2.7011-.6872,3.8784-.4542,1.1713-1.1116,2.1872-1.9601,3.0358-.8486.8546-1.8824,1.5119-3.1015,1.984-1.2192.4721-2.5876.7111-4.1115.7111-1.5359,0-2.9103-.239-4.1234-.7111-1.2191-.4721-2.2529-1.1295-3.1075-1.984-.8486-.8486-1.4999-1.8645-1.9541-3.0358-.4482-1.1773-.6752-2.4681-.6752-3.8784v-13.5894h5.3245v13.5774c0,.8068.1016,1.5299.3048,2.1633.2091.6335.502,1.1773.8903,1.6195.3885.4482.8665.7888,1.4283,1.0279.5618.2331,1.1953.3526,1.9124.3526"/><path class="uuid-486b7d6d-438a-4c4e-8efe-aab632961505" d="M185.9583,375.2015c.1972.4303.3824.8725.5617,1.3267.1733-.4661.3646-.9143.5618-1.3506.2032-.4362.4063-.8546.6155-1.2669l5.8923-11.5934c.1076-.1972.2092-.3526.3227-.4601.1076-.1135.2331-.1912.3706-.245.1374-.0538.2928-.0837.4661-.0956.1733-.0119.3765-.0179.6037-.0179h4.0636v22.9478h-4.6912v-13.195c0-.6454.0299-1.3327.0957-2.0797l-6.0836,11.7966c-.1852.3645-.4422.6454-.7649.8307-.3168.1912-.6813.2868-1.0936.2868h-.7231c-.4123,0-.7769-.0956-1.0936-.2868-.3227-.1853-.5737-.4661-.765-.8307l-6.1134-11.8145c.0418.3705.0777.7291.0956,1.0936.0239.3645.0358.6992.0358,1.004v13.195h-4.6971v-22.9478h4.0637c.2331,0,.4362.006.6095.0179.1733.012.3227.0418.4602.0956.1374.0538.2629.1315.3705.245.1135.1076.2211.2629.3227.4601l5.9042,11.6412c.2152.4004.4184.8127.6096,1.243"/><polygon class="uuid-486b7d6d-438a-4c4e-8efe-aab632961505" points="217.9687 361.4998 217.9687 365.5933 208.5506 365.5933 208.5506 370.9478 215.7636 370.9478 215.7636 374.886 208.5506 374.886 208.5506 380.354 217.9687 380.354 217.9687 384.4476 203.1961 384.4476 203.1961 361.4998 217.9687 361.4998"/><path class="uuid-486b7d6d-438a-4c4e-8efe-aab632961505" d="M237.7822,361.4998v1.9243c0,.2689-.0419.5378-.1315.8008-.0896.2629-.2151.508-.3705.741l-10.7747,15.3882h10.93v4.0935h-17.7009v-2.0498c0-.239.0419-.4781.1256-.7171.0836-.2331.1971-.4542.3466-.6514l10.8046-15.436h-10.3982v-4.0935h17.169Z"/><path class="uuid-486b7d6d-438a-4c4e-8efe-aab632961505" d="M256.9961,361.4998v1.9243c0,.2689-.0419.5378-.1315.8008-.0896.2629-.2151.508-.3705.741l-10.7747,15.3882h10.93v4.0935h-17.7009v-2.0498c0-.239.0419-.4781.1256-.7171.0836-.2331.1971-.4542.3466-.6514l10.8046-15.436h-10.3982v-4.0935h17.169Z"/><path class="uuid-486b7d6d-438a-4c4e-8efe-aab632961505" d="M280.7787,384.447h-4.1234c-.4661,0-.8486-.1076-1.1473-.3227-.2988-.2151-.502-.49-.6215-.8247l-1.3506-4.0039h-8.7309l-1.3507,4.0039c-.1075.2928-.3107.5558-.6155.7948-.3047.2331-.6752.3526-1.1175.3526h-4.1593l8.8863-22.9478h5.4441l8.8863,22.9478ZM266.0359,375.6742h6.2688l-2.1095-6.2867c-.1374-.3944-.2988-.8665-.4781-1.4044-.1852-.5438-.3705-1.1295-.5438-1.7569-.1733.6394-.3466,1.231-.5199,1.7808-.1793.5438-.3466,1.0159-.508,1.4163l-2.1095,6.2509Z"/><path class="uuid-486b7d6d-438a-4c4e-8efe-aab632961505" d="M286.0226,361.5309c.1554.0239.2988.0598.4243.1195.1255.0538.245.1374.3646.245.1135.1016.245.245.3944.4243l10.8942,13.7806c-.0419-.4422-.0717-.8665-.0896-1.2848-.0239-.4123-.0358-.8068-.0358-1.1713v-12.1432h4.6971v22.9478h-2.7728c-.4123,0-.7589-.0657-1.0399-.1912-.2868-.1255-.5558-.3586-.8187-.6932l-10.8225-13.6671c.0358.3944.0598.7888.0837,1.1713.0179.3825.0298.741.0298,1.0817v12.2986h-4.6971v-22.9478h2.8027c.2331,0,.4303.006.5857.0299"/><polygon class="uuid-486b7d6d-438a-4c4e-8efe-aab632961505" points="321.2242 361.4998 321.2242 365.5933 311.806 365.5933 311.806 370.9478 319.019 370.9478 319.019 374.886 311.806 374.886 311.806 380.354 321.2242 380.354 321.2242 384.4476 306.4515 384.4476 306.4515 361.4998 321.2242 361.4998"/></svg>