<?xml version="1.0" encoding="UTF-8"?>
<svg width="302" height="331" version="1.1" viewBox="0 0 88.609 96.773" xmlns="http://www.w3.org/2000/svg">
 <g transform="matrix(.9968 0 0 .9968 -32.039 -14.11)">
  <path d="m101.7 14.363h-50.109l-19.25 24.227v48.219l19.25 24.328h50.109l19.25-24.328v-48.219" fill="#1d58a8"/>
  <path d="m100.32 16.965h-47.328l-18.18 22.875v45.547l18.18 22.973h47.328l18.172-22.973v-45.547" fill="#fff"/>
  <path d="m98.895 19.695h-44.488l-17.09 21.5v42.816l17.09 21.59h44.488l17.09-21.59v-42.816" fill="#1d58a8"/>
  <path d="m52.074 97.875h7.5859v-62.969l16.992 16.117 16.988-16.078v62.93h7.5859v-70.648h-9.8281l-14.746 14.047-14.746-14.047h-9.832" fill="#fff"/>
  <path d="m78.973 46.637-7.8438-5.1953c-1.918-1.4062-3.1016-3.6562-3.1016-6.2617 0-3.875 3.4883-7.875 8.5312-7.875 1.6406 0 2.957 0.30859 4.3164 1.1406l4.8242 3.2461-2.8789 2.7578-3.4922-2.3477c-0.99219-0.61328-1.5078-0.98047-2.7578-0.98047-2.5391 0-4.3945 1.9102-4.3945 4.1406 0 2.1992 1.25 2.9492 2.2422 3.6523l6.4648 4.3047c7.0234 4.3516 11.043 7.7109 11.043 14.137 0 8.0352-10.348 16.723-20.781 10.555l-8.1016-5.1953 2.3359-3.5703 7.7578 5.0352c7.5469 4.8242 14.227-0.73438 14.227-7.6328-0.02344-3.3359-2.2695-5.9336-8.3906-9.9102" fill="#fff"/>
  <path transform="matrix(.5 0 0 -.5 0 843.01)" d="m157.95 1592.7-15.688 10.391c-3.8359 2.8125-6.2031 7.3125-6.2031 12.523 0 7.75 6.9766 15.75 17.062 15.75 3.2812 0 5.9141-0.6172 8.6328-2.2812l9.6484-6.4922-5.7578-5.5156-6.9844 4.6953c-1.9844 1.2265-3.0156 1.9609-5.5156 1.9609-5.0781 0-8.7891-3.8203-8.7891-8.2812 0-4.3985 2.5-5.8985 4.4844-7.3047l12.93-8.6094c14.047-8.7031 22.086-15.422 22.086-28.273 0-16.07-20.695-33.445-41.562-21.109l-16.203 10.391 4.6719 7.1406 15.516-10.07c15.094-9.6484 28.453 1.4688 28.453 15.266-0.0469 6.6718-4.5391 11.867-16.781 19.82z" fill="none" stroke="#2357a7" stroke-width="2.17"/>
  <path d="m67.465 43.953h-5.8672l13.926 44.867h2.2383l13.926-44.867h-5.8672l-9.168 29.973" fill="#fff"/>
  <path transform="matrix(.5 0 0 -.5 0 843.01)" d="m134.93 1598.1h-11.734l27.852-89.734h4.4766l27.852 89.734h-11.734l-18.336-59.945z" fill="none" stroke="#2357a7" stroke-width="2.17"/>
  <g fill="#fff">
   <path transform="matrix(.5 0 0 -.5 0 843.01)" d="m158.13 1553.9-2.4297-7.961c-5.0078 0.3204-10 2.1094-13.445 4.2266l-16.203 10.406 4.6641 7.1328 15.508-10.07c4.1406-2.2735 7.7578-3.7344 12.086-3.7344" stroke="#2357a7" stroke-width="2.17"/>
   <path d="m65.367 97.828h-1.1836v-10.512c-0.73438 0.90234-1.5547 1.5547-2.3672 1.9805v-1.5938c1.1641-0.72656 2.2852-2.0039 2.8008-3.3789h0.75"/>
   <path d="m67.648 94.586 1.1641-0.125c0.08984 0.72266 0.26172 1.2734 0.55859 1.6172 0.26562 0.34375 0.60547 0.50781 1.0352 0.50781 0.33984 0 0.68359-0.08203 0.94531-0.34766 0.26172-0.21484 0.51562-0.50391 0.6875-0.92969 0.17188-0.37891 0.34375-0.89453 0.43359-1.5273 0.12891-0.64062 0.17578-1.3203 0.17578-1.9961 0-0.08203 0.0078-0.03125 0.0078-0.19141-0.26562 0.50781-0.57031 0.78516-0.99609 1.1328-0.43359 0.34375-0.85938 0.46875-1.3359 0.46875-0.77734 0-1.4648-0.37891-2.0273-1.1953-0.55859-0.80469-0.82422-1.8242-0.82422-3.1445 0-1.3555 0.30078-2.4258 0.85938-3.2305 0.5625-0.80469 1.293-1.2305 2.1992-1.2305 0.64844 0 1.4102 0.23438 1.918 0.76172 0.51562 0.54688 0.71094 1.0234 1.0117 1.9141 0.26172 0.85156 0.38672 2.0859 0.38672 3.7461 0 1.6992-0.125 3.0625-0.38672 4.043-0.26172 1.0195-0.6875 1.7812-1.2148 2.2969-0.51172 0.50391-1.1641 0.76562-1.8984 0.76562-0.77344 0-1.3828-0.29688-1.8516-0.84766-0.46875-0.59766-0.77734-1.3828-0.85938-2.4258zm4.8711-5.8203c0-0.9375-0.17188-1.6562-0.55859-2.2109-0.37109-0.55078-0.82422-0.80469-1.2969-0.80469-0.51172 0-0.99219 0.30078-1.3828 0.89453-0.38672 0.60156-0.60547 1.3594-0.60547 2.3008 0 0.85156 0.17188 1.5312 0.5625 2.043 0.38672 0.50781 0.82031 0.78516 1.3828 0.78516 0.55859 0 0.99219-0.25391 1.3828-0.78516 0.34375-0.50391 0.51562-1.2266 0.51562-2.168"/>
   <path d="m91.488 96.238v1.5898h-6.4375c0-0.38281 0.04297-0.77344 0.125-1.1641 0.17188-0.60547 0.4375-1.2109 0.77734-1.7891 0.34766-0.60547 0.89062-1.2734 1.5586-2.0547 1.0586-1.2109 1.7695-2.1484 2.1484-2.8438 0.37109-0.6875 0.5625-1.3867 0.5625-1.9805 0-0.65234-0.17188-1.2109-0.51562-1.668-0.34375-0.44922-0.77734-0.68359-1.3086-0.68359-0.57812 0-1.0352 0.23438-1.3867 0.71484-0.33984 0.46875-0.51562 1.1406-0.51562 1.9805l-1.2305-0.16797c0.09375-1.2773 0.39062-2.2461 0.95312-2.8906 0.55859-0.66797 1.293-0.99219 2.1953-0.99219 0.92969 0 1.6836 0.33984 2.2227 1.0742 0.5625 0.71484 0.82812 1.5898 0.82812 2.6523 0 0.53906-0.09375 1.0547-0.23828 1.5898-0.17188 0.51562-0.43359 1.0742-0.79688 1.6328-0.37109 0.5625-0.99219 1.3633-1.8359 2.3711-0.73047 0.82422-1.1641 1.4023-1.3789 1.6875-0.22266 0.29297-0.37109 0.64844-0.51562 0.92969h4.7891"/>
   <path d="m41 41.297-0.0078 42.723 2.4961 3.1367-0.01172-48.98z"/>
   <path d="m45.891 35.078v54.988l2.4844 3.1484 0.05078-61.316z"/>
   <path d="m112.28 41.297v42.723l-2.4883 3.1367 0.0117-48.98z"/>
   <path d="m107.38 35.078 0.0117 54.988-2.5 3.1484-0.043-61.316z"/>
   <path d="m82.781 97.914h-1.1836v-10.516c-0.73438 0.90625-1.5586 1.5547-2.3711 1.9766v-1.5898c1.168-0.73047 2.2891-2.0039 2.8047-3.3789h0.75"/>
  </g>
 </g>
</svg>
