<?xml version="1.0" encoding="UTF-8"?>
<svg width="375" height="485" version="1.2" viewBox="0 0 281.25 363.75" xmlns="http://www.w3.org/2000/svg" xmlns:xlink="http://www.w3.org/1999/xlink">
 <defs>
  <clipPath id="clip1">
   <path d="m251 282h33v41h-33z"/>
  </clipPath>
  <clipPath id="clip2">
   <path d="m251.76 322.61c0.0586-0.0117 0.11719-0.0195 0.17187-0.0273 0.38282-19.203 13.414-35.348 31.113-40.199-17.77 4.8164-30.863 20.98-31.285 40.227"/>
  </clipPath>
  <clipPath id="clip3">
   <path d="m251 322h1v2h-1z"/>
  </clipPath>
  <clipPath id="clip4">
   <path d="m251.76 322.61c-8e-3 0.41406-8e-3 0.82813-8e-3 1.2461l0.17187-0.0273c-4e-3 -0.41797-4e-3 -0.83203 8e-3 -1.2461-0.0547 8e-3 -0.11328 0.0156-0.17187 0.0273"/>
  </clipPath>
 </defs>
 <g transform="matrix(1.2056 0 0 1.2056 -213.4 -322.61)">
  <g fill="#ffffff">
   <path d="m201.56 339.32c-0.25781 0-0.51953-0.0742-0.74218-0.22656-0.36719-0.24609-0.59375-0.66406-0.59375-1.1055v-28.992c0-0.65625 0.48828-1.2188 1.1445-1.3164 0.6289-0.0937 3.3359-0.52344 3.3359-0.52344 0.77735-0.16016 1.6953-0.44141 2.7344-0.84766 1.375-0.60547 2.6836-1.4219 3.8398-2.4062 0.30469-0.28125 0.49219-0.45703 0.6875-0.64843 0.89453-0.96094 1.6484-1.9102 2.2578-2.8633 0.1875-0.40234 0.47265-0.90625 0.76953-1.4141l0.043-0.14062c0.25-0.63282 0.5039-1.2734 0.70703-1.9258 0.33203-1.3594 0.33203-1.3594 0.85547-3.707 0.14062-0.60937 0.67578-1.0391 1.3008-1.0391l3.4844-8e-3c10.559-0.0195 21.102-0.0352 31.66-0.0352 0.45312-0.59765 0.90234-1.1953 1.3476-1.7891l1.9414-2.2617c1.8477-1.9805 3.7617-3.7969 5.8828-5.5898 0.53516-0.41797 0.9961-0.78125 1.457-1.1602 1.8047-1.3008 3.6992-2.5391 5.8516-3.8398 1.6133-0.84375 3.0976-1.6133 4.6094-2.3086l1.0352-0.41796c0.58203-0.23438 1.1641-0.47266 1.7578-0.70313 0.42578-0.15234 0.83984-0.29297 1.2578-0.43359l0.88672-0.3086c1.2695-0.3789 1.2695-0.3789 2.6211-0.75781 2.4492-0.58203 4.7695-1 7.1406-1.2969 0.69922-0.0859 1.3945-0.15235 2.1094-0.19141l1.8555-0.10547h0.71875c1.4453 0 2.8672 0.0117 4.2891 0.10547 4.3398 0.34766 8.1875 1.0781 11.805 2.2344 2.457 0.82032 4.8594 1.8008 7.3477 3 3.9336 2.0234 7.5781 4.4648 10.848 7.2774 0.52734 0.46094 1.0469 0.91015 1.543 1.3867 1.2617 1.2305 2.543 2.5781 4.168 4.3789 0.75 0.9375 1.4648 1.8594 2.1758 2.7812l35.168 0.0234c0.63282 0 1.1719 0.4375 1.3047 1.0547l0.12891 0.62109c0.30859 1.4375 0.59375 2.8008 1.0469 4.1133 0.45313 1.1602 1.0859 2.3359 1.9141 3.5547 0.69921 0.91797 1.5234 1.793 2.543 2.7031l0.66016 0.5039c0.79688 0.52735 1.7227 1.0664 2.75 1.5781 0.76172 0.30078 1.6367 0.58593 2.5039 0.80078l3.6875 0.60937c0.64453 0.10547 1.1133 0.66407 1.1133 1.3125v28.469c0 0.44141-0.21875 0.85157-0.58203 1.1016-0.22266 0.15625-0.48828 0.23437-0.75391 0.23437l-0.48047-0.0898c-1.5195-0.58594-3.0586-1.1641-4.582-1.7266-0.21484-0.082-0.39844-0.20703-0.53906-0.37109l-0.16797 0.0117-0.45313-0.082c-3.2852-1.1836-6.1836-2.1719-8.8633-3.0117l-0.17578-0.0703c-1.5312-0.44141-11.289-3.2539-15.5-4.2578-3.1094-0.73046-3.1094-0.73046-6.4219-1.457-3.7461-0.74609-7.5078-1.457-11.281-2.125-0.61328-0.10937-1.0664-0.6289-1.0977-1.25-0.043-0.91406-0.0664-1.7969-0.0859-2.707-0.14062-1.9805-0.40625-4.0938-0.78125-6.2226l-0.52734-2.332-0.69531-2.4375c-0.84375-2.5703-1.8086-4.9258-2.918-7.1406l-1.2774-2.3086c-1.0391-1.6602-2.1328-3.2578-3.3008-4.8086-0.57422-0.70703-1.168-1.4297-1.7891-2.1523-1.5195-1.6445-2.9922-3.0977-4.4883-4.3984-0.98438-0.78906-2.0273-1.6094-3.0977-2.3672-0.375-0.27343-0.76172-0.53125-1.1445-0.78515l-0.42187-0.28907c-0.57032-0.32421-1.207-0.71484-1.8516-1.1133l-0.45312-0.27343c-1.1445-0.59375-2.3906-1.1992-3.6328-1.7969-1.1445-0.45703-2.3984-0.94922-3.6758-1.3828-0.75782-0.23438-1.5586-0.48047-2.3633-0.70703-0.69921-0.17969-1.457-0.36719-2.2109-0.52735-0.44532-0.0976-0.87891-0.17968-1.3164-0.25781l-0.62116-0.11307c-1.6016-0.21484-3.2969-0.37891-4.9648-0.48047l-2.4844-0.0195c-3.0078 0.0586-6.207 0.49219-9.4727 1.2812 0 0-1.8164 0.52734-2.5312 0.72266-2.3164 0.79296-4.5312 1.7305-6.6953 2.832-1.5117 0.83593-3.0508 1.7695-4.5312 2.7461l-1.8984 1.3867c-0.91015 0.75781-1.8828 1.5898-2.8438 2.4219-1.3398 1.2852-1.3398 1.2812-2.0156 1.9961l-0.22657 0.25c-0.80468 0.90234-1.6094 1.8047-2.3789 2.7266l-1.1445 1.4961-0.32813 0.48438c-0.60547 0.90234-1.2188 1.8086-1.7812 2.707l-0.3125 0.54297c-0.33984 0.58984-0.68359 1.1797-1.0039 1.7695-0.66797 1.3047-1.332 2.7266-1.9531 4.1875 0 0-0.51953 1.3477-0.6875 1.8008l-0.66797 2.0977c-0.10156 0.32422-0.19531 0.65625-0.28515 0.99219l-0.25391 0.89062-0.49609 2.2734c-0.21875 1.2734-0.44532 2.6328-0.60938 3.9688l-0.22656 2.8203c8e-3 0.45703-8e-3 1.0156-0.0234 1.5781l-0.0117 0.57421c-0.0156 0.64063-0.48047 1.1758-1.1094 1.2852-5.7774 1.0078-11.398 2.1562-16.695 3.4141-0.10546 0.0274-14.312 3.8477-17.16 4.9102-1.4219 0.48828-2.8242 0.96875-4.2188 1.4688-1.3086 0.46875-2.5977 0.95703-3.8945 1.4414l-0.2461 0.0976-0.47265 0.0859-0.17188-0.0117-0.48828 0.34766-4.6094 1.8867-0.50782 0.0976"/>
   <path d="m292.88 269.62-0.17578 8e-3c-0.29687 0.0195-0.59375 0.0352-0.89062 0.0508-0.32032 0.0156-0.64844 0.0312-0.96875 0.0508-0.73047 0.043-1.4531 0.11328-2.1797 0.20313-2.418 0.30078-4.7852 0.72656-7.2344 1.3086-1.4648 0.41016-1.4648 0.41016-2.6836 0.77344l-0.12109 0.0391c-0.29297 0.10547-0.58594 0.20313-0.875 0.30078-0.42969 0.14453-0.85157 0.28906-1.2695 0.44141-0.63671 0.24219-1.2305 0.48437-1.8164 0.72265l-0.96485 0.39063-0.125 0.0547c-1.5547 0.71093-3.0742 1.5039-4.5469 2.2695l-0.19922 0.10937c-2.1836 1.3164-4.1055 2.5703-5.8711 3.8438l-0.14063 0.10547c-0.44922 0.3711-0.90234 0.72656-1.3594 1.082l-0.10938 0.0899c-2.1641 1.8281-4.1133 3.6758-5.957 5.6523l-0.0742 0.0859-0.16406 0.1914c-0.57031 0.66797-1.1445 1.332-1.7148 1.9961l-0.11719 0.14453c-0.31641 0.42187-0.62891 0.83594-0.94531 1.2539-10.34 4e-3 -20.664 0.0195-31 0.0351l-3.4844 8e-3c-1.2461 0-2.3281 0.86329-2.6016 2.082-0.51172 2.2891-0.51953 2.332-0.85156 3.6797-0.17579 0.5625-0.40625 1.1406-0.64844 1.7539l-0.0586 0.13672c-0.24609 0.42969-0.48437 0.85937-0.71093 1.3047-0.55469 0.84765-1.2344 1.6992-2.0742 2.6016l-0.46094 0.42578-0.16016 0.14453c-0.97265 0.82813-2.1719 1.5781-3.4766 2.1523-0.85156 0.32813-1.6758 0.57813-2.4258 0.73829l-1.3906 0.21875c-0.61719 0.0976-1.2344 0.19531-1.8672 0.28906-1.3086 0.19531-2.2774 1.3164-2.2774 2.6445v28.988c0 0.89063 0.44141 1.7227 1.1836 2.2188 0.44531 0.29688 0.96484 0.44922 1.4844 0.44922 0.34375 0 0.6875-0.0664 1.0117-0.19531l1.75-0.71485c0.95313-0.39062 1.9141-0.78515 2.8633-1.1758l0.47657-0.25781c0.21093-0.0234 0.41406-0.0742 0.61718-0.14844l0.2461-0.0937c1.2852-0.48437 2.5703-0.97265 3.875-1.4375 1.3906-0.49609 2.7812-0.97656 4.1719-1.4531 2.3789-0.88282 13.176-3.8398 17.141-4.9062 5.1992-1.2266 10.793-2.375 16.543-3.375 1.2578-0.21875 2.1836-1.2969 2.2109-2.5703l0.0117-0.57031c0.0195-0.53906 0.0312-1.0664 0.0352-1.6094 0.0352-0.44141 0.0703-0.88672 0.10547-1.332 0.0352-0.47266 0.0664-0.94532 0.10937-1.418 0.15625-1.2344 0.38281-2.5898 0.60156-3.8633 0.0703-0.32813 0.16407-0.7461 0.25782-1.1641 0.0781-0.33593 0.14843-0.67578 0.22265-1.0078 0.0781-0.26953 0.15625-0.54297 0.23047-0.81641 0.0898-0.32031 0.17969-0.64062 0.27735-0.95703l0.10937-0.35937c0.1875-0.58594 0.375-1.1797 0.56641-1.7578 0.1289-0.35547 0.30468-0.80079 0.47656-1.2383l0.1875-0.49218c0.57812-1.3516 1.2266-2.7461 1.8945-4.0586 0.28516-0.51172 0.61719-1.0898 0.95313-1.6719l0.34375-0.59766c0.5039-0.78515 1.1055-1.6836 1.707-2.5703l0.32031-0.48438 0.46484-0.60156c0.21875-0.27734 0.42969-0.55859 0.64453-0.84375 0.75-0.88672 1.5312-1.7617 2.3086-2.6367l0.25-0.27734c0.58984-0.62109 0.59375-0.62891 1.9219-1.8945 0.91407-0.79297 1.8359-1.582 2.7695-2.3594l0.94922-0.6875 0.87891-0.64453c1.4414-0.94531 2.9336-1.8476 4.4375-2.6797 2.0039-1.0195 4.1367-1.9219 6.4414-2.7148 0.69531-0.19141 1.4023-0.39844 2.1211-0.60547l0.34375-0.0976c3.1562-0.76172 6.2344-1.1758 9.1562-1.2305 0.36719 0 0.78516 8e-3 1.2031 0.0117 0.41016 4e-3 0.82032 0.0117 1.2305 0.0117 1.5898 0.0977 3.1992 0.25391 4.7969 0.46875l0.54687 0.0977c0.42188 0.0781 0.83985 0.15234 1.2539 0.24609 0.76172 0.16407 1.5039 0.34375 2.2148 0.52735 0.73828 0.20312 1.5234 0.44531 2.293 0.6914 1.1641 0.39454 2.3906 0.875 3.5547 1.3398 1.1719 0.5664 2.3477 1.1367 3.5039 1.7422l0.375 0.22656c0.6289 0.38672 1.25 0.76562 1.8789 1.1328l0.35156 0.23438c0.36719 0.25 0.74219 0.5 1.1016 0.75781 1.0547 0.7539 2.0898 1.5625 3.0469 2.3281 1.4453 1.2617 2.8711 2.6719 4.3672 4.2969 0.55469 0.64844 1.1445 1.3594 1.7344 2.0898 1.0703 1.4297 2.1289 2.9727 3.1797 4.6445 0.25391 0.47266 0.51953 0.94922 0.78516 1.4297l0.47656 0.85938c1.0273 2.0469 1.9609 4.3242 2.7969 6.8672 0.10937 0.39844 0.22265 0.78907 0.33984 1.1797 0.11719 0.41406 0.23828 0.82422 0.35156 1.2422 0.0664 0.28906 0.15235 0.67578 0.23438 1.0664 0.0859 0.38282 0.17578 0.77344 0.26562 1.1641 0.35938 2.043 0.60938 4.0625 0.7461 6.0156 0.0195 0.89453 0.043 1.7774 0.0898 2.6797 0.0586 1.2461 0.97266 2.2852 2.1992 2.5 3.7383 0.66406 7.5273 1.375 11.277 2.1211 3.25 0.71875 3.25 0.71875 6.3555 1.4453 4.1055 0.98046 13.574 3.7031 15.348 4.2148l0.23047 0.082c2.6602 0.83984 5.5391 1.8164 8.8086 2.9961l0.57031 0.14063c0.17578 0.12109 0.3711 0.22266 0.57813 0.29687 1.5195 0.5586 3.0547 1.1367 4.5664 1.7188 0.3086 0.125 0.63672 0.1836 0.96094 0.1836 0.53125 0 1.0586-0.16016 1.5117-0.46875 0.72266-0.5 1.1562-1.3203 1.1562-2.2031v-28.465c0-1.3047-0.94141-2.418-2.2227-2.6367l-2.3516-0.38672-1.3359-0.22265c-0.74218-0.1875-1.4922-0.42969-2.2305-0.72266-0.90234-0.45703-1.7266-0.92969-2.5117-1.457l-0.32032-0.24219-0.26172-0.19922c-0.85937-0.76953-1.6133-1.5742-2.293-2.4531-0.76172-1.1289-1.3203-2.1719-1.7539-3.2852-0.38672-1.1289-0.66406-2.4492-0.95703-3.8477l-0.13281-0.625c-0.26563-1.2344-1.3516-2.1133-2.6133-2.1133-5.9726 0-11.949-8e-3 -17.926-0.0117-5.5352-8e-3 -11.066-0.0117-16.586-0.0117-0.57813-0.75-1.1641-1.4922-1.7383-2.2148l-0.10156-0.12109c-1.6445-1.8242-2.9453-3.1914-4.2188-4.4375-0.53125-0.50391-1.0664-0.97656-1.6055-1.4414-3.3633-2.8867-7.0859-5.3906-11.09-7.4453-2.5977-1.2539-5.0508-2.2539-7.5508-3.0898-3.7422-1.1953-7.6914-1.9453-12.113-2.3047-1.7383-0.11328-3.418-0.11328-5.0469-0.11328m0 2.6719c1.6133 0 3.2188 0 4.8359 0.10547 3.8906 0.3125 7.75 0.98047 11.48 2.1719 2.4492 0.82031 4.832 1.8008 7.1797 2.9336 3.7812 1.9414 7.293 4.2852 10.559 7.0898 0.50391 0.4375 1.0078 0.875 1.4883 1.3359 1.418 1.3828 2.7617 2.8242 4.0977 4.3086 0.83593 1.0469 1.6719 2.1328 2.5039 3.2227 11.926 0 23.891 0.0234 35.832 0.0234 0.35547 1.6523 0.66797 3.3008 1.2188 4.8906 0.54297 1.3828 1.2305 2.6367 2.0703 3.8672 0.83203 1.0898 1.7305 2.0352 2.7617 2.9492 0.22265 0.19141 0.47656 0.35937 0.70703 0.54687 0.96484 0.65235 1.9414 1.2109 2.9922 1.7344 0.89844 0.35937 1.8398 0.66797 2.7812 0.89844 1.2578 0.21093 2.5312 0.42187 3.7852 0.63281v28.465c-1.5273-0.58984-3.0703-1.168-4.6016-1.7344v-22.695c-2.0508-0.46485-3.9609-1.2344-5.7891-2.2383-0.79297-0.5-1.5703-1.0078-2.332-1.5469-0.34765-0.31641-0.70703-0.60938-1.0547-0.92578-0.38672-0.35156-0.73828-0.6875-1.0898-1.043-0.65234-0.71094-0.65234-0.71094-1.3242-1.4844-0.7539-1.0273-1.4609-2.0898-2.0625-3.1992-0.55078-1.1094-1.0352-2.2383-1.4492-3.4102-0.082-0.33594-0.19141-0.64844-0.27344-0.96484h-29.137c0.20703 0.3789 0.41797 0.77343 0.64453 1.1562 4.9453 0 9.8789 0.0156 14.816 0.0351l8.0742-0.0195h4.7461c0.34766 1.1953 0.83594 2.3438 1.3828 3.4531 0.66406 1.1914 1.3711 2.3242 2.1719 3.4102 0.58593 0.71094 1.1953 1.418 1.8203 2.0898 0.44141 0.41796 0.88281 0.83593 1.3398 1.2344 1.0664 0.85938 2.1797 1.6523 3.3477 2.3438 0.58594 0.29297 1.1719 0.60547 1.7539 0.89844 1.0703 0.41797 2.1523 0.8125 3.2656 1.1328 0 5.375-0.0195 10.746-0.0195 16.121v5.2109c-2.9531-1.0664-5.9219-2.0938-8.9141-3.0312v-0.0195s-11.125-3.2266-15.77-4.332c-3.125-0.73047-3.125-0.73047-6.4453-1.4648-3.7812-0.75391-7.5469-1.4648-11.332-2.1328-0.043-0.90234-0.0625-1.7812-0.0898-2.6758-0.14844-2.1562-0.42188-4.3086-0.79297-6.4219-0.19141-0.81641-0.35547-1.6133-0.54297-2.4062-0.22656-0.83985-0.47656-1.6524-0.70703-2.4922-0.84375-2.5508-1.8203-5-3.0156-7.3789-0.4375-0.79687-0.875-1.5742-1.2969-2.3438-1.0703-1.7148-2.1953-3.3672-3.4102-4.9805-0.60547-0.7539-1.2109-1.4844-1.8398-2.2148-1.4648-1.5898-2.9922-3.1172-4.6211-4.5391-1.0508-0.83985-2.1133-1.6719-3.1992-2.4492-0.52344-0.375-1.0703-0.73047-1.5938-1.0859-0.79297-0.46094-1.5703-0.9414-2.3633-1.4219-1.2305-0.64844-2.4883-1.2578-3.7422-1.8633-1.2539-0.5-2.5312-1.0039-3.8281-1.4414-0.80078-0.25-1.6094-0.5-2.4336-0.73438-0.74609-0.1875-1.5195-0.3789-2.293-0.54296-0.64453-0.14454-1.2969-0.25-1.9609-0.37891-1.7031-0.22656-3.418-0.39453-5.1367-0.5-0.85156 0-1.7109-0.0195-2.5664-0.0195-3.3047 0.0625-6.5938 0.54297-9.7891 1.3164-0.87891 0.25391-1.7344 0.5-2.5703 0.73438-2.3828 0.81641-4.6836 1.7734-6.9453 2.9258-1.5898 0.88281-3.1406 1.8203-4.6641 2.8242-0.64844 0.48047-1.2969 0.94531-1.9492 1.4219-0.98438 0.81641-1.9609 1.6524-2.9258 2.4922-1.4258 1.3594-1.4258 1.3594-2.1172 2.0898-0.89453 1.0039-1.7969 2.0078-2.6562 3.0312-0.39062 0.52343-0.79297 1.0273-1.1875 1.5508-0.73047 1.0859-1.4844 2.1914-2.1719 3.2812-0.46094 0.79687-0.92579 1.5898-1.3633 2.3867-0.71093 1.3984-1.3828 2.8398-2.0039 4.3047-0.23828 0.60938-0.48438 1.2383-0.71485 1.8633-0.23437 0.71094-0.46093 1.4453-0.6875 2.1562-0.19531 0.62891-0.35546 1.2774-0.54296 1.9024-0.17188 0.79297-0.35938 1.5898-0.52735 2.3828-0.22656 1.3438-0.46094 2.7188-0.6289 4.0781-0.0859 0.96484-0.14063 1.9297-0.22657 2.8672 0 0.75782-0.0273 1.4883-0.043 2.2383-5.6289 0.98047-11.23 2.1133-16.777 3.4297 0 0-14.379 3.8633-17.316 4.957-1.3984 0.48047-2.8047 0.96485-4.2031 1.4648-1.4023 0.5039-2.7852 1.0234-4.168 1.5469v-21.707c2.3672-0.56641 4.6445-1.6992 6.6758-3.0781 1.5859-1.1719 3.0117-2.4688 4.3281-3.9531 1.1328-1.4648 2.1133-2.9922 2.9531-4.6641 0.23047-0.54297 0.47656-1.1094 0.71094-1.6524 0.12109-0.41796 0.26953-0.8164 0.41406-1.2148 1.5703 0 3.1602 0.0195 4.7461 0.0195h8.0156c4.9375-0.0195 9.8945-0.0351 14.832-0.0351 0.22656-0.38282 0.4375-0.77735 0.64453-1.1562h-29.121c-0.0937 0.3789-0.22656 0.77343-0.32813 1.1719-0.98046 2.7227-2.3438 5.1289-4.2226 7.3008-0.46485 0.46094-0.92188 0.94141-1.3867 1.4258-0.49609 0.41407-1 0.83594-1.4805 1.25-1.0039 0.71485-2.0508 1.3828-3.1172 1.9688-1.5703 0.75-3.1367 1.2969-4.8281 1.6953v23.066c-1.5312 0.63281-3.0781 1.2617-4.6094 1.8867v-28.988c1.1328-0.16797 2.2422-0.35938 3.3477-0.52344 1.0234-0.21094 2.0508-0.54687 3.0156-0.92187 1.5274-0.66797 2.9453-1.5508 4.2227-2.6367 0.25-0.23047 0.5-0.46094 0.75391-0.71094 0.89843-0.96094 1.7344-1.9844 2.4492-3.0977 0.24609-0.5 0.51953-0.98046 0.79687-1.4609 0.30859-0.77344 0.625-1.5469 0.875-2.3438 0.35156-1.4453 0.35156-1.4453 0.87891-3.8086 11.941-0.0156 23.867-0.0391 35.809-0.0391 0.58984-0.77344 1.1758-1.5508 1.7539-2.3242 0.63281-0.73047 1.2578-1.4609 1.8867-2.1953 1.793-1.9258 3.7031-3.7227 5.7305-5.4375 0.48438-0.37891 0.96485-0.75391 1.4414-1.1523 1.8633-1.3359 3.7461-2.5469 5.6914-3.7188 1.4883-0.77735 2.9726-1.5469 4.4766-2.2422 0.89844-0.35547 1.793-0.73438 2.7188-1.0859 0.6875-0.25391 1.4023-0.48047 2.1133-0.73437 1.1953-0.35547 1.1953-0.35547 2.5312-0.73047 2.3008-0.54688 4.6055-0.96485 6.9492-1.2539 0.66797-0.0859 1.332-0.14844 2.0234-0.1875 0.62109-0.043 1.2383-0.0664 1.8594-0.10547"/>
   <path d="m294.38 566.18c-41.02 0-77.898-27.234-89.977-66.34-2.4453-0.44141-4.6875-0.94141-6.832-1.5274-2.5469-0.73437-5.5234-1.6562-8.3711-2.9922-1.2344-0.67969-2.2734-1.2656-3.2656-2.0312l-1.0859-0.97266c-0.73829-0.80859-1.2383-1.4531-1.75-2.2461l-0.39454-0.76172c-0.43359-1.0898-0.43359-1.0898-0.6289-1.6914-0.27344-1.1328-0.45313-2.2031-0.60156-3.4727 0 0-0.082-1.5781-0.0898-1.918v-29.652l0.0195-0.23828c0.12891-0.70312 0.36328-1.2969 0.78516-1.9727l0.54297-0.65234c0.24609-0.26172 0.375-0.39062 0.51172-0.5 1.1172-0.80469 2.1484-1.3008 3.0117-1.6836 4.6641-1.6953 9.4219-2.3008 13.953-2.707l0.0156-31.617c0-0.5586 0.34765-1.0391 0.83593-1.2344-0.32422-0.84375-0.64453-1.6836-0.95703-2.5156-1.4688-4.1016-2.9023-8.332-4.2695-12.594-0.48437-1.6133-0.96484-3.2266-1.4258-4.8242-1.3242-4.7891-2.5234-9.5977-3.5781-14.305l-0.48437-2.4844c-0.31641-1.6211-0.63672-3.25-0.92969-4.8672-0.1875-1.1016-0.36719-2.1914-0.54297-3.2773l-0.17187-1.0547c-0.35938-2.457-0.35938-2.457-0.71875-5.1914-0.48828-4.3242-0.83985-8.1875-1.0742-11.84l-0.12891-2.9531c-0.0234-0.50781 0.2461-0.98437 0.6875-1.2266 0.76172-0.42578 1.5312-0.83203 2.2969-1.2383l0.4414-0.23828c5.0469-2.5469 9.7383-4.6992 14.387-6.6055 2.5781-1.0117 5.1602-1.9766 7.7383-2.9414l4.3047-1.457c1.0977-0.36328 2.1914-0.70703 3.2891-1.0508l1.3359-0.42187c1.7266-0.51172 3.4102-0.9961 5.1016-1.4766l5.6172-1.4531c4.8125-1.1719 9.5547-2.1484 13.562-2.9414l4.1875-0.71875c4.6133-0.73437 4.6133-0.73437 7.1719-1.1133 6.9102-0.89453 13.793-1.5664 20.484-1.9961l8.1602-0.37891c2.0586-0.0469 3.9297-0.0859 5.7812-0.10547h5.4297c11.781 0.17578 22.609 0.91797 33.137 2.2695 3.2734 0.44141 6.5781 0.94532 9.8477 1.4688 8.8242 1.5078 17.664 3.4805 26.293 5.8633l4.9766 1.4492c2.9922 0.95703 5.9219 1.918 8.8672 2.9297 6.9688 2.582 14.355 5.4688 21.367 9.1367 0.46484 0.23828 0.74218 0.72656 0.71875 1.2422-0.21875 4.7344-0.57422 9.3281-1.0508 13.66-0.33985 2.8906-0.33985 2.8906-0.69922 5.4727-0.94141 6.0664-2.1445 12.285-3.5742 18.504 0 0-1.1797 4.6641-1.4375 5.6445-1.4844 5.4844-3.1602 10.973-4.9805 16.324-0.82422 2.3281-1.668 4.6641-2.5234 6.9648 0.47656 0.20703 0.81641 0.67578 0.81641 1.2227v28.82c2.5352 0.57031 5.3476 1.2852 8.0039 2.3906 0 0 1.3438 0.58594 1.6328 0.70703l1.5195 0.8125c1.4961 0.92579 2.5508 1.7188 3.4883 2.6172 1.1094 1.125 1.9688 2.332 2.6602 3.7188 0.51953 1.1992 0.88671 2.3711 1.1797 3.75 0.0508 0.4375 0.10157 0.73438 0.14453 1.0274l0.0391 0.23437c0.0859 1.0742 0.15234 2.0508 0.19531 3.0352l8e-3 27.836-0.0508 0.33204c-0.14453 0.5664-0.31641 1.0547-0.53906 1.4805l-0.15235 0.23829-0.20312 0.24218-0.375 0.46875-0.20703 0.22657-0.66406 0.52734c-0.67579 0.44531-1.3398 0.83203-2.0664 1.1914l-0.43359 0.17187-0.53516 0.20703c-2.2695 0.75391-4.4141 1.1953-6.2578 1.5547l-0.96094 0.14062c-0.52344 0.0742-1.0508 0.15235-1.5703 0.23829l-3.6602 0.375c-1.3906 0.0664-2.7461 0.1289-4.082 0.16796-10.637 41.75-48.012 70.816-91.246 70.816"/>
   <path d="m296.75 319.36h-5.4141c-1.8906 0.0234-3.7695 0.0625-5.6289 0.10156l-0.16407 4e-3 -3.25 0.15234-4.9531 0.22656c-6.7656 0.4375-13.676 1.1133-20.594 2.0078-2.6094 0.38281-2.6094 0.38281-7.2266 1.1211-0.76563 0.12891-1.5195 0.25781-2.2774 0.39062-0.625 0.10938-1.2617 0.21875-1.8906 0.32422-4.0977 0.8125-8.8594 1.7891-13.68 2.9648l-5.6211 1.4531c-1.7578 0.5-3.4453 0.98438-5.1484 1.4883l-1.3867 0.4375c-1.1016 0.34766-2.2031 0.69141-3.2969 1.0547l-3.3828 1.1445-0.90234 0.30469c-2.6641 0.99219-5.25 1.9609-7.8203 2.9727-4.7109 1.9258-9.4414 4.0976-14.488 6.6445l-0.49219 0.26562c-0.77344 0.41016-1.5508 0.82031-2.3203 1.25-0.88282 0.49219-1.4141 1.4414-1.3711 2.4531l0.043 0.97656 0.082 1.9414c0.24219 3.7344 0.59375 7.6211 1.0781 11.941 0.36718 2.793 0.36718 2.793 0.73047 5.2383l0.17578 1.0977c0.17578 1.0859 0.35156 2.1836 0.54297 3.2812 0.30078 1.6406 0.61718 3.2773 0.9375 4.9062l0.47656 2.4375c1.0703 4.8086 2.2773 9.6406 3.6016 14.434 0.47266 1.6328 0.95313 3.2539 1.4375 4.8516 1.3828 4.3203 2.8203 8.5625 4.2852 12.656 0.21093 0.5625 0.42187 1.1172 0.63281 1.6758-0.36328 0.45312-0.57813 1.0234-0.57813 1.6484 0 5.4805-4e-3 10.961-0.0117 16.434-4e-3 4.6562-8e-3 9.3125-8e-3 13.965-4.25 0.41797-8.6641 1.0664-12.984 2.6289l-0.17578 0.0742c-0.92578 0.41406-2.0312 0.9414-3.1914 1.7734l-0.10937 0.0859-0.52735 0.5-0.16015 0.17188-0.16407 0.1875-0.26953 0.30859-0.23437 0.32031c-0.50782 0.82032-0.80469 1.5703-0.96875 2.4414l-0.0391 0.47656v29.613c0.0117 0.42969 0.0312 0.76953 0.0469 1.1133 0.0117 0.26172 0.0273 0.51954 0.0391 0.78516l0.0156 0.21484c0.14843 1.3203 0.33984 2.4375 0.59375 3.5195l0.0625 0.21484c0.20312 0.61719 0.20312 0.61719 0.5664 1.5742l0.16797 0.35547 0.14063 0.27343 0.17968 0.35547 0.11719 0.20313c0.54688 0.84375 1.0977 1.5625 1.793 2.3281l0.17188 0.17188 0.58984 0.53125 0.41797 0.3789 0.17187 0.14063c1.0664 0.82422 2.1953 1.4648 3.3594 2.1016l0.15234 0.0781c2.9336 1.3789 5.9727 2.3203 8.5547 3.0625 1.9727 0.53906 4.0039 1.0039 6.1797 1.418 5.9414 18.645 17.781 35.367 33.477 47.23 16.676 12.613 36.57 19.277 57.535 19.277 43.512 0 81.172-29.027 92.285-70.848 1.0156-0.043 2.0312-0.0859 3.0469-0.14062l0.125-8e-3c1.9805-0.1914 1.9805-0.1914 3.5742-0.35546l0.18359-0.0274c0.51172-0.0898 1.0195-0.16015 1.5312-0.23437l0.92969-0.13672c1.9805-0.38281 4.1719-0.83203 6.3906-1.5625l0.25391-0.0937 0.45703-0.17578 0.32812-0.12891 0.23438-0.10156c0.78516-0.39063 1.5078-0.8086 2.2109-1.2774l0.16406-0.11718 0.10937-0.0859 0.52735-0.42578 0.41406-0.45313 0.31641-0.39062 0.21093-0.25 0.3125-0.48047c0.26563-0.51563 0.47266-1.0938 0.64454-1.7578 0.0547-0.21875 0.082-0.44141 0.082-0.66407v-27.895c-0.043-1.0039-0.11328-1.9961-0.19141-2.9922l-0.0234-0.1875-0.0391-0.23829c-0.0391-0.26562-0.082-0.53515-0.10937-0.79687l-0.0469-0.30469c-0.3125-1.4648-0.70312-2.7148-1.2266-3.9336l-0.0664-0.13281c-0.7539-1.5117-1.6914-2.832-2.8672-4.0274-1.0664-1.0234-2.1875-1.8672-3.6914-2.8047l-0.14844-0.0859-0.48047-0.25391c-0.30078-0.16406-0.59765-0.32422-0.89062-0.48437l-0.26953-0.12891c-0.28125-0.11328-0.5625-0.23828-0.83985-0.36328-0.26172-0.11719-0.51562-0.22656-0.77344-0.33594-2.4023-0.99609-4.8945-1.6836-7.2031-2.2305v-27.758c0-0.61719-0.21094-1.1914-0.5625-1.6406 0.74609-2.0312 1.4727-4.0625 2.1914-6.0781 1.8359-5.4141 3.5234-10.93 5.0156-16.426 0.26563-1.0117 0.51172-2.0078 0.76563-2.9961 0.21875-0.88281 0.4414-1.7656 0.66796-2.6406 1.4492-6.3203 2.6602-12.574 3.6055-18.645 0.36328-2.6406 0.36328-2.6406 0.70703-5.5312 0.48438-4.3867 0.83985-9.0078 1.0586-13.77 0.0508-1.0391-0.50781-2.0117-1.4297-2.4922-7.082-3.6992-14.516-6.6055-21.492-9.1914-2.7852-0.95312-5.6836-1.9141-8.9258-2.9492l-2.1562-0.6289-2.8633-0.83203c-8.7148-2.4102-17.598-4.3906-26.449-5.9024-3.8555-0.62109-6.9961-1.0898-9.8984-1.4805-10.59-1.3594-21.477-2.1055-33.285-2.2852h-0.0391m0 2.6719c11.023 0.16797 22.027 0.85547 32.965 2.2617 3.2578 0.4375 6.5469 0.94141 9.8086 1.4648 8.8047 1.5 17.531 3.4492 26.148 5.832 1.6523 0.48437 3.3008 0.96093 4.957 1.4453 2.9531 0.94141 5.875 1.8984 8.8047 2.9062 7.1758 2.6562 14.387 5.5039 21.191 9.0586-0.21094 4.5352-0.54688 9.0742-1.0469 13.57-0.33984 2.8672-0.33984 2.8672-0.69531 5.4375-0.96094 6.1719-2.1524 12.301-3.5547 18.391-0.48047 1.8594-0.9375 3.7422-1.4219 5.6055-1.4844 5.457-3.1367 10.875-4.9531 16.23-0.92187 2.5938-1.8672 5.2109-2.8242 7.7773-1.4258 3.6211-1.4258 3.6211-2.8398 7.0977-1.4297 3.3203-1.4297 3.3203-2.8359 6.5234-2.3203 5.0586-4.7617 10.039-7.293 14.973 0.44141 0.0234 0.89453 0.0664 1.3555 0.12891 2.4062-4.6445 4.6875-9.3516 6.8867-14.121h0.0195c0 5.0234 0 10.039 0.0234 15.082 0.375 0.0391 0.72656 0.10546 1.1055 0.16796 0-5.9609 0.0195-11.922 0.0195-17.863 1.5703-3.6797 3.1445-7.4062 4.582-11.152h0.0156v29.895c2.9688 0.64844 6.0039 1.3789 8.832 2.5508 0.54296 0.22656 1.082 0.48047 1.6328 0.71094 0.45703 0.25391 0.9375 0.50391 1.4023 0.75391 1.1445 0.71484 2.2148 1.4648 3.1953 2.4062 0.98438 1.0039 1.7617 2.0898 2.3867 3.3476 0.48438 1.125 0.8125 2.2344 1.0703 3.4297 0.0351 0.39453 0.10156 0.78906 0.16796 1.1875 0.0742 0.96484 0.14063 1.9297 0.1836 2.8945v27.777c-0.10938 0.41407-0.25 0.83594-0.44141 1.2109-0.20312 0.25-0.4375 0.51563-0.62109 0.76953l-0.52344 0.41797c-0.63281 0.41797-1.2539 0.77735-1.9297 1.1133-0.3125 0.1211-0.63281 0.22657-0.91406 0.35547-1.9727 0.64844-3.9375 1.0664-5.9688 1.4609-0.83203 0.125-1.668 0.23437-2.5117 0.38281-1.5859 0.15625-1.5859 0.15625-3.5547 0.35156-1.668 0.082-3.3398 0.15625-5.0078 0.19532v-4e-3c-9.8867 40.625-46.516 70.789-90.191 70.789-42.004 0-77.488-27.898-88.938-66.176l0.0977 0.0195c-2.5664-0.4414-5.1094-0.98047-7.6133-1.6641-2.7891-0.79687-5.5234-1.6758-8.1602-2.9141-1.0234-0.5625-2.0703-1.1484-3.0156-1.8789-0.32813-0.29687-0.66406-0.58984-1-0.90234-0.58594-0.64453-1.0469-1.2344-1.5312-1.9805-0.125-0.23828-0.22656-0.46484-0.35547-0.69531-0.33203-0.875-0.33203-0.875-0.51953-1.4453-0.25781-1.0859-0.41797-2.1289-0.54297-3.2148-0.0195-0.61328-0.0664-1.1953-0.0859-1.8047v-29.613c0.10547-0.5664 0.29688-1.0039 0.60547-1.5039l0.42188-0.48438 0.33203-0.33594c0.8789-0.625 1.7383-1.0664 2.7226-1.5039 4.7461-1.7188 9.7656-2.2774 14.746-2.6992 0-10.941 0.0195-21.879 0.0195-32.84h0.0234c1.1094 2.9102 2.3203 5.7734 3.5312 8.6367 0.35547 0.79688 0.6875 1.5898 1.0469 2.4062v21.523c0.375-0.0195 0.75-0.0195 1.1289-0.043 0.0234-6.2891 0.0234-12.609 0.043-18.906h0.0195v0.0625c1.8203 3.8906 3.707 7.8008 5.6719 11.629 0.94141 1.7734 1.8789 3.5547 2.8438 5.3086 0.9375 1.6953 1.8867 3.3711 2.8398 5.0703 1.3789 2.3789 2.8047 4.7891 4.25 7.1289 1.1094 1.7539 2.2383 3.5391 3.3476 5.2891 0.51563 0 1.0469-0.0195 1.543-0.0195-0.70703-1.082-1.418-2.1953-2.1289-3.2812-3.3711-5.3945-6.6133-10.898-9.6602-16.504-1.4297-2.7422-2.875-5.5-4.2695-8.2656-0.69141-1.4844-1.4062-2.9453-2.1172-4.4141-2.4492-5.3086-4.7266-10.688-6.9023-16.121-0.48047-1.2344-0.96094-2.4922-1.4219-3.7266-1.4844-4.1406-2.9062-8.3438-4.2461-12.531-0.48047-1.5859-0.95703-3.1953-1.4219-4.7891-1.2969-4.7031-2.4844-9.4531-3.5508-14.219-0.46484-2.4297-0.96484-4.875-1.4023-7.3008-0.25391-1.4453-0.48047-2.8867-0.71485-4.3086-0.35546-2.4297-0.35546-2.4297-0.71093-5.1484-0.44141-3.9102-0.8125-7.8242-1.0664-11.754-0.0391-0.98047-0.0859-1.9648-0.125-2.9258 0.90234-0.5 1.8164-0.98438 2.7188-1.4648 4.6797-2.3633 9.4102-4.5625 14.262-6.5469 2.5586-1.0078 5.1289-1.9688 7.6992-2.9297 1.4219-0.48047 2.8516-0.96484 4.2695-1.4414 1.5234-0.50782 3.0742-0.98438 4.6016-1.4648 1.6914-0.5039 3.3711-0.98437 5.0586-1.4648 1.8633-0.48047 3.7266-0.96094 5.5859-1.4414 4.457-1.0898 8.9727-2.0312 13.488-2.9297 1.3867-0.23047 2.7656-0.48047 4.1484-0.71094 4.5938-0.73438 4.5938-0.73438 7.1484-1.1094 6.7812-0.8789 13.578-1.5469 20.371-1.9844 2.7266-0.12891 5.4414-0.25391 8.1367-0.37891 1.9062-0.0391 3.832-0.082 5.7383-0.10547h5.4141"/>
   <path d="m293.62 290.85c-5.2578-3.1836-11.094-3.4453-13-3.4375l-0.043 0.0391-0.0742 0.0195c-8e-3 4e-3 -0.54297 0.12891-1.4609 0.46094s-2.2109 0.87109-3.6875 1.6875c-2.957 1.625-6.6445 4.3476-9.6094 8.7344l-0.24609 0.3711c-0.21875 1.6836-0.86328 7.8047 0.83984 12.332 1.2812 0.16406 7.0781 1.0469 13.578 3.8281 5.7656-5.9766 12.562-9.5156 14.035-10.246-0.0351-0.58594-0.29687-5.1797-0.35546-9.6836-0.0156-1.418-0.0117-2.832 0.0234-4.1055"/>
   <path d="m334.35 319.7c-0.82812 1.7422-1.9609 2.8711-2.7539 3.5274 1.0703 0.15234 2.0586 0.29297 2.9219 0.41797l0.0234-0.57813c-0.0156-1.1367-0.082-2.2578-0.19141-3.3672"/>
   <path d="m321.43 297.18-0.0469-0.0312-0.0273-0.0391s-0.38281-0.48828-1.0703-1.2695c-0.69532-0.77735-1.7188-1.8438-3.0039-2.9766-2.5742-2.2773-6.207-4.8281-10.398-5.9648l-0.54297-0.15234c-1.3281 0.10547-2.9336 0.55468-6.3047 1.5664-3.1289 0.94922-5.0352 2.0274-5.7656 2.4922-0.043 1.2773-0.0469 2.707-0.0312 4.1445 0.0547 4.6641 0.33984 9.4297 0.35938 9.707l4e-3 0.0352c5.8242 3.1602 12.469 8.6914 13.762 9.7773l-0.0234-0.082s7.9102-2.4414 13.82-4.2109l0.0937 0.0859c1.8281-5.2969 0.0273-11.137-0.59375-12.914z"/>
   <path d="m280.16 286.89c0.3125-0.79296 0.8125-1.5117 1.3594-2.125-8.5 2.7852-15.754 8.3203-20.734 15.555 1.0312-0.71094 2.4414-1.4726 4.1484-1.8984l0.28515-0.43359c5.5547-8.2266 13.586-10.723 14.941-11.098"/>
   <path d="m305.07 284.3c0.98828 0.76954 1.5586 1.4883 1.8438 1.9336l0.13672 0.0391c8.3047 2.2656 14.27 9.7539 14.777 10.395l0.53125 0.40235c1.7422 0.53906 3.1602 1.3906 4.1719 2.1406-5.2617-7.1172-12.773-12.438-21.461-14.91"/>
   <path d="m293.64 280.9c-3.6641 0.043-7.2109 0.5586-10.59 1.4883 3.3477-0.91015 6.8672-1.4141 10.492-1.457 23.363-0.29297 42.535 18.559 42.828 42.109 4e-3 0.28906-0.0117 0.57422-0.0117 0.85937l0.0234 4e-3c4e-3 -0.32422 0.0156-0.64063 0.0117-0.96875-0.28515-23.508-19.43-42.328-42.754-42.035"/>
   <path d="m330.16 321.99c-0.36719-0.95313-0.98437-2.3477-2.1758-4.4453-2.793-4.8984-5.0938-6.4258-5.6641-6.7539-2.9531 0.88672-6.3945 1.9336-9.1016 2.7656-2.5234 0.76953-4.3984 1.3516-4.6641 1.4297-0.17187 1.8555-0.59375 3.8438-1.1172 5.7891 2.8047 0.13282 5.5508 0.29688 8.1602 0.50391l0.375 0.0273c3.9961 0.31641 9.6758 1.082 14.293 1.7305-0.0469-0.41797-0.0703-0.67969-0.0703-0.82031z"/>
   <path d="m253.74 319.77c-0.11719 1.2578-0.16016 2.5352-0.16016 3.8242 0.85938-0.125 1.7266-0.25782 2.5703-0.3711-0.70313-0.69531-1.5312-1.7812-2.375-3.4961z"/>
   <path d="m270.2 312.42c-1.957-0.44531-3.3672-0.65234-3.918-0.72656-0.92969 0.67578-4.2656 3.5156-7.457 11.188 7.5-0.94922 14.645-1.5547 22.367-1.918-0.6875-2.4414-1.1719-4.5312-1.3672-5.4219-3.6484-1.5781-7.0938-2.5469-9.625-3.1211"/>
  </g>
  <g clip-path="url(#clip1)">
   <g clip-path="url(#clip2)">
    <use transform="matrix(.5383 0 0 .5383 251.1 281.66)" width="100%" height="100%" xlink:href="#image4307"/>
   </g>
  </g>
  <g clip-path="url(#clip3)">
   <g clip-path="url(#clip4)">
    <use transform="matrix(.5383 0 0 .5383 251.1 322.03)" width="100%" height="100%" xlink:href="#image4310"/>
   </g>
  </g>
  <path d="m322.36 297.07-0.53125-0.40625c-0.50781-0.64062-6.4726-8.1289-14.777-10.395l-0.13672-0.0391c-0.28515-0.44922-0.85547-1.168-1.8438-1.9336 8.6836 2.4727 16.199 7.793 21.461 14.91-1.0117-0.75-2.4297-1.6016-4.1719-2.1367m-0.10546 13.184-0.0899-0.0859c-5.9141 1.7695-13.824 4.2148-13.824 4.2148l0.0234 0.082c-1.293-1.0898-7.9375-6.6172-13.762-9.7773l-4e-3 -0.0391c-0.0195-0.27344-0.30469-5.0391-0.35938-9.7031-0.0156-1.4375-0.0117-2.8672 0.0312-4.1484 0.73047-0.46093 2.6367-1.543 5.7656-2.4844 3.3711-1.0156 4.9766-1.4609 6.3047-1.5703l0.54297 0.14843c4.1914 1.1406 7.8242 3.6914 10.398 5.9688 1.2852 1.1328 2.3086 2.1992 3.0078 2.9766 0.6836 0.78125 1.0664 1.2695 1.0664 1.2695l0.0273 0.0391 0.0469 0.0273 0.23047 0.16797c0.62109 1.7852 2.4219 7.6211 0.59375 12.914m-42.34 4.625c-6.4961-2.7774-12.293-3.6602-13.574-3.8281-1.6992-4.5234-1.0586-10.645-0.83984-12.328l0.25-0.36719c2.9609-4.3906 6.6484-7.1172 9.6055-8.7383 1.4726-0.82032 2.7695-1.3555 3.6875-1.6875 0.92187-0.33203 1.457-0.45703 1.4609-0.46485l0.0703-0.0156 0.0469-0.0391c1.9062-8e-3 7.7422 0.2539 13 3.4375-0.0312 1.2734-0.0391 2.6836-0.0234 4.1055 0.0547 4.5039 0.3164 9.0977 0.35546 9.6836-1.4726 0.73047-8.2695 4.2695-14.039 10.242m-14.984-16.457c-1.707 0.42579-3.1172 1.1914-4.1484 1.9024 4.9844-7.2383 12.234-12.777 20.73-15.559-0.54297 0.61329-1.0469 1.3281-1.3555 2.125-1.3555 0.375-9.3867 2.875-14.941 11.098zm28.609-17.488c-3.625 0.043-7.1445 0.54688-10.488 1.457-18.086 4.9531-31.297 21.695-31.125 41.441 0.55859-0.082 1.1016-0.15625 1.6523-0.23437 0-1.293 0.043-2.5664 0.16016-3.8242l0.0352-0.043c0.84375 1.7109 1.6719 2.8008 2.375 3.4961 0.90234-0.12109 1.7852-0.23047 2.6719-0.34375 3.1953-7.6758 6.5312-10.516 7.457-11.188 0.55469 0.0781 1.9648 0.28125 3.9219 0.72656 2.5312 0.57422 5.9766 1.543 9.625 3.1172 0.19531 0.89453 0.67969 2.9844 1.3672 5.4258 2.7031-0.125 5.4609-0.23047 8.3594-0.30468l0.35156-4e-3c1.7422-0.043 3.5156-0.0859 5.3594-0.10547 4.1211-0.0586 8.2148 0.0391 12.184 0.22656 0.51953-1.9453 0.94141-3.9375 1.1172-5.7891 0.26562-0.0781 2.1406-0.66016 4.6602-1.4297 2.707-0.83203 6.1484-1.8789 9.1016-2.7656 0.57031 0.32812 2.875 1.8555 5.6641 6.7539 1.1914 2.0977 1.8086 3.4922 2.1758 4.4453l0.0391 0.22656c0 0.14062 0.0195 0.40234 0.0664 0.82422 0.45313 0.0625 0.89453 0.1289 1.3281 0.1875 0.79296-0.65625 1.9219-1.7852 2.7578-3.5274 0.10547 1.1094 0.17187 2.2305 0.1875 3.3672l-0.0234 0.57813c0.59375 0.0859 1.1445 0.16015 1.6094 0.22656l0.22656 0.0273c0-0.28515 0.0156-0.57422 0.0156-0.85937-0.29687-23.551-19.469-42.402-42.832-42.109" fill="#ffffff"/>
  <g fill="#1e54ae">
   <path d="m322.36 297.07-0.53125-0.40625c-0.50781-0.64062-6.4726-8.1289-14.777-10.395l-0.13672-0.0391c-0.28515-0.44922-0.85547-1.168-1.8438-1.9336 8.6836 2.4727 16.199 7.793 21.461 14.91-1.0117-0.75-2.4297-1.6016-4.1719-2.1367m-0.10546 13.184-0.0899-0.0859c-5.9141 1.7695-13.824 4.2148-13.824 4.2148l0.0234 0.082c-1.293-1.0898-7.9375-6.6172-13.762-9.7773l-4e-3 -0.0391c-0.0195-0.27344-0.30469-5.0391-0.35938-9.7031-0.0156-1.4375-0.0117-2.8672 0.0312-4.1484 0.73047-0.46093 2.6367-1.543 5.7656-2.4844 3.3711-1.0156 4.9766-1.4609 6.3047-1.5703l0.54297 0.14843c4.1914 1.1406 7.8242 3.6914 10.398 5.9688 1.2852 1.1328 2.3086 2.1992 3.0078 2.9766 0.6836 0.78125 1.0664 1.2695 1.0664 1.2695l0.0273 0.0391 0.0469 0.0273 0.23047 0.16797c0.62109 1.7852 2.4219 7.6211 0.59375 12.914m-42.34 4.625c-6.4961-2.7774-12.293-3.6602-13.574-3.8281-1.6992-4.5234-1.0586-10.645-0.83984-12.328l0.25-0.36719c2.9609-4.3906 6.6484-7.1172 9.6055-8.7383 1.4726-0.82032 2.7695-1.3555 3.6875-1.6875 0.92187-0.33203 1.457-0.45703 1.4609-0.46485l0.0703-0.0156 0.0469-0.0391c1.9062-8e-3 7.7422 0.2539 13 3.4375-0.0312 1.2734-0.0391 2.6836-0.0234 4.1055 0.0547 4.5039 0.3164 9.0977 0.35546 9.6836-1.4726 0.73047-8.2695 4.2695-14.039 10.242m-14.984-16.457c-1.707 0.42579-3.1172 1.1914-4.1484 1.9024 4.9844-7.2383 12.234-12.777 20.73-15.559-0.54297 0.61329-1.0469 1.3281-1.3555 2.125-1.3555 0.375-9.3867 2.875-14.941 11.098zm28.609-17.488c-3.625 0.043-7.1445 0.54688-10.488 1.457-18.086 4.9531-31.863 21.84-31.699 41.59 0.5625-0.082 1.9024-0.25391 2.4531-0.33594 0-1.2891-0.1836-2.6133-0.0664-3.8711l0.0352-0.043c0.84375 1.7109 1.6719 2.8008 2.375 3.4961 0.90234-0.12109 1.7852-0.23047 2.6719-0.34375 3.1953-7.6758 6.5312-10.516 7.457-11.188 0.55469 0.0781 1.9648 0.28125 3.9219 0.72656 2.5312 0.57422 5.9766 1.543 9.625 3.1172 0.19531 0.89453 0.67969 2.9844 1.3672 5.4258 2.7031-0.125 5.4609-0.23047 8.3594-0.30468l0.35156-4e-3c1.7422-0.043 3.5156-0.0859 5.3594-0.10547 4.1211-0.0586 8.2148 0.0391 12.184 0.22656 0.51953-1.9453 0.94141-3.9375 1.1172-5.7891 0.26562-0.0781 2.1406-0.66016 4.6602-1.4297 2.707-0.83203 6.1484-1.8789 9.1016-2.7656 0.57031 0.32812 2.875 1.8555 5.6641 6.7539 1.1914 2.0977 1.8086 3.4922 2.1758 4.4453l0.0391 0.22656c0 0.14062 0.17969 0.36719 0.23438 0.78516 0.44922 0.0664 0.72656 0.16796 1.1602 0.22656 0.79296-0.65625 1.9219-1.7852 2.7578-3.5274 0.10547 1.1094 0.17187 2.2305 0.1875 3.3672l-0.0234 0.57813c0.59375 0.0859 1.1445 0.16015 1.6094 0.22656l0.67578 0.13281c0-0.28515-0.0234-0.6289-0.0234-0.91797-0.29297-23.551-19.879-42.449-43.242-42.156"/>
   <path d="m336.47 313.83c-0.23047-0.85937-0.48047-1.7422-0.70704-2.6172-0.17187-0.52343-0.35546-1.0469-0.52734-1.5938-0.75-2.0898-1.6523-4.1172-2.6523-6.125-0.67188-1.2148-1.3867-2.4258-2.1133-3.5976-0.48829-0.69141-0.96094-1.4024-1.4453-2.0938-0.5664-0.71094-1.1289-1.4219-1.6914-2.1524-0.80078-0.9414-1.6562-1.8633-2.4922-2.7617-1.4414-1.4414-2.9883-2.7578-4.5625-4.0352-1.0039-0.73047-1.0039-0.73047-3.1133-2.1992-1.1953-0.73047-1.1953-0.73047-2.4688-1.4648-2.2969-1.2109-4.6367-2.2383-7.0898-3.0938-0.79687-0.25-1.5898-0.48438-2.3828-0.73438-2.1328-0.47656-4.2266-0.89453-6.3828-1.168-0.79297-0.0664-1.5664-0.1289-2.3594-0.1875-0.83984-0.0195-1.6758-0.043-2.4883-0.043-0.58984 0-1.1758 0.0234-1.7656 0.043-1.4141 0.10156-2.8398 0.26953-4.2617 0.4375-1.4648 0.25391-2.9297 0.56641-4.375 0.90235-0.625 0.1875-1.2539 0.375-1.8555 0.5625-0.71484 0.23046-1.4219 0.48046-2.1328 0.71093-0.60938 0.25391-1.2188 0.47657-1.8203 0.73438-0.79297 0.375-1.5703 0.73047-2.3477 1.082-0.6875 0.37891-1.3516 0.73437-2.0469 1.1133-1.1562 0.6875-2.3008 1.418-3.4102 2.1758-0.69141 0.5-1.3828 1.0039-2.0508 1.5274-1.9024 1.5664-3.7031 3.2383-5.3789 5.0586-0.58203 0.66797-1.168 1.3398-1.7305 2.0312-0.54687 0.73047-1.1133 1.4453-1.6367 2.1953-1.0195 1.4648-1.9609 3.0117-2.8398 4.582-0.35156 0.69141-0.70703 1.4024-1.0703 2.0859-0.3086 0.67188-0.60547 1.3398-0.89844 2.0078-0.48047 1.3008-0.98047 2.6172-1.3984 3.9375-0.3789 1.3789-0.77734 2.7383-1.0703 4.1406-0.5625 2.8633-0.98047 5.8555-0.91406 8.7852 0.41797-0.0586 0.83593-0.1289 1.2734-0.1875 0-0.5 0.0156-1.0039 0.0391-1.4805 0.14843-2.1797 0.46484-4.293 0.83593-6.4258 0.125-0.52734 0.23438-1.0469 0.35938-1.5703 0.22656-0.85937 0.45703-1.6953 0.71094-2.5508 0.4414-1.3008 0.91797-2.6133 1.4258-3.8906 0.76953-1.6953 1.5625-3.3711 2.4609-4.9805 0.48437-0.76953 0.9414-1.5234 1.4258-2.2774 0.35547-0.54687 0.73047-1.0664 1.1094-1.5898 0.41406-0.58594 0.85547-1.1523 1.2969-1.7148 0.5664-0.67188 1.1445-1.3594 1.7344-2.0312 0.75-0.81641 1.5469-1.6094 2.3633-2.3867 1.0039-0.89453 2.0312-1.7734 3.0781-2.6133 0.47656-0.375 0.98047-0.73047 1.4805-1.0859 0.71093-0.50391 1.4688-0.98438 2.1992-1.4609 2.4219-1.4219 4.8711-2.6406 7.4883-3.6641 1.1289-0.35547 2.2773-0.75391 3.4062-1.0859 0.7539-0.1875 1.5117-0.35547 2.2578-0.54687 2.6758-0.5 5.3359-0.83594 8.0586-0.85547 1.6094 0.0195 1.6094 0.0195 2.7969 0.0625 0.71094 0.043 1.4258 0.10547 2.1367 0.16797 1.3164 0.1875 2.6133 0.42187 3.9336 0.64843 0.75391 0.1875 1.4844 0.35547 2.2383 0.53907 1.1289 0.35937 2.2774 0.73437 3.4024 1.0898 0.90625 0.37891 1.7812 0.73437 2.6797 1.1094 0.98047 0.48047 1.9844 0.98438 2.9727 1.4883 0.77344 0.45703 1.5508 0.91796 2.3203 1.3789 1.6328 1.1055 3.207 2.2578 4.7266 3.4961 0.50391 0.4375 1.0078 0.875 1.5117 1.332 0.45703 0.46484 0.9375 0.92187 1.3984 1.3828 0.95703 1.0039 1.8594 2.0898 2.7852 3.1367 0.39453 0.54687 0.8164 1.0703 1.2148 1.6133 0.76953 1.1289 1.5469 2.2773 2.2539 3.4297 0.35547 0.64843 0.71093 1.2773 1.0898 1.9258 1.1914 2.3828 2.1953 4.7891 3.0312 7.3398 0.22656 0.83594 0.48438 1.6758 0.71484 2.5117 0.72657 3.1367 1.2109 6.3555 1.2695 9.5977 0.42187 0.0625 0.8164 0.1289 1.2344 0.20703h0.0391c-0.0547-1.3516-0.12109-2.7148-0.20703-4.0781-0.12109-0.89843-0.22656-1.7969-0.35156-2.6914-0.21094-1.1719-0.44141-2.3672-0.71484-3.5352"/>
   <path d="m206.17 313.04c1.6914-0.39844 3.2617-0.94532 4.8242-1.6953 1.0703-0.58593 2.1172-1.2539 3.1211-1.9688 0.48047-0.41406 0.98438-0.83593 1.4805-1.25 0.46875-0.48437 0.92187-0.96484 1.3867-1.4258 1.8789-2.1719 3.2422-4.5781 4.2188-7.3008 0.10547-0.39844 0.23828-0.79297 0.33203-1.1719h29.121c-0.20703 0.3789-0.41797 0.77343-0.64843 1.1562-4.9336 0-9.8906 0.0156-14.824 0.0351h-8.0195c-1.5898 0-3.1797-0.0195-4.7461-0.0195-0.14453 0.39844-0.29297 0.79688-0.41406 1.2148-0.23438 0.54297-0.48438 1.1094-0.71094 1.6524-0.83984 1.6719-1.8203 3.1992-2.9531 4.6641-1.3164 1.4844-2.7422 2.7812-4.3281 3.9531-2.0312 1.3789-4.3125 2.5117-6.6719 3.0781v21.707c1.3828-0.52344 2.7617-1.043 4.1602-1.5469 1.4024-0.5 2.8086-0.98438 4.2031-1.4648 2.9414-1.0938 17.32-4.957 17.32-4.957 5.5469-1.3164 11.145-2.4492 16.777-3.4297 0.0156-0.75 0.043-1.4805 0.043-2.2383 0.0859-0.9375 0.14063-1.9023 0.22657-2.8672 0.16796-1.3594 0.40234-2.7344 0.63281-4.0781 0.16015-0.79297 0.35547-1.5898 0.51953-2.3828 0.19141-0.625 0.35156-1.2734 0.54687-1.9024 0.22657-0.71093 0.45704-1.4453 0.6875-2.1562 0.23047-0.625 0.48047-1.2539 0.71485-1.8633 0.62109-1.4648 1.293-2.9062 2.0078-4.3047 0.43359-0.79688 0.89844-1.5898 1.3594-2.3867 0.6875-1.0898 1.4414-2.1953 2.1719-3.2812 0.39844-0.52344 0.79297-1.0274 1.1875-1.5508 0.85938-1.0234 1.7578-2.0274 2.6602-3.0312 0.6875-0.73047 0.6875-0.73047 2.1133-2.0898 0.96484-0.83984 1.9414-1.6758 2.9258-2.4922 0.64844-0.47656 1.2969-0.9414 1.9492-1.4219 1.5234-1.0039 3.0742-1.9414 4.6602-2.8242 2.2656-1.1523 4.5664-2.1094 6.9492-2.9258 0.83594-0.23438 1.6953-0.48047 2.5703-0.73438 3.1953-0.77343 6.4844-1.2539 9.7891-1.3164 0.85547 0 1.7148 0.0195 2.5664 0.0195 1.7227 0.10547 3.4375 0.27344 5.1367 0.5 0.66016 0.125 1.3164 0.23437 1.9609 0.37891 0.77734 0.16406 1.5469 0.35546 2.293 0.54296 0.82422 0.23047 1.6328 0.48438 2.4336 0.73438 1.2969 0.4375 2.5742 0.94141 3.8281 1.4414 1.2539 0.60546 2.5117 1.2148 3.7422 1.8633 0.79296 0.48047 1.5703 0.96093 2.3633 1.4219 0.52343 0.35547 1.0703 0.71094 1.5938 1.0859 1.082 0.77734 2.1484 1.6094 3.1992 2.4492 1.625 1.4219 3.1562 2.9492 4.6172 4.5391 0.63282 0.73047 1.2383 1.4609 1.8477 2.2148 1.2109 1.6133 2.3398 3.2656 3.4062 4.9805 0.42187 0.76953 0.85937 1.5469 1.2969 2.3438 1.1953 2.3789 2.1719 4.8281 3.0156 7.3789 0.23047 0.83984 0.47656 1.6523 0.70703 2.4922 0.1875 0.79297 0.35547 1.5898 0.54688 2.4062 0.37109 2.1133 0.64062 4.2656 0.78906 6.4219 0.0234 0.89453 0.0469 1.7734 0.0898 2.6758 3.7852 0.66797 7.5469 1.3789 11.332 2.1328 3.3203 0.73437 3.3203 0.73437 6.4453 1.4648 4.6406 1.1055 15.766 4.332 15.766 4.332v0.0195c2.9922 0.9375 5.9648 1.9648 8.918 3.0312v-5.2109c0-5.3711 0.0195-10.746 0.0195-16.121-1.1133-0.31641-2.1953-0.71484-3.2656-1.1328-0.58594-0.29297-1.168-0.60547-1.7578-0.89844-1.168-0.69141-2.2734-1.4844-3.3438-2.3438-0.45703-0.39844-0.90234-0.81641-1.3398-1.2344-0.625-0.67188-1.2305-1.3789-1.8203-2.0898-0.79688-1.0859-1.5078-2.2188-2.1719-3.4102-0.54687-1.1094-1.0352-2.2578-1.3828-3.4531h-4.7461l-8.0742 0.0195c-4.9375-0.0195-9.875-0.0351-14.816-0.0351-0.22656-0.38282-0.4375-0.77735-0.64062-1.1562h29.133c0.0781 0.3164 0.1914 0.6289 0.27344 0.96484 0.41796 1.1719 0.89843 2.3008 1.4492 3.4102 0.60157 1.1094 1.3086 2.1719 2.0625 3.1992 0.67188 0.77344 0.67188 0.77344 1.3203 1.4844 0.35156 0.35547 0.71093 0.69141 1.0938 1.043 0.34765 0.3164 0.70703 0.60937 1.0547 0.92578 0.76172 0.53906 1.5352 1.0469 2.332 1.5469 1.832 1.0039 3.7344 1.7734 5.7852 2.2383v22.695c1.5352 0.5664 3.0781 1.1445 4.6055 1.7344v-28.465c-1.25-0.21094-2.5273-0.42188-3.7852-0.63281-0.9414-0.23047-1.8867-0.53907-2.7852-0.89844-1.043-0.52344-2.0234-1.082-2.9883-1.7344-0.23047-0.1875-0.48047-0.35546-0.70703-0.54687-1.0312-0.91406-1.9297-1.8594-2.7617-2.9453-0.83594-1.2344-1.5274-2.4883-2.0703-3.8711-0.54687-1.5898-0.86328-3.2383-1.2188-4.8906-11.941 0-23.906-0.0274-35.832-0.0274-0.83203-1.0859-1.668-2.1719-2.5039-3.2188-1.3359-1.4844-2.6797-2.9258-4.1016-4.3086-0.47656-0.46094-0.98046-0.89844-1.4844-1.3359-3.2695-2.8047-6.7812-5.1484-10.559-7.0898-2.3516-1.1328-4.7344-2.1133-7.1797-2.9297-3.7305-1.1953-7.5898-1.8633-11.484-2.1797-1.6094-0.10546-3.2188-0.10546-4.832-0.10546-0.62109 0.043-1.2383 0.0664-1.8594 0.10546-0.69141 0.043-1.3555 0.10547-2.0234 0.19141-2.3477 0.28906-4.6484 0.70703-6.9492 1.2539-1.3398 0.375-1.3398 0.375-2.5312 0.73437-0.71094 0.25-1.4258 0.47656-2.1133 0.73047-0.92188 0.35156-1.8203 0.73047-2.7188 1.0859-1.5078 0.69531-2.9922 1.4648-4.4766 2.2422-1.9453 1.1719-3.8242 2.3828-5.6875 3.7188-0.48047 0.39843-0.96485 0.77343-1.4492 1.1523-2.0274 1.7148-3.9297 3.5117-5.7305 5.4375-0.625 0.73437-1.25 1.4648-1.8828 2.1953-0.58203 0.77344-1.1641 1.5508-1.7539 2.3203-11.941 0-23.863 0.0274-35.809 0.043-0.52735 2.3633-0.52735 2.3633-0.87891 3.8086-0.24609 0.79687-0.56641 1.5703-0.875 2.3438-0.27734 0.48047-0.55078 0.96093-0.79687 1.4609-0.71485 1.1133-1.5508 2.1367-2.4492 3.0977-0.25 0.25-0.50391 0.48047-0.75391 0.71094-1.2734 1.0859-2.6953 1.9688-4.2227 2.6367-0.96093 0.375-1.9922 0.71093-3.0156 0.92187-1.1055 0.16406-2.2148 0.35547-3.3477 0.52344v28.988c1.5312-0.625 3.0781-1.2539 4.6094-1.8867z"/>
   <path d="m403.49 483.7c-0.69141-0.60937-1.6914-1.0469-2.5117-1.4492-5.8086-2.5938-12.258-3.4531-18.488-4.3711-2.2617-0.24609-4.5195-0.5-6.7734-0.72266-2.4258-0.17578-2.4258-0.17578-5.4883-0.35937-2.7422-0.12891-5.4727-0.21094-8.2148-0.25781-5 0-10 0-14.977 0.55078-4.0156 0.49609-8.0586 1.1445-12.066 1.8164-7.9531 1.4219-15.84 3.2031-23.703 5.1016-13.242 3.2891-26.5 6.7422-39.844 9.4766-3.3672 0.6289-6.7383 1.2773-10.109 1.8164-1.668 0.23829-3.3203 0.48438-4.9727 0.73829-3.4336 0.41796-6.8828 0.75-10.312 1.0859-2.2344 0.12891-4.4727 0.25391-6.7109 0.35157-5.6719 0.1914-5.6719 0.1914-7.9141 0.23046-1.8984 0-3.7852 0.0234-5.6602 0.0469-3.4531-0.0859-3.4531-0.0859-5.8438-0.19141-3.7539-0.18359-7.5312-0.53906-11.246-1.0898-2.1758-0.34766-2.1758-0.34766-4.1016-0.73047-0.56641-0.12109-1.1289-0.23047-1.6953-0.35937-3.9766-0.91407-7.9726-1.9805-11.711-3.6367-0.48047-0.26563-0.98438-0.52735-1.4688-0.77344-0.41407-0.26953-0.81641-0.52344-1.2148-0.78906-0.49609-0.42188-0.98047-0.86328-1.418-1.3203-0.27343-0.39843-0.53906-0.83984-0.77734-1.2578-0.12109-0.28906-0.22656-0.5625-0.35156-0.85937-0.16797-0.57813-0.16797-0.57813-0.35938-1.3516-0.0586-0.42187-0.1289-0.84375-0.16015-1.2578-0.10938-1.1484-0.10938-1.1484-0.15235-2.3203v-25.023c0.96485 0.62891 1.9688 1.1992 3.0312 1.6797 6.1719 2.5742 12.914 3.4297 19.48 4.3711 1.043 0.10157 2.1094 0.22657 3.1562 0.35547 2.8828 0.25 5.7695 0.5 8.6562 0.64453 2.5508 0.082 2.5508 0.082 4.875 0.12891 1.7148 0 3.4062-0.0156 5.125-0.0156 4.4102-0.11328 8.8477-0.40625 13.262-0.82031 3.3047-0.35937 3.3047-0.35937 6.2109-0.73047 2.4062-0.32031 4.8086-0.71093 7.2109-1.0938 4.9805-0.82812 9.9414-1.8359 14.879-2.9023 10.078-2.2852 20.121-4.8125 30.141-7.2812 4.1797-0.98047 8.3867-1.9648 12.586-2.9258 3.6484-0.75391 7.3047-1.4883 10.969-2.1758 1.4219-0.25391 2.8359-0.50391 4.2656-0.73438 1.6055-0.25 3.2188-0.48047 4.8281-0.73828 3.8477-0.49609 7.7227-0.93359 11.59-1.2695 5.5156-0.39453 11.02-0.60938 16.543-0.60938 3.2188 0.0664 6.4219 0.19141 9.625 0.44141 6.5234 0.66797 13.051 1.6094 19.406 3.2852 0.77343 0.23047 1.5508 0.48047 2.3438 0.73047 2.0508 0.73046 4.0156 1.6133 5.8086 2.8867 0.23438 0.1875 0.46875 0.37891 0.72266 0.56641 0.85547 0.83594 1.4844 1.6289 2.1289 2.6562 0.46094 0.98047 0.79297 1.9648 1.0469 3.0312 0.1875 1.0469 0.1875 1.0469 0.26562 1.7969 0.0274 0.46093 0.0703 0.92187 0.0899 1.3828zm-139.49 20.766c0.39844 0.375 0.78906 0.75781 1.2109 1.1289 0.2539 0.21094 2.6758 2.4024 2.8906 2.5547 1.1484 1.0234 2.3203 2.043 3.5117 3.0117 0.20703 0.23047 0.5625 0.47656 0.79297 0.67187 0.21094 0.14454 0.39062 0.3125 0.58594 0.47657 0.29297 0.23047 0.58984 0.46093 0.875 0.6914 0.82031 0.64844 1.6367 1.2969 2.4492 1.9492 1.2969 0.95703 2.5976 1.9414 3.8906 2.9219 2.4258 1.7422 4.9219 3.4531 7.4062 5.082 2.2188 1.4023 4.4766 2.7617 6.7383 4.082h0.0352c2.4531-1.4023 4.875-2.8672 7.2812-4.375 1.4414-0.96094 2.9062-1.9414 4.3711-2.8984 1.9453-1.3438 3.8516-2.8086 5.7578-4.2109 3.9922-3.0703 7.8633-6.293 11.605-9.6367 3.0977-2.8242 6.125-5.7774 9.0742-8.7461 1.8867-1.9297 3.7031-3.9492 5.5469-5.9219 3.3672-3.7852 6.6523-7.6562 9.8125-11.648 0.58203-0.043 1.1719-0.10547 1.7539-0.15234-1.8164 2.4336-3.8281 4.7539-5.7539 7.0976-2.1562 2.4883-4.3125 4.9961-6.5234 7.3984-0.58984 0.61328-0.62891 0.69531-2.8672 3.0195l-0.043 0.0781c-1.2305 1.2344-2.4648 2.4922-3.6797 3.7461l-1.043 1.0039c-1.2578 1.1953-2.5117 2.3867-3.7656 3.5781l-0.52734 0.45703c-0.77735 0.71094-1.5469 1.4258-2.3203 2.1602-0.77344 0.64453-1.5469 1.3164-2.2969 1.9648-0.60937 0.5-1.1992 1.0195-1.8008 1.5195-0.25 0.21094-0.50391 0.44532-0.75391 0.65235-0.3789 0.27343-0.6914 0.60156-1.0625 0.85937l-0.27734 0.25c-2.1172 1.6914-4.2891 3.3672-6.4648 5-3.5312 2.5469-7.1562 4.9766-10.832 7.2969-2.4258 1.4453-2.4258 1.4453-4.7891 2.8008-0.21094 0.0898-0.40234 0.10937-0.6289 0.10937-1.6328-0.96875-3.2578-1.9258-4.918-2.8906-3.7422-2.3398-7.3789-4.8711-10.984-7.4648-1.3516-1.0508-2.7109-2.1094-4.0938-3.1602-0.35937-0.3125-0.79687-0.66406-1.1914-0.9375-1.4219-1.1914-2.8242-2.3633-4.25-3.5352-1.3125-1.1719-2.6328-2.3242-3.9336-3.4726-2.9063-2.6758-5.7891-5.4179-8.5703-8.2226l-0.0391-0.082c0.47265-0.0625 0.97656-0.12891 1.4805-0.19141h0.125c1.6719 1.7188 3.4297 3.3906 5.168 5.0195zm10.664-2.0039c1.3164 1.0859 2.6367 2.2109 3.9531 3.2812 0.27343 0.30859 0.71484 0.52734 0.98828 0.83594 1.7773 1.3828 3.5703 2.7383 5.3476 4.1211 1.5508 1.0898 3.0781 2.2031 4.6289 3.2852 1.6094 1 3.1953 2.1328 4.8047 3.1406l0.29297-0.17187c1.5117-0.98047 3.0156-1.9453 4.5-2.9062 1.7188-1.2383 3.4492-2.4258 5.168-3.6406 1.8164-1.4062 3.6367-2.7969 5.457-4.1992 1.3789-1.1758 2.7812-2.3438 4.1875-3.5 1.6719-1.5 3.3672-3.0039 5.0391-4.4961 1.5508-1.4883 3.0898-2.9727 4.6367-4.457 1.5547-1.5859 3.1016-3.1758 4.6445-4.7461 2.2422-2.4648 4.5234-4.9375 6.6992-7.4648 5.8359-0.98828 5.8359-0.98828 5.9805-0.98828-1.5664 2.0312-3.3672 3.9531-5.0234 5.9023-4.1562 4.5156-4.1562 4.5156-4.2031 4.6055-3.4922 3.6133-3.4922 3.6133-5.418 5.5586-3.3047 3.1992-6.6875 6.3633-10.18 9.3476-0.62891 0.44532-1.1758 1.0469-1.8047 1.4922l-0.18359 0.16016c-0.29688 0.23047-0.58985 0.48828-0.88282 0.71484-0.27343 0.25391-0.6289 0.54297-0.92187 0.77344-0.32813 0.25-0.62109 0.5039-0.94141 0.77734-0.14062 0.0781-0.14062 0.0781-3.9297 3.0156-1.8555 1.332-3.7227 2.6758-5.5781 4.0117-1.4883 0.95703-2.9727 1.9453-4.457 2.9023-3.0156 1.8242-3.0156 1.8242-3.1602 1.8828-1.0312-0.60156-2.0469-1.2148-3.0547-1.7969-1.5078-0.98438-2.9922-1.9688-4.4766-2.9336-1.1289-0.79297-1.4062-0.9375-5.1875-3.6328-1.7969-1.3828-3.5976-2.7578-5.375-4.1445-2.0508-1.6914-4.1367-3.3672-6.0898-5.1641-2.3867-1.9883-4.6602-4.207-6.9023-6.3828 1.6758-0.29296 3.3476-0.60546 5.0195-0.89453h0.16797c2.0352 1.9688 4.1641 3.8242 6.2539 5.7109m19.863 57.297c-38.043 0-71.496-24.223-83.359-60.305l-0.043-0.11328 1.457 0.125c11.805 35.301 44.633 58.953 81.945 58.953 39.059 0 73.262-26.203 83.41-63.816 0.0664-0.22266 0.0391-0.15235 0.10156-0.37891l1.375 0.043c-10.078 38.559-44.98 65.492-84.887 65.492m-70.266-112.85c-1.0703-1.9062-2.1406-3.8086-3.2031-5.6914-1.0664-2.0274-2.1172-4.0586-3.1797-6.0664-0.94532-1.9258-1.9062-3.8281-2.8438-5.7305-1.0664-2.3008-2.1367-4.6055-3.1797-6.8828-0.94141-2.2383-1.9062-4.4336-2.8438-6.6484-0.82031-2.0938-1.6562-4.1875-2.4727-6.2773-0.83594-2.3008-1.6523-4.582-2.4922-6.8594-0.70312-2.1523-1.418-4.3086-2.1055-6.4648-0.71485-2.4062-1.4258-4.8125-2.1367-7.2148-0.48047-1.7774-0.94141-3.5586-1.418-5.3594-1.4219-6.0195-1.4219-6.0195-1.7774-7.6289-0.35546-1.8008-0.71484-3.5781-1.0469-5.3555-0.42578-2.4922-0.84375-4.9766-1.2656-7.4922-0.22265-1.8398-0.47265-3.6797-0.70312-5.5-0.21094-2.1719-0.41797-4.3516-0.60938-6.5-0.082-1.1328-0.14453-2.2617-0.21093-3.3945 1.0273-0.5 2.0586-0.98047 3.0742-1.4648 1.6328-0.72656 3.3047-1.457 4.9609-2.1953 2.1367-0.85547 4.2695-1.6914 6.3984-2.5469 2.0352-0.71485 4.0625-1.4453 6.0898-2.1797 4.4727-1.4609 4.4727-1.4609 6.7969-2.1719 1.6719-0.5 3.3438-0.98437 5.0234-1.4648 2.3008-0.60938 4.6172-1.2109 6.9414-1.8203 2.0859-0.50391 4.2031-0.98047 6.3164-1.4648 2.4062-0.48047 4.8086-0.96093 7.2383-1.4414 2.1133-0.37891 4.2461-0.73438 6.3789-1.1094 2.4922-0.35937 4.9805-0.71094 7.4844-1.0859 2.1016-0.25 4.1641-0.48437 6.2539-0.73437 2.6328-0.23438 5.2891-0.48438 7.9297-0.71094 2.4062-0.16406 4.8125-0.3164 7.2188-0.45703 2.5898-0.10937 5.168-0.19141 7.7578-0.27734 2.2812-0.0391 4.582-0.0391 6.8672-0.0625 2.1719 0.0234 4.3711 0.043 6.543 0.0859 2.3203 0.0859 4.6367 0.1875 6.9648 0.26954 5.6211 0.35546 5.6211 0.35546 7.9453 0.54687 1.9883 0.1875 3.9727 0.37109 5.9609 0.54297 2.0508 0.25 4.082 0.48047 6.1328 0.73047 2.5273 0.3789 5.0586 0.73437 7.5859 1.0898 2.0703 0.375 4.1445 0.73047 6.2148 1.1055 2.3867 0.48438 4.7734 0.96484 7.1562 1.4453 2.0508 0.48438 4.0977 0.96094 6.1289 1.4648 2.2812 0.60547 4.543 1.2148 6.8164 1.8203 2.3672 0.73047 4.7305 1.4648 7.0898 2.1758l6.3398 2.1914c1.8828 0.73437 3.7695 1.4492 5.6719 2.1797 1.8555 0.79297 3.7226 1.5859 5.582 2.3633 1.7969 0.85546 3.5976 1.6953 5.3906 2.5508 0.97266 0.5 1.9297 1.0039 2.918 1.5039-0.0664 1.0508-0.10547 2.0938-0.17578 3.1406-0.16797 1.9023-0.35547 3.7852-0.51953 5.6875-0.31641 2.3242-0.60156 4.6445-0.87891 6.9688-0.35937 2.1133-0.71093 4.2422-1.0625 6.3828-0.49218 2.3125-0.96484 4.6562-1.4258 7-0.48047 2.0117-0.93359 3.9961-1.4258 6-0.57812 2.1992-1.1914 4.3945-1.7773 6.6172-0.71094 2.3164-1.3984 4.6602-2.1094 7.0039-0.71094 2.0938-1.4258 4.2031-2.1367 6.3203-0.71093 1.9219-1.418 3.8438-2.1289 5.7695-0.94532 2.3633-1.8828 4.7266-2.8242 7.1133-0.96094 2.1758-1.9062 4.3281-2.8438 6.5-0.94141 2.0312-1.8867 4.0586-2.8242 6.0898-1.8438 3.6406-3.6797 7.3203-5.6055 10.898-1.5117 0-3.0391-0.082-4.5391-0.10547v-0.0586c1.1875-2.1992 2.3828-4.457 3.5312-6.6758 1.1914-2.3867 2.3672-4.7695 3.5547-7.1562 0.92578-2.0469 1.8828-4.1211 2.832-6.1875 0.93359-2.2188 1.8711-4.4375 2.8398-6.6562 0.9375-2.4219 1.8828-4.8477 2.8242-7.2774 0.70703-1.9648 1.418-3.9492 2.1289-5.9141 0.71484-2.1797 1.4258-4.3359 2.1406-6.5117 0.58594-1.9844 1.168-3.9688 1.75-5.9609 0.58984-2.2344 1.1992-4.4726 1.7812-6.6914 0.46094-2.0469 0.94531-4.0781 1.4219-6.1055 0.46093-2.4062 0.9414-4.7891 1.4258-7.1953 0.35547-2.1953 0.6875-4.418 1.0508-6.6094 0.22265-1.8398 0.47265-3.6797 0.70312-5.5273 0.16797-1.8789 0.33594-3.7812 0.52344-5.6641-1.6523-0.73438-3.3086-1.4414-4.9336-2.1758-1.8438-0.71093-3.6641-1.4453-5.5078-2.1758-2-0.73047-4.0117-1.4609-6.0156-2.1953-2.2461-0.73437-4.4609-1.4453-6.6992-2.1797-2.0664-0.60547-4.1641-1.2305-6.2266-1.8164-2.375-0.60547-4.7539-1.2344-7.0977-1.8203-2.1523-0.5039-4.2891-0.98437-6.4219-1.4609-1.8438-0.35547-3.6602-0.73438-5.4766-1.0898-4.1211-0.73437-4.1211-0.73437-8.4961-1.4648-2.1484-0.3125-4.2852-0.60938-6.3984-0.89844-2.0938-0.25-4.1602-0.5039-6.2344-0.73047-2.7188-0.2539-5.4336-0.5-8.1524-0.73437-1.8828-0.125-3.7461-0.25-5.6289-0.35547-2.6367-0.125-5.2695-0.23047-7.8867-0.33203-2.2812-0.0234-4.5625-0.0664-6.8203-0.0859-2.4062 0.0195-4.8086 0.0625-7.2109 0.0859-2.3711 0.10156-4.707 0.18359-7.0703 0.26953-5.6289 0.37891-5.6289 0.37891-8.0156 0.54687-1.9844 0.1875-3.9688 0.375-5.9609 0.5625-2.0469 0.22657-4.1016 0.48438-6.1289 0.70704-2.5274 0.38281-5.0625 0.73437-7.5703 1.1094-2.0898 0.35938-4.168 0.71484-6.2383 1.0898-2.3789 0.48047-4.7656 0.96485-7.1484 1.4648-2.0508 0.47656-4.1016 0.96094-6.1289 1.4453-2.2539 0.60156-4.5117 1.2109-6.7734 1.8164-2.3672 0.73437-4.7305 1.4648-7.0938 2.1992-2.0898 0.71093-4.1797 1.4219-6.2539 2.1719-1.8789 0.73047-3.7852 1.4688-5.6719 2.1992-1.7109 0.73047-3.4023 1.4648-5.1211 2.1719-1.7578 0.83985-3.4922 1.6562-5.25 2.4688 0 0.14844 0 0.14844 0.52344 5.8164 0.23046 1.7969 0.48046 3.6172 0.70703 5.4375 0.35937 2.1758 0.71875 4.3711 1.0703 6.5234 0.48047 2.3867 0.94141 4.7734 1.4258 7.1562 0.45703 2.0117 0.9375 3.9922 1.4141 6.0039 0.69922 2.6133 1.3867 5.2305 2.1172 7.8203 0.48438 1.5703 0.94141 3.1406 1.4219 4.707 0.89843 2.8008 1.8398 5.6289 2.8438 8.4297 0.71484 1.9023 1.4023 3.8242 2.1133 5.7305 0.83593 2.0508 1.6523 4.1211 2.4844 6.1914 0.94531 2.1758 1.8867 4.3281 2.8516 6.5078 0.92188 2.0274 1.8789 4.0586 2.8203 6.0859 0.9414 1.8828 1.9062 3.7852 2.8476 5.6641 1.168 2.2227 2.3633 4.4336 3.5352 6.6328 1.168 2.0703 2.3633 4.1445 3.5547 6.2344 1.168 1.9453 2.3438 3.8906 3.5352 5.8398 1.1719 1.8359 2.3359 3.6758 3.5352 5.5195 0.87891 1.2734 1.7578 2.5742 2.6367 3.8672-0.10938 0.0156-0.10938 0.0156-4.7969 0.32032-0.12109 0-0.95703-1.3867-1.1484-1.6562-1.1719-1.8398-2.3594-3.7031-3.5352-5.5274-1.3984-2.3789-2.8203-4.7461-4.2383-7.1055m181.6 10.227c-0.0664-0.39844-0.13281-0.79688-0.16796-1.1914-0.25782-1.1953-0.58594-2.3047-1.0703-3.4297-0.625-1.2578-1.4023-2.3476-2.3867-3.3476-0.98046-0.94141-2.0508-1.6953-3.1953-2.4062-0.46484-0.25-0.94531-0.5-1.4023-0.75391-0.54688-0.23047-1.0898-0.48047-1.6328-0.71094-2.8242-1.1719-5.8633-1.9062-8.8281-2.5508v-29.895h-0.0234c-1.4336 3.7461-3.0078 7.4766-4.582 11.152 0 5.9414-0.0156 11.902-0.0156 17.863-0.375-0.0625-0.73047-0.1289-1.1094-0.16796-0.0195-5.0391-0.0195-10.062-0.0195-15.082h-0.0234c-2.1953 4.7695-4.4766 9.4766-6.8828 14.121-0.46094-0.0625-0.91406-0.10156-1.3555-0.12891 2.5312-4.9336 4.9727-9.9141 7.293-14.973 1.4062-3.2031 1.4062-3.2031 2.8359-6.5234 1.4141-3.4766 1.4141-3.4766 2.8398-7.0977 0.96094-2.5664 1.9024-5.1836 2.8242-7.7773 1.8164-5.3555 3.4688-10.773 4.9531-16.23 0.48437-1.8633 0.9414-3.7461 1.4219-5.6055 1.4023-6.0898 2.5977-12.219 3.5547-18.391 0.35156-2.5703 0.35156-2.5703 0.69531-5.4375 0.5-4.4922 0.83594-9.0352 1.0469-13.574-6.8047-3.5547-14.02-6.3984-21.191-9.0547-2.9297-1.0039-5.8516-1.9648-8.8008-2.9062-1.6602-0.48438-3.3086-0.96094-4.9609-1.4453-8.6172-2.3828-17.344-4.3281-26.152-5.8359-3.2578-0.51953-6.5469-1.0234-9.8047-1.4648-10.938-1.4024-21.945-2.0898-32.965-2.2578h-5.4141c-1.9062 0.0234-3.832 0.0625-5.7383 0.10547-2.6992 0.125-5.4102 0.25-8.1367 0.37891-6.793 0.4375-13.59 1.1055-20.371 1.9844-2.5547 0.375-2.5547 0.375-7.1484 1.1094-1.3828 0.23047-2.7617 0.48047-4.1484 0.71094-4.5156 0.89843-9.0312 1.8398-13.488 2.9297-1.8555 0.47657-3.7226 0.96094-5.5859 1.4414-1.6875 0.48047-3.3672 0.96094-5.0586 1.4648-1.5273 0.48047-3.0742 0.96094-4.6016 1.4648-1.418 0.47656-2.8438 0.96093-4.2656 1.4414-2.5742 0.96094-5.1445 1.9219-7.7031 2.9297-4.8516 1.9844-9.582 4.1797-14.262 6.5469-0.90234 0.48046-1.8164 0.96484-2.7188 1.4609 0.0391 0.96485 0.0859 1.9492 0.125 2.9297 0.25391 3.9336 0.625 7.8438 1.0664 11.75 0.35547 2.7266 0.35547 2.7266 0.71093 5.1484 0.23438 1.4219 0.46094 2.8672 0.71485 4.3086 0.4375 2.4297 0.9375 4.875 1.4023 7.3047 1.0625 4.7656 2.2539 9.5156 3.5547 14.223 0.46094 1.5898 0.9375 3.1992 1.418 4.7891 1.3398 4.1836 2.7617 8.3867 4.2461 12.531 0.46094 1.2305 0.94141 2.4844 1.4219 3.7188 2.1758 5.4375 4.4531 10.816 6.9023 16.125 0.71094 1.4688 1.4258 2.9297 2.1172 4.418 1.3945 2.7617 2.8398 5.5195 4.2695 8.2617 3.0469 5.6055 6.2891 11.109 9.6602 16.504 0.71093 1.082 1.4219 2.1992 2.1289 3.2812-0.49609 0-1.0273 0.0195-1.543 0.0195-1.1094-1.75-2.2383-3.5312-3.3476-5.293-1.4453-2.3398-2.8672-4.7461-4.25-7.1289-0.95313-1.6914-1.8984-3.3672-2.8398-5.0664-0.96484-1.75-1.9023-3.5312-2.8438-5.3086-1.9648-3.8281-3.8516-7.7383-5.6719-11.629v-0.0625h-0.0195c-0.0195 6.293-0.0195 12.613-0.043 18.906-0.37891 0.0234-0.75391 0.0234-1.1289 0.043v-21.527c-0.35937-0.8125-0.6914-1.6094-1.0469-2.4024-1.2109-2.8633-2.4219-5.7266-3.5312-8.6406h-0.0234c0 10.965-0.0195 21.906-0.0195 32.844-4.9805 0.41797-10 0.97656-14.746 2.6992-0.98437 0.4375-1.8438 0.8789-2.7226 1.5039l-0.33203 0.33594-0.42188 0.48438c-0.30859 0.49609-0.5039 0.9375-0.60547 1.5039v29.613c0.0195 0.60938 0.0625 1.1914 0.0859 1.8047 0.125 1.0859 0.28516 2.1289 0.54297 3.2148 0.1875 0.57032 0.1875 0.57032 0.51953 1.4453 0.12891 0.23047 0.23047 0.45703 0.35547 0.6914 0.48437 0.75 0.94531 1.3398 1.5312 1.9844 0.33594 0.3125 0.67187 0.60547 1 0.90234 0.94531 0.73047 1.9922 1.3164 3.0156 1.8828 2.6367 1.2344 5.3711 2.1094 8.1602 2.9102 2.5039 0.68359 5.0469 1.2227 7.6094 1.6641l-0.0937-0.0156c11.449 38.273 46.934 66.176 88.938 66.176 43.676 0 80.305-30.168 90.191-70.797v8e-3c1.668-0.0391 3.3398-0.11328 5.0078-0.19532 1.9727-0.1914 1.9727-0.1914 3.5547-0.35546 0.84375-0.14454 1.6797-0.25391 2.5117-0.38282 2.0352-0.39062 3.9961-0.80859 5.9648-1.457 0.28516-0.1289 0.60938-0.23437 0.91797-0.35156 0.67578-0.34375 1.293-0.69531 1.9297-1.1133l0.52344-0.41797c0.18359-0.25781 0.41797-0.52344 0.62109-0.77734 0.19141-0.3711 0.33203-0.79297 0.44141-1.207v-27.781c-0.043-0.96484-0.10938-1.9258-0.1836-2.8867"/>
  </g>
  <g fill="#ffffff">
   <path d="m240.59 514.92-1.9453-2.5508 0.90234-0.6875c0.56641-0.4336 0.90235-0.73438 1.0117-0.89063l-0.0469-0.50781-0.4336-0.17969c-0.16406 0.0352-0.5 0.2461-1.0078 0.63672l-4.7695 3.6367c-0.44141 0.33594-0.71875 0.58984-0.81641 0.75391l0.0508 0.5c0.13671 0.18359 0.3125 0.25 0.52343 0.19921 0.21094-0.0586 0.55078-0.26171 1.0117-0.61328l1.1758-0.89843-0.39062-0.51563 1.5117-1.1523 2.2773 2.9922-5.3359 4.0664-1.2226-1.6055 0.53515-0.77734c-0.44531 0.0586-0.83984 0.0156-1.1992-0.13672-0.35156-0.14453-0.66406-0.39844-0.9414-0.75781-0.32813-0.42578-0.53125-0.91016-0.60156-1.4453-0.0742-0.53515-0.0352-1.0156 0.13281-1.4492 0.16406-0.4336 0.39453-0.80079 0.69922-1.1094 0.30859-0.30859 0.80078-0.72266 1.4844-1.2461l2.9531-2.2539c0.95312-0.72266 1.6797-1.1953 2.1836-1.4258 0.50781-0.22656 1.125-0.23828 1.8438-0.0273 0.73047 0.20703 1.3828 0.6875 1.957 1.4453 0.56641 0.74609 0.88672 1.4883 0.94922 2.2188 0.0703 0.73047-0.0547 1.332-0.37109 1.8086-0.3086 0.47656-0.875 1.0234-1.6953 1.6445z"/>
   <path d="m243.03 519.45 0.54297-0.50781c0.38672-0.36328 0.61719-0.61719 0.69531-0.76172l-0.0703-0.41015-0.41406-0.15625c-0.13281 0.0547-0.40625 0.28125-0.82813 0.66797l-0.54296 0.51562zm0.89453 3.3984-2.7266-2.9062-1.6172 1.5156c-0.33593 0.3164-0.53515 0.54687-0.58203 0.68359l0.11328 0.41797 0.51172 0.15625c0.1836-0.0625 0.46094-0.26953 0.83203-0.61719l0.98829-0.92578 1.9961 2.1289-0.55078 0.51562c-0.46094 0.4336-0.84375 0.73828-1.1445 0.91406-0.30078 0.17579-0.69141 0.28907-1.1758 0.33985-0.47657 0.0547-0.9375-0.0117-1.3828-0.20703-0.44531-0.19141-0.89843-0.53125-1.3555-1.0195-0.44921-0.47657-0.76953-0.95704-0.97265-1.4531-0.20313-0.49609-0.28125-0.95312-0.22656-1.3867 0.0508-0.42578 0.1875-0.8164 0.41015-1.168 0.21485-0.34765 0.60156-0.78906 1.1562-1.3086l2.1797-2.043c0.65234-0.61328 1.2461-1.0117 1.7852-1.1914 0.54296-0.17968 1.1016-0.16796 1.6758 0.043 0.57031 0.20703 1.1016 0.57032 1.5859 1.082 0.58985 0.63282 0.95704 1.2656 1.0977 1.9024 0.14063 0.63672 0.0937 1.2266-0.15625 1.7656-0.24219 0.53907-0.72656 1.1524-1.4531 1.832z"/>
   <path d="m249.48 524.34c0.3086-0.35547 0.48438-0.59765 0.52735-0.72656l-0.14063-0.375-0.42968-0.082c-0.15235 0.0586-0.36719 0.25-0.65235 0.57812l-2.2578 2.6016c-0.30078 0.34765-0.47266 0.58984-0.52344 0.72656l0.12891 0.38281 0.46484 0.0781c0.15235-0.0859 0.41797-0.34375 0.80469-0.78907zm4.1133-0.0234-5.1719 5.9531c-0.70312 0.80469-1.1719 1.3125-1.4141 1.5117-0.23828 0.20703-0.58203 0.34375-1.0352 0.41016-0.44922 0.0664-0.92969 0-1.4492-0.20704-0.51953-0.20703-1.0781-0.57031-1.6797-1.0976-0.74219-0.64063-1.2266-1.2812-1.4492-1.9297-0.23047-0.64453-0.0312-1.3477 0.60547-2.1016l2.2539 1.957c-0.29297 0.33984-0.32422 0.62109-0.0742 0.83203l0.48828 0.14844c0.14454-0.0547 0.36719-0.25 0.65625-0.58594l0.50782-0.58203c-0.36328 0.0117-0.69141-0.0312-0.98828-0.13281-0.30469-0.10157-0.57813-0.25391-0.82032-0.46094-0.41797-0.36719-0.6875-0.75-0.80859-1.1562-0.125-0.40625-0.11328-0.79297 0.0312-1.1562 0.14062-0.36328 0.43359-0.80469 0.87891-1.3164l2.4453-2.8086c0.63281-0.73047 1.2226-1.1484 1.7695-1.2461 0.53516-0.0899 1.0742 0.0898 1.6055 0.55078 0.29297 0.2539 0.50781 0.54687 0.64062 0.875 0.13672 0.32812 0.19141 0.69922 0.17188 1.1016l0.67578-0.4375z"/>
   <path d="m256.75 526.58-0.88672 1.0195c0.92578-0.51953 1.75-0.55078 2.4727-0.10156l-2.1172 2.918c-0.45703-0.33203-0.83984-0.51172-1.1406-0.54297-0.30859-0.0273-0.5664 0.0508-0.77734 0.23828-0.21094 0.18359-0.60547 0.67969-1.1875 1.4844l-2.3828 3.2734-2.4922-1.8086 6.0234-8.2891z"/>
   <path d="m265.25 528.77-1.0312 1.7227-1.707-1.0156 1.0274-1.7266zm-2.8672-1.7031-1.0234 1.7227-1.7109-1.0156 1.0234-1.7227zm2.2344 4.4609-5.2305 8.8047-2.6992-1.5976 0.48046-0.70703c-0.36328 0.1875-0.71875 0.27734-1.0742 0.26562-0.35547-0.0117-0.71094-0.12109-1.0625-0.32812-0.39454-0.23828-0.67969-0.50391-0.85938-0.80078-0.17969-0.29688-0.26172-0.59766-0.24219-0.91016 0.0117-0.30859 0.0781-0.59766 0.19922-0.86719 0.1211-0.27734 0.41016-0.78906 0.85547-1.5469l3.5312-5.9375 2.6484 1.5703-3.5625 5.9961c-0.40625 0.6836-0.62891 1.1055-0.66406 1.2539l0.22656 0.39844 0.46484 4e-3c0.11328-0.10937 0.38672-0.52343 0.81641-1.2461l3.5273-5.9258z"/>
   <path d="m268.17 533.18-0.4375 0.83593c0.35938-0.24609 0.72266-0.39453 1.0977-0.42968 0.37109-0.0391 0.75 0.0273 1.1328 0.19922 0.48438 0.22265 0.82032 0.51562 1.0234 0.88281 0.20703 0.36719 0.27344 0.74609 0.19922 1.1367-0.0742 0.38672-0.28906 0.98828-0.66016 1.8047l-2.9609 6.543-2.8047-1.2695 2.9258-6.4648c0.28906-0.64063 0.44531-1.043 0.46875-1.2031l-0.25391-0.36718-0.48437 0.0703c-0.125 0.14062-0.34375 0.5625-0.66406 1.2656l-2.8516 6.3125-2.8086-1.2695 4.2227-9.3398z"/>
   <path d="m275.43 538.73c0.11719-0.35937 0.16016-0.60937 0.14063-0.7539l-0.30078-0.29688-0.40235 0.0547c-0.0976 0.0898-0.20703 0.32813-0.32812 0.71094l-1.5274 4.7773c-0.1289 0.39844-0.18359 0.67188-0.16406 0.8125l0.27344 0.29297 0.44531-0.0859c0.10547-0.125 0.2461-0.45703 0.42188-0.99609zm4.4062-3.6719-3.8047 11.914-2.9336-0.94531 0.23047-0.70313c-0.37891 0.20313-0.75 0.33204-1.1016 0.37891-0.35547 0.0469-0.70703 0.0195-1.043-0.0898-0.45703-0.14453-0.80859-0.39063-1.0703-0.74219-0.25391-0.34766-0.37891-0.69531-0.3711-1.0469 4e-3 -0.35156 0.12891-0.88281 0.35547-1.6055l1.457-4.5625c0.24219-0.75391 0.46094-1.2695 0.65235-1.5547 0.19922-0.28125 0.5-0.48828 0.91797-0.61719 0.41406-0.13281 0.85546-0.12109 1.3281 0.0273 0.35938 0.11719 0.66797 0.28516 0.92969 0.51954 0.26172 0.23046 0.47265 0.51562 0.63672 0.85937l0.88281-2.7656z"/>
   <path d="m282.98 541.7 0.14063-0.73437c0.10547-0.51953 0.14453-0.85938 0.11718-1.0195l-0.29296-0.29297c-0.21094-0.043-0.35547-8e-3 -0.42579 0.11719-0.0742 0.11718-0.16796 0.45703-0.28125 1.0234l-0.14453 0.73438zm2.707 2.2305-3.9102-0.76562-0.42578 2.1758c-0.0899 0.45703-0.10938 0.75391-0.0742 0.89844l0.33984 0.27343c0.22656 0.043 0.39844-0.0156 0.50781-0.17578 0.11328-0.16015 0.21875-0.48828 0.31641-0.98828l0.25391-1.3242 2.8672 0.55469-0.14062 0.75c-0.125 0.61719-0.25391 1.0859-0.39844 1.4062-0.14062 0.32031-0.39453 0.64063-0.75 0.96484-0.35937 0.32032-0.77344 0.53516-1.25 0.63672-0.46875 0.10547-1.0352 0.0937-1.6953-0.0351-0.63672-0.125-1.1875-0.32813-1.6367-0.60938-0.45313-0.28515-0.78516-0.61328-0.98828-0.99219-0.21094-0.3789-0.32813-0.77343-0.35938-1.1875-0.0312-0.40625 0.0312-0.98828 0.17969-1.7383l0.57031-2.9297c0.17188-0.87891 0.42188-1.5508 0.75391-2.0117 0.33594-0.46485 0.79687-0.77735 1.3867-0.94922 0.58594-0.16406 1.2226-0.17578 1.918-0.0391 0.84765 0.16015 1.5117 0.46093 2 0.89843 0.48828 0.42969 0.78906 0.9375 0.91015 1.5195 0.11328 0.58204 0.0781 1.3594-0.10937 2.332z"/>
   <path d="m290.83 537.72-0.15234 1.6016 0.82422 0.082-0.16016 1.6133-0.82812-0.082-0.53516 5.457c-0.0625 0.67188-0.0664 1.0469-4e-3 1.1328 0.0586 0.0859 0.33984 0.14843 0.83984 0.19922l-0.16016 1.6406-1.2383-0.12109c-0.69922-0.0664-1.1914-0.14453-1.4844-0.23047-0.29688-0.0898-0.54297-0.25-0.75391-0.48828-0.20312-0.23828-0.32031-0.48828-0.34766-0.76953-0.0312-0.28125 4e-3 -0.92579 0.10157-1.9414l0.50781-5.1758-0.65625-0.0664 0.15625-1.6133 0.66406 0.0664 0.15625-1.6094z"/>
   <path d="m299.27 536.93 0.26563 12.492-3.0781 0.0703-0.14453-6.6992c-0.0234-0.96875-0.0586-1.5508-0.10547-1.7422-0.0508-0.19531-0.17578-0.33984-0.38671-0.43359-0.21094-0.0977-0.66797-0.14062-1.375-0.125l-0.3086 8e-3 -0.0312-1.457c1.4805-0.35156 2.5938-1.043 3.3438-2.0742z"/>
   <path d="m303.61 541.79c0.0664 0.51953 0.17578 0.83594 0.32813 0.94141l0.4375 0.1289c0.20703-0.0312 0.35156-0.125 0.42968-0.29296 0.0781-0.17188 0.0899-0.48047 0.0352-0.9375l-0.29688-2.2422c-0.0742-0.54297-0.16406-0.89453-0.28125-1.0508-0.12109-0.15625-0.28515-0.22266-0.5-0.19532l-0.38281 0.25c-0.12109 0.15235-0.14453 0.51172-0.0742 1.0781zm-2.5508 4.2656 3.0547-0.39453c0.0742 0.57421 0.1289 0.9375 0.16406 1.0859l0.23437 0.35547 0.46485 0.0977 0.36328-0.19922 0.125-0.39844c-4e-3 -0.15234-0.043-0.46484-0.10156-0.92969l-0.25782-1.9726c-0.10937 0.34765-0.30468 0.6289-0.58203 0.83594-0.28125 0.19921-0.64843 0.33203-1.0976 0.39453-0.5586 0.0742-1.0703-0.0156-1.543-0.26563-0.46875-0.25-0.78906-0.58203-0.95703-0.99609-0.17188-0.41406-0.30469-0.98438-0.39844-1.7148l-0.13281-0.98828c-0.10938-0.86718-0.16016-1.5195-0.14844-1.9492 0.0117-0.43359 0.13672-0.85156 0.375-1.2461 0.23437-0.39453 0.58984-0.72656 1.0625-0.98828 0.47266-0.26953 1.0352-0.44141 1.6953-0.52734 0.82031-0.10938 1.5039-0.0781 2.0547 0.0859 0.55859 0.16016 1.0039 0.4336 1.3477 0.82813s0.57031 0.82812 0.67578 1.2969c0.10937 0.46485 0.25 1.3828 0.42578 2.7461l0.22656 1.7226c0.19141 1.4727 0.30469 2.4609 0.32422 2.9688 0.0273 0.50391-0.0898 0.99219-0.33594 1.4805-0.25781 0.48438-0.6289 0.86719-1.1328 1.1602-0.50391 0.28906-1.0977 0.48047-1.793 0.57422-0.85937 0.11328-1.582 0.0625-2.168-0.14453-0.58203-0.21485-1.0273-0.55469-1.332-1.0352-0.30859-0.47656-0.50781-1.1055-0.61328-1.8828"/>
   <path d="m312.5 537.91c-0.16797-0.64453-0.3125-1.0312-0.41406-1.1797-0.10156-0.14843-0.26953-0.1875-0.49219-0.1289-0.22265 0.0547-0.34375 0.18359-0.37109 0.37109-0.0273 0.19141 0.043 0.59766 0.20703 1.2227l1.5547 5.8984c0.18359 0.69921 0.32812 1.1133 0.43359 1.2422 0.10547 0.1211 0.26953 0.15625 0.48828 0.0977 0.22266-0.0547 0.34375-0.17969 0.36719-0.36719 0.0273-0.18359-0.0391-0.57422-0.19922-1.168zm3.2461 0.23438 1.0625 4.0273c0.23828 0.91797 0.36718 1.5938 0.38281 2.0391 8e-3 0.44532-0.0898 0.89453-0.30469 1.3359-0.21875 0.44531-0.51953 0.80469-0.91406 1.0781-0.39844 0.27734-0.86328 0.48437-1.4062 0.625-0.71484 0.1914-1.3242 0.25781-1.8438 0.21875-0.51172-0.0391-0.96094-0.20313-1.3281-0.48047-0.375-0.28125-0.67578-0.60157-0.89843-0.96094-0.21485-0.35938-0.4375-0.96094-0.66016-1.8164l-1.1172-4.2148c-0.28906-1.1094-0.41797-1.9648-0.37109-2.5664 0.043-0.60547 0.30078-1.1523 0.77344-1.6289 0.47656-0.48047 1.1133-0.83203 1.918-1.043 0.65234-0.16797 1.2656-0.20703 1.8438-0.11719 0.57812 0.0977 1.0391 0.28125 1.3828 0.54297 0.33984 0.26562 0.61328 0.59766 0.8125 0.99219 0.20703 0.39453 0.42578 1.0469 0.66797 1.9688"/>
   <path d="m322.46 536.79c0.49219-0.0274 0.91406 0.082 1.2617 0.33593 0.34766 0.25391 0.76953 1.0039 1.2734 2.2422 0.36328 0.92188 0.55468 1.6758 0.54687 2.2695 0 0.59375-0.20703 1.1289-0.60547 1.5938-0.40625 0.47266-1.0039 0.86719-1.8008 1.1875-0.90625 0.36328-1.6758 0.49219-2.3164 0.39453-0.64063-0.0976-1.1328-0.33984-1.4727-0.72656-0.34766-0.375-0.73828-1.1211-1.1797-2.2227l-0.36719-0.91796 2.8555-1.1484 0.75782 1.8867c0.19921 0.5 0.35546 0.80468 0.47265 0.91797l0.47266 0.0469c0.22265-0.0898 0.33203-0.23047 0.33594-0.4375 0-0.19531-0.14844-0.66016-0.42969-1.3828l-0.32813-0.8086c-0.17578-0.4414-0.36328-0.74609-0.54297-0.91015-0.17968-0.16406-0.38281-0.24219-0.59765-0.23047-0.22266 0.0117-0.61328 0.13281-1.1719 0.33984l-0.67578-1.6797c0.67578-0.27344 1.0859-0.46875 1.2227-0.58985 0.14062-0.11328 0.21094-0.27344 0.21094-0.48047 0-0.20312-0.0781-0.49609-0.22266-0.875l-0.26172-0.64453c-0.16406-0.40234-0.30859-0.65625-0.44922-0.75l-0.46094-0.0391-0.32421 0.36719c-0.0195 0.16406 0.0625 0.47265 0.23828 0.91406l0.38672 0.95312-2.8594 1.1484-0.39844-0.98828c-0.44531-1.1094-0.49609-1.957-0.15234-2.5469 0.34375-0.58594 1.0586-1.1055 2.1445-1.5391 1.3672-0.55078 2.4023-0.65234 3.1055-0.30859 0.70312 0.34766 1.2422 0.99609 1.6289 1.957 0.25781 0.64844 0.35937 1.1484 0.30468 1.5117-0.0586 0.35937-0.26172 0.74219-0.60156 1.1602"/>
   <path d="m329.25 533.95c0.25781-0.14453 0.53516-0.18359 0.83984-0.10937 0.30078 0.0742 0.53125 0.2539 0.69141 0.53125 0.15625 0.26953 0.19531 0.55859 0.11328 0.86328-0.0742 0.29687-0.25 0.52344-0.51953 0.67969-0.26563 0.14843-0.54688 0.18359-0.84766 0.10156-0.29687-0.0859-0.52734-0.26172-0.68359-0.53125-0.15625-0.27344-0.19922-0.5625-0.11328-0.85938 0.082-0.29687 0.2539-0.52343 0.51953-0.67578"/>
   <path d="m333.45 524 5.9492 8.0352 1.5703-1.1602 1.4883 2.0117-4.1484 3.0703-7.4375-10.043z"/>
   <path d="m339.48 518.28 1.3438 1.4922-1.4844 1.332-1.3398-1.4922zm2.4414 1.4219 6.8594 7.6094-2.3281 2.0977-0.52734-0.66407c0.0703 0.39844 0.0469 0.76563-0.0664 1.1016-0.11328 0.33984-0.32812 0.64062-0.63281 0.91406-0.34375 0.30859-0.68359 0.50781-1.0156 0.58984-0.33985 0.0781-0.65625 0.0664-0.94532-0.0391-0.28906-0.10547-0.55078-0.25391-0.76562-0.44922-0.23047-0.19922-0.63672-0.62109-1.2227-1.2773l-4.6289-5.1367 2.293-2.0547 4.6641 5.1797c0.53515 0.58984 0.86719 0.92578 1.0039 1.0039l0.44141-0.0977 0.14844-0.44531c-0.0703-0.14454-0.39063-0.52735-0.94531-1.1484l-4.6211-5.125zm-4.9219 0.8086 1.3398 1.4922-1.4726 1.3281-1.3438-1.4922z"/>
   <path d="m347.32 518.1c-0.39453-0.35547-0.67578-0.5625-0.83985-0.62109l-0.43359 0.1289-0.0898 0.41016c0.0664 0.13672 0.3125 0.39844 0.74218 0.78125l3.2812 2.9453c0.41016 0.3711 0.69532 0.57813 0.85547 0.63282l0.42188-0.125 0.0742-0.4375c-0.082-0.15235-0.34375-0.42969-0.79688-0.83204zm-4.4688-2.7539 2.1992 1.9766c-0.0508-0.38672-0.0274-0.75 0.0703-1.082 0.0977-0.32813 0.27344-0.62891 0.51562-0.90235 0.28907-0.3125 0.57813-0.54297 0.88672-0.6875 0.30469-0.13672 0.60157-0.1875 0.89063-0.14843 0.28906 0.043 0.52734 0.1289 0.72265 0.25781 0.19532 0.1289 0.57422 0.4414 1.1328 0.95703l3.4414 3.082c0.55469 0.5 0.94532 0.91016 1.1484 1.2266 0.21484 0.32032 0.28906 0.71094 0.24609 1.1602-0.043 0.45312-0.23046 0.87109-0.5664 1.2422-0.24219 0.26562-0.52344 0.46484-0.85156 0.58984-0.32813 0.12891-0.69532 0.17969-1.1055 0.16016l0.4414 0.66406-1.9258 2.1445-9.3047-8.3477z"/>
   <path d="m352.9 512.29-0.60938-0.44531c-0.42969-0.30859-0.72265-0.49219-0.8789-0.53906l-0.39063 0.14453-0.0742 0.4375c0.0742 0.11719 0.34766 0.34765 0.8125 0.68359l0.60938 0.44531zm3.1602-1.5156-2.3476 3.2226 1.793 1.3008c0.375 0.27344 0.64062 0.42188 0.78515 0.44922l0.38281-0.1914 0.0625-0.53907c-0.10156-0.16406-0.34765-0.39843-0.76171-0.69921l-1.0938-0.79688 1.7148-2.3555 0.60937 0.44141c0.51563 0.37109 0.88672 0.6875 1.1133 0.95312 0.23046 0.26172 0.41406 0.625 0.55468 1.0859 0.14453 0.46484 0.16016 0.93359 0.0547 1.4023-0.10156 0.47266-0.35547 0.98047-0.75 1.5274-0.38281 0.52344-0.79687 0.92969-1.2422 1.2226-0.44531 0.28516-0.88672 0.44922-1.3203 0.48047-0.43359 0.0274-0.83594-0.0351-1.2227-0.17968-0.39062-0.14844-0.88671-0.44922-1.5039-0.89844l-2.418-1.7539c-0.71875-0.52734-1.2188-1.0391-1.5-1.5391-0.28125-0.49609-0.36719-1.0508-0.27344-1.6484 0.0977-0.59765 0.35547-1.1875 0.77344-1.7578 0.50781-0.69922 1.0586-1.1797 1.6562-1.4375 0.60156-0.26172 1.1914-0.32031 1.7617-0.17969 0.58203 0.14063 1.2695 0.50391 2.0703 1.0898z"/>
   <path d="m358.94 503.13-1.4727 2.5039-1.0156-0.59765c-0.35546-0.21094-0.61328-0.32032-0.77343-0.33985l-0.37891 0.20313-0.0156 0.40625c0.082 0.11718 0.3164 0.29297 0.70312 0.51562l4.168 2.4492c0.3125 0.1875 0.57031 0.28516 0.77734 0.30469l0.44141-0.21094-0.0352-0.51172c-0.125-0.16015-0.41797-0.375-0.875-0.64453l-1.0508-0.61328 1.3906-2.3711c0.70703 0.42187 1.2188 0.75781 1.543 1.0078 0.32812 0.2539 0.60546 0.61719 0.82812 1.082s0.3125 0.95312 0.26563 1.4609c-0.0469 0.51172-0.23829 1.0586-0.58594 1.6445-0.44141 0.75-0.91797 1.2656-1.4336 1.5547-0.51953 0.28515-1.0703 0.38281-1.6367 0.28515-0.57813-0.0898-1.2969-0.39062-2.1562-0.89453l-2.5117-1.4805c-0.7461-0.4375-1.2695-0.84765-1.5625-1.2188-0.29688-0.37109-0.45313-0.89062-0.46094-1.5547-0.0156-0.66015 0.18359-1.3438 0.58984-2.0391 0.41016-0.6914 0.90625-1.1953 1.4922-1.5117 0.58594-0.3164 1.1523-0.41797 1.6992-0.3164 0.54687 0.10156 1.2422 0.39843 2.0664 0.88672"/>
   <path d="m358.7 494.62 3.1602 2.8711 6.2695 1.1484-1.2617 2.6836-4.4453-1.0352 4.0391 1.9062-1.3164 2.7891-11.309-5.3203 1.3086-2.7891 4.7539 2.2305-2.3047-2.1445z"/>
   <path d="m279.95 453.28 8.0352-15.184c-1.4844-1.7383-2.5352-3.9023-4.0234-5.6289l-21.703 14.875c0.85937 2.2109 4.2305 1.9336 4.0117 5.2305-2.7227 0.95313-5.2148-2.0156-8.4375-2.0117-1.6836 4e-3 -3.3711 0.44922-4.8281 1.6055v0.043l0.16016 0.16016c0.80859 0 1.6055 0.0508 1.6055 0.0508 5.457 0.24219 7.6562 4.8945 7.6562 4.8945 5.9336-1.3086 17.523-4.0352 17.523-4.0352"/>
   <path d="m287.29 451.5c0.80859-3.4883 1.4062-7.1875 1.8984-10.992 1.6523 2.0781 2.9922 4.0117 5.1875 5.9961 2.2031-1.9844 3.5352-3.918 5.1953-5.9961 0.34375 2.6602 0.74219 5.2617 1.2226 7.7812z"/>
   <path d="m307.28 362.18c1.1719-1 3.1719-1.1836 4.2422-2.2852 0.39063 1.2148-2.3203 3.3203-4.2422 2.2852m-30.031-2.2852c1.0625 1.1016 3.0547 1.2852 4.2383 2.2852-1.9219 1.0352-4.6289-1.0703-4.2383-2.2852m70.098 80.469c1.6211-1.1406 3.0117-2.6719 4.0859-4.6719-12.516-1.6914-26.34-2.0781-33.766-8.8477 4.168 1.9688 13.188 4.6445 21.711 5.2266 5.3359 0.36328 11.145 0.17578 14.473-1.2109 2.0781-0.86719 3.668-4.4883 4.0078-7.2344-8.0469 0.14063-16.223-8e-3 -22.906-1.6094-2.8867-0.6875-5.5156-1.5938-7.2383-3.6172 3.2031 1.0977 8.3281 2.457 13.668 2.8203 7.0156 0.47657 15.488-0.44531 18.492-4.0234 1.5859-1.8867 2.1055-4.5586 2.0117-7.6367-7.8164 2.3008-20.711 2.2109-28.543 0 13.254-0.29688 32.391 2.2148 31.355-13.668-5.3164 1.2031-10.695 3.1641-16.883 3.6211-3.1992 0.23047-6.4453-0.17578-10.043 0 3.7266-1.3359 8.0703-1.125 12.051-2.0156 1.7539-0.38282 3.9648-1.0274 5.6328-1.6055 6.2617-2.1836 11.355-5.9883 10.852-15.277-7.0859 3.9024-14.48 7.5-24.926 8.0391 5.168-1.2031 11.816-4.5156 16.883-6.832 1.4766-0.67579 2.0703-0.84375 3.2109-1.6094 1.5156-1 3.7461-4.6016 4.0312-7.2383 0.25781-2.4609-0.40625-4.125-0.8086-6.8281-2.7188 2.1484-5.1055 3.0391-7.6406 4.4219-3.6328 1.9844-8.1992 3.4102-13.262 4.418-3.2969 0.65625-6.3125 1.1133-9.2461 2.4102-1.293 0.57422-2.9961 1.3672-3.625 2.0117-0.30859 0.32422-0.5 0.70703-0.78515 1.0898-0.26563 0.36718-0.84766 1.1992-1.2188 2.1289-0.45703 1.1445-0.38281 2.9141-0.80469 4.4219-0.86719 3.1094-2.25 6.5195-3.6211 9.6484-1.3711 3.1289-2.5391 6.3789-4.8281 8.4375 3.9609-7.3125 5.7656-12.129 7.6484-20.902 0.34766-1.625 0.68359-3.3789 1.6055-4.8242 2.75-4.3242 10.387-5.1953 16.477-6.8359 4.3984-1.1758 8.4336-3.0117 12.062-5.625 2.0312-1.4648 2.75-1.832 4.0156-4.0195 0.40234-0.67968 1.0391-1.9336 1.2109-3.2148 0.61719-4.7109-1.7578-8.0703-2.8125-12.465l-41.004 22.512c-0.28125 1-0.16797 2.1719-0.40235 3.2148-0.79297 3.6836-1.5273 7.4688-2.5586 10.945-0.77734-5.9219-1.3008-13.215-1.125-17.176 2.2148-0.93359 4.5156-1.7812 6.1875-3.2578-2.1992 0.0195-4.4102 0.0625-5.8672-0.65235 2.7305-0.97656 6.6758-5.4922 8.8086-1.3047-0.15625-2.8945 0.34375-6.4414-0.32813-8.8086-3.8477 0.17188-5.8086 2.2305-8.8008 3.2578-0.39063-0.48438-0.28125-1.457-1.3047-1.3008-2.8281 0.92579-5.3984 1.7774-7.832 2.9297-3.1641 1.5039-5.7344 4.1758-9.7891 4.2461 4e-3 -0.17969-0.25781-0.36719-0.32422 0 1.1641 0.89843 2.1875 1.9414 4.5664 1.6328-0.85547 1.8633-3.6953 3.4726-3.2578 5.5391 0.81641-0.91406 1.8906-1.582 3.582-1.625-1.3242 2.1523-3.1797 3.7383-3.4219 7.2422 1.6641-1.6484 3.1133-3.6367 5.3828-4.3086-0.65234 0.83985-1.3516 1.4414-1.6328 2.6094-0.37891 1.6016 0.16406 7.3203 0 9.0508-0.33594 3.5234-0.91016 9.0547-2.1445 12.695h-8.4414c-1.2422-3.6406-1.8203-9.1719-2.1523-12.695-0.16797-1.7305 0.38281-7.4492 0-9.0508-0.28125-1.168-0.98438-1.7695-1.6289-2.6094 2.2578 0.67188 3.7227 2.6602 5.375 4.3086-0.24219-3.5039-2.0898-5.0898-3.4219-7.2422 1.6953 0.043 2.7734 0.71094 3.5898 1.625 0.43359-2.0664-2.4062-3.6758-3.2656-5.5391 2.375 0.30859 3.4102-0.73438 4.5625-1.6328-0.0508-0.36719-0.31641-0.17969-0.31641 0-4.0547-0.0703-6.6289-2.7422-9.7891-4.2461-2.4375-1.1523-5.0039-2.0039-7.8281-2.9297-1.0312-0.15625-0.92187 0.81641-1.3047 1.3008-2.9961-1.0274-4.957-3.0859-8.8086-3.2578-0.67187 2.3672-0.16797 5.9141-0.32812 8.8086 2.1328-4.1875 6.082 0.32812 8.8125 1.3047-1.4609 0.71485-3.6719 0.67188-5.8711 0.65235 1.6719 1.4766 3.9844 2.3242 6.1953 3.2578 0.16797 3.9609-0.34765 11.25-1.1328 17.176-1.0312-3.4766-1.7695-7.2617-2.5586-10.945-0.22266-1.043-0.11719-2.2148-0.40235-3.2148l-41-22.512c-1.0547 4.3945-3.4336 7.7539-2.8164 12.465 0.17187 1.2812 0.8125 2.5352 1.207 3.2148 1.2734 2.1875 1.9922 2.5547 4.0195 4.0195 3.6289 2.6133 7.668 4.4492 12.059 5.625 6.1016 1.6406 13.734 2.5117 16.488 6.8359 0.91796 1.4453 1.2539 3.1992 1.6016 4.8242 1.8828 8.7734 3.6914 13.59 7.6406 20.902-2.2773-2.0586-3.4492-5.3086-4.8281-8.4375-1.3633-3.1289-2.7461-6.5391-3.6133-9.6484-0.42188-1.5078-0.34375-3.2774-0.80078-4.4219-0.375-0.92968-0.94922-1.7617-1.2227-2.1289-0.28516-0.38282-0.47656-0.76563-0.78906-1.0898-0.63672-0.64453-2.332-1.4375-3.6211-2.0117-2.9297-1.2969-5.9492-1.7539-9.2422-2.4102-5.0664-1.0078-9.6406-2.4336-13.27-4.418-2.5352-1.3828-4.9141-2.2734-7.6406-4.4219-0.39844 2.7031-1.0625 4.3672-0.80078 6.8281 0.28515 2.6367 2.5078 6.2383 4.0195 7.2383 1.1523 0.76563 1.7422 0.93359 3.2109 1.6094 5.0664 2.3164 11.727 5.6289 16.895 6.832-10.453-0.53907-17.844-4.1367-24.93-8.0391-0.5 9.2891 4.5859 13.094 10.855 15.277 1.6641 0.57812 3.8789 1.2226 5.6328 1.6055 3.9688 0.89062 8.3203 0.67968 12.059 2.0156-3.6133-0.17578-6.8477 0.23047-10.051 0-6.1914-0.45703-11.566-2.418-16.891-3.6211-1.0312 15.883 18.102 13.371 31.359 13.668-7.8359 2.2109-20.723 2.3008-28.547 0-0.0859 3.0781 0.4375 5.75 2.0156 7.6367 3 3.5781 11.473 4.5 18.496 4.0234 5.3359-0.36328 10.465-1.7226 13.664-2.8203-1.7188 2.0234-4.3516 2.9297-7.2344 3.6172-6.6914 1.6016-14.863 1.75-22.918 1.6094 0.34375 2.7461 1.9336 6.3672 4.0273 7.2344 3.3125 1.3867 9.1172 1.5742 14.465 1.2109 8.5195-0.58204 17.535-3.2578 21.707-5.2266-7.4297 6.7695-21.25 7.1562-33.766 8.8477 7.457 13.836 29.707 5.2773 39.395-0.40625 1.1406-0.67188 2.6094-1.3984 3.3555-1.8945 1.1641-0.77344 2.8672-2.207 2.9688-2.5703-1.5898-2.9688-2.4492-9.0508-1.9062-12.816 3.0898 14.801 13.234 24.496 13.234 24.496s10.148-9.6953 13.234-24.496c0.55078 3.7656-0.32031 9.8477-1.9062 12.816 0.10547 0.36328 1.8164 1.7969 2.9766 2.5703 0.73828 0.49609 2.207 1.2226 3.3516 1.8945 4.3594 2.5625 14.492 7.7617 18.234 7.1211 4.9336-0.83593 17.074-2.043 17.074-2.043"/>
   <path d="m321.54 443.93-16.738-11.465c-1.4922 1.7227-2.543 3.8867-4.0234 5.6289l4.8516 9.1523z"/>
  </g>
  <g fill="#c5141c">
   <path d="m229.69 469.97-1.1797 23.898-5.9688-0.29688 0.64062-12.812c0.0898-1.8516 0.10157-2.9648 0.0312-3.3438-0.0742-0.3789-0.30078-0.67187-0.6914-0.88281-0.39063-0.20703-1.2734-0.35156-2.6484-0.42188l-0.59375-0.0273 0.14453-2.7852c2.9102-0.47656 5.1641-1.6445 6.7539-3.5039z"/>
   <path d="m236.62 488.75 0.16406 4.875-4.5 0.15625-0.16797-4.8789z"/>
   <path d="m243.75 469.13 10.434-1.4414 0.65235 4.7422-4.2695 0.58984 0.61718 4.4961 3.8086-0.52734 0.61718 4.5117-3.8047 0.52344 1.3711 9.957-6.1641 0.84375z"/>
   <path d="m272.16 474.67-6.0898 1.2656-0.84375-4.0703c-0.24609-1.1875-0.46484-1.9102-0.66015-2.1797-0.19141-0.26172-0.50391-0.35156-0.94922-0.25781-0.5 0.10547-0.78125 0.34765-0.84375 0.73437s0.0312 1.168 0.27343 2.3555l2.2617 10.883c0.23828 1.1328 0.45703 1.8633 0.66407 2.1875 0.20703 0.3125 0.54687 0.42578 1.0195 0.32422 0.45703-0.0898 0.71484-0.32422 0.78515-0.70312 0.0664-0.37891-0.0312-1.2109-0.30078-2.4961l-0.60937-2.9453 6.0898-1.2617 0.19141 0.91406c0.5 2.4258 0.6875 4.1797 0.55468 5.2617-0.1289 1.0898-0.70703 2.1328-1.7188 3.1406-1.0117 1.0039-2.3789 1.6875-4.0976 2.043-1.7812 0.36718-3.3203 0.35156-4.6094-0.0547-1.2969-0.40625-2.2461-1.1406-2.8594-2.207-0.61328-1.0625-1.1602-2.7461-1.6367-5.0391l-1.4219-6.8438c-0.34375-1.6914-0.55468-2.9648-0.60937-3.8359-0.0586-0.86719 0.11719-1.75 0.52734-2.6524 0.41016-0.89843 1.0781-1.6797 2.0039-2.3398 0.92187-0.66016 2.0469-1.125 3.3711-1.3984 1.793-0.375 3.3438-0.33593 4.6562 0.11328 1.3086 0.45313 2.2578 1.1562 2.8359 2.1211 0.58203 0.96094 1.1016 2.5312 1.5547 4.7148z"/>
   <path d="m285.48 464.61 1.6016 5.875 0.44922-0.10937c0.55078-0.14844 0.89453-0.38672 1.0352-0.71875 0.13672-0.33203 0.0937-0.92188-0.14063-1.7773l-0.51562-1.8945c-0.21875-0.78906-0.48047-1.2695-0.79297-1.4375-0.3125-0.17187-0.85937-0.15234-1.6367 0.0625m-7.0781-2.3125 6.043-1.6484c1.6328-0.44532 2.9297-0.66407 3.8789-0.64453 0.94531 0.0195 1.707 0.20703 2.2852 0.57031 0.57031 0.36328 1.0273 0.87109 1.375 1.5156 0.34765 0.64844 0.71875 1.6914 1.1094 3.1367l0.55078 2.0078c0.39844 1.4766 0.53907 2.5898 0.42188 3.3477-0.12109 0.75391-0.53516 1.4297-1.25 2.0117-0.71484 0.58594-1.7266 1.0547-3.043 1.4102l-1.6055 0.4414 2.5312 9.293-5.9961 1.6367z"/>
   <path d="m299.77 456.51 1.3672 5.207c0.375-0.58984 0.82422-1.0742 1.3398-1.4531 0.51562-0.38281 1.1016-0.65625 1.7578-0.83203 1.0117-0.26562 1.9375-0.23437 2.7812 0.0937 0.84375 0.32813 1.4414 0.8086 1.7695 1.4375 0.33594 0.62891 0.73828 1.832 1.207 3.6172l3.4414 13.074-5.7734 1.5195-3.5156-13.352c-0.28907-1.1016-0.53516-1.793-0.72266-2.0859-0.19141-0.28125-0.48047-0.375-0.86328-0.27344-0.35156 0.0899-0.54688 0.31641-0.58594 0.67188-0.0391 0.36328 0.0703 1.0195 0.32422 1.9805l3.5625 13.531-5.7734 1.5195-6.0898-23.137z"/>
   <path d="m322.18 450.16 0.85938 3.7461-3.7578 0.85937-0.86328-3.7461zm-1.8203 11.254c-0.21875-0.98047-0.41406-1.582-0.57813-1.8125-0.16797-0.23047-0.42187-0.30859-0.76562-0.22656-0.34766 0.0781-0.54297 0.25781-0.60547 0.53906-0.0547 0.28125 0.0273 0.91016 0.25 1.8906l1.9766 8.6289c0.20703 0.90235 0.39844 1.4766 0.57031 1.7266 0.1836 0.24609 0.44141 0.32812 0.77735 0.25 0.34375-0.0781 0.54297-0.25 0.59765-0.52735 0.0508-0.27734-0.0117-0.82812-0.20703-1.6484zm6.1523 0.10938 1.0664 4.6836c0.39844 1.7188 0.59765 2.9961 0.60937 3.8398 0.0117 0.84375-0.1875 1.6719-0.59375 2.5-0.41015 0.82813-1.0195 1.5078-1.832 2.043-0.8125 0.53125-1.7969 0.9336-2.9453 1.1953-1.2891 0.29687-2.4102 0.40234-3.3711 0.32031-0.95313-0.0781-1.7461-0.34375-2.375-0.80469-0.6211-0.46094-1.1328-1.0664-1.5274-1.832-0.39844-0.75781-0.78515-1.957-1.1562-3.5781l-1.1211-4.8984c-0.40235-1.7774-0.53125-3.207-0.37891-4.293 0.16016-1.0898 0.66406-2.0469 1.5274-2.8789 0.86328-0.83594 2.0703-1.4297 3.625-1.7852 1.3086-0.30079 2.4688-0.35938 3.4961-0.1836 1.0273 0.17188 1.8633 0.51172 2.5156 1.0195 0.65235 0.50782 1.1484 1.0742 1.4844 1.6953 0.33984 0.61718 0.66406 1.6016 0.97656 2.957m-10.629-9.9258 0.85937 3.7461-3.7578 0.86328-0.85547-3.7461z"/>
   <path d="m334.94 453.08 0.16406 1.8008c0.32422-0.77734 0.76953-1.3906 1.332-1.8398 0.56641-0.44922 1.2539-0.73828 2.0625-0.85938 1.0078-0.15234 1.8789-0.0391 2.5898 0.34375 0.71485 0.37891 1.2188 0.91797 1.5156 1.6133 0.29687 0.69922 0.57031 1.8945 0.82422 3.5898l2.0508 13.59-5.8984 0.89063-2.0312-13.43c-0.19922-1.3359-0.36719-2.1406-0.5-2.418-0.12891-0.28125-0.39453-0.39062-0.79687-0.32812-0.41797 0.0625-0.65235 0.26953-0.71094 0.625-0.0586 0.34765 0.0234 1.2578 0.24219 2.7188l1.9844 13.105-5.9023 0.89063-2.9297-19.387z"/>
   <path d="m353.12 451.27 1.1172 19.578-6.1367 0.35156-1.1133-19.578zm-0.24219-4.3086 0.17969 3.1172-6.1406 0.34766-0.17968-3.1133z"/>
   <path d="m369.48 451.54-2.7109 9.2774 2.5156 10.336-5.8047-0.20703c-0.48047-2.6055-0.83594-4.8476-1.0664-6.7226-0.48438 2.3164-0.9961 4.5234-1.5352 6.6289l-4.9922-0.17969 2.9414-10.141-2.2383-9.457 4.9922 0.17969c0.66016 4.0352 1.0039 6.3242 1.0469 6.875 0.69922-3.3242 1.2109-5.5859 1.5586-6.7774z"/>
  </g>
 </g>
</svg>
