<svg enable-background="new 0 0 95.3 123.7" height="360.34809" viewBox="0 0 95.3 123.7" width="277.509449" xmlns="http://www.w3.org/2000/svg"><path d="m.5.5v78.2c.6 24.7 21.7 44.5 47.1 44.5 25.5 0 46.3-19.9 47.1-44.5v-1.4-1.6-75.2z" stroke="#000" stroke-miterlimit="2.613" stroke-width=".951"/><path d="m47.1 54.9c12.3 0 22.3 9.4 22.3 20.9s-10 20.9-22.3 20.9-22.3-9.4-22.3-20.9 10-20.9 22.3-20.9z" fill="#e30613"/><g fill="#ffe700" stroke="#000" stroke-miterlimit="2.613" stroke-width=".951"><path d="m44.5 36.8h6.6v14.4h-6.6z"/><path d="m22.8 82.7 2.5 5.7-14.2 5.6-2.5-5.7z"/><path d="m27.2 91.4 4.8 4.2-10.3 10.6-4.8-4.1z"/><path d="m59.8 38.8 6 2.5-6.2 13.2-6-2.5z"/><path d="m84.1 59.2 2.3 5.7-14.3 5.1-2.3-5.7z"/><path d="m74.6 46.6 4.2 4.8-11.8 9.2-4.2-4.8z"/><path d="m55.7 100.1 6.2-1.9 4.7 13.8-6.2 1.9z"/><path d="m64.1 95.8 4.3-4.7 11.6 9.5-4.4 4.6z"/><path d="m70.5 88.8 1.9-5.9 14.6 4.3-1.9 5.9z"/><path d="m73.1 79.4.1-6.1 15.3.1-.1 6.1z"/><path d="m35.3 97.6 6 2.4-5.9 13.3-6-2.4z"/><path d="m30.4 40.6 6.2-2.1 5.2 13.6-6.1 2z"/><path d="m16.9 49.8 4.7-4.2 10.6 10.3-4.7 4.3z"/><path d="m8.5 63.6 2.6-5.7 14.1 5.7-2.6 5.7z"/><path d="m6.9 79.5-.1-6.2 15.4-.1.1 6.2z"/></g><path d="m44.4 89.9h5.6v16.2h-5.6z" fill="#f7f7f8"/><path d="m47 57c2.8.3 4.8 2.8 4.5 5.6s-2.8 4.8-5.6 4.5c-2.6-.3-4.5-2.4-4.5-5-.1-2.9 2.4-5.1 5.6-5.1z" fill="#f7f7f8"/><path d="m38.2 63.9c3.5 0 6.3 2.3 6.3 5 0 2.8-2.8 5-6.3 5s-6.3-2.3-6.3-5 2.8-5 6.3-5z" fill="#f7f7f8"/><path d="m58.6 74.2c3.5 0 6.3 2.3 6.3 5s-2.8 5-6.3 5-6.3-2.3-6.3-5 2.9-5 6.3-5z" fill="#f7f7f8"/><path d="m55 64.6c3.5 0 6.3 2.3 6.3 5s-2.8 5-6.3 5-6.3-2.3-6.3-5 2.9-5 6.3-5z" fill="#f7f7f8"/><path d="m54.7 83.8c3.5 0 6.3 2.3 6.3 5s-2.8 5-6.3 5-6.3-2.3-6.3-5 2.9-5 6.3-5z" fill="#f7f7f8"/><path d="m36.1 73.9c3.5 0 6.3 2.3 6.3 5s-2.8 5-6.3 5-6.3-2.3-6.3-5 2.8-5 6.3-5z" fill="#f7f7f8"/><path d="m40.9 83.1c3.5 0 6.3 2.3 6.3 5s-2.8 5-6.3 5-6.3-2.3-6.3-5 2.8-5 6.3-5z" fill="#f7f7f8"/><path d="m46.9 65.1c5.9 0 10.8 5.6 10.8 12.4s-4.8 12.4-10.8 12.4-10.8-5.6-10.8-12.4 4.9-12.4 10.8-12.4z" fill="#f7f7f8"/><path d="m47.1 89.1c1.8 0 3.2.9 3.2 2s-1.4 2-3.2 2-3.2-.9-3.2-2 1.4-2 3.2-2z" fill="#f7f7f8"/><path d="m44.5 106.1-5.6 6.1 5.7-2.1 3.6 7.6 1.9-7.5 5.4 2.1-5.5-6.2z" fill="#f7f7f8"/><path d="m44.5 105.8h5.5v.7h-5.5z" fill="#f7f7f8"/><path clip-rule="evenodd" d="m89.9 26.4c0 .4.3.8.8.8.4 0 .8-.3.8-.8 0-.4-.4-.8-.8-.8s-.8.4-.8.8zm-2.1-8-1.5 5.7-.2.8-.1-.9-1.5-5.7-1.2.4 2.2 8.3h1.3l2.2-8.3zm-7.2 8c0 .4.3.8.8.8.4 0 .8-.3.8-.8 0-.4-.4-.8-.8-.8s-.8.4-.8.8zm-3.8-5.5c.6 0 1.2.5 1.2 1.1v.7h-2.3v-.7c0-.6.5-1.1 1.1-1.1zm0-1.1c-1.3 0-2.4 1.1-2.4 2.4v2.7c0 1.3 1.2 2.3 2.5 2.3 1.2 0 2.4-1.1 2.4-2.3h-1.3c0 .6-.6 1.1-1.2 1.1s-1.1-.4-1.2-1.1v-1.1h3.6v-1.7c0-1.3-1.1-2.3-2.4-2.3zm-10 0-1.5 1.5v-3.8h-1.3v9.5h1.3v-4l1.9-2c.6 0 1 .5 1 1.1v4.9h1.3v-4.9c0-1.3-1-2.3-2.7-2.3zm-5.1 5.1c0 .7-.6 1.1-1.2 1.1s-1.2-.5-1.2-1v-3c0-.6.5-1.1 1.1-1.1h.1c.5 0 1 .4 1.1.9l1.2-.4c-.3-1-1.2-1.7-2.3-1.7-1.3 0-2.4 1.1-2.4 2.4v2.7c0 1.2 1.1 2.3 2.4 2.3 1.2 0 2.2-.9 2.4-2.1zm-7 0c0 .6-.6 1.1-1.2 1.1s-1.1-.5-1.2-1.1c0-.1 0-.2 0-.2l2.3-1v1.2zm-3.7-.1c0 1.3 1 2.4 2.3 2.4.4 0 1.3-.1 1.9-1l.5.9 1.1-.5-.9-1.6v-2.8c0-1.2-1-2.3-2.2-2.4h-.3c-1.2 0-2.3 1.1-2.3 2.3h1.2c0-.6.5-1.1 1.2-1.1s1.2.5 1.2 1.3v.2l-3.5 1.5c-.2.3-.2.8-.2.8zm-4.2 1.3c-.6 0-1.1-.5-1.2-1.1v-3.1c0-.6.6-1 1.2-1s1.1.5 1.2 1v3.1c-.1.6-.7 1.1-1.2 1.1zm-2.4-6.3-1.1.5 1 2.1v7.1h1.3v-2.6c.3.3.8.4 1.1.4 1.4 0 2.5-1.1 2.5-2.4v-2.9c0-1.2-1.2-2.3-2.5-2.3-.7 0-1.4.4-1.8.9v.1zm-6.3 5.9c.3.8 1.1 1.5 2.1 1.5 1.2 0 2.2-1 2.2-2.2 0-1.1-.9-2.1-2.2-2.2-.5-.1-1-.4-1-.9s.4-1 1-1c.4 0 .8.2.9.6l1.1-.4c-.4-.8-1.2-1.3-2.1-1.3-1.2 0-2.2.9-2.2 2.1s.7 2 2.2 2.1c.6 0 1 .5 1 1s-.5 1-1 1-.9-.3-1-.7zm-3-.8c0 .6-.6 1.1-1.2 1.1s-1.1-.5-1.2-1.1c0-.1 0-.2 0-.2l2.3-1v1.2zm-3.7-.1c0 1.3 1 2.4 2.3 2.4.4 0 1.3-.1 1.9-1l.5.9 1.1-.5-.9-1.6v-2.8c0-1.2-1-2.3-2.2-2.4h-.3c-1.2 0-2.3 1.1-2.3 2.3h1.2c0-.6.5-1.1 1.2-1.1s1.2.5 1.2 1.3v.2l-3.5 1.5c-.2.3-.2.8-.2.8zm-4.4-7.4c-1.2 0-2.3.9-2.3 2.2v7.4h1.3v-7.4c0-.6.4-1 1.1-1 .6 0 1 .5 1 1.1 0 .7-.4 1.1-1.1 1.3l-.2.9c.9.7 1.9 1.4 1.9 2.7 0 1-.7 1.3-1.5 1.3h-.2v1.1h.2c1.3 0 2.8-.7 2.8-2.3 0-1.4-.7-2.4-1.7-3.2.7-.4 1.1-1.1 1.1-1.9 0-1.1-.8-2.1-2-2.2zm-6.9 3.5h.1c.6 0 1.1.5 1.1 1v3c0 .6-.6 1.1-1.2 1.1s-1.2-.5-1.2-1v-3c.1-.6.6-1.1 1.2-1.1zm0-1.1c-1.3 0-2.4 1.1-2.4 2.4v2.7c0 1.2 1.1 2.3 2.4 2.3s2.4-1.1 2.4-2.4v-2.7c.1-1.3-1-2.3-2.4-2.3zm-4 0-1.5 1.7v-1.5h-1.3v7h1.3v-3.9l2.3-2.6zm-7.2 3.8h.9v2.3c-.2 0-.6.1-1.2.1s-1.4 0-2.2-.7c-.9-.7-1.1-1.7-1.1-2.6 0-1.7 1-3.3 2.7-3.3 1 0 1.8.5 1.8 1.5h1.2c0-1.7-1.3-2.6-3.2-2.6-2.2 0-3.8 2.1-3.8 4.3 0 1.4.5 2.8 1.8 3.7.8.5 1.7.8 2.8.8.5 0 1.2-.1 1.6-.2l.7-.2v-4.4h-2zm78.4-16.5h1v5.9h1.3v-5.9h1.5l.2-1.1h-1.8v-.4c0-.6.6-1.1 1.1-1.1.3 0 .5.1.7.2l.7-.9c-.4-.3-.9-.4-1.4-.4-1.3 0-2.4 1-2.4 2.3v.3h-.7zm-4.3-.2h.1c.6 0 1.1.5 1.1 1v3c0 .6-.6 1.1-1.2 1.1s-1.2-.5-1.2-1v-3c0-.6.5-1.1 1.2-1.1zm0-1.1c-1.4 0-2.5 1.1-2.5 2.4v2.7c0 1.2 1.2 2.3 2.5 2.3s2.5-1.1 2.5-2.4v-2.7c0-1.3-1.1-2.3-2.5-2.3zm-7.6 0-1.5 1.5v-3.8h-1.3v9.5h1.3v-4l1.9-2c.6 0 1 .5 1 1.1v4.9h1.3v-4.9c0-1.3-1-2.3-2.7-2.3zm-10.2 0-1.1.5 1.1 2.1v4.6h1.3v-4.9c0-.6.5-1.1 1.1-1.1.7 0 1.3.4 1.3 1.1v4.9h1.3v-4.9c0-1.2-1.2-2.3-2.5-2.3-.7 0-1.5.4-1.9.9zm-4.9 1.1c.6 0 1.2.5 1.2 1.1v.7h-2.4v-.7c0-.6.5-1.1 1.2-1.1zm-.1-1.1c-1.4 0-2.4 1.1-2.4 2.4v2.7c0 1.3 1.2 2.3 2.5 2.3 1.2 0 2.4-1.1 2.4-2.3h-1.2c0 .6-.6 1.1-1.2 1.1s-1.1-.4-1.2-1.1v-1.1h3.7v-1.7c-.1-1.3-1.2-2.3-2.6-2.3zm-9.6 0-1.1.5 1.1 2.1v4.6h1.3v-4.9c0-.6.5-1.1 1.1-1.1.7 0 1.3.4 1.3 1.1v4.9h1.3v-4.9c0-1.2-1.2-2.3-2.5-2.3-.7 0-1.5.4-1.9.9zm-7.5 0-1.1.5 1.1 2.1v4.6h1.3v-4.9c0-.6.5-1.1 1.1-1.1.7 0 1.3.4 1.3 1.1v4.9h1.3v-4.9c0-1.2-1.2-2.3-2.5-2.3-.7 0-1.5.4-1.9.9zm-5.3 1.1h.2c.6 0 1.1.5 1.1 1v3c0 .6-.6 1.1-1.2 1.1s-1.2-.5-1.2-1v-3c0-.6.5-1.1 1.1-1.1zm.1-1.1c-1.4 0-2.5 1.1-2.5 2.4v2.7c0 1.2 1.2 2.3 2.5 2.3s2.5-1.1 2.5-2.4v-2.7c0-1.3-1.1-2.3-2.5-2.3zm-7.5 3.5c1.5.3 1.7.9 1.7 1.4 0 .8-.7 1.3-1.5 1.3-.6 0-1.1-.3-1.4-.8l-1.2.6c.5.8 1.4 1.4 2.5 1.4 1.5 0 2.8-1.1 2.8-2.6 0-1.2-.9-2-2.3-2.4-1.2-.3-1.6-.7-1.6-1.3 0-.8.5-1.3 1.4-1.3.6 0 1 .3 1.3.7l1.1-.5c-.5-.8-1.4-1.3-2.4-1.3-1.5 0-2.6 1.1-2.6 2.6 0 1.1 1 1.8 2.2 2.2zm-14.9.4h.9v2.3c-.2.1-.6.2-1.2.2s-1.4 0-2.2-.7c-.9-.7-1.2-1.7-1.2-2.6 0-1.7 1-3.3 2.7-3.3 1 0 1.8.5 1.8 1.5h1.3c0-1.7-1.4-2.6-3.2-2.6-2.3 0-3.9 2.1-3.9 4.3 0 1.4.5 2.8 1.8 3.7.8.5 1.7.8 2.9.8.5 0 1.2-.1 1.7-.2l.8-.2v-4.4h-2.2zm-9.5-.3c1.5.3 1.7.9 1.7 1.4 0 .8-.7 1.3-1.5 1.3-.6 0-1.1-.3-1.4-.8l-1.2.6c.5.8 1.4 1.4 2.5 1.4 1.5 0 2.8-1.1 2.8-2.6 0-1.2-.9-2-2.3-2.4-1.2-.4-1.6-.8-1.6-1.4 0-.8.5-1.3 1.4-1.3.6 0 1 .3 1.3.7l1.1-.5c-.5-.8-1.4-1.3-2.4-1.3-1.5 0-2.7 1-2.7 2.5 0 1.4 1.1 2.1 2.3 2.4zm-4.2-7.7h91.5v29.4h-91.5z" fill="#e30613" fill-rule="evenodd"/></svg>