<?xml version="1.0" encoding="UTF-8" standalone="no"?>
<svg
   xmlns:dc="http://purl.org/dc/elements/1.1/"
   xmlns:cc="http://creativecommons.org/ns#"
   xmlns:rdf="http://www.w3.org/1999/02/22-rdf-syntax-ns#"
   xmlns:svg="http://www.w3.org/2000/svg"
   xmlns="http://www.w3.org/2000/svg"
   xmlns:sodipodi="http://sodipodi.sourceforge.net/DTD/sodipodi-0.dtd"
   xmlns:inkscape="http://www.inkscape.org/namespaces/inkscape"
   width="81.60231mm"
   height="85.725006mm"
   viewBox="0 0 308.41818 324.00002"
   version="1.1"
   id="svg62141"
   inkscape:version="1.0.1 (3bc2e813f5, 2020-09-07)"
   sodipodi:docname="Shabab logo.svg">
  <defs
     id="defs62135" />
  <sodipodi:namedview
     id="base"
     pagecolor="#ffffff"
     bordercolor="#666666"
     borderopacity="1.0"
     inkscape:pageopacity="0.0"
     inkscape:pageshadow="2"
     inkscape:zoom="1.6604937"
     inkscape:cx="154.20909"
     inkscape:cy="162.00001"
     inkscape:document-units="px"
     inkscape:current-layer="layer1"
     inkscape:document-rotation="0"
     showgrid="false"
     inkscape:window-width="1267"
     inkscape:window-height="728"
     inkscape:window-x="83"
     inkscape:window-y="0"
     inkscape:window-maximized="0" />
  <metadata
     id="metadata62138">
    <rdf:RDF>
      <cc:Work
         rdf:about="">
        <dc:format>image/svg+xml</dc:format>
        <dc:type
           rdf:resource="http://purl.org/dc/dcmitype/StillImage" />
        <dc:title></dc:title>
      </cc:Work>
    </rdf:RDF>
  </metadata>
  <g
     inkscape:label="Layer 1"
     inkscape:groupmode="layer"
     id="layer1"
     transform="translate(-8.64805,-232.2857)">
    <path
       style="fill:#3a0a0c;fill-opacity:1;fill-rule:nonzero;stroke:none;stroke-width:9.55245"
       d="m 23.600182,449.56688 c 0.149304,0.41076 0.335864,0.78331 0.634378,1.15671 1.716452,1.75373 6.23149,1.00749 15.336181,-2.1642 9.36588,-3.20905 16.269027,-3.05985 16.977987,0.63428 -1.604506,-6.19411 -3.209026,-12.38829 -4.813533,-18.61984 -3.097094,1.19405 -5.858347,2.35085 -8.246454,3.47031 -14.477951,6.67917 -20.746753,12.05244 -19.888522,15.52274"
       id="path52278" />
    <path
       style="fill:#ffffff;fill-opacity:1;fill-rule:nonzero;stroke:none;stroke-width:9.55245"
       d="m 27.145032,452.51467 c -1.604508,0 -2.761253,-0.41075 -3.507538,-1.19405 -0.41047,-0.44802 -0.671634,-0.97015 -0.858194,-1.56718 -1.0448,-4.1792 5.783718,-9.73901 20.336281,-16.49298 2.537374,-1.15671 5.335947,-2.31342 8.321094,-3.47022 0.223907,-0.0764 0.48508,-0.0764 0.67164,0.0381 0.223907,0.11173 0.37312,0.33625 0.44772,0.55977 1.5672,6.04499 3.1344,12.12713 4.7016,18.20937 0.07453,0.14903 0.112,0.29804 0.112,0.41076 0.07453,0.44802 -0.18656,0.89507 -0.634373,1.0075 -0.44772,0.11173 -0.895547,-0.18627 -1.007494,-0.63428 -0.0372,-0.11174 -0.07453,-0.22352 -0.07453,-0.33624 -0.18656,-0.48527 -0.48508,-0.85782 -1.0448,-1.15682 -2.38812,-1.38061 -8.02256,-0.82054 -14.739134,1.49258 -6.15687,2.0896 -10.112181,3.13445 -12.724185,3.13445 m -2.686629,-3.17171 c 0.07451,0.33626 0.18656,0.55978 0.410469,0.78331 1.67914,1.75373 8.246457,-0.22353 14.440638,-2.35076 6.903134,-2.38812 12.537601,-2.94789 15.560054,-1.64188 -1.231373,-4.81359 -2.462733,-9.58981 -3.69412,-14.44064 -2.649307,1.04484 -5.112053,2.05235 -7.350907,3.09709 -4.850853,2.23891 -20.522861,9.92558 -19.366125,14.5526"
       id="path52280" />
    <path
       style="fill:#3a0a0c;fill-opacity:1;fill-rule:nonzero;stroke:none;stroke-width:9.55245"
       d="m 284.7629,448.55939 c 9.10473,3.17169 13.61971,3.91793 15.29883,2.1642 0.33625,-0.37351 0.52252,-0.74605 0.63429,-1.15671 0.89507,-3.4703 -5.37327,-8.84357 -19.85116,-15.52274 -2.38812,-1.11946 -5.14944,-2.27626 -8.24655,-3.47031 -1.60442,6.23155 -3.20894,12.42573 -4.81348,18.61984 0.7088,-3.69413 7.61207,-3.84333 16.97798,-0.63428"
       id="path52282" />
    <path
       style="fill:#ffffff;fill-opacity:1;fill-rule:nonzero;stroke:none;stroke-width:9.55245"
       d="m 297.15129,452.51467 c -2.57467,0 -6.53006,-1.04484 -12.68691,-3.13444 -6.71652,-2.31341 -12.35104,-2.87319 -14.73916,-1.49257 -0.55977,0.29804 -0.89507,0.67153 -1.04475,1.1568 0,0.11173 -0.0764,0.22353 -0.11173,0.33625 -0.0764,0.448 -0.52252,0.74604 -0.97015,0.63428 -0.44801,-0.11173 -0.7088,-0.55977 -0.63429,-1.00749 0,-0.11174 0.0383,-0.26079 0.0764,-0.41076 1.60452,-6.08224 3.17171,-12.16439 4.73897,-18.20938 0.0383,-0.22353 0.22354,-0.44801 0.41076,-0.55977 0.22352,-0.11173 0.48526,-0.11173 0.70879,-0.0383 2.98515,1.1568 5.78373,2.31351 8.32115,3.47022 14.5526,6.75397 21.38108,12.31378 20.29897,16.49298 -0.14901,0.59704 -0.44801,1.11936 -0.85781,1.52983 -0.74604,0.82056 -1.8657,1.23141 -3.50747,1.23141 m -23.61999,-7.05238 c 3.05975,0 6.97779,0.78329 11.53011,2.3135 6.15685,2.12686 12.72416,4.10451 14.40329,2.35076 0.18627,-0.22352 0.33624,-0.448 0.41076,-0.78329 0.33624,-1.1568 -0.22353,-5.67177 -19.36608,-14.5526 -2.2389,-1.04475 -4.73888,-2.05225 -7.3509,-3.09709 -1.23142,4.85082 -2.46272,9.62705 -3.73148,14.44064 1.0821,-0.44802 2.46281,-0.67155 4.1046,-0.67155"
       id="path52284" />
    <path
       style="clip-rule:nonzero;fill:#020505;fill-opacity:1;fill-rule:nonzero;stroke:none;stroke-width:9.55245"
       d="m 162.44665,556.28572 c -0.2985,0 -0.55966,-0.0383 -0.82093,-0.14903 C 128.08019,540.80061 95.616744,522.32997 72.481876,505.42661 42.854341,483.82162 32.555593,451.76863 42.817021,412.84991 l 0.634373,-2.42547 c 4.925481,-18.88101 9.589774,-36.75461 12.462974,-48.21011 7.052387,-28.17221 6.716574,-34.44101 -13.768974,-58.3595 -0.522426,-0.63428 -0.597026,-1.52992 -0.18656,-2.23891 l 25.597602,-43.35919 c 0.55968,-0.8578 1.604506,-1.19405 2.537373,-0.78329 32.314171,14.73916 64.702981,11.86596 91.158821,-8.13449 0.67162,-0.52252 1.64182,-0.52252 2.3508,0 26.45583,20.00045 58.80732,22.87365 91.15883,8.13449 0.89505,-0.41076 2.01489,-0.0764 2.50007,0.78329 l 25.63488,43.35919 c 0.41076,0.7088 0.33624,1.60453 -0.22354,2.23891 -20.48553,23.91849 -20.82138,30.18729 -13.73165,58.3595 2.91053,11.71676 7.83597,30.63511 13.13463,50.63558 10.18684,38.91872 -0.0383,70.97171 -29.70213,92.5767 -23.17217,16.8661 -55.63562,35.374 -89.14387,50.71008 -0.26116,0.11173 -0.55966,0.14903 -0.78358,0.14903 M 46.063381,302.39932 c 19.552695,23.02286 21.157201,30.78423 13.657041,60.78496 -2.873214,11.45551 -7.537494,29.32901 -12.500294,48.24738 l -0.634387,2.3881 c -9.813654,37.27695 -0.0372,67.83737 28.209615,88.43486 22.761708,16.60484 54.665434,34.77687 87.651274,49.9265 32.94852,-15.14963 64.88956,-33.32166 87.614,-49.9265 28.24691,-20.59749 37.98592,-51.15791 28.20955,-88.43486 -5.26129,-20.00045 -10.22408,-38.91881 -13.13463,-50.63548 -7.53746,-30.00073 -5.93293,-37.7621 13.65706,-60.78496 l -23.9931,-40.63531 c -32.68728,14.3287 -65.37465,11.34355 -92.35288,-8.433 -27.01555,19.77655 -59.70287,22.7617 -92.352888,8.433"
       id="path52288" />
    <path
       style="fill:#c29c1e;fill-opacity:1;fill-rule:nonzero;stroke:none;stroke-width:9.55245"
       d="m 54.720302,301.69033 18.358627,-31.04549 c 0.0372,0 0.07453,0.0383 0.112,0.0383 l -3.134413,-8.95543 -24.030401,40.67264 8.731547,-0.67153 c 0,0 0,-0.0383 -0.0372,-0.0383"
       id="path52292" />
    <path
       style="fill:#c29c1e;fill-opacity:1;fill-rule:nonzero;stroke:none;stroke-width:9.55245"
       d="m 110.43053,277.73449 c 18.69447,0 36.15756,-5.29856 51.97882,-15.74656 v -8.65692 c -15.6347,11.4555 -33.1351,17.27648 -51.97882,17.27648 -13.358506,0 -26.940907,-2.98514 -40.374054,-8.88082 l 3.1344,8.95542 c 12.388347,4.66428 24.888628,7.0524 37.239654,7.0524"
       id="path52294" />
    <path
       style="fill:#c29c1e;fill-opacity:1;fill-rule:nonzero;stroke:none;stroke-width:9.55245"
       d="m 47.182808,411.58087 -0.597027,2.23889 c -9.813654,37.27695 -0.0372,67.87471 28.172282,88.47221 22.799041,16.56749 54.702767,34.73952 87.651287,49.88915 v -7.83598 C 130.91609,529.68058 100.6542,512.3295 78.974596,496.50823 66.175782,487.17959 57.481555,475.61223 53.190408,462.14174 48.861955,448.48468 48.936581,432.85008 53.451582,415.61086 l 0.597026,-2.23891 c 4.962801,-18.95562 9.664388,-36.86647 12.537601,-48.47128 7.686734,-30.59767 6.082227,-41.23223 -11.828641,-63.17308 l -8.731533,0.67154 c 19.590001,23.02286 21.194507,30.78423 13.694347,60.78496 -2.873214,11.49276 -7.574814,29.44096 -12.537601,48.39658"
       id="path52296" />
    <path
       style="fill:#a87a17;fill-opacity:1;fill-rule:nonzero;stroke:none;stroke-width:9.55245"
       d="m 63.339902,301.09331 12.873427,-21.79155 -3.022453,-8.61967 c -0.0372,0 -0.07453,-0.0381 -0.112,-0.0381 l -18.358574,31.04637 c 0.0372,0 0.0372,0.0383 0.0372,0.0383"
       id="path52298" />
    <path
       style="fill:#a87a17;fill-opacity:1;fill-rule:nonzero;stroke:none;stroke-width:9.55245"
       d="m 110.46785,284.82423 c 18.58252,0 36.0083,-4.85083 51.9415,-14.4033 v -8.433 c -15.82126,10.448 -33.24704,15.74656 -51.9415,15.74656 -12.388346,0 -24.888627,-2.38812 -37.276974,-7.0524 l 3.022453,8.61967 c 11.380854,3.69413 22.836348,5.52247 34.254521,5.52247"
       id="path52300" />
    <path
       style="fill:#a87a17;fill-opacity:1;fill-rule:nonzero;stroke:none;stroke-width:9.55245"
       d="m 78.974596,496.50823 c 21.679604,15.82127 51.941494,33.17235 83.434754,47.83691 v -7.83598 C 132.44597,522.32969 103.7886,505.83679 83.153796,490.79911 59.720422,473.67185 52.033662,449.00711 60.354755,417.43919 l 0.597027,-2.2388 c 4.9628,-18.99296 9.664414,-36.94118 12.574921,-48.54588 7.761373,-31.00824 6.343427,-44.14287 -10.186801,-65.5612 l -8.582294,0.63428 c 17.910855,21.94085 19.515375,32.57541 11.828641,63.17308 -2.873213,11.60481 -7.5748,29.51566 -12.537601,48.47128 l -0.597026,2.23891 c -4.515041,17.23922 -4.589667,32.87382 -0.261174,46.53088 4.291147,13.47049 12.985374,25.03785 25.784175,34.36649"
       id="path52302" />
    <path
       style="fill:#c29c1e;fill-opacity:1;fill-rule:nonzero;stroke:none;stroke-width:9.55245"
       d="m 278.79261,302.39932 -23.9931,-40.67265 -3.17171,8.95542 c 0.0383,0 0.0764,-0.0381 0.14902,-0.0381 l 18.35859,31.04549 c -0.0383,0 -0.0383,0.0383 -0.0383,0.0383"
       id="path52304" />
    <path
       style="fill:#c29c1e;fill-opacity:1;fill-rule:nonzero;stroke:none;stroke-width:9.55245"
       d="m 251.6278,270.68209 3.13446,-8.95542 c -13.43315,5.89568 -27.0156,8.88082 -40.37414,8.88082 -18.84368,0 -36.34409,-5.82098 -51.97877,-17.27648 v 8.65692 c 15.82126,10.448 33.28435,15.74656 51.97877,15.74656 12.38839,0 24.88864,-2.38812 37.23968,-7.0524"
       id="path52306" />
    <path
       style="fill:#c29c1e;fill-opacity:1;fill-rule:nonzero;stroke:none;stroke-width:9.55245"
       d="m 245.88143,496.50823 c -21.71695,15.82127 -51.94151,33.17235 -83.43478,47.83691 v 7.83598 c 32.94854,-15.14963 64.85229,-33.32166 87.61398,-49.88915 28.24691,-20.5975 37.98592,-51.19526 28.20955,-88.47221 l -0.59703,-2.23889 c -4.96278,-18.95562 -9.70166,-36.90383 -12.5376,-48.39659 -7.53746,-30.00073 -5.93293,-37.7621 13.65706,-60.78496 l -8.73152,-0.67153 c -17.91086,21.94084 -19.47803,32.5754 -11.82862,63.17308 2.91054,11.6048 7.57482,29.51565 12.5376,48.47127 l 0.59703,2.2389 c 4.55232,17.23923 4.62692,32.87383 0.29804,46.5309 -4.29116,13.47049 -12.98543,25.03784 -25.78419,34.36649"
       id="path52308" />
    <path
       style="fill:#f8ca5c;fill-opacity:1;fill-rule:nonzero;stroke:none;stroke-width:9.55245"
       d="m 270.1357,301.69033 -18.35859,-31.04549 c -0.0764,0 -0.11173,0.0383 -0.14903,0.0383 l -2.98513,8.61967 12.87347,21.79154 8.58231,0.63428 c 0,0 0,-0.0383 0.0383,-0.0383"
       id="path52310" />
    <path
       style="fill:#a87a17;fill-opacity:1;fill-rule:nonzero;stroke:none;stroke-width:9.55245"
       d="m 248.64266,279.30176 2.98514,-8.61967 c -12.35104,4.66428 -24.85129,7.0524 -37.23968,7.0524 -18.69442,0 -36.15751,-5.29856 -51.97877,-15.74656 v 8.433 c 15.97052,9.58982 33.35897,14.4033 51.97877,14.4033 11.3809,0 22.87374,-1.82834 34.25454,-5.52247"
       id="path52312" />
    <path
       style="fill:#f8ca5c;fill-opacity:1;fill-rule:nonzero;stroke:none;stroke-width:9.55245"
       d="m 241.66487,490.79911 c -20.63473,15.03768 -49.25483,31.53058 -79.21822,45.71005 v 7.83598 c 31.49327,-14.66456 61.71783,-32.01564 83.43478,-47.83691 12.79876,-9.32864 21.45568,-20.896 25.78419,-34.36649 4.3284,-13.65706 4.2538,-29.29166 -0.29804,-46.53088 l -0.59703,-2.23891 c -4.96278,-18.95562 -9.62706,-36.86647 -12.57496,-48.47128 -7.61207,-30.59767 -6.04488,-41.23223 11.90332,-63.17308 l -8.5823,-0.63428 c -16.53025,21.41833 -17.94822,34.55296 -10.2241,65.52384 2.9478,11.64206 7.64942,29.59028 12.61222,48.58324 l 0.59702,2.2388 c 8.28379,31.56792 0.63428,56.23266 -22.8364,73.35992"
       id="path52314" />
    <path
       d="m 110.43053,285.04813 c -11.380853,0 -22.799027,-1.86569 -34.142574,-5.52256 l -12.873427,21.6797 c 16.716801,21.60488 17.985494,34.47834 10.1868,65.56118 -3.022466,12.12714 -8.209147,31.79174 -13.171947,50.82205 -8.283774,31.49321 -0.634387,56.15804 22.799028,73.21061 20.6348,15.07503 49.21756,31.53058 79.18094,45.71005 30.00069,-14.17947 58.58343,-30.63502 79.21827,-45.71005 23.39608,-17.05257 31.08275,-41.7174 22.76169,-73.21061 -4.73888,-18.02282 -10.07488,-38.47101 -13.17197,-50.82205 -7.76138,-31.08284 -6.52998,-43.9563 10.18684,-65.56118 l -12.79878,-21.6797 c -11.38089,3.65687 -22.83638,5.52256 -34.21728,5.52256 -18.32129,0 -36.04557,-4.96278 -51.97877,-14.44064 -15.8959,9.47786 -33.62019,14.44064 -51.97882,14.44064"
       id="path26134"
       style="fill:#ab1e23;stroke-width:9.55245" />
    <path
       id="path52614"
       style="clip-rule:nonzero;fill:#e8232b;fill-opacity:1;fill-rule:nonzero;stroke:none;stroke-width:9.55244"
       d="m 253.50752,375.60527 -87.28749,3.80605 89.2885,3.91796 c -0.64672,-2.50931 -1.42499,-5.46717 -2.00101,-7.72401 z" />
    <path
       id="path52626"
       style="clip-rule:nonzero;fill:#e8232b;fill-opacity:1;fill-rule:nonzero;stroke:none;stroke-width:9.55244"
       d="m 252.19215,285.60319 -85.97212,93.80813 91.7372,-84.04112 z" />
    <path
       id="path52636"
       style="clip-rule:nonzero;fill:#e8232b;fill-opacity:1;fill-rule:nonzero;stroke:none;stroke-width:9.55244"
       d="m 226.86512,284.21789 c -3.83264,0.45366 -7.66578,0.74718 -11.48817,0.78356 l -49.15692,94.40987 z" />
    <path
       id="path52648"
       style="clip-rule:nonzero;fill:#e8232b;fill-opacity:1;fill-rule:nonzero;stroke:none;stroke-width:9.55244"
       d="m 247.82642,327.4138 -81.60639,51.99752 80.44497,-41.89465 c 0.0171,-3.55215 0.46038,-6.86867 1.16142,-10.10287 z" />
    <path
       id="path52654"
       style="clip-rule:nonzero;fill:#e8232b;fill-opacity:1;fill-rule:nonzero;stroke:none;stroke-width:9.55244"
       d="m 248.34418,353.51049 -82.12415,25.90083 83.64937,-18.54061 c -0.57853,-2.55308 -1.1003,-5.04678 -1.52522,-7.36022 z" />
    <path
       id="path52716"
       style="clip-rule:nonzero;fill:#e8232b;fill-opacity:1;fill-rule:nonzero;stroke:none;stroke-width:9.55244"
       d="m 71.390476,375.28336 c -0.607107,2.37892 -1.47664,5.70412 -2.168934,8.38179 l 96.914588,-4.25383 z" />
    <path
       id="path52740"
       style="clip-rule:nonzero;fill:#e8232b;fill-opacity:1;fill-rule:nonzero;stroke:none;stroke-width:9.55244"
       d="m 166.22003,379.45331 -43.11195,136.62626 c 3.71457,2.1043 7.54484,4.18218 11.40413,6.25476 z" />
    <path
       id="path52746"
       style="clip-rule:nonzero;fill:#e8232b;fill-opacity:1;fill-rule:nonzero;stroke:none;stroke-width:9.55244"
       d="M 166.22003,379.45331 91.610117,496.51754 c 3.309133,2.25841 6.520267,4.49971 10.116843,6.78649 z" />
    <path
       id="path52764"
       style="clip-rule:nonzero;fill:#e8232b;fill-opacity:1;fill-rule:nonzero;stroke:none;stroke-width:9.55244"
       d="M 166.22003,379.45331 65.415476,471.76415 c 2.0498,3.4156 4.48624,6.65575 7.304267,9.71106 z" />
    <path
       id="path52770"
       style="clip-rule:nonzero;fill:#e8232b;fill-opacity:1;fill-rule:nonzero;stroke:none;stroke-width:9.55244"
       d="m 166.22003,379.45331 30.85424,139.17296 c 3.74531,-2.07472 7.48488,-4.11756 11.06841,-6.21285 z" />
    <path
       id="path52776"
       style="clip-rule:nonzero;fill:#e8232b;fill-opacity:1;fill-rule:nonzero;stroke:none;stroke-width:9.55244"
       d="m 166.22003,379.45331 -6.81452,155.55861 c 1.01598,0.48753 1.98912,1.01476 3.00845,1.4972 3.53353,-1.67008 6.94117,-3.45014 10.42469,-5.17738 z" />
    <path
       id="path52794"
       style="clip-rule:nonzero;fill:#e8232b;fill-opacity:1;fill-rule:nonzero;stroke:none;stroke-width:9.55244"
       d="m 166.22003,379.45331 96.14499,30.32251 c -0.91553,-3.49204 -1.56877,-6.10618 -2.47679,-9.58511 z" />
    <path
       id="path52806"
       style="clip-rule:nonzero;fill:#e8232b;fill-opacity:1;fill-rule:nonzero;stroke:none;stroke-width:9.55244"
       d="m 166.22003,379.45331 101.3223,64.53504 c 0.17388,-3.86516 0.0156,-7.88852 -0.44776,-12.03388 z" />
    <path
       id="path52812"
       style="clip-rule:nonzero;fill:#e8232b;fill-opacity:1;fill-rule:nonzero;stroke:none;stroke-width:9.55244"
       d="m 166.22003,379.45331 62.54808,120.11466 c 3.38208,-2.23306 6.65604,-4.453 9.73907,-6.64658 z" />
    <path
       id="path52824"
       style="clip-rule:nonzero;fill:#e8232b;fill-opacity:1;fill-rule:nonzero;stroke:none;stroke-width:9.55244"
       d="m 166.22003,379.45331 89.54032,97.71211 c 2.42255,-3.16563 4.46167,-6.50787 6.14286,-10.01889 z" />
    <path
       id="path52848"
       style="clip-rule:nonzero;fill:#e8232b;fill-opacity:1;fill-rule:nonzero;stroke:none;stroke-width:9.55244"
       d="m 116.96516,284.83353 c -2.167,0.14014 -4.34754,0.20991 -6.5346,0.20991 -1.48796,0 -2.97486,-0.11827 -4.46375,-0.18189 l 60.25322,94.54977 z" />
    <path
       id="path52856"
       style="clip-rule:nonzero;fill:#e8232b;fill-opacity:1;fill-rule:nonzero;stroke:none;stroke-width:9.55244"
       d="m 75.644303,280.60771 -6.086894,10.25676 96.662621,88.54685 z" />
    <path
       id="path52862"
       style="clip-rule:nonzero;fill:#e8232b;fill-opacity:1;fill-rule:nonzero;stroke:none;stroke-width:9.55244"
       d="m 144.01343,279.27837 c -2.8224,1.00158 -5.6991,1.81651 -8.59163,2.56075 l 30.79823,97.5722 z" />
    <path
       id="path52868"
       style="clip-rule:nonzero;fill:#e8232b;fill-opacity:1;fill-rule:nonzero;stroke:none;stroke-width:9.55244"
       d="m 162.41396,270.60285 c -0.30799,0.18362 -0.62809,0.33744 -0.93745,0.5177 l 4.74352,108.29077 4.5477,-104.38679 c -2.82805,-1.35613 -5.6248,-2.79838 -8.35377,-4.42168 z" />
    <path
       id="path52874"
       style="clip-rule:nonzero;fill:#e8232b;fill-opacity:1;fill-rule:nonzero;stroke:none;stroke-width:9.55244"
       d="M 166.22003,379.41132 57.383609,436.06839 c -0.265294,4.32655 -0.179187,8.50428 0.27984,12.50959 z" />
    <path
       id="path52892"
       style="clip-rule:nonzero;fill:#e8232b;fill-opacity:1;fill-rule:nonzero;stroke:none;stroke-width:9.55244"
       d="m 75.322409,321.5088 c 1.405574,3.86159 2.247601,7.82254 2.588694,11.96396 l 88.308927,45.93856 z" />
    <path
       id="path52898"
       style="clip-rule:nonzero;fill:#e8232b;fill-opacity:1;fill-rule:nonzero;stroke:none;stroke-width:9.55244"
       d="M 166.22003,379.41132 64.477956,401.96775 c -0.993334,3.79991 -1.671161,6.46812 -2.686627,10.35477 z" />
    <path
       id="path52922"
       style="clip-rule:nonzero;fill:#e8232b;fill-opacity:1;fill-rule:nonzero;stroke:none;stroke-width:9.55244"
       d="m 187.93694,281.47524 -21.71691,97.93608 30.2806,-96.03301 c -2.87892,-0.522 -5.74172,-1.13096 -8.56369,-1.90307 z" />
    <path
       id="path52934"
       style="clip-rule:nonzero;fill:#e8232b;fill-opacity:1;fill-rule:nonzero;stroke:none;stroke-width:9.55244"
       d="m 76.861663,351.24369 c -0.42068,2.53188 -0.918254,5.20706 -1.539254,8.03188 l 90.813721,20.13575 h 0.0419 z" />
    <path
       style="fill:#211e1e;fill-opacity:1;fill-rule:nonzero;stroke:none;stroke-width:9.55245"
       d="m 264.68783,417.40194 -0.0764,-0.29803 c -4.70161,-17.91087 -10.03752,-38.24719 -13.13463,-50.52354 -4.21654,-17.01532 -5.37325,-27.1648 -4.02998,-36.23218 1.34336,-9.36589 5.44786,-17.79891 14.17948,-29.06784 l 0.11173,-0.18628 -12.91081,-21.8289 -0.11174,-0.18626 -0.22352,0.0381 c -11.34354,3.69404 -22.76178,5.52246 -34.06798,5.52246 -18.13474,0 -36.04561,-4.96278 -51.86686,-14.40329 l -0.14931,-0.0764 -0.112,0.0764 c -15.82125,9.44051 -33.76942,14.40329 -51.82955,14.40329 -11.306223,0 -22.799023,-1.82842 -34.142571,-5.52246 l -0.223906,-0.0381 -12.985374,22.01545 0.07453,0.18627 c 8.731534,11.26895 12.873427,19.70195 14.254054,29.06785 1.306,9.06737 0.149307,19.21687 -4.104573,36.23219 -2.985134,12.01517 -8.097187,31.4186 -13.022681,50.18765 l -0.149307,0.63428 c -8.321093,31.64252 -0.597026,56.38187 22.910975,73.54649 20.410923,14.88837 49.329503,31.56782 79.218243,45.70995 l 0.112,0.0383 0.112,-0.0383 c 29.92607,-14.14213 58.80739,-30.78423 79.29293,-45.70995 23.50803,-17.16462 31.19471,-41.90397 22.87365,-73.54649 M 68.524956,300.79547 l 9.6644,-16.38104 c 10.709201,3.13445 21.567668,4.73897 32.276864,4.73897 18.02281,0 36.0083,-4.77623 51.9415,-13.80636 15.97052,9.03013 33.9187,13.80636 52.01615,13.80636 10.67191,0 21.49303,-1.60452 32.23955,-4.73897 l 9.66441,16.38104 c -16.45564,22.20201 -16.67945,36.82921 -9.17935,66.8672 3.09711,12.38829 8.47037,32.76188 13.17199,50.78469 l 0.0383,0.0764 c 7.79872,29.70214 0.63428,52.83705 -21.23178,68.77017 -19.73929,14.44064 -47.72502,30.63501 -76.71823,44.44137 C 133.41552,517.92894 105.46712,501.73457 85.690543,487.29393 63.824369,471.36081 56.697328,448.2259 64.496022,418.52376 l 0.149307,-0.59702 c 4.925493,-18.76915 10.037547,-38.20983 13.060001,-50.22511 7.537493,-30.03799 7.238973,-44.70244 -9.179308,-66.90447"
       id="path53084" />
    <path
       style="fill:#ffffff;fill-opacity:1;fill-rule:nonzero;stroke:none;stroke-width:9.55245"
       d="m 85.467277,487.66477 c 19.888503,14.47789 47.836923,30.67226 76.942073,44.55324 29.14245,-13.88098 57.09087,-30.07535 77.01672,-44.55324 21.97811,-16.08252 29.1798,-39.36665 21.34372,-69.25533 -4.73888,-18.02281 -10.11213,-38.47109 -13.20923,-50.82215 -7.53746,-30.11258 -7.31356,-44.47862 9.2913,-66.75525 l -10.00028,-16.94061 c -10.78378,3.20896 -21.6796,4.81349 -32.42611,4.81349 -18.09743,0 -36.0456,-4.77624 -52.01612,-13.84361 -15.9332,9.06737 -33.88138,13.84361 -51.9415,13.84361 -10.783839,0 -21.679613,-1.60453 -32.500747,-4.81349 l -10.000227,16.94061 c 16.642161,22.27663 16.866054,36.64267 9.32856,66.75525 -3.022453,12.01528 -8.134507,31.41871 -13.059987,50.18777 l -0.149307,0.63428 c -7.836014,29.88869 -0.67164,53.17281 21.381081,69.25533 m -17.575027,-68.24783 0.149306,-0.63428 0.07453,-0.26078 c 4.888173,-18.69455 9.96292,-38.02329 12.948054,-50.00121 7.61212,-30.3365 7.5748,-45.63533 -8.395721,-67.91196 l 7.164347,-12.12722 c 10.186814,2.76133 20.485548,4.14194 30.635048,4.14194 17.98548,0 35.89635,-4.58966 51.94149,-13.28393 16.04514,8.69427 33.95601,13.28393 52.01615,13.28393 10.11214,0 20.41092,-1.38061 30.59776,-4.14194 l 7.16435,12.12722 c -15.93321,22.27663 -16.04517,37.53811 -8.43311,67.91196 3.13446,12.463 8.47036,32.87394 13.24659,50.89675 7.38826,28.1722 0.67154,50.03845 -19.88851,65.07603 -19.29146,14.03018 -46.419,29.81418 -74.70323,43.35927 C 134.16232,514.30753 106.99752,498.52353 87.780663,484.49335 67.145849,469.45577 60.466609,447.58952 67.892142,419.41732"
       id="path53086" />
    <path
       style="fill:#ab1e23;fill-opacity:1;fill-rule:nonzero;stroke:none;stroke-width:9.55245"
       d="m 173.93947,341.69125 c 28.69473,-7.08973 46.19512,-36.12022 39.10539,-64.81496 -7.127,-28.69472 -36.12026,-46.19511 -64.85226,-39.10537 -28.6947,7.12699 -46.1951,36.12023 -39.06806,64.81496 7.08971,28.69463 36.12023,46.23237 64.81493,39.10537"
       id="path53088" />
    <path
       style="fill:#050505;fill-opacity:1;fill-rule:nonzero;stroke:none;stroke-width:9.55245"
       d="m 161.02871,347.21372 c 4.62697,0 9.29126,-0.59703 13.84361,-1.71648 30.74702,-7.61207 49.55343,-38.80687 41.97862,-69.55384 -6.38076,-25.70948 -29.29176,-43.6577 -55.74759,-43.6577 v 3.91804 -3.91804 c -4.62698,0 -9.29126,0.55978 -13.8063,1.67914 -30.78429,7.61216 -49.590693,38.80685 -41.97857,69.59119 6.34342,25.67223 29.29172,43.65769 55.71023,43.65769 M 148.1926,237.77092 c 4.32845,-1.04475 8.69423,-1.56718 12.91075,-1.56718 24.06772,0 45.93387,16.30634 51.94151,40.67255 7.12698,28.69474 -10.41066,57.72523 -39.10539,64.85222 -4.29115,1.04485 -8.65692,1.56728 -12.91076,1.56728 -24.0304,0 -45.89658,-16.30644 -51.90417,-40.70991 -7.12704,-28.69473 10.37336,-57.72523 39.06806,-64.81496"
       id="path53090" />
    <path
       style="fill:#e8232b;fill-opacity:1;fill-rule:nonzero;stroke:none;stroke-width:9.55245"
       d="m 134.42363,320.31018 c -6.75388,0 -13.20926,-1.11946 -19.2915,-3.1718 9.3659,15.5601 26.41852,25.97074 45.89658,25.97074 29.55292,0 53.54607,-23.95574 53.54607,-53.54592 0,-17.23923 -8.17184,-32.57541 -20.85875,-42.38903 0.82095,4.06724 1.26869,8.24644 1.26869,12.5376 0,33.47086 -27.09017,60.59841 -60.56109,60.59841"
       id="path53092" />
    <path
       style="clip-rule:nonzero;fill:#30973d;fill-opacity:1;fill-rule:nonzero;stroke:none;stroke-width:9.55245"
       d="m 316.18494,393.86009 c 0.89507,-3.47021 -6.15684,-9.03002 -22.20192,-16.08242 -8.02263,-3.50756 -19.70195,-7.53746 -33.06048,-10.97043 -15.85862,-4.1792 -54.1804,-12.12712 -98.0619,-12.01517 -43.8816,-0.11174 -82.20339,7.83597 -98.062004,12.01517 -13.358534,3.43297 -25.037855,7.46287 -33.060486,10.97043 -16.045074,7.0524 -23.0974626,12.61221 -22.2019199,16.08242 4.9254389,19.06767 9.8509729,38.09798 14.8137619,57.16555 -0.933276,-3.47022 5.373258,-8.84348 19.813896,-15.56009 7.23896,-3.32092 17.798907,-7.127 29.888695,-10.37331 14.36604,-3.84342 46.866747,-10.70926 88.808057,-10.6719 41.9412,-0.0383 74.47927,6.82848 88.80795,10.6719 12.12714,3.24631 22.64975,7.05239 29.8887,10.37331 14.47798,6.71661 20.70944,12.08987 19.85124,15.56009 4.92544,-19.06757 9.85097,-38.09788 14.77641,-57.16555"
       id="path53094" />
    <path
       style="clip-rule:nonzero;fill:#ffffff;fill-opacity:1;fill-rule:nonzero;stroke:none;stroke-width:9.55245"
       d="m 302.18869,451.20867 -1.60454,-0.41076 c 0.82056,-3.13436 -6.41801,-8.58231 -19.36608,-14.58985 -7.83597,-3.58218 -18.65718,-7.35091 -29.77683,-10.33606 -11.97792,-3.20904 -44.70254,-10.6719 -88.58412,-10.63456 h -0.18656 c -43.80698,0 -76.41967,7.42552 -88.397551,10.63456 -11.082347,2.98515 -21.940814,6.75388 -29.776801,10.33606 -12.948066,6.00754 -20.187044,11.45549 -19.366124,14.58985 l -1.604517,0.41076 c -4.925487,-19.03032 -9.850973,-38.09788 -14.7764596,-57.1282 -1.0821121,-4.2538 6.5300026,-9.96292 22.6497776,-17.05258 8.843483,-3.84342 20.896003,-7.87332 33.209711,-11.04502 7.724067,-2.01499 48.881734,-12.16448 98.248534,-12.01527 49.36678,-0.14903 90.5245,10.00028 98.24853,12.05252 12.27644,3.13445 24.40357,7.16435 33.17244,11.00777 16.15703,7.08966 23.76919,12.79878 22.68709,17.01532 v 0.0383 z m -139.145,-37.61281 c 44.03087,0 76.79285,7.50021 88.84537,10.70917 11.15689,2.98513 22.09007,6.79121 30.00065,10.41075 10.74651,5.00013 17.27648,9.32854 19.51539,12.94806 L 315.39791,393.67 c 0.29804,-1.19405 -0.41074,-5.74637 -21.75418,-15.14953 -8.73152,-3.80608 -20.70946,-7.79872 -32.94854,-10.93318 -7.72403,-2.01489 -48.65784,-12.12712 -97.83807,-11.97782 -49.18024,-0.11174 -90.114017,9.96293 -97.838084,11.97782 -12.201774,3.13446 -24.254282,7.1271 -32.948518,10.93318 -21.343775,9.40316 -22.015428,13.95548 -21.754225,15.14953 4.664284,17.98556 9.328568,36.00828 13.992853,53.99384 2.238857,-3.61952 8.768861,-7.94793 19.515382,-12.94806 7.910627,-3.61954 18.843707,-7.42562 30.038001,-10.41075 12.015201,-3.20896 44.814471,-10.70917 88.808021,-10.70917 h 0.3731"
       id="path53096" />
    <path
       style="fill:#ffffff;fill-opacity:1;fill-rule:nonzero;stroke:none;stroke-width:9.55245"
       d="m 143.60295,494.97831 v 2.20156 h -8.0599 v -2.20156 h 3.05978 v -7.57481 l -2.3508,1.11945 -1.0448,-1.52992 3.3956,-2.42537 h 2.68662 v 10.41065"
       id="path53100" />
    <path
       style="fill:#ffffff;fill-opacity:1;fill-rule:nonzero;stroke:none;stroke-width:9.55245"
       d="m 159.01375,489.64241 c 0,5.37326 -2.38812,7.79862 -5.59715,7.79862 -0.89555,0 -1.79109,-0.18626 -2.64931,-0.48526 l 0.59703,-1.90304 c 0.63437,0.22353 1.34331,0.3735 2.01496,0.3735 1.94035,0 2.61201,-1.52992 2.8732,-3.20905 -0.74633,0.41076 -1.56719,0.70879 -2.61199,0.70879 -1.97766,0 -3.69412,-1.34336 -3.69412,-4.2539 0,-2.72388 1.8284,-4.36576 4.51503,-4.36576 2.83588,0 4.55235,2.05235 4.55235,5.336 m -2.68663,0.74606 v -0.67155 c 0,-2.20155 -0.52243,-3.28365 -1.94035,-3.28365 -1.0821,0 -1.86572,0.70878 -1.86572,2.12694 0,1.34327 0.41047,2.38812 1.86572,2.38812 0.74634,0 1.26868,-0.14902 1.94035,-0.55977"
       id="path53102" />
    <path
       style="fill:#ffffff;fill-opacity:1;fill-rule:nonzero;stroke:none;stroke-width:9.55245"
       d="m 174.01408,493.14989 c 0,2.12694 -1.19405,4.29114 -4.88816,4.29114 -1.52989,0 -2.64932,-0.33624 -3.6568,-0.78329 l 0.93289,-1.97765 c 0.82094,0.33625 1.60451,0.52252 2.50006,0.52252 1.71646,0 2.3508,-0.93327 2.3508,-1.8657 0,-1.1568 -0.44772,-2.01498 -2.612,-2.01498 -0.52243,0 -1.15674,0.0764 -1.41794,0.14901 l -0.97018,-0.74604 v -6.15685 h 7.38824 l -0.29852,2.23881 h -4.4031 v 2.53741 c 0.26118,-0.0381 0.48508,-0.0381 0.74635,-0.0381 2.612,0 4.32845,1.30601 4.32845,3.84333"
       id="path53104" />
    <path
       style="fill:#ffffff;fill-opacity:1;fill-rule:nonzero;stroke:none;stroke-width:9.55245"
       d="m 189.6861,493.85886 c 0,2.27616 -1.71646,3.58217 -4.73893,3.58217 -2.94782,0 -4.7389,-1.26865 -4.7389,-3.43286 0,-1.26866 0.59702,-2.35086 2.6493,-3.321 -1.08212,-0.67155 -1.97765,-1.64179 -1.97765,-3.09711 0,-2.20155 1.94033,-3.24631 4.10457,-3.24631 2.61201,0 4.06726,1.38063 4.06726,3.09711 0,1.26865 -0.97017,2.1642 -2.12691,2.83584 1.79108,1.00749 2.76126,1.94039 2.76126,3.58216 m -2.79858,0.0383 c 0,-1.19406 -0.74633,-1.52992 -2.3508,-2.31351 -1.23137,0.70879 -1.5672,1.45532 -1.5672,2.0896 0,0.85781 0.52241,1.71648 1.97765,1.71648 1.45526,0 1.94035,-0.82056 1.94035,-1.49257 m -3.32097,-6.30615 c 0,0.63428 0.37312,1.2314 1.67914,1.90304 0.78359,-0.52252 1.11943,-1.19405 1.11943,-1.79109 0,-0.8578 -0.44772,-1.38062 -1.41795,-1.38062 -0.93289,0 -1.38062,0.52252 -1.38062,1.26867"
       id="path53106" />
    <path
       id="path53108"
       style="clip-rule:nonzero;fill:#dcdcd9;fill-opacity:1;fill-rule:nonzero;stroke:none;stroke-width:9.55244"
       d="m 184.20088,252.17423 c 0,0 -3.73141,2.54205 -4.92549,3.62414 -1.19408,1.04478 -8.69887,4.77154 -9.44519,4.77154 -0.74631,6e-5 -5.55981,-1.64674 -7.61211,-2.39275 -2.12688,-0.74632 -3.12509,-0.73693 -5.84904,-1.93101 -2.68662,-1.19358 -5.52249,-2.27598 -9.4032,-2.12695 -3.91797,0.14923 -5.86768,1.04012 -9.59908,2.86853 -3.46317,1.66234 -19.61956,12.95392 -27.85977,18.56855 -1.24028,4.52672 -1.94504,9.26571 -1.94504,14.18876 0,23.36186 14.96552,43.20701 35.86369,50.51421 l 2.00102,-0.056 c 0,0 0.75561,-3.03181 0.75561,-4.6736 0,-1.64192 -1.19867,-9.10473 -1.94504,-11.19427 -0.74624,-2.12695 -2.04757,-5.55516 -2.98044,-7.34632 -0.89555,-1.79108 -6.16621,-8.99713 -6.01691,-9.44511 0.18656,-0.44786 1.52988,-4.02536 5.26128,-10.14486 3.7314,-6.15682 15.70934,-6.60488 16.79143,-6.15682 1.00752,0.44769 2.65396,4.62221 4.18391,6.4507 1.45522,1.79108 7.46746,4.17968 9.89289,4.47771 2.38816,0.29847 13.57779,3.13899 16.41366,4.18384 2.87318,1.04477 5.70904,9.44519 6.60458,9.44519 0.89562,0 2.24359,-1.49728 2.72862,-1.49728 0.41052,0 2.2016,1.18943 3.58217,1.18943 1.34339,0 3.57285,-1.0402 4.16993,-2.08498 0.597,-1.04484 -0.17768,-4.0672 0.75555,-5.70905 0.85801,-1.64178 1.04528,-3.43294 1.34332,-5.82103 0.29853,-2.38809 -2.54664,-3.43293 -3.88995,-4.47771 -1.38064,-1.04485 -5.55516,-4.66893 -7.79409,-7.20633 -2.23885,-2.53732 -6.56727,-10.18211 -8.50767,-14.51059 -1.97764,-4.32841 -8.39567,-13.16728 -8.39567,-13.16728 l 7.01046,8.39568 -1.93108,-4.36573 c 0,0 2.52808,2.87319 4.16993,5.26128 1.67911,2.38816 3.58218,4.7716 3.58218,4.7716 0,0 -3.09243,-6.86581 -3.42828,-8.05989 -0.26122,-1.2314 -4.9255,-6.31079 -4.9255,-6.31079 0,0 1.79575,-1.48796 2.39275,-2.53273 0.59708,-1.04486 2.53275,-6.75848 2.53275,-6.75848 0,0 -2.20619,1.94038 -2.84053,2.57464 -0.55976,0.55968 -4.6177,4.48704 -3.72217,3.89002 0.89555,-0.597 1.6372,-4.22116 2.53275,-5.41524 0.89546,-1.19408 0.44777,-1.79108 0.44777,-1.79108 z" />
    <path
       style="clip-rule:nonzero;fill:#7f8282;fill-opacity:1;fill-rule:nonzero;stroke:none;stroke-width:9.55245"
       d="m 185.50689,277.06285 c 0,0 -1.52989,3.9553 -3.3956,1.49258 -1.86572,-2.46272 0.22391,-9.2166 -4.51504,-7.91059 -4.70158,1.34327 -9.21661,1.71639 -9.21661,1.71639 0,0 10.55993,-1.30591 10.89577,1.11945 0.37311,2.46272 0.97016,8.09724 3.76874,7.72412 2.8732,-0.37351 2.46274,-4.14195 2.46274,-4.14195"
       id="path53114" />
    <path
       id="path26185"
       style="fill:#7f8282;stroke-width:9.55244"
       d="m 134.79212,246.05931 c 0,0 4.82283,3.61018 8.03188,4.6177 2.32189,0.72898 6.88143,2.63219 9.89295,4.02995 -0.44612,-0.13835 -0.81351,-0.2936 -1.3853,-0.40585 -4.02994,-0.82054 -6.30612,-1.26867 -7.94797,-1.45523 -0.70899,-0.11173 -4.82283,-0.37348 -10.04685,0 -2.91051,0.22353 -7.23899,1.63712 -9.85098,2.64464 -1.11562,0.43037 -2.80168,0.75548 -4.33779,1.02149 -0.3997,0.5041 -0.77977,1.02056 -1.16141,1.53919 0.34152,0.012 0.48065,0.056 0.90959,0.056 5.18663,0 9.44045,-0.59707 12.64951,0 3.24637,0.59701 1.31529,0.93745 1.31529,0.93745 0,0 0.33587,0.29339 -2.68663,1.30142 -3.05974,1.00744 -6.46001,3.39553 -11.68396,3.02241 -1.43331,-0.11267 -2.51132,-0.27676 -3.70813,-0.4338 -1.0139,1.74975 -1.94239,3.547 -2.75662,5.41524 1.66987,0.19537 3.45192,0.4338 4.4497,0.4338 h 9.02543 c 0,0 -1.78643,0.81588 -6.00294,1.41331 -2.24881,0.31838 -5.64937,1.0533 -8.84352,1.70712 -1.97313,5.5879 -3.09241,11.57329 -3.09241,17.84086 0,0.6991 0.0715,1.37835 0.098,2.07094 0.67266,-1.15834 1.6925,-2.90579 2.16886,-3.70806 1.38064,-2.42541 4.8229,-7.64944 6.24079,-9.06741 1.41797,-1.41789 4.44047,-2.79868 5.82103,-3.80605 1.41797,-1.00752 6.642,-3.83874 9.29129,-5.44326 2.61199,-1.60452 5.40594,-3.80598 8.01791,-5.0374 2.61197,-1.19408 8.8388,-3.40026 10.48065,-3.62414 1.60452,-0.18628 10.83048,-1.37599 8.81551,-1.18943 -1.38064,0.14901 6.82848,0.55975 10.52263,0.55975 0.59701,0 1.5672,0.07 1.5672,0.07 0,0 -4.44504,-5.07007 -9.66907,-6.6746 -5.22403,-1.60452 -11.04505,-1.60918 -16.90333,-4.6316 -5.82111,-3.0225 -9.22131,-3.2044 -9.22131,-3.2044 z" />
    <path
       style="clip-rule:nonzero;fill:#7f8282;fill-opacity:1;fill-rule:nonzero;stroke:none;stroke-width:9.55245"
       d="m 181.77545,279.86144 c 0,0 -1.94033,2.0896 -3.1344,-0.11173 -1.23136,-2.20156 0.97019,-5.22396 0.97019,-5.22396"
       id="path53120" />
    <path
       style="clip-rule:nonzero;fill:#7f8282;fill-opacity:1;fill-rule:nonzero;stroke:none;stroke-width:9.55245"
       d="m 183.93969,304.52617 c 0,0 -12.42565,-3.84333 -15.22422,-5.82098 -2.8359,-2.01499 -3.99264,-3.61952 -5.48522,-5.93303 -2.1269,-3.28365 -6.0076,-5.22396 -6.0076,-5.22396 l 0.8582,4.73888 c 0,0 1.41794,3.76873 3.99263,6.08225 2.53736,2.27616 6.7912,3.28366 9.73903,3.95528 2.94782,0.67155 8.69422,1.7911 11.11965,2.46282 2.42543,0.67154 5.78372,1.1567 5.78372,1.1567"
       id="path53126" />
    <path
       style="clip-rule:nonzero;fill:#7f8282;fill-opacity:1;fill-rule:nonzero;stroke:none;stroke-width:9.55245"
       d="m 157.14803,287.5482 c 0,0 -12.83612,-0.11173 -16.34366,3.50757 -3.47022,3.61943 -6.71657,10.33606 -7.91062,12.46291 -1.19407,2.12695 -13.39585,7.12708 -13.39585,7.12708 0,0 17.01533,2.68663 18.61985,7.91059 1.64182,5.22405 5.89565,19.0303 5.89565,19.0303 0,0 2.16423,0.14903 2.16423,-2.83593 0,-2.94778 -2.20155,-16.26897 -6.60463,-21.30637 -3.20903,-3.73148 -4.32845,-5.89568 -4.32845,-5.89568 0,0 5.33593,-10.00028 7.01508,-11.94058 2.46274,-2.83593 9.21662,-3.99264 11.60474,-4.36576 2.68663,-0.41076 4.10458,0.85782 4.10458,0.85782 l 2.68662,1.64188 -1.34332,-4.29116"
       id="path53132" />
    <path
       style="clip-rule:nonzero;fill:#7f8282;fill-opacity:1;fill-rule:nonzero;stroke:none;stroke-width:9.55245"
       d="m 181.25307,260.75652 c 0,0 2.3881,2.16421 3.3956,2.87319 1.0448,0.7088 2.23885,2.94789 2.83588,4.06725 0.59703,1.08209 1.08212,2.20155 1.41795,3.09709 0.2985,0.89507 2.3508,5.78374 2.3508,5.78374 0,0 -5.03743,-6.1942 -5.70909,-7.01504 -0.70898,-0.78331 -0.97018,-1.23142 -0.97018,-1.23142 l 1.11944,3.0971 c 0,0 -3.1344,-3.69412 -4.36579,-5.1867 -1.19405,-1.52992 -2.50004,-3.09709 -2.50004,-3.09709 0,0 0.78359,-0.78331 1.19405,-1.60453 0.41047,-0.7833 1.19406,-2.1642 1.19406,-2.1642"
       id="path53144" />
    <path
       style="clip-rule:nonzero;fill:#7f8282;fill-opacity:1;fill-rule:nonzero;stroke:none;stroke-width:9.55245"
       d="m 204.7984,300.83204 c 0,0 -4.29116,-0.26077 -4.55232,1.34337 -0.29804,1.60452 0,7.23895 2.12686,4.55232 2.12696,-2.68664 2.42546,-5.89569 2.42546,-5.89569"
       id="path53150" />
    <path
       style="clip-rule:nonzero;fill:#7f8282;fill-opacity:1;fill-rule:nonzero;stroke:none;stroke-width:9.55245"
       d="m 197.67135,314.37715 c 0,0 -2.38811,-6.97779 -2.53737,-7.91059 -0.1493,-0.93327 -0.67163,-6.41811 -3.09708,-5.22404 -2.42543,1.19405 -3.0971,2.94788 -1.08212,3.61952 2.01497,0.67153 4.02994,2.79859 4.1792,3.88068 0.1493,1.08211 2.53737,5.63443 2.53737,5.63443"
       id="path53156" />
    <path
       style="clip-rule:nonzero;fill:#7f8282;fill-opacity:1;fill-rule:nonzero;stroke:none;stroke-width:9.55245"
       d="m 155.35695,277.9584 c 0,2.91053 -1.71646,3.20905 -4.88818,3.80608 -3.20902,0.55977 -11.30622,2.87319 -12.7988,5.18669 -1.45526,2.35078 -4.62697,8.43302 -4.62697,8.43302 0,0 -2.612,-8.1345 5.52252,-12.20175 8.13451,-4.06724 11.00771,-4.06724 12.76148,-5.4852 1.75377,-1.45532 4.02995,-8.13449 5.18668,-9.88833 1.19407,-1.71648 8.99275,-4.62692 8.99275,-4.62692 0,0 -1.15674,1.45522 -3.43292,3.47021 -2.35079,2.05225 -6.71656,8.43301 -6.71656,11.3062"
       id="path53162" />
    <path
       style="clip-rule:nonzero;fill:#7f8282;fill-opacity:1;fill-rule:nonzero;stroke:none;stroke-width:9.55245"
       d="m 148.41649,269.26423 c 0,0 -11.86596,3.50746 -14.51526,5.82098 -2.612,2.31351 -9.55246,5.78372 -12.16446,8.09723 -2.612,2.35077 -8.13452,5.82099 -9.29127,8.43301 -1.15674,2.61203 -3.47022,6.94043 -3.47022,6.94043 0,0 8.13452,-6.38075 11.30623,-9.25393 3.20904,-2.91055 4.36577,-3.76874 6.67926,-6.38076 2.31348,-2.61194 9.25394,-6.97779 9.25394,-6.97779 0,0 2.91052,-2.01489 3.80606,-2.01489 0.8582,0 8.39572,-4.66428 8.39572,-4.66428"
       id="path53168" />
    <path
       style="clip-rule:nonzero;fill:#7f8282;fill-opacity:1;fill-rule:nonzero;stroke:none;stroke-width:9.55245"
       d="m 196.43999,293.55575 c 0,0 -4.32847,-3.88068 -7.57481,-4.73888 -3.24635,-0.89507 -6.04493,-1.97764 -7.5375,-3.24631 -1.52988,-1.30601 -1.97765,-4.1046 -1.97765,-4.1046 0,0 -1.306,4.73888 1.30601,6.04489 2.57468,1.30602 7.76136,2.38812 9.70171,3.65678 1.94035,1.30601 3.918,2.79858 3.918,2.79858 0,0 2.16424,4.1046 2.3508,3.2464 0.55968,-2.23889 -0.18656,-3.65686 -0.18656,-3.65686"
       id="path53174" />
    <path
       style="clip-rule:nonzero;fill:#7f8282;fill-opacity:1;fill-rule:nonzero;stroke:none;stroke-width:9.55245"
       d="m 186.70095,291.39155 c 0,0 -2.16423,0.22352 -4.32847,-0.6343 -2.16421,-0.89505 -3.65679,-2.61201 -3.65679,-2.61201 l -1.11944,-2.16421 c 0,0 -1.26868,4.77622 2.20155,5.63442 3.43292,0.85782 4.9628,1.08211 6.23149,0.85782 1.34331,-0.22354 0.67163,-1.08211 0.67163,-1.08211"
       id="path53180" />
    <path
       style="fill:#ffffff;fill-opacity:1;fill-rule:nonzero;stroke:none;stroke-width:9.55245"
       d="m 91.027104,448.8579 1.194053,-1.94039 c 1.231373,0.78331 2.38812,1.1568 3.582173,1.1568 0.746334,0 1.306001,-0.11173 1.753774,-0.33624 0.410467,-0.26079 0.597027,-0.59704 0.597027,-1.08211 0,-0.26078 -0.07453,-0.52252 -0.18656,-0.67153 -0.149307,-0.22353 -0.37312,-0.37351 -0.746334,-0.55977 -0.335867,-0.18628 -0.820933,-0.41076 -1.52988,-0.67155 l -0.44772,-0.18627 c -0.820947,-0.33625 -1.492573,-0.63429 -2.014987,-0.93328 -0.485066,-0.29804 -0.895533,-0.67153 -1.194053,-1.1567 -0.298507,-0.44802 -0.44772,-1.04486 -0.44772,-1.75383 0,-0.78331 0.223907,-1.45523 0.671627,-1.97765 0.447733,-0.52252 1.0448,-0.89507 1.753773,-1.15671 0.746333,-0.26077 1.492573,-0.37349 2.276173,-0.37349 0.708987,0 1.492574,0.11173 2.276174,0.37349 0.746333,0.22353 1.492576,0.59703 2.201546,1.04476 l -1.268693,1.90304 c -0.634386,-0.37351 -1.156746,-0.63429 -1.641826,-0.82056 -0.48508,-0.14901 -1.007494,-0.26079 -1.567201,-0.26079 -0.597026,0 -1.08212,0.11174 -1.38064,0.33626 -0.298506,0.22352 -0.485066,0.48526 -0.485066,0.82056 0,0.22352 0.07453,0.448 0.18656,0.59702 0.149306,0.18627 0.37312,0.3735 0.708986,0.52252 0.335854,0.18627 0.820934,0.41075 1.455254,0.63428 l 0.44772,0.14902 c 0.783587,0.29804 1.455267,0.59702 1.977653,0.85781 0.522427,0.29804 0.932893,0.67153 1.268693,1.19405 0.33587,0.48527 0.52243,1.15671 0.52243,1.94031 0,0.8578 -0.18656,1.56727 -0.63438,2.12695 -0.447729,0.59702 -1.082116,1.00749 -1.791089,1.30601 -0.783587,0.29803 -1.641827,0.448 -2.574681,0.448 -1.977666,0 -3.619493,-0.52251 -4.962813,-1.52981"
       id="path53186" />
    <path
       style="fill:#ffffff;fill-opacity:1;fill-rule:nonzero;stroke:none;stroke-width:9.55245"
       d="m 111.54997,437.477 h 2.72393 v 12.61222 h -2.72393 v -5.22396 h -5.82104 v 5.22396 H 103.005 V 437.477 h 2.72393 v 5.0374 h 5.82104"
       id="path53188" />
    <path
       style="fill:#ffffff;fill-opacity:1;fill-rule:nonzero;stroke:none;stroke-width:9.55245"
       d="m 123.86368,437.477 4.55235,12.463 v 0.14902 h -2.94783 l -1.00749,-3.0224 h -4.70161 l -0.97017,3.0224 h -2.91051 V 449.94 l 4.55234,-12.463 z m -3.35828,7.38826 h 3.17171 l -1.60452,-4.81358"
       id="path53190" />
    <path
       style="fill:#ffffff;fill-opacity:1;fill-rule:nonzero;stroke:none;stroke-width:9.55245"
       d="m 138.67745,444.11892 c 0.37312,0.33626 0.67164,0.67154 0.82095,1.04486 0.18656,0.41074 0.26116,0.82054 0.26116,1.2313 0,1.19406 -0.41047,2.0896 -1.23137,2.72399 -0.85819,0.67153 -2.01498,0.97015 -3.54486,0.97015 h -4.9628 v -12.57487 h 4.58966 c 1.00748,0 1.86572,0.11173 2.57469,0.41076 0.67163,0.26079 1.23137,0.63428 1.5672,1.15671 0.33585,0.48526 0.48507,1.0821 0.48507,1.75373 0,0.55977 -0.112,1.08211 -0.44772,1.56728 -0.33587,0.448 -0.82095,0.82055 -1.45526,1.04475 0.52243,0.14901 1.00748,0.3735 1.34332,0.67153 m -5.97029,-4.44036 v 2.9478 h 1.52988 c 1.45527,0 2.16423,-0.52252 2.16423,-1.56719 0,-0.448 -0.14931,-0.78329 -0.44772,-1.04474 -0.33587,-0.22354 -0.78359,-0.33626 -1.41794,-0.33626 z m 3.69411,7.76137 c 0.37312,-0.29804 0.52242,-0.67153 0.52242,-1.1567 0,-0.48527 -0.1493,-0.89507 -0.52242,-1.1568 -0.37312,-0.29804 -0.89555,-0.44802 -1.60451,-0.44802 h -2.0896 v 3.20896 h 1.97765 c 0.82095,0 1.38063,-0.14902 1.71646,-0.44801"
       id="path53192" />
    <path
       style="fill:#ffffff;fill-opacity:1;fill-rule:nonzero;stroke:none;stroke-width:9.55245"
       d="m 148.41649,437.477 4.51503,12.463 v 0.14902 H 150.021 l -1.0448,-3.0224 h -4.62697 l -1.00748,3.0224 h -2.91052 V 449.94 l 4.55234,-12.463 z m -3.32097,7.38826 h 3.17171 l -1.60452,-4.81358"
       id="path53194" />
    <path
       style="fill:#ffffff;fill-opacity:1;fill-rule:nonzero;stroke:none;stroke-width:9.55245"
       d="m 163.26757,444.11892 c 0.37312,0.33626 0.59703,0.67154 0.82094,1.04486 0.1493,0.41074 0.2239,0.82054 0.2239,1.2313 0,1.19406 -0.41046,2.0896 -1.23136,2.72399 -0.82094,0.67153 -2.01497,0.97015 -3.58217,0.97015 h -4.92549 v -12.57487 h 4.62693 c 0.97017,0 1.82839,0.11173 2.53736,0.41076 0.70899,0.26079 1.19407,0.63428 1.56721,1.15671 0.37312,0.48526 0.52243,1.0821 0.52243,1.75373 0,0.55977 -0.14931,1.08211 -0.48508,1.56728 -0.33587,0.448 -0.82093,0.82055 -1.45525,1.04475 0.55966,0.14901 1.00748,0.3735 1.38062,0.67153 m -5.97029,-4.44036 v 2.9478 h 1.52989 c 1.45526,0 2.16423,-0.52252 2.16423,-1.56719 0,-0.448 -0.14931,-0.78329 -0.48508,-1.04474 -0.33585,-0.22354 -0.78359,-0.33626 -1.41795,-0.33626 z m 3.6568,7.76137 c 0.37312,-0.29804 0.52243,-0.67153 0.52243,-1.1567 0,-0.48527 -0.18656,-0.89507 -0.52243,-1.1568 -0.33585,-0.29804 -0.89553,-0.44802 -1.64183,-0.44802 h -2.01497 v 3.20896 h 1.97767 c 0.78358,0 1.38062,-0.14902 1.67913,-0.44801"
       id="path53196" />
    <path
       style="fill:#ffffff;fill-opacity:1;fill-rule:nonzero;stroke:none;stroke-width:9.55245"
       d="m 177.63357,437.477 4.55235,12.463 v 0.14902 h -2.94784 l -1.00747,-3.0224 h -4.66429 l -0.97017,3.0224 h -2.91052 V 449.94 l 4.55234,-12.463 z m -3.32097,7.38826 h 3.17172 l -1.60452,-4.81358"
       id="path53198" />
    <path
       style="fill:#ffffff;fill-opacity:1;fill-rule:nonzero;stroke:none;stroke-width:9.55245"
       d="m 186.51437,447.73844 h 5.78373 v 2.35078 h -8.50766 V 437.477 h 2.72393"
       id="path53200" />
    <path
       style="fill:#ffffff;fill-opacity:1;fill-rule:nonzero;stroke:none;stroke-width:9.55245"
       d="m 200.76842,437.477 4.51506,12.463 v 0.14902 h -2.91054 l -1.0075,-3.0224 h -4.66426 l -0.97016,3.0224 h -2.94784 V 449.94 l 4.55234,-12.463 z m -3.32096,7.38826 h 3.17174 l -1.60452,-4.81358"
       id="path53202" />
    <path
       style="fill:#ffffff;fill-opacity:1;fill-rule:nonzero;stroke:none;stroke-width:9.55245"
       d="m 215.47031,437.477 h 2.72389 v 12.61222 h -2.72389 v -5.22396 h -5.82107 v 5.22396 h -2.72398 V 437.477 h 2.72398 v 5.0374 h 5.82107"
       id="path53204" />
    <path
       style="fill:#ffffff;fill-opacity:1;fill-rule:nonzero;stroke:none;stroke-width:9.55245"
       d="m 223.6048,447.73844 h 5.82099 v 2.35078 h -8.47036 V 437.477 h 2.64937"
       id="path53206" />
    <path
       style="fill:#ffffff;fill-opacity:1;fill-rule:nonzero;stroke:none;stroke-width:9.55245"
       d="m 231.14227,450.08922 h 2.68663 V 437.477 h -2.68663 z m 0,0"
       id="path53208" />
    <path
       style="fill:#ffffff;fill-opacity:1;fill-rule:nonzero;stroke:none;stroke-width:9.55245"
       d="m 144.75968,466.05978 c 1.19405,0.97015 1.79109,2.57467 1.79109,4.88819 0,1.38061 -0.33586,2.57466 -0.97017,3.50746 -0.59703,0.93328 -1.45525,1.64188 -2.53737,2.0896 -1.0448,0.44802 -2.20155,0.7088 -3.47023,0.7088 h -4.10457 v -12.61221 h 4.1792 c 2.20154,0 3.918,0.44801 5.11205,1.41797 m -3.05976,8.47035 c 0.67163,-0.22352 1.15673,-0.59703 1.49256,-1.1568 0.37312,-0.59703 0.52243,-1.38061 0.52243,-2.42537 0,-1.0075 -0.14931,-1.75383 -0.48507,-2.31351 -0.26117,-0.59703 -0.70899,-1.00749 -1.306,-1.26867 -0.59704,-0.22352 -1.34332,-0.37349 -2.27617,-0.37349 h -1.49258 v 7.87332 h 0.89555 c 1.11943,0 1.97765,-0.11173 2.64931,-0.33624"
       id="path53210" />
    <path
       style="fill:#ffffff;fill-opacity:1;fill-rule:nonzero;stroke:none;stroke-width:9.55245"
       d="m 150.72997,476.8063 c -0.82094,-0.48527 -1.38062,-1.11945 -1.79109,-1.9404 -0.37312,-0.78329 -0.55968,-1.71639 -0.55968,-2.76123 v -7.46287 h 2.72395 v 7.12701 c 0,1.0822 0.2239,1.94038 0.63437,2.53741 0.44773,0.59704 1.19407,0.89507 2.31349,0.89507 1.0448,0 1.79108,-0.29803 2.20154,-0.89507 0.41046,-0.59703 0.63438,-1.38061 0.63438,-2.35076 v -7.31366 h 2.64931 v 7.38826 c 0,1.30601 -0.22392,2.35077 -0.70899,3.13436 -0.52242,0.82056 -1.15674,1.41796 -2.01497,1.79108 -0.8582,0.37351 -1.8284,0.55977 -2.94784,0.55977 -1.26868,0 -2.31348,-0.22352 -3.1344,-0.70878"
       id="path53212" />
    <path
       style="fill:#ffffff;fill-opacity:1;fill-rule:nonzero;stroke:none;stroke-width:9.55245"
       d="m 170.69312,471.28373 c 0.37312,0.29804 0.67163,0.63429 0.82093,1.04485 0.18656,0.37351 0.29852,0.78331 0.29852,1.19405 0,1.19407 -0.41048,2.0896 -1.23138,2.76124 -0.85819,0.63428 -2.05228,0.93327 -3.58218,0.93327 h -4.92548 v -12.57495 h 4.58966 c 1.00749,0 1.8284,0.11173 2.53737,0.41076 0.67164,0.26077 1.23137,0.67154 1.56721,1.15671 0.33586,0.52252 0.52242,1.08209 0.52242,1.75383 0,0.55977 -0.18656,1.0821 -0.48507,1.56717 -0.33587,0.44801 -0.78359,0.82056 -1.45527,1.08211 0.52243,0.14901 1.0075,0.3735 1.34332,0.67153 m -5.97029,-4.47771 v 2.94788 h 1.56721 c 1.41794,0 2.16423,-0.52252 2.16423,-1.52992 0,-0.44801 -0.18656,-0.82054 -0.48508,-1.04474 -0.29851,-0.26079 -0.78359,-0.37351 -1.38063,-0.37351 z m 3.73144,7.76138 c 0.33587,-0.26079 0.52241,-0.67155 0.52241,-1.15671 0,-0.48527 -0.18654,-0.85781 -0.52241,-1.15671 -0.41048,-0.29804 -0.93289,-0.41076 -1.64183,-0.41076 h -2.08961 v 3.17171 h 1.97767 c 0.82093,0 1.38062,-0.14903 1.75377,-0.44801"
       id="path53214" />
    <path
       style="fill:#ffffff;fill-opacity:1;fill-rule:nonzero;stroke:none;stroke-width:9.55245"
       d="m 180.43215,464.6418 4.55234,12.42566 v 0.14901 h -2.94782 l -1.0075,-2.98513 h -4.62697 l -1.00748,2.98513 h -2.91052 v -0.14901 l 4.51503,-12.42566 z m -3.32098,7.35091 h 3.20904 l -1.64184,-4.77622"
       id="path53216" />
    <path
       style="fill:#ffffff;fill-opacity:1;fill-rule:nonzero;stroke:none;stroke-width:9.55245"
       d="m 186.70095,477.25402 h 2.68663 V 464.6418 h -2.68663 z m 0,0"
       id="path53218" />
    <path
       style="fill:#ffffff;fill-opacity:1;fill-rule:nonzero;stroke:none;stroke-width:9.55245"
       d="m 87.332997,411.13314 -0.261174,-0.0764 -0.07453,0.22352 c -0.335867,0.82056 -0.671627,1.60453 -1.00748,2.38812 -1.194053,-0.48527 -2.462747,-0.97015 -3.69412,-1.45523 l -0.223907,-0.11173 -0.112,0.26078 c -0.522427,1.2314 -1.007493,2.42547 -1.492573,3.65687 l -0.112,0.26079 0.26116,0.11173 c 1.34332,0.52252 2.68664,1.08211 4.067267,1.64179 l 0.223906,0.11173 0.112,-0.26079 c 0.29852,-0.78329 0.634387,-1.60452 1.007494,-2.3881 1.194053,0.48526 2.38812,1.00749 3.582173,1.52992 l 0.223907,0.11173 0.112,-0.26079 c 0.522427,-1.2314 1.0448,-2.46272 1.5672,-3.69412 l 0.112,-0.26078 -0.223907,-0.11174 c -1.34332,-0.55977 -2.723947,-1.11945 -4.067267,-1.67913"
       id="path53220" />
    <path
       style="fill:#ffffff;fill-opacity:1;fill-rule:nonzero;stroke:none;stroke-width:9.55245"
       d="m 119.4979,386.39371 c -3.09708,-1.82835 -6.75388,-3.43287 -10.82113,-4.8135 l -0.0745,-0.0381 -0.59704,0.18627 v 0.14901 c -0.29851,1.26867 -0.59703,2.57468 -0.89553,3.88069 l -0.0745,0.22354 0.26117,0.0764 c 0.18656,0.0383 0.41047,0.11173 0.67163,0.18626 0.18656,0.0383 0.37312,0.11174 0.59702,0.14903 -0.48506,0.59703 -0.85818,1.26876 -1.0821,2.015 -0.33587,0.93327 -0.41047,1.82843 -0.29852,2.68663 0.1493,0.89506 0.48508,1.75382 1.00748,2.53741 -0.59703,0.0764 -1.19406,0.14903 -1.79108,0.26079 -0.9329,0.11173 -1.64183,0.0383 -2.20154,-0.26079 -0.52242,-0.29804 -0.93289,-0.78329 -1.23138,-1.45532 -0.26116,-0.70879 -0.52242,-1.67912 -0.70898,-2.87319 l -2.12693,-14.10477 -0.708974,-0.26079 -0.07453,0.0383 c -1.417933,0.59703 -2.83588,1.19405 -4.253813,1.79108 l -0.18656,0.0764 2.164227,13.06003 c 0.07453,0.44801 0.149306,0.89506 0.149306,1.38061 0,0.41076 0,0.78331 -0.0372,1.08211 -0.708987,0.44801 -1.903027,0.89506 -3.619493,1.45532 -1.75376,0.55977 -3.656801,1.04474 -5.671774,1.52981 h -0.18656 l -0.0372,0.0383 -0.335867,0.0764 0.335867,0.26077 c -0.223907,1.26867 -0.410467,2.50008 -0.55968,3.73139 l -0.0372,0.33624 h 0.29852 c 2.27616,0 3.992627,0.14903 4.888174,0.44801 0.746333,0.22354 1.194053,0.52252 1.305986,0.78331 -0.410466,0.63428 -1.492573,1.26876 -3.09708,1.90304 -1.679147,0.67153 -3.6568,1.26876 -5.78372,1.71648 -1.828387,0.37351 -3.246334,0.48527 -4.36576,0.33624 -1.08212,-0.14901 -1.940347,-0.52251 -2.462747,-1.08209 -0.55968,-0.55978 -0.970174,-1.34336 -1.194067,-2.35087 -0.07453,-0.37349 -0.149307,-0.78329 -0.149307,-1.26865 -0.0372,-0.48527 -0.07453,-1.04486 -0.07453,-1.67914 v -0.18628 l -0.783587,-0.18627 -0.112,0.0383 c -1.194066,0.70879 -2.38812,1.38062 -3.582173,2.0896 l -0.149307,0.0764 v 0.14902 c -0.07453,1.60453 0,2.9478 0.298507,4.06725 0.335867,1.41796 1.0448,2.61203 2.164227,3.54483 1.0448,0.89505 2.500066,1.49256 4.291147,1.75382 0.597026,0.11174 1.26868,0.14902 1.940346,0.14902 1.306,0 2.723934,-0.14902 4.291147,-0.48527 2.611987,-0.55977 4.92548,-1.34327 6.940454,-2.31351 2.05228,-1.0074 3.6568,-2.20145 4.7016,-3.54481 1.156734,-1.41797 1.604507,-2.91055 1.417947,-4.47772 -0.112,-0.7088 -0.48508,-1.34327 -1.0448,-1.8657 1.00748,-0.37349 1.865707,-0.7833 2.57468,-1.2314 0.746334,1.04484 1.679144,1.82843 2.761254,2.27616 0.7836,0.33624 1.67915,0.52253 2.64932,0.52253 0.33587,0 0.63439,-0.0383 0.97017,-0.0764 l 0.33587,-0.0383 c 0.70897,-0.11174 1.41795,-0.18627 2.12692,-0.29803 1.90301,-0.26079 3.58217,-0.82056 5.0001,-1.64179 1.79108,0.52252 3.69412,0.63428 5.70908,0.41076 1.90305,-0.22353 3.32099,-0.7088 4.29115,-1.56728 0.97018,-0.89506 1.41795,-2.0896 1.23138,-3.61942 -0.18656,-1.97764 -1.8284,-3.91803 -4.96281,-5.74647 m -2.1269,5.29865 c 0.112,-0.48526 0.1493,-0.97014 0.18656,-1.45522 1.3433,0.89506 2.27616,1.67913 2.68662,2.42537 -0.112,0.0383 -0.29852,0.11173 -0.52242,0.14901 -0.41047,0.14903 -0.85819,0.22354 -1.306,0.26079 -0.52243,0.0764 -1.0448,0.11173 -1.52988,0.11173 0.2239,-0.48526 0.3731,-0.97014 0.48506,-1.49257 m -6.0076,-2.72388 c 0.0372,-0.33624 0.18656,-0.59703 0.29852,-0.78331 0.112,-0.18626 0.26116,-0.26077 0.41047,-0.26077 0.0372,0 0.0372,0 0.0745,0 0.112,0 0.22391,0.0383 0.37312,0.14901 0.18656,0.18628 0.37312,0.44802 0.48508,0.74606 0.1493,0.37349 0.26116,0.74604 0.33586,1.19405 0.0373,0.55977 0.0373,1.08211 -0.0745,1.56717 -0.112,0.37351 -0.26116,0.7088 -0.41046,0.97024 -0.89555,-0.48525 -1.34332,-1.26874 -1.5299,-2.35085 -0.0372,-0.48527 -0.0372,-0.89507 0.0372,-1.23131"
       id="path53222" />
    <path
       style="fill:#ffffff;fill-opacity:1;fill-rule:nonzero;stroke:none;stroke-width:9.55245"
       d="m 124.31145,376.20696 c 3.20903,-0.37351 5.55984,-0.74604 7.46286,-1.11945 l 0.26116,-0.0383 -0.44772,-2.91044 -0.29851,0.0764 c -0.63439,0.0764 -1.60452,0.22352 -3.09709,0.448 -0.41047,-0.29803 -0.67164,-0.67153 -0.70899,-1.08209 0,-0.26079 0.0372,-0.44802 0.22391,-0.6343 0.1493,-0.14901 0.41048,-0.26077 0.74633,-0.29802 0.48508,-0.0383 1.00749,0.0381 1.64184,0.14901 l 0.26116,0.0764 0.0745,-0.26079 c 0.14931,-0.7833 0.29852,-1.56717 0.44772,-2.3135 l 0.0745,-0.26079 -0.26118,-0.0764 c -1.11942,-0.29804 -2.16422,-0.41076 -3.02245,-0.33625 -1.15675,0.11173 -2.01497,0.48526 -2.64932,1.11945 -0.59703,0.67153 -0.89553,1.49257 -0.78359,2.46272 0.0372,0.41076 0.18656,0.82056 0.37312,1.19405 0.112,0.26079 0.26116,0.44802 0.41047,0.67155 -0.33585,0.0381 -0.74633,0.0764 -1.26868,0.14901 h -0.29844 l 0.63438,3.0224"
       id="path53224" />
    <path
       style="fill:#ffffff;fill-opacity:1;fill-rule:nonzero;stroke:none;stroke-width:9.55245"
       d="m 139.75957,385.75941 c 1.26868,-2.3881 1.86571,-4.92553 1.75378,-7.53745 -0.0745,-0.93328 -0.18656,-2.0896 -0.44772,-3.39561 -0.26118,-1.34336 -0.48508,-2.46282 -0.78359,-3.43296 l -0.0373,-0.14903 -0.59703,-0.11173 -0.0745,0.0383 c -1.49258,0.74604 -2.94783,1.45531 -4.4404,2.20155 l -0.22391,0.11173 0.112,0.22352 c 0.26117,0.7088 0.52243,1.67914 0.78359,2.87319 0.26117,1.23141 0.41048,2.31352 0.48508,3.24631 0.0745,0.89506 0.112,1.82844 0.112,2.68664 -2.16423,-1.71639 -4.88818,-3.54483 -8.13452,-5.48512 l -0.112,-0.0383 -0.52243,0.22353 v 0.11174 c -0.37312,1.49257 -0.70899,2.94778 -1.0448,4.40301 l -0.0745,0.22353 0.18656,0.0764 c 1.3433,0.59703 2.76125,1.34336 4.29114,2.20156 1.38062,0.82055 2.68663,1.64187 3.84338,2.50007 -0.59704,0.93327 -1.38063,1.79108 -2.27618,2.57467 -0.97017,0.82056 -2.12692,1.64188 -3.43292,2.46272 l -0.112,0.0764 v 0.14901 c 0.0372,1.45532 0.0372,2.87319 0.0745,4.29116 v 0.29804 l 0.2985,-0.0383 c 1.67916,-0.14902 3.39562,-0.26078 5.07475,-0.41076 2.76127,-0.18626 4.70161,-0.74604 5.85836,-1.67922 1.15673,-1.0074 1.71644,-2.35076 1.64183,-4.06724 -0.112,-1.45523 -0.82095,-3.0224 -2.20155,-4.62694 m -2.01497,4.73888 c -0.18656,0.18628 -0.48508,0.33626 -0.89555,0.44802 -0.44772,0.11173 -1.0448,0.22353 -1.8284,0.26078 0.82093,-0.67154 1.60452,-1.38061 2.3508,-2.16421 0.22391,0.55977 0.33587,1.04476 0.37312,1.45523"
       id="path53226" />
    <path
       style="fill:#ffffff;fill-opacity:1;fill-rule:nonzero;stroke:none;stroke-width:9.55245"
       d="m 150.95385,371.20683 v -0.18628 l -0.63437,-0.29804 h -0.112 c -1.49256,0.41076 -3.02245,0.82056 -4.51503,1.23141 l -0.18656,0.0764 0.89555,23.35873 0.52243,0.33624 0.112,-0.0383 c 1.38062,-0.33624 2.83588,-0.63428 4.25381,-0.97015 l 0.22392,-0.0381 -0.0373,-0.22354 c -0.18655,-7.76137 -0.33586,-15.52274 -0.52242,-23.24677"
       id="path53228" />
    <path
       style="fill:#ffffff;fill-opacity:1;fill-rule:nonzero;stroke:none;stroke-width:9.55245"
       d="m 190.32044,382.58772 c -0.1493,0 -0.29852,0 -0.44772,-0.0383 -1.34332,0.85782 -2.68664,1.71648 -4.02995,2.61203 1.23137,2.79859 1.71646,4.77623 1.56719,5.93293 -0.74633,0.14902 -1.86571,0.26079 -3.3956,0.29804 -1.49257,0.0764 -3.09708,0.0383 -4.77623,-0.0383 -0.67162,0 -1.34332,-0.0383 -2.01496,-0.0764 -2.50006,-0.0764 -4.44041,-0.29804 -5.93298,-0.59704 -1.41794,-0.29803 -2.46274,-0.74604 -3.17171,-1.41787 -0.67164,-0.67153 -1.00749,-1.56727 -1.00749,-2.76133 0.0372,-0.8578 0.1493,-1.82834 0.37312,-2.87319 -0.0745,-0.0764 -0.22391,-0.14901 -0.37312,-0.18627 -1.08211,0.3735 -2.20155,0.74604 -3.32096,1.15671 -0.22392,0.74604 -0.37312,1.45532 -0.52243,2.12695 -0.112,0.63428 -0.14931,1.34336 -0.18656,2.0896 0,2.12694 1.11943,3.73148 3.20903,4.85084 2.12692,1.1568 5.14937,1.75382 9.17932,1.90304 0.74633,0.0381 1.49257,0.0381 2.23885,0.0764 2.3508,0.11173 4.47772,0.0764 6.38075,-0.0764 1.8657,-0.14903 3.28365,-0.44802 4.14189,-0.85782 0.97016,-0.48526 1.71646,-1.19405 2.31348,-2.1642 0.59703,-0.97025 0.9329,-1.97774 1.00748,-3.02249 0.0372,-0.85781 0,-1.86569 -0.2239,-3.09711 -0.18656,-1.2314 -0.52243,-2.50006 -1.00748,-3.84333"
       id="path53230" />
    <path
       style="fill:#ffffff;fill-opacity:1;fill-rule:nonzero;stroke:none;stroke-width:9.55245"
       d="m 173.34243,401.43138 c 1.26869,0.89506 2.50006,1.82844 3.73144,2.76133 0.82093,-1.15681 1.67913,-2.27625 2.50005,-3.39561 -1.23137,-0.89507 -2.46275,-1.7911 -3.73143,-2.68663 -0.82093,1.11935 -1.64182,2.20155 -2.50006,3.32091"
       id="path53232" />
    <path
       style="fill:#ffffff;fill-opacity:1;fill-rule:nonzero;stroke:none;stroke-width:9.55245"
       d="m 210.65674,404.00606 c 1.1567,1.04484 2.3135,2.05233 3.43286,3.09709 0.93328,-1.00749 1.90304,-2.05225 2.83594,-3.09709 -1.11946,-1.00742 -2.27616,-2.05226 -3.43296,-3.05976 -0.93328,1.0075 -1.90295,2.05234 -2.83584,3.05976"
       id="path53234" />
    <path
       style="fill:#ffffff;fill-opacity:1;fill-rule:nonzero;stroke:none;stroke-width:9.55245"
       d="m 246.92618,381.69217 c -1.08211,-1.0821 -2.23882,-2.12694 -3.39552,-3.1717 -1.0075,0.89506 -2.05235,1.79109 -3.0225,2.68662 1.11946,1.04476 2.23882,2.12687 3.35827,3.24632 1.00749,-0.93328 2.05235,-1.86569 3.05975,-2.76124"
       id="path53236" />
    <path
       style="fill:#ffffff;fill-opacity:1;fill-rule:nonzero;stroke:none;stroke-width:9.55245"
       d="m 252.67266,392.14017 c -0.0383,0 -0.11174,-0.0383 -0.18628,-0.0764 -1.52992,0.59703 -3.0225,1.19406 -4.55242,1.79108 0.70879,2.76134 0.93328,4.66438 0.67154,5.74647 -0.0381,0.14903 -0.0764,0.26079 -0.11174,0.29804 -0.82056,0.14903 -1.94038,0.0383 -3.43296,-0.29804 -0.93328,-0.22352 -1.82834,-0.5225 -2.68662,-0.93327 0.70878,-0.93328 1.52992,-2.27616 2.57466,-4.1046 -0.0764,-0.0383 -0.0764,-0.11173 -0.11173,-0.14901 -1.60443,-0.11173 -3.17171,-0.18628 -4.77623,-0.26079 -0.22353,0.44802 -0.48526,0.93328 -0.7088,1.41798 -0.63428,1.34336 -1.00749,2.0896 -1.2314,2.2389 -0.33625,0.14902 -0.7833,0.18627 -1.38061,0.0764 -0.55979,-0.11173 -1.19407,-0.29804 -1.79109,-0.52252 -0.63428,-0.22353 -1.2314,-0.48526 -1.71648,-0.74604 0.48526,-0.7088 1.30601,-2.05234 2.46272,-3.95538 -0.0383,-0.0383 -0.11174,-0.0764 -0.14902,-0.14903 -1.67913,-0.0764 -3.39561,-0.14901 -5.07474,-0.18627 -0.26079,0.74604 -0.52252,1.49258 -0.85782,2.20155 -0.26078,0.7088 -0.48526,1.19407 -0.67153,1.45523 -0.37351,0.0764 -0.89507,0.11173 -1.49257,0.0764 -0.63428,-0.0381 -1.49258,-0.14902 -2.61203,-0.33624 -0.97015,-0.14902 -1.94029,-0.33626 -2.91044,-0.48527 -1.60453,-0.22353 -2.91055,-0.67153 -4.06725,-1.26876 0.48526,-0.63428 0.89506,-1.38061 1.30592,-2.1642 0.3735,-0.82056 0.82056,-1.82844 1.26876,-2.9478 -0.0764,-0.11173 -0.22354,-0.22352 -0.29804,-0.29803 -1.67914,0.0764 -3.321,0.18627 -4.96279,0.33624 -0.74605,2.23891 -1.38071,3.80608 -1.90304,4.62703 -0.48527,0.26077 -1.45532,0.26077 -2.94789,0.11173 -0.22352,-0.0383 -0.44802,-0.0764 -0.67154,-0.11173 -0.97014,-0.11173 -1.94029,-0.22353 -2.91053,-0.33625 -1.00751,-0.11174 -1.94031,-0.22352 -2.91045,-0.33624 -0.93327,-0.11174 -1.67923,-0.26079 -2.1643,-0.52252 -0.48526,-0.22354 -0.82056,-0.55978 -1.0075,-1.04486 -0.22352,-0.44801 -0.29803,-1.0821 -0.22352,-1.86569 0.52252,-5.44785 1.0821,-10.89572 1.64177,-16.38093 -0.14901,-0.0764 -0.22352,-0.14902 -0.37349,-0.26079 -1.52992,0.22353 -3.0225,0.44801 -4.55236,0.67155 -0.44772,5.29854 -0.89555,10.55985 -1.38063,15.8585 -0.18656,2.42547 0.26116,4.29116 1.34332,5.52256 1.08209,1.23132 2.83593,1.97766 5.22404,2.23882 0.97015,0.11173 1.94029,0.18628 2.9478,0.29804 0.97015,0.11173 1.90304,0.22352 2.87319,0.33624 0.22352,0.0383 0.48526,0.0764 0.70878,0.11173 2.38812,0.29803 4.40312,0 5.9703,-0.89507 0.63428,0.59703 1.45521,1.11935 2.50006,1.56718 1.0075,0.44801 1.97764,0.74604 2.91054,0.89507 0.97014,0.14901 1.9403,0.29804 2.91045,0.44801 1.64187,0.29803 3.02249,0.41075 4.14195,0.37349 1.08209,-0.0764 2.05224,-0.29804 2.83582,-0.67153 0.59704,0.52252 1.38063,1.04484 2.27616,1.49257 0.93328,0.44802 1.90304,0.82055 2.9479,1.0075 1.41786,0.26078 2.61193,0.18628 3.61942,-0.22352 1.30602,0.89505 2.79859,1.52981 4.51507,1.90293 1.56717,0.33625 2.94779,0.41076 4.21655,0.26079 1.26866,-0.18627 2.35077,-0.63428 3.20896,-1.38062 0.89506,-0.74605 1.52992,-1.75384 1.82844,-3.05984 0.448,-1.79109 0.448,-4.25381 -0.0764,-7.38816"
       id="path53238" />
    <path
       style="fill:#ffffff;fill-opacity:1;fill-rule:nonzero;stroke:none;stroke-width:9.55245"
       d="m 243.0455,386.87887 c 1.04484,1.04476 2.0896,2.0896 3.1718,3.13436 1.0074,-0.93328 2.05224,-1.82844 3.05974,-2.72399 -1.04485,-1.08209 -2.20156,-2.1642 -3.28366,-3.20895 -0.70879,0.63428 -1.49258,1.26866 -2.20155,1.90304 -1.08211,-1.0075 -2.0896,-2.015 -3.17171,-3.02249 -1.04485,0.89507 -2.05234,1.79108 -3.05974,2.72397 1.11936,1.04475 2.23881,2.12686 3.3209,3.20896 0.74606,-0.67153 1.41798,-1.34326 2.16422,-2.0149"
       id="path53240" />
  </g>
</svg>
