<svg height="325.726206" viewBox="0 0 61.666 64.987" width="307.006309" xmlns="http://www.w3.org/2000/svg" xmlns:xlink="http://www.w3.org/1999/xlink"><symbol id="a" overflow="visible"/><symbol id="b" overflow="visible"/><clipPath id="c"><path d="m211.62 456.83-83.531 43.508c.16016 1.6328.49219 3.0976 1 4.4258l.0469.15625c1.2852 3.5078 5.0274 8.1797 16.012 12.855 10.988 4.6758 27.586 7.9453 27.586 7.9453s16.625-3.2812 27.586-7.9492c10.984-4.6719 14.047-9.1602 15.328-12.668l.12891-.33984c1.5469-4.0352 1.5234-9.332-.34375-16.789-2.7812-11.129-6.4883-21.699-3.8125-31.145"/></clipPath><linearGradient id="d" gradientTransform="matrix(15.489 31.756 -31.756 15.489 174.04 488.44)" gradientUnits="userSpaceOnUse" x1="-1.3744" x2="1.4853"><stop offset="0" stop-color="#1e53a7"/><stop offset=".25" stop-color="#1e53a7"/><stop offset=".375" stop-color="#1e53a7"/><stop offset=".4375" stop-color="#1e53a7"/><stop offset=".46875" stop-color="#1e53a7"/><stop offset=".48438" stop-color="#1e53a7"/><stop offset=".48828" stop-color="#1e54a8"/><stop offset=".49219" stop-color="#1e54a8"/><stop offset=".49609" stop-color="#1e55a9"/><stop offset=".5" stop-color="#1d55a9"/><stop offset=".50391" stop-color="#1d56aa"/><stop offset=".50781" stop-color="#1d57ab"/><stop offset=".51172" stop-color="#1d57ab"/><stop offset=".51562" stop-color="#1d58ab"/><stop offset=".51953" stop-color="#1d58ac"/><stop offset=".52344" stop-color="#1c59ac"/><stop offset=".52734" stop-color="#1c59ac"/><stop offset=".53125" stop-color="#1c5aad"/><stop offset=".53516" stop-color="#1c5aae"/><stop offset=".53906" stop-color="#1c5bae"/><stop offset=".54297" stop-color="#1b5caf"/><stop offset=".54688" stop-color="#1b5caf"/><stop offset=".55078" stop-color="#1b5db0"/><stop offset=".55469" stop-color="#1b5db0"/><stop offset=".55859" stop-color="#1b5eb1"/><stop offset=".5625" stop-color="#1a5eb1"/><stop offset=".56641" stop-color="#1a5fb1"/><stop offset=".57031" stop-color="#1a5fb2"/><stop offset=".57422" stop-color="#1a60b2"/><stop offset=".57812" stop-color="#1a61b3"/><stop offset=".58203" stop-color="#1a61b4"/><stop offset=".58594" stop-color="#1962b4"/><stop offset=".58984" stop-color="#1963b4"/><stop offset=".59375" stop-color="#1963b5"/><stop offset=".59766" stop-color="#1964b5"/><stop offset=".60156" stop-color="#1964b6"/><stop offset=".60547" stop-color="#1865b6"/><stop offset=".60938" stop-color="#1866b7"/><stop offset=".61328" stop-color="#1866b7"/><stop offset=".61719" stop-color="#1867b8"/><stop offset=".62109" stop-color="#1867b8"/><stop offset=".625" stop-color="#1768b9"/><stop offset=".62891" stop-color="#1768b9"/><stop offset=".63281" stop-color="#1769ba"/><stop offset=".63672" stop-color="#1769ba"/><stop offset=".64062" stop-color="#176aba"/><stop offset=".64453" stop-color="#176bbb"/><stop offset=".64844" stop-color="#166cbc"/><stop offset=".65234" stop-color="#166cbc"/><stop offset=".65625" stop-color="#166dbd"/><stop offset=".66016" stop-color="#166dbd"/><stop offset=".66406" stop-color="#166ebe"/><stop offset=".66797" stop-color="#156ebe"/><stop offset=".67188" stop-color="#156fbe"/><stop offset=".67578" stop-color="#1570bf"/><stop offset=".67969" stop-color="#1570c0"/><stop offset=".68359" stop-color="#1571c0"/><stop offset=".6875" stop-color="#1571c1"/><stop offset=".69141" stop-color="#1472c1"/><stop offset=".69531" stop-color="#1473c2"/><stop offset=".69922" stop-color="#1473c2"/><stop offset=".70312" stop-color="#1473c2"/><stop offset=".70703" stop-color="#1474c3"/><stop offset=".71094" stop-color="#1375c3"/><stop offset=".71484" stop-color="#1375c4"/><stop offset=".71875" stop-color="#1376c5"/><stop offset=".72266" stop-color="#1377c5"/><stop offset=".72656" stop-color="#1377c5"/><stop offset=".73047" stop-color="#1278c6"/><stop offset=".73438" stop-color="#1278c6"/><stop offset=".73828" stop-color="#1279c7"/><stop offset=".74219" stop-color="#127ac7"/><stop offset=".74609" stop-color="#127ac8"/><stop offset=".75" stop-color="#117bc9"/><stop offset=".75391" stop-color="#117bc9"/><stop offset=".75781" stop-color="#117cc9"/><stop offset=".76172" stop-color="#117dca"/><stop offset=".76562" stop-color="#117dca"/><stop offset=".76953" stop-color="#107ecb"/><stop offset=".77344" stop-color="#107ecb"/><stop offset=".77734" stop-color="#107fcc"/><stop offset=".78125" stop-color="#1080cd"/><stop offset=".78516" stop-color="#1080cd"/><stop offset=".78906" stop-color="#0f81ce"/><stop offset=".79297" stop-color="#0f82ce"/><stop offset=".79688" stop-color="#0f82ce"/><stop offset=".80078" stop-color="#0f83cf"/><stop offset=".80469" stop-color="#0f83cf"/><stop offset=".80859" stop-color="#0e84d0"/><stop offset=".8125" stop-color="#0e85d1"/><stop offset=".81641" stop-color="#0e85d1"/><stop offset=".82031" stop-color="#0e86d1"/><stop offset=".82422" stop-color="#0e86d2"/><stop offset=".82812" stop-color="#0d87d2"/><stop offset=".84375" stop-color="#0d87d2"/><stop offset=".875" stop-color="#0d87d2"/><stop offset="1" stop-color="#0d87d2"/></linearGradient><clipPath id="e"><path d="m126 427h93v72h-93z"/></clipPath><clipPath id="f"><path d="m127.99 498.51c-.0469-2.9531.41797-6.4102 1.4492-10.535 3.8867-15.551 9.5898-30.012-2.8516-41.832l4.2891-10.539s1.2578.0977 3.4766.0977c6.707 0 22.18-.88672 38.078-8.0156 15.898 7.1289 31.383 8.0156 38.09 8.0156 2.2188 0 3.4766-.0977 3.4766-.0977l4.293 10.539c-2.8164 2.668-4.6992 5.4766-5.8867 8.3984l-84.414 43.969m25.859-45.531c-6.9062 0-12.512 5.5977-12.512 12.512 0 6.9062 5.6055 12.512 12.512 12.512 6.9102 0 12.512-5.6055 12.512-12.512 0-6.9141-5.6016-12.512-12.512-12.512"/></clipPath><linearGradient id="g" gradientTransform="matrix(-17.572 -36.028 36.028 -17.572 173.1 471.37)" gradientUnits="userSpaceOnUse" x1="-1.1027" x2="1.4882"><stop offset="0" stop-color="#ec1b24"/><stop offset=".25" stop-color="#ec1b24"/><stop offset=".375" stop-color="#ec1b24"/><stop offset=".40625" stop-color="#ec1b24"/><stop offset=".42188" stop-color="#ec1b24"/><stop offset=".42969" stop-color="#ed1c24"/><stop offset=".43359" stop-color="#ed1c24"/><stop offset=".4375" stop-color="#ed1d24"/><stop offset=".44531" stop-color="#ed1d24"/><stop offset=".44922" stop-color="#ed1e24"/><stop offset=".45312" stop-color="#ed1e24"/><stop offset=".45703" stop-color="#ed1f25"/><stop offset=".46094" stop-color="#ed1f25"/><stop offset=".46484" stop-color="#ed1f25"/><stop offset=".46875" stop-color="#ed2025"/><stop offset=".47656" stop-color="#ed2025"/><stop offset=".48047" stop-color="#ed2125"/><stop offset=".48438" stop-color="#ed2126"/><stop offset=".48828" stop-color="#ed2226"/><stop offset=".49219" stop-color="#ed2226"/><stop offset=".49609" stop-color="#ed2226"/><stop offset=".5" stop-color="#ed2326"/><stop offset=".50781" stop-color="#ed2327"/><stop offset=".51562" stop-color="#ed2427"/><stop offset=".51953" stop-color="#ed2527"/><stop offset=".52344" stop-color="#ed2527"/><stop offset=".52734" stop-color="#ed2628"/><stop offset=".53125" stop-color="#ed2628"/><stop offset=".53906" stop-color="#ed2628"/><stop offset=".54688" stop-color="#ee2728"/><stop offset=".55078" stop-color="#ee2829"/><stop offset=".55469" stop-color="#ee2829"/><stop offset=".55859" stop-color="#ee2929"/><stop offset=".5625" stop-color="#ee2929"/><stop offset=".57031" stop-color="#ee2929"/><stop offset=".57812" stop-color="#ee2a2a"/><stop offset=".58203" stop-color="#ee2b2a"/><stop offset=".58594" stop-color="#ee2b2a"/><stop offset=".58984" stop-color="#ee2c2a"/><stop offset=".59375" stop-color="#ee2c2b"/><stop offset=".60156" stop-color="#ee2c2b"/><stop offset=".60938" stop-color="#ee2d2b"/><stop offset=".61328" stop-color="#ee2e2b"/><stop offset=".61719" stop-color="#ee2e2c"/><stop offset=".62109" stop-color="#ee2f2c"/><stop offset=".625" stop-color="#ee2f2c"/><stop offset=".62891" stop-color="#ee302c"/><stop offset=".63281" stop-color="#ee302d"/><stop offset=".64062" stop-color="#ee302d"/><stop offset=".64453" stop-color="#ee312d"/><stop offset=".64844" stop-color="#ee312d"/><stop offset=".65234" stop-color="#ef322e"/><stop offset=".65625" stop-color="#ef322e"/><stop offset=".66016" stop-color="#ef332e"/><stop offset=".66406" stop-color="#ef332e"/><stop offset=".67188" stop-color="#ef342e"/><stop offset=".67578" stop-color="#ef342f"/><stop offset=".67969" stop-color="#ef352f"/><stop offset=".68359" stop-color="#ef352f"/><stop offset=".6875" stop-color="#ef3630"/><stop offset=".69141" stop-color="#ef3630"/><stop offset=".69531" stop-color="#ef3730"/><stop offset=".70312" stop-color="#ef3730"/><stop offset=".70703" stop-color="#ef3731"/><stop offset=".71094" stop-color="#ef3831"/><stop offset=".71484" stop-color="#ef3831"/><stop offset=".71875" stop-color="#ef3931"/><stop offset=".72266" stop-color="#ef3932"/><stop offset=".72656" stop-color="#ef3a32"/><stop offset=".73438" stop-color="#ef3a32"/><stop offset=".73828" stop-color="#ef3a32"/><stop offset=".74219" stop-color="#ef3b33"/><stop offset=".74609" stop-color="#ef3b33"/><stop offset=".75" stop-color="#ef3c33"/><stop offset=".75391" stop-color="#ef3c34"/><stop offset=".75781" stop-color="#ef3d34"/><stop offset=".76562" stop-color="#f03d34"/><stop offset=".77344" stop-color="#f03e34"/><stop offset=".77734" stop-color="#f03f35"/><stop offset=".78125" stop-color="#f03f35"/><stop offset=".78516" stop-color="#f04035"/><stop offset=".78906" stop-color="#f04036"/><stop offset=".79688" stop-color="#f04036"/><stop offset=".80469" stop-color="#f04136"/><stop offset=".80859" stop-color="#f04237"/><stop offset=".8125" stop-color="#f04237"/><stop offset=".875" stop-color="#f04237"/><stop offset="1" stop-color="#f04237"/></linearGradient><g stroke-width="4.5804" transform="matrix(.21832 0 0 .21832 -.55661 -.16909)"><path d="m144.08 296.25-1.7835-.35669c-1.9132-.37833-47.258-9.4041-78.151-22.548-27.402-11.663-43.551-25.034-49.366-40.892l-.21612-.681c-4.9723-13.285-4.7237-29.693.75666-51.614 1.1674-4.6696 2.3997-9.3176 3.5887-13.814 9.6094-36.319 17.889-67.601-8.8744-93.025l-4.5724-4.3345 16.787-41.216 6.7126.50803c.12978.01107 3.4049.24849 8.9069.24849 16.214 0 58.586-2.0862 101.6-21.381l3.7724-1.6862 3.7724 1.6862c43.01 19.295 85.393 21.381 101.63 21.381 5.6749 0 8.896-.24849 8.9285-.24849l6.7018-.49724 16.776 41.205-4.5615 4.3345c-26.764 25.423-18.484 56.706-8.9069 92.938l.0324.11899c1.189 4.4967 2.4213 9.1338 3.5778 13.782 5.5344 22.116 5.7397 38.643.62696 51.982l-.33511.89717c-4.0643 11.08-13.133 25.694-47.453 40.297-30.817 13.112-76.238 22.181-78.151 22.559l-1.7944.35669" fill="#fff"/><path d="m17.299 231.29.07554.21612c5.5344 15.09 21.197 27.953 47.853 39.292 30.634 13.047 75.708 22.008 77.611 22.386l1.2431.24849 1.2539-.24849c1.9132-.37833 47.042-9.3933 77.611-22.397 33.336-14.182 42.059-28.137 45.94-38.708l.3459-.908c4.8858-12.809 4.6588-28.796-.72422-50.339-1.1566-4.6264-2.378-9.2636-3.5671-13.739l-.0324-.12978c-9.8148-37.076-18.279-69.093 9.6635-95.651l3.1996-3.0266-15.306-37.595-4.6912.3459c-.0221 0-3.3509.24877-9.1339.25928-16.409 0-59.267-2.1186-102.76-21.619l-2.6375-1.189-2.6483 1.189c-43.486 19.5-86.323 21.619-102.72 21.619-5.5127 0-8.7663-.22691-9.1122-.25928l-4.7129-.35669-15.306 37.606 3.1996 3.0266c27.953 26.558 19.478 58.576 9.6635 95.651-1.2106 4.5723-2.4321 9.2203-3.5995 13.868-5.3398 21.381-5.61 37.281-.83231 50.015zm126.78 64.964-1.7835-.35669c-1.9132-.37833-47.247-9.4041-78.151-22.548-27.402-11.663-43.551-25.034-49.366-40.892l-.21612-.6918c-4.9723-13.274-4.7237-29.682.75666-51.604 1.1674-4.6696 2.3997-9.3176 3.5887-13.814 9.6094-36.319 17.889-67.601-8.8744-93.025l-4.5724-4.3345 16.787-41.216 6.7126.50803c.12978.01107 3.4049.2377 8.9069.2377 16.214 0 58.586-2.0754 101.6-21.37l3.7724-1.6862 3.7724 1.6862c43.01 19.295 85.393 21.37 101.63 21.37 5.6749 0 8.896-.2377 8.9285-.2377l6.7018-.49724 16.776 41.205-4.5615 4.3345c-26.764 25.423-18.484 56.706-8.9069 92.928l.0324.12978c1.1998 4.4967 2.4213 9.1339 3.5778 13.782 5.5344 22.116 5.7397 38.643.62696 51.982l-.33511.88638c-4.0643 11.09-13.133 25.705-47.453 40.308-30.817 13.112-76.238 22.181-78.151 22.559l-1.7944.35669" fill="#7a7878"/><g clip-path="url(#c)" stroke-width="1.6552" transform="matrix(2.7672 0 0 2.7672 -333.92 -1168.3)"><path d="m200.18 421.67-99.23 48.402 44.293 90.809 99.23-48.398z" fill="url(#d)"/></g><g clip-path="url(#e)" stroke-width="1.6552" transform="matrix(2.7672 0 0 2.7672 -333.92 -1168.3)"><g clip-path="url(#f)" stroke-width="1.6552"><path d="m144.21 534.64 101.98-49.742-45.527-93.344-101.98 49.738z" fill="url(#g)"/></g></g><path d="m126.44 119.83c0 19.111-15.501 34.622-34.622 34.622-19.122 0-34.622-15.511-34.622-34.622 0-19.132 15.501-34.622 34.622-34.622 19.122 0 34.622 15.49 34.622 34.622" fill="#fff"/><path d="m91.602 151.24c-6.4856 0-14.03-2.1186-21.532-8.9176l1.5457-.76748s6.3883 3.1023 14.776 3.1023c6.7774 0 14.852-2.0213 21.932-9.3392 15.846-16.409 10.928-24.775 9.6527-32.795 0 0 16.03 22.224-7.653 42.805 0 0-7.9016 5.9127-18.722 5.9127" fill="#bababa"/><g fill="#211e1e"><path d="m61.336 126.74 4.9074 4.648 6.8315 11.652-1.1782.91879s-8.3772-6.745-10.561-17.219"/><path d="m84.284 145.96 4.8209-7.4692 13.663-.27007 2.7348 7.3828s-4.1075 2.6267-11.198 4.5507c0 0-6.8315-1.5565-10.02-4.194"/><path d="m70.157 124.11 12.658 3.3725 7.199-12.117-7.8259-11.015-12.214 5.4587.18374 14.301"/><path d="m103.49 114.82 6.6477 12.193 9.1122-3.6319s.55128-9.1987-.36751-12.939l-9.1014-5.7397-6.291 10.118"/><path d="m82.36 89.862s10.755-4.0967 21.132.81067l-1.5457 4.2913s-9.75-.908-13.933-.0974l-5.6533-5.0047"/><path d="m61.596 111.35s1.8268-8.1934 8.561-14.301l-4.5507 9.1987-4.0103 5.102"/></g><g fill="#fff"><path d="m113.7 248.69c-1.5133 0-2.7672-1.2214-2.7672-2.8212-.0221-1.5782 1.2539-2.7996 2.7888-2.7996 1.5458 0 2.7888 1.1998 2.7888 2.7996 0 1.589-1.2215 2.8212-2.7888 2.8212h-.0221"/><path d="m125.88 241.33h-.0324l-2.5402 1.1458-.57289-2.6699 3.686-1.6214h2.9077v12.852h-3.4482v-9.7067"/><path d="m138.01 240.54c-.78909 0-1.4268.72423-1.4052 1.8484 0 .90797.45399 1.7835 1.5457 1.7835.67018 0 1.1026-.29185 1.3079-.61614.0974-.19453.12978-.41073.12978-.81067.0221-1.0053-.36751-2.2051-1.5565-2.2051zm-3.74 7.9232c.39994.0432.67016.0432 1.2647.0221.89717-.0221 1.8051-.21612 2.4753-.5945.83232-.4756 1.362-1.1998 1.5782-1.9349l-.0324-.0221c-.51885.4756-1.2863.73502-2.3997.73502-2.1186 0-4.0859-1.4052-4.0859-4.0319 0-2.5834 2.1078-4.6696 5.0371-4.6696 3.5995 0 5.1236 2.7024 5.1236 5.5668 0 2.6375-.78909 4.5724-2.2592 5.8803-1.3187 1.189-3.1563 1.7835-5.4371 1.816-.45401.0221-.95121-.0111-1.2647-.0324v-2.7348"/><path d="m144.7 251.04v-2.151l1.7727-1.5674c2.6158-2.2592 3.9346-3.5995 3.9562-4.9074 0-.9296-.61614-1.5998-1.9132-1.5998-1.0701 0-2.043.54046-2.7564 1.0485l-.96204-2.551c.98365-.73505 2.605-1.3512 4.4318-1.3512 2.9834 0 4.7561 1.6322 4.7561 4.1616 0 2.0538-1.4593 3.7184-2.9834 4.9615l-1.2647.99447v.0324h4.4642v2.9293h-9.5014"/><path d="m164.99 241.11h-5.0155l-.18374 1.3944.72422-.0324c1.3296 0 2.7131.30268 3.6644 1.0161.95122.71341 1.4376 1.7619 1.4376 3.2104 0 2.3456-2.0646 4.5615-5.8262 4.5615-1.6214 0-2.9834-.33508-3.74-.71341l.5945-2.6591c.57289.27035 1.7944.60532 2.9401.60532 1.0917 0 2.3781-.39994 2.3781-1.6106 0-1.1566-1.0269-1.816-3.5779-1.816-.6918 0-1.1674.0432-1.7187.11899l.85392-6.9936h7.4692v2.9185"/><path d="m174 248.69c-1.5133 0-2.7672-1.2214-2.7672-2.8212-.0221-1.5782 1.2539-2.7996 2.7888-2.7996 1.5458 0 2.7996 1.1998 2.7996 2.7996 0 1.589-1.2322 2.8212-2.7996 2.8212h-.0221"/><path d="m57.942 229.58c-5.2533 0-6.6261-2.778-6.6261-6.2478v-10.431h4.4967v10.215c0 1.7403.52967 2.6807 2.3997 2.6807 1.816 0 2.3889-.76748 2.3889-2.7996v-10.096h4.4642v9.8473c0 4.7561-2.7455 6.8315-7.1233 6.8315"/><path d="m77.42 229.25-2.7347-5.5992c-.63775-1.2755-1.2106-2.5834-1.6322-3.6751.1082.97283.12978 1.5241.12978 2.5942v6.6801h-4.3345v-16.344h5.7614l2.3672 4.8642c.70262 1.4485 1.4376 2.9293 1.9889 4.2372-.11899-1.1134-.17295-2.3672-.17295-3.3833v-5.7181h4.3345v16.344h-5.7073"/><path d="m94.088 216.77v12.474h-4.5075v-12.474h-3.5347v-3.8697h11.577v3.8697h-3.5347"/><path d="m100.53 229.25v-16.344h9.5662v3.8265h-5.0587v2.3024h4.7885v3.6752h-4.7885v2.6375h5.0587v3.9022h-9.5662"/><path d="m118.97 216.49-.85393.0432v3.513l.75666.0432c1.2323 0 2.0754-.64857 2.0754-1.8592 0-.97283-.50806-1.7403-1.9781-1.7403zm2.3888 12.755-3.0698-5.9559h-.17295v5.9559h-4.4967v-16.344c1.5241-.0974 3.5346-.11899 5.5884-.11899 4.1616 0 6.4856 1.4701 6.4856 5.1128 0 1.9349-1.0809 3.794-2.9726 4.475.43237.64857.82152 1.2539 1.189 1.8808l2.9293 4.9939h-5.4803"/><path d="m138.67 229.25v-6.4424h-4.8966v6.4424h-4.4967v-16.344h4.4967v5.9559h4.8966v-5.9559h4.4967v16.344z"/><path d="m154.05 220.99c-.29186-.95122-.58368-1.816-.75663-2.832h-.0432c-.14057.9404-.4648 2.0321-.79988 3.1023l-.5621 1.7835h2.8104zm2.6375 8.2583-.84313-2.6591h-5.0371l-.82152 2.6591h-4.4534l5.3182-16.344h5.156l5.5992 16.344h-4.9182"/><path d="m171.18 229.46c-6.4207 0-7.7503-4.4318-7.7503-7.7178 0-5.4587 3.0698-8.9717 8.4204-8.9717 1.0701 0 2.2051.15137 3.1455.38915l-.50805 4.0751c-.76745-.22691-1.7187-.36754-2.6375-.36754-2.1186 0-3.459 1.4809-3.459 4.1183 0 2.832 1.0917 4.3562 3.6319 4.3562.70259 0 1.7835-.17295 2.4645-.45398l.54045 4.0102c-1.135.36751-2.5402.56207-3.8481.56207"/><path d="m187.89 229.25v-6.4424h-4.8858v6.4424h-4.5075v-16.344h4.5075v5.9559h4.8858v-5.9559h4.4967v16.344z"/><path d="m196.18 229.25h4.4967v-16.344h-4.4967z"/><path d="m213.04 229.25-2.7456-5.5992c-.62693-1.2755-1.2106-2.5834-1.6106-3.6751.0863.97283.11899 1.5241.11899 2.5942v6.6801h-4.3454v-16.344h5.7722l2.3672 4.8642c.70262 1.4485 1.4268 2.9293 1.9781 4.2372-.10819-1.1134-.16215-2.3672-.16215-3.3833v-5.7181h4.3345v16.344h-5.7073"/><path d="m235.76 217.5c-1.2647-.48644-2.7131-.79991-4.3237-.79991-2.9834 0-4.5291 1.87-4.5291 4.5075 0 2.5402 1.2106 4.2156 3.9886 4.2156l.91881-.11899v-4.9615h4.5075v8.0529c-1.5782.70259-3.6535 1.1458-5.8803 1.1458-5.5019 0-8.4312-3.1239-8.4312-8.0205 0-5.2966 3.686-8.8852 9.6311-8.8852 1.7078 0 3.4698.31347 4.7993.72423l-.68098 4.14"/><path d="m47.479 70.524c-1.0053 0-2.043-.08634-3.0266-.30265l.21612-3.6968c.8107.28104 2.0321.51885 3.1347.51885.98365 0 1.6106-.41076 1.6106-1.0917 0-2.1186-5.4803-.86474-5.4803-5.8911 0-2.9077 2.2375-4.7777 6.1073-4.7777.74584 0 1.7619.08634 2.6807.2377l-.22691 3.5022c-.8431-.2377-1.7078-.38912-2.605-.38912-1.135 0-1.6106.45398-1.6106 1.0161 0 1.8484 5.4803 1.135 5.4803 5.7181 0 2.9401-2.3672 5.156-6.2802 5.156"/><path d="m61.098 58.742-.38915.02214v3.5887l.30267.02214c1.0377 0 1.9781-.65936 1.9781-1.87 0-.96204-.50803-1.7619-1.8916-1.7619zm.21612 6.9936-.60532-.01107v4.5183h-4.0535v-14.679c1.3512-.06475 2.832-.1082 4.4426-.1082 3.9022 0 6.064 1.6754 6.064 4.9074 0 2.8537-1.9133 5.3722-5.8479 5.3722"/><path d="m69.757 70.243h4.0427v-14.679h-4.0427z"/><path d="m77.194 70.243v-14.679h8.5934v3.4374h-4.5507v2.0646h4.3021v3.3076h-4.3021v2.3672h4.5507v3.5022z"/><path d="m88.943 70.243v-14.679h4.0427v11.069h4.0427v3.6103h-8.0853"/><path d="m108.01 70.243h-4.7561l-4.8317-14.679h4.3562l2.2267 7.3503c.24849.77827.50803 1.6106.72423 2.6159h.0432c.17295-.92961.28104-1.4917.6918-2.832l2.1835-7.1342h4.1292l-4.7669 14.679"/><path d="m114.96 70.243v-14.679h8.5826v3.4374h-4.5399v2.0646h4.3021v3.3076h-4.3021v2.3672h4.5399v3.5022z"/><path d="m131.51 58.785-.75666.04317v3.1563l.67018.04317c1.1026 0 1.87-.5945 1.87-1.6754 0-.87554-.45399-1.5673-1.7835-1.5673zm2.1511 11.458-2.7564-5.3506h-.15136v5.3506h-4.0427v-14.679c1.362-.08634 3.1671-.1082 5.0155-.1082 3.74 0 5.8262 1.3295 5.8262 4.5831 0 1.7403-.97285 3.4158-2.6807 4.0319.39994.58371.74583 1.1242 1.0701 1.6863l2.6375 4.4858h-4.9182"/><path d="m140.75 70.243v-14.679h8.5934v3.4374h-4.5399v2.0646h4.3021v3.3076h-4.3021v2.3672h4.5399v3.5022z"/><path d="m152.5 70.243h4.0427v-14.679h-4.0427z"/><path d="m167.63 70.243-2.4537-5.0155c-.56207-1.1566-1.0809-2.3348-1.4484-3.3076.0755.86474.0974 1.362.0974 2.324v5.9992h-3.8805v-14.679h5.1668l2.1294 4.367c.63775 1.3079 1.2863 2.6375 1.7836 3.8049-.1082-.99447-.15137-2.1186-.15137-3.0374v-5.1344h3.8914v14.679h-5.1345"/><path d="m176.17 70.243h4.0427v-14.679h-4.0427z"/><path d="m195.48 59.704c-1.135-.44319-2.4321-.72423-3.8914-.72423-2.6807 0-4.0643 1.6754-4.0643 4.0427 0 2.2808 1.0809 3.7832 3.5887 3.7832l.82152-.1082v-4.4534h4.0427v7.2314c-1.416.63775-3.286 1.0269-5.2749 1.0269-4.9399 0-7.5665-2.8104-7.5665-7.199 0-4.7561 3.2968-7.9773 8.6474-7.9773 1.5241 0 3.1131.28104 4.3021.64854l-.60532 3.7292"/><path d="m205.32 70.546c-4.7129 0-5.9667-2.497-5.9667-5.61v-9.3717h4.0535v9.1771c0 1.5674.47563 2.4105 2.151 2.4105 1.6322 0 2.1511-.6918 2.1511-2.5185v-9.069h3.9994v8.8528c0 4.2589-2.4537 6.1289-6.3883 6.1289"/><path d="m222.81 70.243-2.4537-5.0155c-.57289-1.1566-1.0917-2.3348-1.4592-3.3076.0863.86474.10819 1.362.10819 2.324v5.9992h-3.8913v-14.679h5.1668l2.1402 4.367c.62696 1.3079 1.2863 2.6375 1.7727 3.8049-.1082-.99447-.15137-2.1186-.15137-3.0374v-5.1344h3.9022v14.679h-5.1344"/><path d="m243.2 59.704c-1.135-.44319-2.4321-.72423-3.8913-.72423-2.6699 0-4.0643 1.6754-4.0643 4.0427 0 2.2808 1.0917 3.7832 3.5887 3.7832l.82149-.1082v-4.4534h4.0427v7.2314c-1.4052.63775-3.2752 1.0269-5.2749 1.0269-4.9399 0-7.5773-2.8104-7.5773-7.199 0-4.7561 3.3076-7.9773 8.6583-7.9773 1.5241 0 3.1131.28104 4.3129.64854l-.61614 3.7292"/><path d="m139.67 195.14c-2.8645.60532-5.6317-.96204-6.1829-3.5022-.18374-.86475-.0863-1.7511.2485-2.551-.91879-.96204-1.2971-2.1727-1.362-2.9942-.22691-1.6863.77827-3.4266 3.059-5.329.91879-.77827 1.7511-1.3187 1.7835-1.3404l.0755-.054 35.033-18.257 1.0809 1.135.43237.43237c.054-3.3401 2.7888-5.2641 4.8534-5.7722l.0755-.0221c2.4213-.50802 4.0859.12978 5.0804.79988.99447-1.4701 2.5834-2.3672 3.9022-2.7023l.0648-.0111c2.4321-.51885 4.0967.11899 5.0912.78906.98365-1.4701 2.5726-2.3672 3.8914-2.6915l.0648-.0221c2.4321-.50802 4.0967.12978 5.0912.79991.99447-1.4701 2.5726-2.3672 3.8914-2.7023l.0755-.0111c2.5294-.52967 4.2156.18374 5.1993.86474.51884.37833.95122.8107 1.2863 1.2539l3.5454 1.1242-.32428 1.7835c-.42156 2.4321-.2485 3.513-.15137 3.9022l5.6857 2.3456.0324.0221c3.3185 1.5133 4.2589 3.8697 4.3562 4.14.32425.84313.44316 1.6646.34589 2.4321.84311.64855 1.4376 1.5457 1.6538 2.5942.29185 1.3187-.0648 2.7023-.98365 3.8049-.78906.96201-1.9348 1.6322-3.2212 1.9132l-83.675 17.825"/></g><g fill="#211e1e"><path d="m182 179.62-1.0377.22691-.20532-.92961 1.0485-.22691c.45401-.1082.71344.0432.77827.30265v.0221c.0648.27007-.14057.50802-.58368.60532zm-1.7187-2.8645.90799-.19453c.44317-.0974.6918.0111.75663.28104l.0111.0221c.054.28104-.11899.46481-.57289.57289l-.90799.19453zm2.8104.85393c.62693-.36751.97283-.91879.8107-1.6646v-.0221c-.0974-.42158-.32428-.7134-.60532-.88635-.44319-.28106-1.0269-.36754-1.8916-.17295l-3.4914.75663 1.3404 6.237 3.4698-.74584c1.5782-.33511 2.2376-1.2539 2.0214-2.2483v-.0221c-.18374-.85396-.79988-1.1674-1.6538-1.2323"/><path d="m188.53 178.04c-.6918.14057-1.2863-.32426-1.4701-1.135v-.0221c-.16215-.74584.16216-1.4701.87557-1.6106.57289-.12978.96201.1082 1.2971.50806l1.5025-1.3728c-.73505-.84311-1.8052-1.3187-3.1779-1.0161-1.87.39994-3.0266 2.1078-2.6158 3.967v.0221c.42156 1.9349 2.2051 2.9077 3.9346 2.5402 1.5565-.33508 2.2699-1.2863 2.5942-2.3348l-1.9349-.5945c-.15137.52964-.41076.91879-1.0053 1.0485"/><path d="m197.16 171.45-2.1186.46481.74584 3.4698c.16215.74584-.16216 1.135-.73502 1.2647-.5621.11899-1.0377-.12978-1.2106-.908l-.73505-3.4157-2.1186.4648.74584 3.4373c.44319 2.0754 1.8376 2.6699 3.7076 2.27 1.8592-.39997 2.9185-1.5133 2.4537-3.6427l-.73502-3.4049"/><path d="m222.72 173.74c-.37833.45398-.9404.77827-1.589.91879l-19.165 4.0751 3.459-4.5291 14.938-3.1887c1.3079-.27035 2.5402.31347 2.7564 1.3187.0974.4648-.0432.96204-.39994 1.4052zm-21.813 5.2209-60.792 12.95h-.0111c-1.3079.28104-2.5402-.30264-2.7564-1.3079-.21612-.99446.68098-2.043 1.9889-2.324l37.627-8.0205-.0324-.16215.0324-.0111-.9404-4.421c-.16215-.72423.30265-1.4376 1.0269-1.5782l20.051-4.2589c.71341-.15137 1.4268.31346 1.589 1.0377l.81068 3.8806-.0221.0111.15136.68101 4.7345-1.0053zm-29.196-13.944c2.1186 2.1078 4.4642 3.3401 6.7126 4.0535l.74584.22691c1.4917.41073 2.9077.58368 4.1832.64855 1.0161.0432 1.924.0111 2.6915-.0648.48642-.0324.89718-.0863 1.2431-.14057l.79988-.14057.25928-.054 6.464-1.5241 1.1458-.27035 7.5773-1.7835 1.0917-.2485 4.0643-.96204.72423-.34589c.63772-.43237 1.1566-1.1782 1.5457-2.0538l.34589-.89714.0863-.24877c.11899.54045.32429.97283.5945 1.2971.35672.44319.74584.58371.97286.62693l2.3672.98365-73.546 16.495zm7.1233 1.6754-.0432.0221-.30268.0974-.2269-.18375-.0863-.39994-.14057-.15136-.0324-.11899.0324-.15136-.12978-.59453-.3459-.0755-.0111-.45398 1.924-.39994.0863-.0111.25929.19453.30267 1.4052.0221.12978.0221.054zm-1.5565-2.7348-.0432-.74583c.054-2.324 2.4753-2.9726 2.5834-2.9942.37833-.0863.74584-.14057 1.0701-.14057 2.7347 0 3.1347 2.7348 3.1563 2.8753.21612 1.0053.1082 1.816-.30267 2.3888l-.5945.54046c-.38915.2377-.75666.32428-.85395.3351l-.054.0111-.55128.11899-.31347-.0221-.18374-.0863-.31346-.41076-.0221-.1082-.0221-.16216-.27035-1.243c-.0974-.46481-.42155-.74587-.87554-.78909l-.12978-.0221-.24849.0221zm2.4321 3.1671.84313-.39994c.21612.22691.52964.41076.95122.41076l.33508-.0432.51885-.1082c.0221 0 .47562-.054.99446-.32429l.41074.12978c.50805.44317 1.1026 1.2431 1.2971 2.1402l.0648.30268c-1.5565.0755-3.5671-.0324-5.7289-.60532l.36751-.86475.054-.11898zm5.1236-3.9778.71344-.15136.0111.28106-.0648.5945.51885.11899-.0221.11899.1082.50803.12978.12978.0432.20532c.0755.25929.38915.76748.98365.76748l.49723-.14057.0221.0971c-.83231 1.7619-.89718 2.8104-.78906 3.3941-.30268.0432-.67019.0863-1.081.11899l-.0974-.42155c-.28106-1.3403-1.2323-2.2916-1.5241-2.551l-.18374-.1082.27036-.31346c.49723-.6918.63775-1.5998.4648-2.6483zm3.74-4.7993c.38912-.0758.75663-.11899 1.0917-.11899 2.7239 0 3.1239 2.7239 3.1455 2.8644.20533 1.0161.1082 1.816-.30267 2.3888l-.60532.54048c-.38912.2377-.74584.32426-.85393.33508l-.054.0111-.55127.11899-.29186-.0221-.19453-.0863-.31349-.42156-.0111-.0974-.0432-.16216-.25929-1.2431c-.0974-.4648-.43237-.74584-.88635-.78909l-.11899-.0221-.25928.0221-2.0214.43237-.0432-.75663c.054-2.3132 2.4645-2.9726 2.5726-2.9942zm-1.9024 5.0047-.35671-.0756v-.45401l1.924-.39994.0863-.0111.24849.19453.30265 1.3944.0221.14058.0221.054-1.3188.63775-.0432.0221-.30267.0971-.2377-.18374-.0756-.39994-.15136-.14057-.0221-.12978.0221-.14057zm1.8051 1.9133.84314-.39997c.21611.22691.52964.39997.95122.39997l.34589-.0221.50803-.11899c.0221 0 .47562-.0648.99447-.33507l.42155.14057c.49724.44319 1.0917 1.2539 1.2863 2.1402l.0863.43237-5.7289 1.3512-.2377.054-.19453.0324c-.0755-.38912-.0863-1.2971.76745-3.0374l.0648-.11899zm5.1344-3.9778.70258-.16216.0111.29186-.0755.5945.52964.10819-.0221.12978.0974.50806.14058.14057.0432.19453c.0756.25929.37833.76745.98365.76745l.49724-.14057.0221.1082c-.77827 1.6322-.87554 2.6375-.79989 3.2536l-1.0809.24849-.0863-.42155c-.28103-1.3404-1.2322-2.2916-1.5241-2.551l-.18374-.10819.25928-.31347c.50803-.6918.64854-1.589.48642-2.6483zm3.7292-4.7993c.37832-.0755.74586-.11899 1.0809-.11899 2.7348 0 3.1347 2.7131 3.1563 2.8645.20533 1.0161.1082 1.816-.30265 2.378l-.5945.55128c-.39997.2377-.76747.31347-.86474.33511l-.054.0111-.55125.11899-.29186-.0221-.19453-.0863-.31346-.41076-.054-.27035-.25929-1.243c-.0974-.4648-.43237-.74586-.88635-.78909l-.11899-.0221-.25929.0221-2.0321.43237-.0324-.75665c.0432-2.3132 2.4645-2.9617 2.5726-2.9942zm-1.9024 5.0047-.3459-.0863-.0111-.44316 1.924-.39994.0863-.0111.25928.20533.29186 1.3836.0221.12978.0221.0648-1.3187.63775-.0432.0221-.30268.0974-.2377-.18374-.0863-.39994-.12978-.14057-.0324-.12978.0221-.14057zm1.7944 1.9133.84313-.39994c.2377.2269.52967.41076.96204.41076l.3459-.0432.50802-.1082c.0221 0 .4756-.0648.99445-.32428l.42158.12978c.2377.21611 1.0485 1.0269 1.2863 2.1402l.0432.2377-6.1397 1.4484c-.0324-.4648.0432-1.3296.78906-2.8536l.0648-.12979zm5.1344-3.9886.71341-.15136v.29185l-.0648.58369.52964.12978-.0221.12978.0974.49723.15137.12978.0324.19454c.0755.27007.36751.77826.97283.77826l.50806-.14057.0221.1082c-.69179 1.4592-.85392 2.4213-.82149 3.0482l-1.0918.25929-.054-.22691c-.28104-1.3296-1.2323-2.2916-1.5241-2.551l-.19453-.1082.27035-.31346c.49721-.6918.64854-1.5998.47559-2.6591zm3.74-4.7777c.38915-.0863.74584-.12978 1.0809-.12978 2.7348 0 3.1239 2.7239 3.1455 2.8644.21612 1.0161.11899 1.816-.29185 2.3888l-.60532.52967c-.38915.24849-.75666.32428-.85395.34589l-.054.0111-.55128.11899-.29183-.0221-.19453-.0971-.31347-.39994-.0221-.0974-.0324-.17295-.25929-1.2431c-.0974-.46481-.43237-.74584-.88635-.78909l-.12978-.0221-.2377.0221-2.0322.43237-.0432-.75663c.054-2.3132 2.4645-2.9618 2.5726-2.9834zm-1.9132 4.9939-.3459-.0755-.0111-.44319 1.924-.42155h.0863l.25928.19453.30268 1.3944.0221.12978.0221.0648-1.3295.63776-.0324.0221-.31349.0863-.22691-.18374-.0863-.39994-.14057-.12978-.0221-.12978.0221-.14058zm6.2802 2.0105c-.45398 1.1998-1.0809 2.2051-1.9565 2.4213l-3.2644.76748c0-.49724.15136-1.3296.79988-2.6483l.0648-.11899-.1082-.51885.83232-.39997c.2269.22691.54045.41076.96201.41076l.3351-.0432.50803-.10819c.0324 0 .48641-.0648 1.0053-.32426l.41076.11899zm13.349 10.539c-.22691-1.0269-1.1782-1.7511-2.3564-1.9024.52967-.45401 1.0269-1.2863.48644-2.6915 0 0-.63775-1.7079-3.1779-2.8753l-1.0593-.44319-.0974.0221-4.4642-1.8376s-1.9781-.054-.92961-5.9235l-.64854-.20532s-.18375 2.3564-.82153 4.4858l-.16215-.17295-.20533-.1082.27036-.31347c.54048-.75665.69179-1.7727.43237-2.9726 0-.0324-.49721-3.5022-3.9021-3.5022-.38915 0-.8107.054-1.2431.14057-.054.0221-3.8373.98365-3.1131 4.6696l-.054.11899-.42158.65936-.0221-.21612c-.0111-.0432-.49723-3.5022-3.913-3.5022-.38915 0-.79988.0432-1.2431.12978-.0432.0111-3.8265.97283-3.1131 4.6696l-.054.1082-.42155.65936-.0324-.21611c0-.0324-.48641-3.5022-3.8913-3.5022-.38915 0-.81071.0432-1.2539.14057-.0432.0111-3.8265.97286-3.1131 4.6696l-.054.11899-.42156.65936-.0324-.22691c0-.0324-.48642-3.5022-3.9022-3.5022-.38912 0-.79988.0432-1.2431.14057-.0432.0111-3.8265.97283-3.1131 4.6696l-.0432.1082-.51885.77827.81071-.17295.0111.29186-.0648.58371.51885.12978-.0221.11899.1082.50805.14057.12978.0432.20533c.0755.25928.37833.76745.97283.76745l.50805-.14058.0221.0974-.36751.85392c-2.2808-.72423-4.6696-2.0105-6.8099-4.248l-32.493 16.949s-.68098.43238-1.4701 1.0809h-.0221c-1.1242.95122-2.4429 2.3132-2.2375 3.4265 0 0 .0755 2.1402 2.3564 2.497-.97283.62693-1.5349 1.643-1.3187 2.6591.29186 1.3836 1.9024 2.2159 3.5995 1.8592l60.975-12.993.0324.0324.0432-.054 19.976-4.248c.79988-.17295 1.5133-.58371 1.9889-1.1674.49724-.60532.6918-1.3079.55128-1.9997"/></g></g><g transform="translate(-128.11 -471.22)"><g fill="#8f8f8f"><use height="100%" width="100%" x="27.68796" xlink:href="#a" y="147.4637"/><use height="100%" width="100%" x="30.807961" xlink:href="#a" y="147.4637"/><use height="100%" width="100%" x="33.927959" xlink:href="#a" y="147.4637"/><use height="100%" width="100%" x="37.047958" xlink:href="#a" y="147.4637"/><use height="100%" width="100%" x="40.167961" xlink:href="#a" y="147.4637"/><use height="100%" width="100%" x="43.28796" xlink:href="#a" y="147.4637"/><use height="100%" width="100%" x="46.407959" xlink:href="#a" y="147.4637"/><use height="100%" width="100%" x="49.527962" xlink:href="#a" y="147.4637"/><use height="100%" width="100%" x="52.647961" xlink:href="#a" y="147.4637"/><use height="100%" width="100%" x="55.76796" xlink:href="#a" y="147.4637"/><use height="100%" width="100%" x="58.887959" xlink:href="#a" y="147.4637"/><use height="100%" width="100%" x="62.007961" xlink:href="#a" y="147.4637"/><use height="100%" width="100%" x="65.12796" xlink:href="#a" y="147.4637"/><use height="100%" width="100%" x="68.247963" xlink:href="#a" y="147.4637"/><use height="100%" width="100%" x="71.367958" xlink:href="#a" y="147.4637"/><use height="100%" width="100%" x="74.487961" xlink:href="#a" y="147.4637"/><use height="100%" width="100%" x="77.607964" xlink:href="#a" y="147.4637"/><use height="100%" width="100%" x="80.727959" xlink:href="#a" y="147.4637"/><use height="100%" width="100%" x="83.847961" xlink:href="#a" y="147.4637"/><use height="100%" width="100%" x="86.967957" xlink:href="#a" y="147.4637"/><use height="100%" width="100%" x="90.087959" xlink:href="#a" y="147.4637"/><use height="100%" width="100%" x="93.207962" xlink:href="#a" y="147.4637"/><use height="100%" width="100%" x="96.327957" xlink:href="#a" y="147.4637"/><use height="100%" width="100%" x="99.44796" xlink:href="#a" y="147.4637"/><use height="100%" width="100%" x="102.56796" xlink:href="#a" y="147.4637"/></g><g fill="#1e51a6"><use height="100%" width="100%" x="28.767361" xlink:href="#b" y="203.4637"/><use height="100%" width="100%" x="35.267361" xlink:href="#b" y="203.4637"/><use height="100%" width="100%" x="41.767361" xlink:href="#b" y="203.4637"/><use height="100%" width="100%" x="48.267361" xlink:href="#b" y="203.4637"/><use height="100%" width="100%" x="54.767361" xlink:href="#b" y="203.4637"/><use height="100%" width="100%" x="61.267361" xlink:href="#b" y="203.4637"/><use height="100%" width="100%" x="67.767357" xlink:href="#b" y="203.4637"/><use height="100%" width="100%" x="74.267357" xlink:href="#b" y="203.4637"/><use height="100%" width="100%" x="80.767357" xlink:href="#b" y="203.4637"/><use height="100%" width="100%" x="87.267357" xlink:href="#b" y="203.4637"/><use height="100%" width="100%" x="93.767357" xlink:href="#b" y="203.4637"/><use height="100%" width="100%" x="100.26736" xlink:href="#b" y="203.4637"/></g></g></svg>