<svg fill-rule="evenodd" height="357.770876" viewBox="0 0 500 639.99999" width="279.508497" xmlns="http://www.w3.org/2000/svg"><g fill-rule="evenodd" transform="matrix(.63943206 0 0 .64004901 277.22649 234.97899)"><path d="m-42.579698-354.75299c-107.535472.4998-217.607772 39.56354-318.794502 90.56006-107.63728 263.80784002-58.05103 455.38452 32.02017 601.11111 88.66632 143.45364 201.03842 230.55369 286.774332 283.50512 85.735917-52.95143 198.109588-140.05148 286.775908-283.50512 90.07121-145.72659 139.65746-337.30326998 32.02018-601.11111-101.18673-50.99652-211.260619-90.06026-318.796088-90.56006z" fill="#fdd818"/><g transform="scale(.8)"><path d="m410.29297 154.18359c-11.99317-4.90844-23.9235-9.82571-36.42383-14.72656-8.7541-3.43211-17.65237-6.84691-26.72461-10.22461-9.07224-3.37769-18.31806-6.71848-27.76562-10-9.44757-3.28152-19.0965-6.50486-28.97657-9.64844-9.88006-3.14357-19.99158-6.20604-30.36132-9.16992-10.36975-2.963877-20.99941-5.82789-31.91602-8.57031s-22.11998-5.364551-33.64062-7.84375c-11.52065-2.479199-23.3572-4.816016-35.53907-6.990234-12.18186-2.174218-24.70911-4.186196-37.60937-6.013672s-26.173779-3.471183-39.849612-4.910156c-13.675833-1.438974-27.753132-2.67293-42.261719-3.681641-14.508586-1.008711-29.4491381-1.791438-44.8476559-2.328125-15.3985181-.536687-31.2559341-.826707-47.6015621-.84961v716.302738c107.169896-66.18929 247.637799-175.06381 358.470699-354.38086 48.02101-77.69339 86.76019-165.86068 105.04688-266.96485z" fill="#0b388b"/><path d="m-53.224609-443.44141c-134.419341.62475-272.008771 49.45553-398.492191 113.20118-52.89372 129.63705-75.31692 245.263423-76.33008 348.996089 15.55418-6.40283 31.34979-12.8766184 47.73047-19.29882775 8.75406-3.43211235 17.65242-6.84691425 26.72461-10.22460925s18.31812-6.718483 27.76563-10 19.09655-6.504859 28.97656-9.648438c9.88001-3.143578 19.98969-6.206042 30.35938-9.169922 10.36968-2.963879 20.99946-5.827892 31.91601-8.570312s22.12004-5.364551 33.64063-7.84375 23.3592-4.816016 35.54101-6.990234 24.70721-4.186196 37.60742-6.013672c12.90022-1.827477 26.17382-3.471183 39.84961-4.910156 13.6758-1.438974 27.75512-2.67293 42.26367-3.681641 14.50856-1.008711 29.4472-1.791438 44.84571-2.328125 15.398502-.536687 31.255932-.826707 47.601561-.84961z" fill="#0b388b"/><path d="m-53.224609-458.9082c-132.537411.616-289.415511 57.72696-412.914061 123.61523-135.69799 322.714962-68.53503 580.88207 40.03906 761.97461 107.46015 179.2346 267.20553 299.05184 372.875001 364.31445 105.669475-65.26261 265.414849-185.07985 372.874999-364.31445 108.57409-181.09254 175.739-439.259648 40.04102-761.97461-123.49855-65.88827-280.378607-122.99923-412.916019-123.61523zm0 24c132.537412.616 268.203429 48.76204 392.916019 111.61523 132.6629 325.1430293 71.54787 561.26119-39.46485 740.86914-109.2812 176.80654-247.781694 284.15731-353.451169 349.41992-105.669471-65.26261-244.168021-172.61338-353.449221-349.41992-111.01271-179.60795-172.12774-415.7261107-39.46484-740.86914 124.71259-62.85319 260.37665-110.99923 392.914061-111.61523z" fill="#957418"/></g></g><g transform="matrix(.4526236 0 0 .45512483 113.32167 286.68812)"><path d="m216.86766 304.05767c-1.62017 7.09159-2.20331 14.93759 5.41542 18.60896-1.36441-6.0789.22752-9.8707 5.57176-12.03762-1.30771 6.92163 1.08042 9.50967 4.60545 11.79702-.68233-5.17633.90961-8.42634 5.51482-8.06531 1.25077 6.13924 5.6287 9.75053 10.29085 12.39891-1.25077-2.0465-1.36441-5.71787-.22728-8.24583 3.44356 4.13521 7.34018 6.49964 11.72658 7.9382 5.31801 1.74404 11.35592 2.12713 18.17919 2.65481 9.77911.72231 24.95962 3.37069 36.50125 4.03266-8.18718 5.23642-16.488 8.30591-27.97292 9.69044-8.24388 1.023-15.97625 1.26385-27.23364 1.023-5.40142-.12018-16.65858 2.64838-20.97957 14.4454-1.70581 4.69463-4.60545 10.11156-8.13047 11.61626-3.41138 1.38427-7.56179 7.04206-8.81256 10.17189-7.33428-3.67162-17.05668-2.52795-18.76226-2.16692-9.89275 2.22701-19.10341 14.50549-23.4244 22.87149-2.89964 5.53736-9.49488 10.23224-15.63532 6.98197-4.37793-2.34743-4.60522-9.20873-2.27426-16.55173-6.36772 5.23642-4.77579 16.55173 1.36465 20.10294 5.96986 3.37043 15.74897 1.38427 22.23034-5.71813 5.74257-6.19933 15.91954-10.59301 22.00305-7.5836 2.16061 1.08333 5.57199 1.98616 8.98314 1.32419-.90961 2.34718-2.16038 5.35659-3.92289 6.31975-3.52502 1.92607-5.51506 6.37984-6.0268 9.6301-1.08019 6.31975-3.41115 9.93104-10.23391 14.20456 5.17389-.24086 8.92644-.24086 13.07684-6.80147 3.07023-4.75471 6.25409-9.38924 8.47141-10.89395 1.53499-1.08334 4.83273-2.22701 5.85598-5.53736.0569-.12042.90984-1.38427 1.59216-1.62512 2.44461 6.50026 5.51483 14.08412 5.06002 26.06165-.0569 2.82865-.22752 9.08831 1.02349 12.09772.39786.96316.28422 4.15308-.3981 4.81505-6.36773 5.89839-19.89938 12.82002-25.64172 16.61207-3.35445 2.28711-10.46143 7.64395-11.7122 9.08831-6.99335 8.18574-14.21398 2.46787-16.43129-2.82889 3.58196-5.65753 4.60521-18.83884-5.06002-18.5379-8.13047-12.27847-18.13687-13.30172-22.62844-4.27325 4.26405 1.32393 7.10676 7.28267 7.95966 11.73669-8.07353 4.69462-6.70889 22.14918 6.70889 20.7649-.34116.24085 1.64887 4.21317 2.04673 3.97232-2.72906 2.40753-9.89275 4.21317-10.85929 2.46786-5.85599-10.1118-17.56819-9.32916-18.8759 2.16668-4.26428 1.2641-16.26071 10.29232-3.12716 26.48303-.62538-5.17634 2.55848-9.14865 5.40118-8.18574 2.61542 14.74609 17.90958 14.14421 21.83271 1.92607 1.36441.78239 6.0835-.12043 8.13024-1.92607-.90961.96291-3.01329 4.27325-3.12716 5.17608-8.41446.30094-11.93949 11.55617-6.59525 15.52874-3.63866 8.54676 3.29774 21.90858 12.79263 22.45012-2.3312-3.43077-3.2408-10.29207.73902-13.30148 6.99335 3.85189 16.37436-4.09274 11.37104-16.7325.90985-.7824 2.10368-3.00941 2.67236-3.67137 2.27425-.48146 7.33427-1.86574 9.49488-3.79181-7.73237 9.02823.22729 21.12594 8.30082 18.77875 1.9898 3.73172 1.02325 9.38925-.68232 10.95429 7.33427 1.62488 16.09013-5.29676 13.92952-14.4454 6.42466-5.23617 3.98006-18.23696-3.01329-19.68157-.39786-2.88899 1.70558-6.13899 3.75255-4.45377 3.80925 3.0094 6.76582 1.62513 8.01659-1.32419 6.65195 1.26385 20.18361-1.86574 26.72191-6.13924-1.93309-.42137-4.49157-1.68522-5.6287-3.61129 10.40473.60188 24.95963-3.43078 36.33067-10.29207-2.8427-.90282-4.83273-2.70846-5.96986-4.99582 7.22063 2.46787 21.32073-.96291 27.57505-6.62069-10.34779.36128-16.60187-5.59745-19.72904-25.76047 2.21756.54154 5.6287 1.44436 9.38125-1.02325-7.73237-3.91223-11.42798-11.31532-11.37104-27.68654 1.02325 1.14342 5.51482 4.93522 8.9262 5.11599-7.56179-12.2184-2.10367-24.37645 3.80925-33.34433 8.13047-12.15805 27.68869-24.01516 43.89246-30.75629 3.12716-1.26385 7.61873-1.92607 11.2574 0-.73903 4.75497-7.22063 15.76935-11.14376 19.92243-4.71885 4.87514-9.60852 13.00054-9.60852 24.73722 0 4.45402.68232 13.60267-.79597 16.79259-1.59193 3.31035-4.37793 11.97754-2.50154 17.09353-8.35776 1.74531-12.56511 7.22258-15.35111 13.48225-3.41114 7.46317-2.89963 17.69515 2.16062 26.72338 3.12693 5.47726 2.8427 13.9036-.90961 16.85292-4.03677 3.0695-6.99334-.72231-9.3243-5.5977-1.53523 9.81087 7.10675 16.49165 17.51148 9.50993 6.5383-4.45402 6.70888-10.71369 4.1504-21.3067-1.19406-5.0559-.34115-13.72284 8.24389-17.39447-.17058 17.33413 6.53854 22.75132 18.47802 20.52431-7.44791-4.57445-8.86927-11.13481-7.67543-15.34798.62539-2.34743 1.93309-5.47727 1.59193-8.66719 6.25409 4.09275 17.11362 8.78736 25.01634 11.07472 2.04697.54154 6.02679 3.67137 7.3912 6.19932 2.72907 5.05565 9.04008 9.69019 13.41802 11.97755 1.59193.84248.28422 7.34274-.51175 8.24557-5.79928 6.92188-14.15703 15.64917-18.1938 26.18208-.90961 2.46762-4.03677.72231-4.88944-1.80564 4.32099-9.57001.79597-18.2372-7.56179-16.91302-7.90295-12.15805-19.0467-13.24138-24.67517-4.33359 4.94637 1.98641 9.38101 6.01881 10.51813 9.87096-8.52833 6.01881-5.17389 18.95926 5.1739 22.32995-1.30771 3.25-5.96986 4.87513-10.12027 1.74529.56845-12.51907-15.97649-13.00053-19.78573-4.03265-14.38433-2.28709-21.43438 16.85293-9.94969 28.89056.39809-5.47727 5.28753-8.36626 8.8695-7.10241 1.76251 9.63036 12.84932 12.15806 17.34089 2.28736 2.33097 1.92607 7.90296 2.40753 12.11007 1.62513 0 .0601-2.10367 3.43052-2.10367 3.37043-3.18386-1.92607-11.08659-1.44461-13.58836 1.38428-2.3879 2.70847-2.786 9.20873-.11364 10.53292-7.39121 11.43575 2.10368 23.23278 10.06333 26.24218-1.42135-4.51411.17058-10.59326 3.52503-13.06087 5.57176 6.50026 16.43128-4.99557 14.10009-12.94046 1.59194-.90281 4.09371-2.82889 5.23084-4.57444 2.78576 1.08358 7.33427-.60189 9.26736-3.79181 0 .0603.96654 1.62513.96654 1.62513-3.92311 4.27326-3.24079 10.29233.90961 13.78319 3.29775 2.82889 11.42798 5.47702 15.86285-1.02325 1.59193 2.58804 1.42135 6.92164-.22752 9.87095 8.4714 1.68522 14.32762-13.48224 10.34779-20.40388 3.41115-5.59744-.28446-16.25079-7.73238-14.80643-1.47828-2.52795-1.02348-6.50026 3.01329-6.50026 1.70558 0 4.94638.90282 6.70888.72231 2.72907-.30095 10.00663-3.79181 14.38456-7.76438-1.36464.18052-2.89964-.96291-3.18409-1.7453 12.39452-3.73172 24.78904-14.38506 27.97291-21.78841-3.46809 1.92607-8.18718 1.44462-11.42798.42137 8.8695-3.7918 20.18383-11.25523 25.24385-21.60764-1.70558.84273-3.46808.90282-4.94638.48171 2.55849-5.53736 4.32099-10.89421 8.64198-16.43157 6.70889-8.42633 13.87282-17.15362 12.22395-30.395-6.36773 8.00497-18.42109 13.36181-29.56484 13.12096 5.11695-4.27326 8.58527-10.53293 7.44814-19.56115-6.53853 8.60686-13.81587 12.27848-23.14017 10.4125 3.75231-3.85189 6.02657-10.47258 3.92289-15.58857-3.18387 6.92163-8.58505 8.48642-13.07662 8.48642-10.57507 0-13.98645-4.27325-27.9729-20.46396-5.51506-6.31976-8.64199-16.43157-6.31103-25.39945 1.19407-4.75496 4.60545-11.31556 6.99335-17.27404 2.33096 6.86129 9.49488 19.80199 15.97625 27.98748 3.46832 4.45403 13.53165 13.42191 20.46806 16.37123 10.51813 4.45402 29.16674.9629 34.39757-3.61129 6.7656-5.83831 13.92952-13.9637 14.49797-31.35817.34116-12.03763-1.36442-28.76988-3.63867-37.85844-2.16061-8.36599-5.85622-26.24192-5.51506-31.11731.3981-6.13924 1.30771-11.55618 5.40142-18.17687-2.04697 11.49608-.45504 24.37619 7.22063 33.34433 4.09347 4.87513 10.34756 10.35241 15.12335 15.76934 1.59216 1.74556 4.32122 7.04206 4.26429 11.07472 3.18386-3.55121 4.20734-8.00523 2.8427-15.58883-1.30771-7.10215-.28423-13.24139 2.50177-18.41773 3.29751-6.25941 8.18717-16.97309 7.05004-28.83021-.39809-4.33334-5.23082-13.36182-8.52833-15.4684 3.2408-.72206 7.84601-4.0324 9.89275-7.76412 2.3879-4.51411 4.83273-14.62592.17058-23.83465-2.16038-4.27326-3.58196-10.11155-3.58196-13.60241 0-2.76881-1.47806-8.54677-1.53499-9.4496-.56846-5.65778-4.49157-12.21839-8.86951-16.79259 1.53523 11.07472-.73903 21.36679-6.25408 28.6497-5.34447 7.16224-16.09013 18.71842-13.07661 34.18682-16.54494 1.20376-24.16366 18.2372-26.38098 23.05226-6.31103 13.54232-3.41138 30.93679-.79597 41.77066 2.84271 11.49583 7.67543 33.34432 8.0166 38.76126 1.02348 16.07028-4.20735 27.32551-13.13356 28.64945-12.84932 1.92607-22.45785-4.21317-29.56483-14.08388-6.53831-8.96812-13.70224-28.22833-15.06665-39.66408-1.08019-8.90804-4.66216-25.58021-9.15372-31.89996-7.16393-9.99113-26.38098-22.02875-39.23031-28.46894-5.85599-8.30616-11.59856-16.37122-16.65858-25.45978 13.6453 16.61208 18.93283 20.40388 27.63175 19.07969 0 .0603-10.80259-29.43209-10.80259-29.49218 8.64198 12.88036 22.45785 32.80253 27.57481 36.35373-4.54828-7.16249-18.70531-26.66354-27.12001-39.96502 20.41112 26.54312 33.1468 34.18681 46.10978 30.33492-4.03677-3.73172-21.60496-29.73304-21.60496-29.79312 12.45124 13.48198 26.8925 29.01072 35.30719 33.58492-7.50508-8.00497-21.03651-22.08909-31.21371-33.10348 28.08655 25.51988 37.24028 28.34852 51.85212 19.38064-11.54162-9.93104-23.31076-20.82525-34.34064-32.80279 15.52145 11.43575 35.1366 25.88115 44.91571 28.95064-8.81256-6.74111-27.23365-18.77874-39.40065-27.74687 31.49793 16.37122 48.8386 18.65857 57.93562 4.33359-11.99643-4.03265-42.07302-22.87149-42.07302-22.93158 18.8759 6.19933 46.62129 17.45456 56.68485 16.31088-10.06356-2.88897-35.42105-11.07471-56.68485-19.32028 32.57813 7.40309 63.39374 13.24139 70.15957-10.71369-20.92286-3.37044-38.71857-8.366-57.6514-14.7461 23.31076 1.32419 61.97239 3.73172 71.06917-.54179-11.25739-.0601-47.81535-.42111-73.22978-2.5277 55.60466-8.1254 79.086-13.42215 78.29004-48.03033-20.24054 6.92163-44.63149 11.07472-66.5209 14.50524 25.58502-8.30591 63.39373-20.28345 69.64782-26.48278-9.72217 3.18992-50.14631 18.29729-74.93536 25.21893 64.1897-28.58937 77.09597-38.03895 73.74153-68.25345-25.01633 13.602421-51.79542 23.89474-78.06252 32.86262 29.11004-14.44515 72.43382-38.399975 80.6777-47.849559-9.83582 6.01881-55.09269 31.839619-83.0656 46.104259-.39809-.30094-.79596-.66222-1.19406-1.02325 69.07937-37.617583 78.91542-47.127511 75.16288-76.920639-23.70863 14.144217-38.32047 22.510468-74.25304 37.97887 12.39429-9.810874 33.20351-23.292862 37.75178-29.311672-6.82252 3.851886-28.48442 19.86208-42.30029 29.492181 18.25051-20.885334 18.25051-26.181837 17.05667-43.516217-5.62869 10.593261-13.36107 18.959256-21.83246 26.483026 5.6854-8.486674 8.86927-17.213958 9.09678-27.746876-10.1772 20.584388-45.71167 46.344857-68.68127 53.206405-24.56153 7.343005-32.18026 33.344332-20.92287 58.322402 8.86951 19.74191-15.06664 49.41461-37.46756 44.47913-8.8695-1.98615-15.29416-2.46761-20.75228-.36102-.51174-6.25967-.34116-18.83884 1.02326-23.95483.96654 1.68522 3.46831 3.31035 6.53853 3.37043-5.74257-9.08856-6.9583-25.92909-2.29616-40.43433 1.47829 1.02325 3.58196 1.26385 5.34448 1.02325-3.46832-7.16249-7.06665-15.87726-5.41779-23.46086 3.01329-13.903612 11.21536-26.718961 6.03129-41.362745 16.82916-4.75496 26.64206-12.95191 33.12366-26.675007-8.69892 8.607104-17.11362 7.52377-26.94966 4.514365-8.30082-2.467863-12.36516-3.224365-18.16444-1.17812 3.6956-1.805642 8.92644-7.493253 14.4415-16.04002-9.49489 4.574194-19.18972 8.077959-25.33016 7.235478-6.99311-1.023255-5.78488-.370681-14.29944-1.221705-8.59995-2.953679-17.85213-2.712143-22.00254 1.14-.62538.601878-3.69582 2.093756-4.54873 3.933591-3.47264-1.448114-10.5596 1.430273-13.04815 4.626073-.0569.541542-1.93309 1.44436-2.33096 1.564789-6.31822 1.662903-18.54549-5.529839-24.2015 1.542357-4.29077 5.365119-2.25811 14.201981 1.41064 24.662676 1.08196-4.893025 3.01872-8.055883 7.1934-9.185951 8.14258-2.20416 14.27123 6.991884 19.1792 7.357114 2.67235.180509 4.55532 1.724464 8.00258 1.960429 2.75831.18881-.026-1.986564 3.32889 1.100363-9.0592.406707-8.71329 2.867189-13.80375 4.412068-2.22556.675426-9.04406-.864656-11.61873.304005-11.68091 5.302052-14.73963 6.029462-25.87109.831583-7.30868-1.372502-16.22539-2.029894-22.47199 8.014886 10.91624-3.91223 15.59548-5.325875 23.21421-.209882 5.06451 3.345949 10.80185 4.543188 18.04064 3.137936 3.5694-.692922 9.76873-3.005556 11.71718-3.145249 3.32435-.238335 6.82607 1.525402 10.01429 1.740222 2.93611.197832 5.95701-3.322669 8.9018-4.88291 3.01644-1.598192 3.40649-.09164 6.20594-1.771198 0 3.250008-5.74978 3.155464-8.28869 4.335401-15.17468 7.052318-28.58011 11.175104-21.59023 26.578701 2.26345-7.52526 9.99641-12.109589 21.03453-13.644817 4.77938-.664737 8.24049-2.091821 11.96157-2.765722 7.31227 5.657164 12.8379 11.467769 2.08151 26.662979-.51174 6.01881-8.06604 12.52515-16.4238 15.05311 1.81922 2.22701 5.34424 2.64837 7.73237 2.40752-3.75254 5.29651-9.94969 9.87096-17.05668 10.59326-5.45811.54155-14.10009 6.56036-17.05667 12.1578 3.07022-1.20376 8.4714-2.58803 12.22395-.90282-4.7758 2.28735-8.69893 3.79206-14.44127 4.51436-21.15014-22.20952-47.75864-56.09564-50.60134-72.406776-1.25077-7.342747 2.16061-15.287629 6.25408-20.463966 6.14044 1.504703 11.59856-8.305907 5.74234-13.481987 6.0268-8.245829 4.66215-21.005758-6.36772-20.885584 2.44483 3.3106 1.99003 8.607103-2.786 12.398903-8.92621-10.051463-20.52476 2.588043-11.42798 12.338567-1.70557 4.754968-3.24057 9.088559-4.32099 18.056439-4.32099-4.574195-9.60853-11.857112-10.40449-21.727809 4.54851-3.972573 3.2408-15.107377-5.6287-13.84327-2.8427-10.954294-17.3409-16.130624-23.367465-3.73172 3.866186-1.2641 7.163695 2.046245 9.494885 9.088309-5.458118 3.7918-7.334506 20.40388 6.53831 19.681572.96654 4.995563 4.83273 13.482244 10.51813 19.621484-3.80925-.601885-6.48137-1.083341-10.17697-2.949326-.85291-11.736682-13.190491-12.278473-15.919551-1.444359-13.36107 2.166667-12.053362 21.727813-3.183862 25.940983-1.364646-5.23642 2.67212-10.472584 5.742341-9.810615 3.695602 11.797025 15.180292 12.699845 17.227252 2.287095 3.01329 1.50471 12.16701 3.97257 13.30414 9.3895.56844 2.58804-.79597 6.13924-3.58197 9.56977-6.87946.36128-9.83604 11.61651-2.27425 14.50549.0569 5.8383-2.33096 8.72728-7.6185 8.90779 5.00332 6.62069 15.00971 4.93548 20.5817-4.93548 6.36773-.90282 7.73214-9.20873 2.89964-14.50524.62539-1.56504 1.19384-3.0094 1.535-5.0559 3.92312 10.83386 24.90269 42.73383 34.34063 61.8736-4.03676 4.81505-10.46143 10.1719-17.11338 9.20874 3.86619 3.67162 11.82585 7.343 20.69535-.12018-4.15041 6.13899-7.05005 14.08387-13.24743 21.12594-5.51482 6.38009-16.31742 10.1118-23.4244 1.68521 4.37793 14.32498 17.56842 16.19071 27.00636 11.19515-10.68872 21.42713-19.84244 38.09929-35.98951 23.11234 4.43487 11.61626 21.09345 16.13037 40.48108 1.02325-1.30771 16.00995-4.15041 25.03816-14.21374 28.28842 14.66855.7824 21.37743-17.03318 27.12001-20.5243-1.51612 8.49273-.71039 6.42723-2.56033 13.08075-2.33964 7.09704-2.26855 10.32244-5.12847 15.88539-3.73044 7.25624-3.35577 9.03489-8.11711 18.16137-6.02656 4.09274-11.65526 5.17633-15.80567.66222-2.95658-3.19017-6.65218-8.06531-9.15372-16.37122 4.66192-6.07916 1.9898-16.552-4.03677-16.07028-1.36465-6.3801-12.9632-12.75994-20.01325-3.55121 3.52502.18052 6.4816 2.76856 6.76582 6.13924-8.4714 5.89839-2.21731 21.30671 7.39121 19.32029-.51174 5.05591 1.99003 10.41275 4.09371 13.7231-5.06025-.84273-11.76914-2.46786-15.40781-5.95873.73903-13.24139-15.8059-18.77874-18.30744-7.76437-15.180524.42137-16.431295 14.80643-11.939723 23.95509 1.705574-5.35685 6.595243-6.80122 9.437943-5.05591 1.30771 11.91745 12.05337 11.19515 15.40781 6.01881 3.35444 3.00941 8.92644 4.39393 12.5651 4.09299 3.35445 3.12959 6.42467 1.68522 9.66547 2.52771-5.17389 2.34744-10.91624 8.66719-16.82916 9.57001-6.65218-8.96813-17.28419-4.63454-15.18052 5.59745-11.88278 10.41274-3.92289 26.30226 3.01328 27.56637-1.70557-3.91223.68233-9.75054 4.49158-10.9543 5.79927 8.72728 17.68206 1.80565 16.09012-8.06531 2.72906-.42136 4.60545-1.26385 6.53831-3.73171 5.85622 1.20376 9.32431-.84249 12.1103-5.59745 3.35445 1.62513 8.75586.72231 12.1103-1.20376 2.95635 3.12983 7.39121 4.87539 11.02988 5.17633-1.81945 10.05121 12.39452 12.45874 15.52145 8.60685 3.6956 3.25001 1.25077 11.61626 2.3879 9.99113 9.55182-3.0094 8.8695-19.07969 4.54851-21.36679 3.12715-9.20873-7.61873-15.88976-12.7924-10.53292-3.18386-1.20376-6.42466-3.06949-9.3243-7.58361 3.45489-1.31022 12.06189-10.43296 16.64164-16.76928 2.09894-2.90398 8.92308-13.72931 12.03706-16.33288-2.85059 4.32588-3.78444 19.09668-9.67999 23.78558 7.52455-2.58021 11.90477-10.97676 16.41216-14.276.60276.0826-2.7504 9.3898-.23226 12.87326 4.48456-1.7815 5.9095-6.51705 7.05074-7.16758z"/><path d="m293.96876 30.250028c-11.86834 4.316163-18.32406 2.995835-26.65625 2.875 5.1739 1.203766 12.52862 2.97811 16.4375 4.5 3.80927-.96291 4.98816-2.903018 10.21875-7.375zm-48.21875.71875c-2.68238.114773-4.93635 1.106324-6.8125 3.875-1.4783 2.106589-3.79521 2.665389-4.25 6.15625-.56869 4.393677.45663 9.12258 1.59375 12.3125.96654 2.768803 1.7419 5.556655 5.4375 7.84375 3.86619 2.407526 5.35584 4.507175 7.90625 7.6875 2.43238 3.033143 3.01484 6.11089 5.84375 10.625 1.57793 3.280264-.11494.16776-3 5.0625-2.18769 3.711593-4.97574 3.464048-7.25 4.96875-1.30725 2.403163 8.41297 6.77972 8.4375 14.343752-4.65629 14.83516-11.81499 23.63757-16.875 28.03125 1.47828.60188 2.94786.6471 4.3125.40625-5.96987 3.91223-9.20657 13.12944-19.15625 14.875-5.1739.84273-9.59959 1.50901-13.75 6.625 5.68541.42136 11.3713.79497 17 1.15625-5.74235 3.55094-13.99217 8.29624-21.78125 9.5-9.15372 1.44463-17.05813 6.25571-19.21875 8.84375-5.85598 7.10215-13.65475 15.77781-20.25 18.125 9.38124.54179 11.14181-3.43495 16.03125-8.25 4.43487-4.3336 11.28234-6.9779 18.21875-7.21875 6.87948-.2406 13.91688-1.45819 19.375-5.25-3.24056 5.83805-12.57534 5.7707-19 6.3125-9.3243.84248-15.90151 5.29496-18.6875 8.90625 6.14044-1.56479 11.66054-5.46989 18.3125-4.6875-1.13713 5.47702-7.36072 7.63439-11.625 7.875-3.86619.18051-8.86508 4.52985-10.96875 8.5625-6.19738 11.79703-13.73302 22.32304-22.375 21.78125 10.57507 5.29649 18.63564-3.79012 24.09375-10.53125 5.6287-6.86155 13.54072-11.02097 20.875-8.3125-16.03319-.36128-20.89004 10.53187-28.28125 19.5 6.36796-5.17633 12.93485-17.85303 21.40625-13.21875-5.40118 3.19017-15.02094 12.43623-17.75 14.84375-6.31102 5.65778-8.87565 22.39976-25.25 32.8125 10.68872 1.14342 17.23313-3.98004 21.15625-10.78125 5.68564-9.8106 9.44857-22.38555 18.375-21.84375-7.10699 2.16666-13.33009 15.60148-16.96875 23.125 4.94638-3.18992 14.16214-24.09758 22.40625-16.875-11.42798 6.44019-17.55996 11.85959-21.3125 39.125 5.34447-10.89421 7.60333-18.23843 10.21875-21.1875 3.62976-4.12941 5.66743-4.55582 10.59375-4.25.83288-2.15262 2.01751-3.97333 3.25-7.0625 3.2595-6.163 2.77472-6.05843 9.8125-19.6875 1.68776-3.26843 3.25326-6.90645 7.75-15.84375 1.04726-2.0814 30.37224 2.95402 32.09375 8.59375 1.86257 6.10186-2.17385 13.89227-6.09375 20-5.31069 8.27473-16.77502 21.58247-17.4375 22.65625-.65423 1.0604-12.20048 20.5823-12.65625 21.65625-1.84323 4.34317-12.33726 21.22801-12.90625 22.28125 2.44485-2.94908 5.22215-9.72916 8.40625-10.8125 3.97984-1.38427 4.96154-1.67716 7.4375-1.75-3.60363 2.16122-4.5298 4.80965-6.28125 6.84375-1.8865 2.19098-2.90221 8.38227-6.28125 17.5 2.52401-3.6119 7.2964-11.65226 11.0625-14.21875 3.10542-2.11626 3.65419-2.1024 4.65625-3-1.51142 2.49474-7.6392 5.62626-8.96875 9.9375 1.91594-2.10705 5.90435-4.72984 7.75-4.15625-2.47425 3.17514-3.29183 7.00694-3.03125 13.46875 3.8328-4.38958 7.13665-8.25903 9.6875-7.96875-1.84944 2.02207-.8107 8.50644-1.3125 13.78125 1.0235-4.15309 7.05815-3.54952 9.21875-10.53125 2.61517 2.58803.41104 9.57076 1.71875 10.59375.62538-2.58805 3.55103-5.06935 8.15625-6.875-.90962 2.64811-3.68453 2.3713-3.96875 4.71875 2.95633.9629 5.00502-1.87145 6.3125-2.59375-1.36443 4.69461 1.25722 9.99173 3.53125 12.21875 0-3.25027 2.37682-8.20936 3.96875-11.21875-3.18386 20.163 47.48114 15.89457 63.34375 17.21875 9.21065.78238 22.35441 5.54826 31.90625 11.6875 3.46807 2.28711 8.63635 1.80491 8.75-7.34375.0569-6.68076-5.46765-14.79622-11.4375-16-17.34091-3.49087-36.32418-16.79443-44.625-30.15625 16.14706 15.10711 23.26314 22.07533 50.78125 23.21875 4.71908 7.82445 7.19746 15.18709 9.1875 23.3125 1.70556 7.04207 1.368 15.08078-.90625 22.0625-2.95635 8.90805-9.04189 18.13504-14.5 24.09375-5.572 6.13924-7.53604 9.43254-8.84375 17.4375-1.02349 6.31975.14513 13.12232.0312 19.5625-.11365 7.64393-2.58897 10.17314-1.28125 17.9375.96654 5.83803 1.16468 6.88389 5.65625 10.375 7.95988 6.19932 21.3503 13.52985 33.0625 17.5625 4.03676 1.38427 6.74565 2.94996 8.90625 5.71875 8.07353 10.4726 7.79666 10.22333 14.5625 13.59375 2.67212 1.3242 3.63752 3.8459 1.875 7.15625-1.47805 2.76856-3.93634 6.68139-5.8125 8.96875-5.572 6.80122-12.05219 13.9244-14.78125 22.53125-1.13713 3.61126-5.39516 6.56147-9.375 2.46875-1.13714-1.20379-4.08162 1.54981-5.21875-1.21875 10.80235-4.57447 8.00149-20.0996 1.40625-17.8125-1.76253 6.31977-9.38601 8.11014-14.21875 5.28125-6.14022 3.25026-3.90228 14.70581 7.46875 18.4375-1.19407 7.58383-8.9254 7.76525-14.15625 5.71875-1.02326-.36106-.70327 3.19077-2.75 2.46875 5.79927-13.54256-10.17064-16.79891-14.09375-8.3125 2.6154 2.28707 2.91138 15.99758-.5 19.1875.73925 9.2691 11.01141 11.9313 15.21875-4.5 1.42134.36106.24587 2.83206 2.40625 4.15625 2.21754 1.38431 5.16584 2.41326 7.78125 2.59375 2.38789.18054 5.46721-1.32405 7.96875-1.625-1.70558 2.46764-4.00182 5.53237-5.59375 8-2.21733 3.4308.93529 3.11089-.0312 4.375-10.80237-7.22255-20.47542.73932-14.5625 6.15625 5.51504.24087 10.29366 5.16284 13.25 13.46875 7.56178 3.49088 13.47757-10.41511 4.4375-17.15625 1.02324-1.56477 3.50701 2.16669 5.78125 0 1.42134-1.32417 3.35693-2.1434 5.0625-4.25 3.92312 4.27328 8.87308 1.42039 12-6.34375 1.59216 3.31037 3.47018 5.77896 5.6875 7.34375-10.00664 10.89422 1.25446 18.85099 7.28125 12.53125 1.93309-7.82444 4.31102-9.93508 10.90625-9.875 3.41138-4.63451-.6882-12.34259-8.25-9.875-3.29751-4.99553.23296-12.51955 4.78125-13.84375 2.67235-.78236 5.65151 1.63771 8.4375 1.15625 3.12693-.54176 6.29366-2.64696 9.25-4.03125-.90961-.78236-2.26653-2.12245-3.0625-3.6875 10.97317-3.31038 19.77238-7.82622 24.71875-14.6875-3.52503-.12046-6.99488-1.37157-10.40625-3.71875 8.69892-4.45401 14.67643-8.5541 18.65625-12.40625-3.92313.60189-7.15706.12157-10-.78125 7.61873-.30093 14.1989-1.90828 18.40625-6.84375-1.251-.0601-2.43092-.0625-3.625-.0625 5.34447-7.22256 5.78382-16.38677 19.03125-33.78125-4.03675 4.03264-12.39379 3.69209-18.25 3.8125 10.57509-1.38454 18.83307-6.21849 22.1875-12.71875-8.64197 6.74111-19.96598 9.87855-33.15625 9.15625 5.57176-3.06976 10.1356-8.91729 11.5-15.71875-7.16369 6.31975-17.07418 8.06732-25.375 4.9375 3.01328-2.34719 5.70685-5.54622 6.84375-10-6.36773 5.29649-16.27138 6.44132-22.46875 2.46875-9.38101-5.95874-16.02975-14.19408-22.625-22.5-8.52834-10.59301-3.98379-27.63133 1.53125-39.1875 5.2306-11.01436 7.9655-22.01076 4.15625-38.5625 4.54851 5.47703 6.42869 22.25189 2.5625 32.0625 3.97983 11.55617 8.34485 20.33879 15.28125 28.34375 11.65527 13.30148 18.12489 19.64684 35.75 19.40625 20.35419-.30095 29.40624-13.43261 29.40625-43.40625.00001-10.71343-6.37803-34.17856-10.1875-51.03125-6.65194-29.43211 9.90134-45.9957 26.21875-39.375-4.66214 1.74555-8.28305 10.48616-9.875 11.75.62539-3.12985 1.69487-6.52186 3.34375-9.53125-9.3243 4.15307-15.91696 28.53287.34375 44.84375 5.00309 5.05591 13.75997 12.71519 15.75 16.6875 2.04675-10.83385-8.66034-12.95423-2.40625-28.84375 3.98007-10.29233 8.25525-19.49706.125-29.1875 16.48801 15.10736-5.07177 28.27704.5 40.375.34117-12.69983 9.61128-13.28298 9.15625-27.96875-.4548-15.34798-6.7555-21.49187-15.625-22.09375-.9096-.96316-1.80914-1.97701-2.71875-3 .73904-.66222 1.51654-1.33778 2.3125-2-.96654-1.44436-1.87163-2.90155-2.78125-4.40625 4.15042 3.43077 7.23016 4.18063 11.4375 2.375 6.19715-2.64838 8.6393-14.32492 4.375-23.59375-3.52501-7.52351-4.90377-10.02017.15625-23.5625-2.89963 13.72283-1.46572 16.74605 2.34375 25.59375 3.97984 9.26908.33153 20.04622-6.71875 24.5 9.4949-2.5277 14.54888-17.98804 9.375-25.8125-8.01659-12.21838.22864-20.89886-5.96875-32.09375-2.89963 14.62565-14.81772 25.04799-19.59375 40.9375-.11363-1.62488.0995-3.25228.15625-4.9375-3.46808 6.0789-3.24537 12.81796-1.3125 18.65625-13.24719-2.52795-35.7515 17.76215-29.15625 53.875 2.50177 13.54257 8.30853 30.12992 9.84375 45.71875 1.81946 18.29729-5.97012 31.91667-17 33-10.06357.96316-21.61535-4.69864-27.8125-13.125-11.37104-15.34797-16.98829-28.41763-21.59375-53.9375-2.16038-12.09769-5.39665-18.82467-15.6875-28.09375-8.18717-7.28268-17.91692-13.06694-27.46875-18.0625-15.97627-8.42635-32.12123-18.12789-46.5625-28.78125.45479 1.38427 1.30076 4.41909 1.8125 5.5625-8.47141.30094-16.27536-9.8784-20.9375-34.375-.34117.84274-1.11645 2.09133-1.34375 2.03125-.22753 2.10659 3.96038 19.50342 3.5625 20.40625-.7962-.42137-3.68055-12.93025-5.5-19.25-.79598-.18076-1.66141-.79523-2.34375-1.15625.057 1.44463.74367 9.05195 1.9375 12.84375-6.87948-.12017-12.79404-13.12333-15.125-20.40625-3.92311-1.50469-9.67059-12.94791-9.5-14.03125 1.47806-.42137 4.9511 10.40371 10.125 11.96875.73904-.78239 1.37203-2.52413 1.65625-3.96875.73927.18076 1.43712-.23488 2.0625-.65625 3.35445 5.11598 6.98854 11.96304 11.59375 12.625 1.53521-2.10657 2.44566-5.29038 2.84375-8.78125-1.70581-1.0836-4.09671-5.16209-3.8125-6.125 1.64886 1.44435 2.83382 4.0094 4.9375 4.25 1.25076-1.14343 1.01073-5.57292 1.75-6.65625.45479.78239 1.20915 6.0127-1.40625 8.78125 2.27424 7.58385 7.04731 14.68178 13.1875 15.34375 1.08041-2.70847 1.71876-6.81351 1.71875-10.90625-3.69562-3.06974-6.59893-9.01854-7.28125-9.5-.39811 2.58803 1.25001 5.48374 1.25 6.6875-1.13714-.30093-3.3577-6.27769-3.8125-10.25 1.02348.90281 2.03049 1.65168 3.28125 1.53125 1.87638 3.31034 5.02689 8.78582 7.1875 8.90625 1.02324-.1805.8545-5.37843 1.59375-6.28125.68232.48144.88173 7.78811-.9375 9.59375 2.78576 7.46343 8.77678 15.46291 15.65625 14.5 1.3077-3.12983 1.07103-7.77311.84375-11.625-2.21732-.42135-7.0452-5.40281-7.5-7.75 1.76251.30095 4.26215 4.54496 7.21875 4.90625 1.42134-1.50469.57905-6.78595 1.375-8.53125.68232.36102 1.19628 6.68484.96875 9.875 3.75253 6.92163 8.1239 11.78111 14.09375 13.40625 1.25076-3.12984 1.70441-7.27311 1.875-11.125-2.786-2.22701-5.90626-6.20033-5.90625-7.34375 2.21754.48146 4.49525 4.92835 7.28125 4.6875.79595-2.88897.71913-6.25699.0937-9.6875.45503-.00001 1.01951.5 1.53125.5.56844 3.79179.84971 7.33777.28125 11.25 3.46808 4.69462 6.9935 8.40752 12.28125 9.25 3.18385-4.27326 3.94085-10.99974 3.03125-17.5-3.4114-2.8289-9.15007-8.5578-9.71875-10.0625 1.59192.36102 7.90692 6.91667 11.375 8 .79618-2.58805.16479-6.91196-.0625-9.5.68232-.36103 1.82348-.29738 2.5625-.71875 1.3644 4.15307 4.29262 10.30563 4.40625 11.75-1.59194-.66198-3.44784-5.12372-4.8125-7.53125.34115 3.0094.21914 5.99872-.40625 8.40625 2.44483 5.23643 5.4537 9.82989 10.96875 11.09375 1.02325-5.53735 1.48501-12.04699-1.8125-20.59375 12.62181 7.64393 15.65115 10.53608 23.15625 7.40625-.96655-6.07891-2.92977-13.01244-6-15.78125-.62539-.60188-6.082-2.88185-6.59375-4.6875 2.10367.60188 4.3394 1.88415 6.5 2.125.39786-4.5742-1.99084-7.35505-2.84375-10.90625 2.61542 2.10684 4.82065 7.16398 5.21875 11.4375 8.52834 3.67138 17.87016 2.88682 25.375-3.3125-4.09371-7.04206-8.13342-9.52069-12.625-13.3125-1.02325-.84273-8.31948-1.60861-10.59375-4.4375 1.81945.0603 4.74668 2.22688 9.75 1.625-.51174-3.37043-2.58161-6.43267-3.71875-9.5625 2.27425.84273 5.01874 7.02985 6.78125 11.0625 8.35776 1.68522 18.31163 1.39483 24.28125-3.78125-3.12693-6.31975-9.95612-10.54167-16.4375-11.625-4.26428 1.32394-7.1195.6621-11.15625-1.625 3.46832.72231 6.92978 1.08334 10 0-.96655-2.64837-3.74886-5.84489-5.625-8.3125 3.52503 1.74531 5.464 4.71277 8.25 8.625 8.81256.96291 20.25083-2.52857 23.09375-8.96875-5.00331-9.44958-13.75534-10.31238-23.25-8.6875-1.08042 1.86597-3.03307 3.51042-4.625 4.59375 4.0937.42138 11.83963 1.11928 14 1.78125-1.87615.78241-9.65615-.12284-14.375-.0625-.22752-.54178-.36067-.77311-.53125-1.375-2.21732.66223-4.89914.60645-7.34375.125.11364-.42136.22986-.83105.34375-1.3125 5.06002-.18052 7.00662-.61203 9.90625-4.34375-2.04674-3.18993-4.66028-4.69435-7.21875-6.5-.0569-.36103-.0625-.73272-.0625-1.09375 3.18386 1.44461 6.47278 2.96874 9.03125 6.21875 7.33427-2.22702 13.71027-3.97648 18.03125-11.5-3.29774-4.63454-10.4595-6.79166-16.03125-7.875-2.72906 3.37069-6.52613 5.65155-9.9375 7.15625 4.77603.12043 11.71422-.56605 14.5.15625-2.61542.96291-10.76063 1.65269-16.21875 2.375-.51174-1.14368-1.23269-2.17124-1.6875-3.375 3.86619-1.32419 8.21956-3.74542 11.0625-6.875-3.6389-3.37069-7.88642-5.27998-12.09375-7.6875.22752-.84248.80373-1.81593 1.03125-2.71875 5.11695-.42137 11.53747-1.8656 15.0625-1.625-3.01328 1.44462-9.38344 2.42124-13.875 3.625 4.37793 1.74556 8.44952 4.45235 12.03125 7.28125 5.91292-2.2871 14.3848-6.61889 17-12.15625-5.68541-5.29651-12.39302-7.89469-19.5-7.59375-2.61541 4.69462-7.14996 8.73031-12.4375 9.03125 3.58196-2.94932 8.36249-4.33193 10.125-10.53125-5.00331-2.34744-10.39997-2.31034-15.6875-2.25 4.71909-2.10658 9.08899-6.23132 11.875-10.625002-3.18386-2.106585-6.83283-3.156117-10.1875-4.78125 4.54851.300941 9.20447 1.759269 13.46875 3.625-.90984 2.467872-2.70343 5.067202-4.125 6.812502 1.42158-.0601 3.57866-.37259 5-.3125-1.9898.72231-4.04701 1.63198-6.09375 1.8125-.4548.54179-.95144 1.26855-1.40625 1.75 3.2408.42137 6.51796 1.00685 9.53125 2.8125 4.88967-1.74556 9.21438-5.59336 11.375-10.46875-3.18409-2.527955-8.2441-3.369031-12.90625-4.031252 26.83578-11.676342 66.79181-28.477502 81.0625-36.84375-11.37103 10.231984-48.89328 25.281737-73 35.875 3.01329.962909 6.49823 2.29725 9 4.34375-1.19406 4.815052-4.61173 8.230302-7.625 11.781252 2.786 1.02325 5.23412 2.24072 7.90625 3.625 55.20657-29.371751 77.89705-40.387147 74.65625-70.000002-21.83246 12.880355-53.32292 27.852098-98.125 47.59375 16.99974-13.481985 40.31145-29.846259 37.46875-48.625-19.78573 22.269602-41.51415 41.837516-67.78125 49-27.51811 7.523522-23.83086 50.917402-13.3125 62.593752 5.96985 32.08047-34.95433 47.83932-56.84375 42.84375-15.29418-3.43077-26.89373-5.52251-41.5625 2.84375 3.8662-4.3336 9.15872-7.41197 14.21875-10-1.19382-5.41693-2.10069-11.53912-.28125-17.4375-.0569 5.59745 1.13679 17.0672 4.71875 15.5625-1.3077-10.05147-2.30071-20.69395 1.28125-30.625 1.08017 1.20375 2.61547 2.33777 4.09375 3-1.99004-10.1118-4.19202-20.50188-1.40625-30.3125 1.02347-3.7918-.79841-5.66297-.96875-12.34375 1.08018 1.80564 2.5018 2.81351 4.09375 3.65625-1.70558-5.53736-6.31321-12.98666-4.15625-18.15625 5.79878-13.897957 11.63717-29.110044 7.3125-40.437502-5.45813 1.023246-18.11987 3.121965-21.53125-2.65625-1.64886-2.888983-4.13421-3.927209-7.375-4.46875 2.55849-1.745554 7.20585-1.197036 9.59375 3.4375.6254 1.143669.70509 1.877407 4.34375 1.9375 23.87923.421361 34.44842-9.410425 44-17.65625-7.16371 2.106587-12.1341.301071-20.09375-1.625-8.92622-2.106581-17.73279-.299935-26.375 4.09375-2.50153 1.203763-5.57787.593748-8.25.59375 1.0802-2.82889 10.472-4.136428 14.28125-6.0625-7.64234-4.592662-15.90987-5.671941-21.4375-7.375-1.42158.06034-5.44527-1.422388-6.46875-1.84375-3.57545-.710354-6.66137-1.458523-9.34375-1.34375zm-52.96875 210.875002c-.0207.0535-.0422.1023-.0625.15625.25514-.0382.51724-.0954.78125-.125-.25851-.0184-.47515-.0161-.71875-.0312zm-.0625.15625c-5.78858.86594-9.3226 3.93244-11.71875 9.8125 2.41349-1.8407 7.77534-3.67942 10.6875-5.03125.17357-1.97639.52961-3.44707 1.03125-4.78125zm55.21875-204.250002c.96918-.02258 2.1723.0188 3.75.1875 5.45812.851452 9.52911 2.922041 14.0625 3.9375-3.80923.945724-7.69196-.03053-13.71875-1.0625-9.89277-1.192954-10.06755 2.352478-12.62608 4.375845-.41543-4.106839-.135-5.115654 2.31358-6.282095 2.17833-1.037698 3.3112-1.088501 6.21875-1.15625zm.375 3.71875c6.17882 1.468279 7.84186 1.908674 15.0625 2.5-1.93308 1.083333-4.6966 1.737838-6.625 2.34375-1.8799 1.790778-3.11712 4.878781-5.28125 6.03125-3.83189 2.04061-8.42652-.491403-9.21875-5.46875.29327-4.192234 1.62763-5.225734 6.0625-5.40625zm182.28125 1.5c-3.69561 6.139231-26.20577 30.633619-63.21875 43.875-20.06997 7.162492-30.98016 24.989662-22.28125 45.875002 11.99641 28.76987-1.47041 45.55398-16.59375 54.28125-17.45478 10.1719-31.6363-.91235-40.5625 4.625 4.94636-.0601 22.74888 8.43547 41.625 3.5 20.92262-5.47702 34.79411-24.91104 28.3125-45.375-9.89276-31.1774-.0516-54.103775 22.40625-60.062502 20.80899-5.477017 46.56018-28.120523 50.3125-46.71875zm-119.90625 4.40625c.42711-.02266.84439-.01862 1.28125 0 .49926.02128.98828.06596 1.5.15625-5.96987 2.949066-11.88747 2.789376-18.9375 2.1875-4.54852 4.333595-10.66242 2.39557-10.09375 7.8125-11.93971-1.203764-10.59506-8.166662 8.90625-9.25 2.67234-.120424 6.21978.403836 9.0625.34375 2.52482-.04601 5.29143-1.091366 8.28125-1.25zm-18.34375 32.5625c2.84268 5.898641-7.48527 12.159289-8.28125 17.9375-.68231 5.115992-2.71174 10.934952-.4375 15.750002-4.03675-4.03265-1.71654-10.76142-.75-15.937502 1.0802-5.898639 10.49199-11.61076 9.46875-17.75zm219.21875 11.71875c-23.70861 11.555922-48.66741 21.750622-75.21875 30.718752-.73926 2.46761-4.20843 6.11674-6.9375 8.34375 26.6652-7.28292 64.58668-24.42467 71.125-26.53125-4.20734 5.11599-47.65028 21.31337-74.03125 30.28125 4.37793 2.0465 8.36508 4.55309 10.46875 7.5625-1.47829 4.69462-5.22161 8.31822-9.65625 10.90625 2.33096.36127 4.93613 1.20465 6.8125 2.46875 51.22651-22.99192 85.16986-36.06347 77.4375-63.750002zm-230.3125 39.250002c2.786 8.366.91287 14.45793 3.8125 24.75-4.37791-9.81062-3.30075-15.96263-3.8125-24.75zm-28.78125 12.59375c.39786 1.86599-7.66181 6.19942-7.71875 21.96875 3.6956.7824 5.50182-5.07303 7.09375-4.53125-3.24079 7.70404-7.09662 5.04828-11.53125 7.9375 5.45812-4.75496 1.35364-16.58739 12.15625-25.375zm257.5 1.3125c-22.96959 6.13923-47.25715 10.42479-71.25 14.15625 1.76251 1.9864 3.66403 4.25113 4.6875 6.71875-.51174.84274-.98271 1.69093-1.4375 2.59375 18.25052-2.82888 49.62427-11.25 54.96875-11.25-3.01327 3.0094-37.5664 10.59591-57.75 13.90625-2.72906 2.52795-7.86252 3.95491-13.71875 5.21875 4.03676 2.0465 7.30812 6.19982 9.46875 10.59375 55.83195-7.82471 73.95107-11.84318 75.03125-41.9375zm-267.78125.125c-6.2541 6.56059-8.76107 7.32646-17.6875 7.6875 6.25407-1.5648 12.28631-4.07621 17.6875-7.6875zm162.71875 32.6875c9.72217 2.94906 15.17835 4.61814 16.03125 6.0625-1.47828.18051-6.77204-1.38871-16.4375-5 .17058-.36128.29237-.70147.40625-1.0625zm-186.25 3.96875c.2273 2.22702-8.98246 6.37943-9.4375 14.625 9.77935 2.76881 17.62125-8.1264 19.15625-7.34375-7.73238 11.73668-18.42205 9.25559-24.5625 10.21875 4.7758-4.27351 4.43903-11.18025 14.84375-17.5zm209.625 10.59375c-3.18386 1.62488-6.04927 2.35188-13.15625 1.75 29.16675 12.39891 47.76878 16.30437 53.625 16.90625-4.60521 3.00941-27.22773-4.10592-52.8125-13.375 2.38789 2.64838 4.25517 5.53582 4.9375 8.90625-1.25077 2.22701-5.34778 4.38998-7.90625 5.59375 37.86566 11.8571 69.49178 15.84367 77.90625-2.875-14.44125-2.58804-37.80471-8.66043-62.59375-16.90625zm-36.90625 1.25c11.42797 6.74112 16.54222 6.9234 17.28125 8.1875-1.64889.66196-8.36319-2.05538-17.6875-6.75.17057-.4817.29261-.95605.40625-1.4375zm-127.40625 11.03125c.90986 2.40753 2.10708 4.75102 3.1875 5.59375.4548-.24085.84635-.67937 1.1875-1.28125.28424 1.5047.20481 2.88999-.25 4.09375.45479 2.82889 1.26655 5.53212 2.0625 8-1.13712-1.14367-2.26614-3.91044-3.6875-8.90625-1.25076-.7824-1.87437-4.37017-2.5-7.5zm109.5 1.0625c2.10366 3.00941 3.46952 7.34705 2.21875 9.875-3.58196 1.20376-5.47278-1.5484-8.03125-2.8125 2.04675-.54155 4.0864 1.55907 6.53125.65625.51173-1.80565-.77546-5.19105-.71875-7.71875zm5.125 2.46875c3.12691 4.27326 6.97431 6.9234 7.03125 8.1875-1.9331-.24085-4.55478-2.57862-7.625-6.25.22752-.66222.42318-1.33562.59375-1.9375zm19.03125 4.875c24.44789 18.29728 37.69671 24.2627 40.9375 27.03125-2.95657 1.50471-19.77821-9.01547-41.78125-24.0625 1.36465 4.2735 2.71296 9.33308 2.65625 11.5-.68233.48144-1.91701.77095-2.65625 1.3125 25.18691 16.79259 50.80874 31.05516 65.25 15.40625-7.84602-2.70846-28.34434-14.74794-53.53125-30.15625-2.27425.54179-6.83822-.008-10.875-1.03125zm-117.90625 3.5c-.00001 2.34718-.005 4.34145-.6875 5.90625-3.1841.12043-6.27468-2.53341-7.46875-5.84375 2.27426 1.92608 4.55877 4.15624 6.09375 4.15625 1.25078-.90282 1.66465-2.7744 2.0625-4.21875zm1.625 1.6875c.3981.12043.82066.2524 1.21875.3125.22728 2.46762.96321 6.29623.90625 7.5-.8529-1.50471-1.55631-4.26131-2.125-7.8125zm67.34375 3.125c1.42134 5.89838 3.22751 10.23616 3 11.5-1.25077-1.02325-3.00442-5.0437-4.9375-11.0625.68232-.18076 1.31211-.31708 1.9375-.4375zm-16.34375 3.96875c1.251 5.05591 3.23863 9.15156 3.125 10.65625-1.19407-1.20376-3.00442-5.23475-4.9375-10.53125.62538-.0601 1.24404-.12501 1.8125-.125zm-18.0625.3125c.79596 4.87539 2.3692 8.35062 2.3125 10.15625-.96653-.60188-2.08978-3.95236-3.625-10.03125.45481-.0601.91463-.12501 1.3125-.125zm63.5625.0625c.56868 5.83804 1.03201 11.23946-.21875 15.03125 25.86901 26.90415 46.78377 38.94718 55.9375 29.4375-13.70223-13.60267-27.29776-26.70768-41-40.25-2.33096.18052-5.1736-.25444-8.8125-2 16.03319 19.14002 30.42681 31.29624 33.78125 35.75-7.10699-3.37043-22.68778-19.25034-39.6875-37.96875zm-102.96875 1c-.62537 1.56503-1.31188 2.78468-1.9375 3.6875 2.61543 9.50969 6.47199 16.60531 10.28125 16.90625-.5115-3.31035-.95761-7.16539-.84375-10.65625-2.27424-2.16691-4.42979-5.00202-7.5-9.9375zm-31 1.59375c-2.60163 6.71087-2.70615 7.28447-5.71875 17.71875 6.0268 4.69463 12.23231-2.73044 13.3125-1.40625-2.55849 2.8289-10.53494 6.72244-17.8125 4.375 4.15039-2.22676 3.82388-14.6815 10.21875-20.6875zm47.5 6.0625c3.97982 21.72807 10.54745 32.25343 16.0625 33.15625-1.59217-6.92163-3.12126-14.20311-4.65625-21.125-.45505-.30094-.88894-.23247-1.34375-.59375.28421 2.04649.37204 4.76599.65625 6.8125-1.0802-2.64838-1.80076-3.98704-2.3125-7.71875-2.27403-2.82864-6.132-7.64202-8.40625-10.53125zm76.125 3.6875c6.14021 15.34798 14.78283 26.40967 16.375 30.5625-4.32123-2.94906-11.71328-15.72025-19.84375-30.40625-1.25078 4.69462-2.74047 7.84946-4.21875 10.4375 12.50816 19.802 28.25654 33.80222 39.96875 31.09375-7.78908-9.20873-17.00573-22.49209-25.875-36.9375-1.4783-.90282-3.62049-2.04153-6.40625-4.75zm-22.8125 1.4375c-.0569.96316-.16739 2.40969-.28125 3.3125 4.1504 12.88037 11.48271 24.95821 11.9375 28.75-3.12717-3.12983-8.01979-12.87103-12.625-24.96875-.34117 1.62488-.83756 4.0799-1.40625 5.34375-3.0133-.30095-6.10357-1.78353-8.71875-3.46875 10.46119 19.80199 22.14187 33.64826 31.125 32.625-3.18387-8.06506-7.61909-20.1209-12.28125-33.84375-1.81923-.96291-5.36211-4.98118-7.75-7.75zm-37.40625 3.375-.5 2.46875 9.875 21.28125 5.8125 4.21875c-3.92314-5.11599-9.44517-15.99121-15.1875-27.96875zm3.59375 1.3125c7.3345 18.35739 16.1849 34.61459 28.75 36.78125-2.04675-3.91223-8.05323-19.45398-13.625-35.34375-.22753 1.56505-.75776 3.72675-1.78125 4.75 2.10366 5.53736 4.14633 11.61648 6.25 17.09375-2.67213-2.58829-5.28488-8.66982-8.46875-17.15625-3.24081-.30094-7.14518-2.75457-11.125-6.125zm17.28125 2.21875c5.91291 15.10738 11.75583 30.04711 15.90625 36.96875 2.89963 1.62512 5.78785 3.31478 8.6875 5-10.40451-12.94045-17.14582-27.58369-24.59375-41.96875zm-23.71875.1875c-.00001 0 3.93751 15.15625 3.9375 15.15625l6.34375 4.09375-9.15625-19.1875zm-77.875 15.3125c-.17059 1.98643-6.77647 4.91601-5.46875 14.125 2.38788-.6019 2.78685-4.6842 6.9375-5.40625 4.71884-.84275 6.93908-6.1236 8.53125-6.90625-1.42159 3.97257-4.15074 7.01956-8.1875 8.34375-4.03677 1.3242-6.38419 6.14926-9.625 9.21875 1.42135-10.59297.36434-14.31908 7.8125-19.375zm275.96875 2.875c-1.81921 5.65755-6.03929 6.91082-11.15625 7.03125 4.03675-1.80566 7.74511-4.08218 11.15625-7.03125zm-259.15625 6.6875c-4.9464 3.97257-5.72834 7.75317-8.34375 11.90625.68232.54155 10.86029-2.18991 11.65625-2.25-3.86619 1.86575-14.09481 6.23487-16.9375 6.65625 6.0835-4.93549 6.57494-14.26601 13.625-16.3125zm24.5625 12.34375c1.513-.1292 3.71155 1.69108 2.96875 3.71875-4.83273 12.82002-11.90839 19.23957-21.6875 18.15625 1.87615-3.06952 15.81433-.00022 17.40625-20.34375.071-1.01571.62479-1.47252 1.3125-1.53125zm14.9375 6.125c1.13656.0346 2.42647 1.14523 2 2.6875-4.32098 15.4083-15.23311 21.66768-19.15625 20.34375 2.38813-4.27351 12.27612-1.25721 15.6875-21.78125.14921-.90283.78683-1.2708 1.46875-1.25zm12.53125 5.75c.0872-.009.19022-.007.28125 0 1.21374.094 2.6721 1.58845 2.28125 3.28125-3.35445 14.44513-15.53152 18.71442-19.625 15.34375 2.10367-1.98616 14.28306.60381 15.875-17.03125.0933-1.04671.57683-1.52831 1.1875-1.59375zm25.875 38.59375c-11.9395 6.68104-23.61203 9.8275-34.8125 11.03125-8.13026.84249-14.96313 1.50356-23.71875.78125-7.33427-.60188-20.28527 4.20563-22.84375 12.8125-1.13714 3.85215-2.99927 9.43507-8.34375 12.625-5.23061 3.12985-6.79222 6.70907-7.53125 12.96875-.62539 5.11599 1.78269 15.14468 4 18.09375 4.83272 6.44018 6.65185 14.6861 4.71875 21.96875-1.0802 3.97256-1.71717 9.64684-.125 12.65625 1.93308 3.67136 4.11437 8.17096-1.34375 12.625-10.17722 8.18548-21.39776 13.61318-25.71875 16.5625-3.7523 2.52796-9.95623 7.23258-11.71875 9.21875-5.34447 5.89865-13.63343 5.89521-18.125-.90625-2.8427-4.27325-3.19075 1.43063-7-.375 8.9262-6.74111 9.43084-20.8139 2.4375-16.78125-2.61518 5.83829-7.39105 6.68204-13.53125 4.09375-7.50509 6.07913-2.14557 19.47817 7.40625 16.46875.34116 2.22702 2.39672 5.79407 3.875 6.9375-2.72906 2.28711-12.41248 7.52225-15.9375 2.40625-4.54851-6.74111-15.33858-7.59427-14.65625 2.15625 4.26429 2.76856 6.12174 17.40725 2.3125 18.25 1.42135 11.79703 21.57253 7.20914 14.75-10.125 3.97983-.42136 2.222 7.96418 6.03125 7.84375 3.41138-.12042 5.90746-1.75114 8.125-4.21875 1.81922 1.44437 2.87783 4.07849 3.21875 6.125.3981 2.28711-3.79816 2.59361-3.96875 7.46875-9.60853-.78242-13.69676 7.40371-8.125 12.21875 2.8427-1.50474 10.55953 3.51132 10.84375 7.0625 8.07353 4.2132 14.66844-7.95555 4.71875-14.9375 1.25077-2.76858 4.48864 1.68306 4.375-3.3125-.0569-2.22704 3.53307-3.38314 5.125-2.78125 1.19383.48143 4.09336-2.51956 4.71875-3.84375 1.87639-4.03264 3.86767-7.52541 6.3125-6.5625-.79597.84275.28604 8.60762 1.59375 10.59375-6.42466 6.68075-2.44517 18.43751 4.71875 15.1875-.11387-3.06978 6.71026-6.52907 11.03125-3.21875 5.23061-2.34746 4.78793-11.89798-1.125-14.125-1.99002-.78238-4.5554-.53937-7 .0625-.17057-3.91222 5.27388-.6142 3.625-7.65625-.62537-2.70846 6.4445-7.63212 8.71875-2.9375 1.25078 2.5883 4.54418 5.05933 6.25-2.34375 5.40117 2.40753 15.04782-.0833 19.9375-2.25-2.04697-1.50469-3.40884-5.57621-3.75-9.1875 4.79528 5.55408 22.27978 2.79403 32.4375-3.1875-1.26421.33436-3.16203-2.6701-4.28125-6.28125 5.40119 6.62071 6.30554 5.6146 8.125 4.53125-2.27424-1.62512-5.29122-7.16754-7.28125-10.71875 5.68565 4.57446 17.11237 6.86943 23.59375 2.65625-3.12694-3.79179-11.59055-7.10351-11.875-16.3125 2.33122 5.83829 5.11811 10.15499 11.03125 12.5625-11.76916-15.34795-9.54074-23.76432-16.875-36.34375 3.69562 4.39367 8.4716 9.80095 12.90625 9.5-12.33761-13.54234-6.60955-21.43074-12.75-38.34375 2.55849 3.00941 7.05439 8.0184 10.75 10.125-3.18388-7.58386-.28312-16.80612 6.9375-28.84375 8.30081-13.78317 24.72964-24.55855 47.1875-33.40625-3.63891-11.01436-6.29815-17.14913-19.375-18.59375zm-113.40625 44.9375c-6.86982.068-12.06637 3.49245-18.125 9.90625-6.76583 7.16249-10.40174 16.08194-13.1875 19.03125 4.66215-.18051 8.92982-11.99059 16.09375-15 6.7656-2.82889 11.43164-2.40536 20.1875.0625 8.47141 2.40753 11.82793-9.86216 5.6875-11.96875-4.05092-1.39188-7.5336-2.06217-10.65625-2.03125zm-7.34375 13.8125c-3.62987.0226-7.2424 1.31582-10.3125 5.0625 1.53499.18051 7.61512-4.57534 13.8125-2.46875 7.10677 2.40752 9.56614 3.42162 12.75-.25-3.46807.90282-7.96285-1.06592-12.625-1.96875-1.19394-.22571-2.41504-.38252-3.625-.375zm18.34375 6.6875c-.68325.0169-1.35629.47913-1.71875 1.5625-2.67211 8.06531-9.78125 7.28301-9.78125 18.71875 1.70558-.42137 1.55263-4.26117 7.75-9.4375 2.33097-1.92607 4.8205-1.44854 5.84375-8.25.21322-1.42944-.95499-2.62194-2.09375-2.59375zm108.15625 39.25c-1.04134-.0104-2.36604.20481-4.125.65625-8.86951 2.28709-15.33907 19.75059-9.3125 31.96875 5.96985 12.03789 6.25859 20.57266-2.78125 24.90625 3.01327 3.49112 17.21148-3.14033 10.84375-19.8125-5.91293-15.40804 1.53015-19.43851 7.5-23.53125 3.46831-2.34745 4.33934-8.17594 2.40625-11.125-1.28987-1.94488-2.24032-3.03972-4.53125-3.0625zm6.46875 11.96875c-1.70558 3.55119-5.18756 4.08079-9.28125 7.8125-4.09348 3.7317-2.94964 12.39595-1.8125 12.9375.56867-1.7453.63161-8.64315 3.53125-10.75 4.5485-3.18992 6.42539-4.58306 7.5625-10zm4.1875 1.21875c-.563.0709-1.12618.55202-1.53125 1.5-1.25101 2.94931-1.25618 6.78098-.6875 10.03125 1.70556 8.96811 4.40576 12.83103 9.75 13.3125-2.27403-2.28709-5.98644-7.04128-4.90625-13 .56844-3.3707.86724-6.51943-.15625-9.46875-.53308-1.54227-1.53044-2.49312-2.46875-2.375z" fill="#ffe000"/><path d="m249.28391 43.802414c1.08019 0 1.99003 1.023248 1.99003 2.287098 0 1.264106-.90984 2.22701-1.99003 2.22701s-1.99003-.962904-1.99003-2.22701c0-1.26385.90984-2.287098 1.99003-2.287098zm-4.37239 3.202064c.90961 2.287097 2.45388 2.531298 4.38697 3.975658-1.36441.240859-2.80784.508716-3.88802-.755384-1.08043-1.26385-1.3609-3.337355-.9061-4.842058zm-155.442711 51.762046c-1.023252-6.380094.852903-10.713692 6.595244-12.519334 1.705807 1.444616 2.444836 3.069749 2.615416 5.055905-4.093704-.06009-6.993344 3.370686-9.21066 7.463429zm4.776027 210.297946c0-9.3895 3.752311-13.60267 11.086584-12.88036 1.13713 1.26385 1.47829 3.0094 1.02348 5.71787-5.74234-1.38427-8.983139 2.52795-12.110064 7.16249zm12.927644 48.09597c-1.59193-4.21317-1.38393-9.28927 3.10764-13.50244 1.70581.5418 3.86409 2.72311 4.03467 4.89004-3.29773 1.7453-5.3798 5.12154-7.14231 8.6124zm46.54297 89.49451c4.03677.78239 8.35776 3.49086 9.43795 12.09771-1.02326 1.02325-3.35445.54179-4.32099 0-.90961-5.59745-2.78577-9.38925-5.11696-12.09771zm-23.8225 57.60009c-.39787-4.63454.0569-9.26908 6.42466-12.33857.56868.66197.90984 1.44462 1.02349 2.2871-3.2408.12043-5.40118 4.99582-7.44815 10.05147zm31.21371 34.78894c-1.47829-3.06974-1.81945-6.07916-.90961-9.08856 1.59193-.36103 3.12693.30094 4.49157 1.98641-1.93309.72206-2.89964 3.61129-3.58196 7.10215zm147.31247 3.00941c.51151-7.16249 1.70558-14.38507 13.07662-13.42216.39809.90282.39809 1.56504.22752 2.16693-5.572-1.50471-10.17721 3.37043-13.30414 11.25523zm27.7454 40.14553c-2.21732-4.09274-2.786-8.72728.28422-14.50523.96654.0601 1.70557.48145 2.44483 1.26385-2.16061 4.03265-2.67235 8.48642-2.72905 13.24138zm-236.240333-546.093695c4.103233-.590521 9.330583 1.799329 11.987593 10.0136-.81316.889942-3.18828.941193-4.23686.899034-1.931-5.299282-4.42023-9.662421-7.750733-10.912634zm56.203553 1.57009c2.3456 3.612802 3.87571 8.536671-1.8564 14.74685-1.11691-.368094-2.60845-2.417623-2.82853-3.370182 4.30937-4.211145 5.45254-7.665653 4.68493-11.376668zm-35.75269 106.038165c4.42882-.12472 7.40329-1.05481 9.09469-7.71969-1.68373-1.47314-2.41578-1.62008-4.34144-1.62184.0632 4.11496-.9196 7.41672-4.75325 9.34153zm73.34366 213.27554c3.05395-2.88393 2.59078-6.8209-.65421-11.9018-1.41693.64051-1.81666 1.59029-2.20709 3.26944 2.37303 2.70216 3.26335 5.50252 2.8613 8.63236zm-67.47164-90.48317c4.28473-.51023 6.66612 1.73066 8.87414 7.05646-1.38765.73139-3.27333.73013-4.71374.009-.82316-3.88193-1.58984-5.4442-4.1604-7.06554zm79.63794 273.52528c3.60521-2.05105 4.45532-7.43162 2.41834-13.17323-1.51872.27343-2.33351 1.09824-3.083 2.6345 1.71278 3.2134 1.74509 7.59421.66466 10.53873zm134.92329-44.93181c4.06001-.63268 9.33407 2.17652 12.97018 9.95932-.65838 1.31712-3.19223.22545-4.45183-.24464-2.56057-4.99077-5.48879-7.94311-8.51835-9.71468zm55.91282 84.1465c3.4581-2.31715 3.04443-8.51042.62678-14.08362-1.49665.38678-1.8041 2.12829-2.44832 3.71732 1.92427 3.07606 2.70118 7.34831 1.82154 10.3663z" fill="#fff"/><path d="m119.59375 44.78125c-.47579-.0054-.98757.04977-1.53125.125-2.72905 3.671628-7.48854 5.539385-12.09375 4.9375-5.06025 5.777958-2.01439 16.250132 6.96875 14.625 1.42135 7.463434 7.30247 18.159156 14.125 25.5625-5.79928-.240858-15.30579-2.333325-17.125-4.5-.85291-9.509928-8.97536-11.813031-11.875-2.0625 2.16038 2.166668 5.68027 8.551817 3.40625 13.96875.22728 6.80121 14.03318 14.63063 10.90625-4.75 2.78577.722307.85256 3.853019 4.71875 5.71875 6.65218 3.25026 12.24343 5.64455 13.4375 10.21875 1.30747 5.17633-1.30516 10.43267-3.75 13.5625-6.02656-.24085-8.13091 7.81237-3.46875 9.4375 4.71885-.96317 8.45365 2.09488 9.875 4.5625 8.30082.36102 8.59976-9.07481-.78125-13.46875 1.36442-2.88898 2.65227 1.20847 4.1875-1.5 1.25077-2.22701 2.16181-6.24961 2.21875-11.125 8.07352 20.04285 34.11689 62.63743 37.8125 68.65625 1.64887-1.86574 3.36225-3.72561 5.125-5.53125-24.73211-40.32605-33.15989-56.64417-36.34375-66.09375 7.22063 7.88479 8.25322 19.99445 37.875 64.59375 3.07022-3.00941 6.25067-5.60302 9.71875-7.46875-6.31079-7.82446-44.5092-56.15989-47.75-74.15625-.8529-4.815048.16248-12.152558 3.6875-17.75 3.01329-4.754968-2.7199-4.407004-.84375-8.5 7.10699 6.86155 15.15995-1.067948 9.53125-6.90625-3.6956-.601884-7.89153-3.683685-8.6875-7.65625-6.5383-7.102153-16.14221.777294-7.5 9.625-.45504 1.745307-4.33162 14.880447-5.46875 23.96875-7.10698-6.801207-11.24007-14.50316-13.34375-21.90625-1.59193-5.657785-4.51615 1.861284-5.9375-1.75 9.48775-5.586309 10.04313-14.356155 2.90625-14.4375zm105.0625 143.4375c-.33697-.0228-.66383-.008-.96875.0312-6.28949-.0482-5.87605 3.75673-8.59375 9.09375-3.51267 8.39456-7.97587 17.37323-12.375 27.59375-8.86993 20.6076-17.68746 56.49443-32.46875 80.40625-4.70955 7.61868-10.86253 5.53494-16.71875-.0625-3.80923-3.55121-5.88678-5.66271-9.46875-15.59375-1.64863-4.69488-2.06729-.44677-3.375-2.3125 6.0835-3.00966 6.82353-14.79053-1.25-13.40625-2.44483 3.25026-5.96582 3.90855-10.34375 2.34375-6.93617 5.59744-.17003 16.31023 8.1875 14.625 2.13439 12.5097 2.33257 18.79211 14.63977 20.39564-7.28188-1.3223-23.63531-3.94861-30.51477-8.58314 1.25077-9.87096-9.48633-17.3881-13.125-8.78125 1.93309 6.62069.84888 11.66767-2.5625 16.84375 1.70557 10.1118 10.20805 8.40792 13.5625-2.125 2.10367 1.92607-.93888 3.50115.9375 5.96875 3.07022 4.03265 6.37169 5.37868 11.375 3.03125 2.89964 3.79181 11.28126 5.42988 20.02691 1.90842-6.63029 2.47247-19.70338 15.41552-27.77691 17.34158-8.24412-8.66694-13.97311-5.04791-11.8125 4.28125 3.41115 1.38428 5.69862 5.22431 5.8125 12.6875 8.30082 7.40335 15.3566-.55472 8.875-13.375 2.67235-.78239 3.18793 3.69689 6.65625 3.9375 1.9898.12043 3.79122-1.20476 5.78125-4.09375 4.77581 2.16694 8.13458-.50202 10.75-5.4375 4.66216 1.68522 9.15332 1.86344 13.53125-1.6875 3.92289 3.85189 5.78169 4.89812 9.25 5.5 2.78577.48171 4.20624.76767 5.96875-1.21875-4.09371 8.72727 1.37015 14.39966 8.875 9.34375.68232-2.82864 2.80738-5.00685 6.21875-6.8125 2.44483-5.53737-3.25109-12.45516-10.1875-7.21875-6.14044-2.4676-11.07391-5.54838-15.28125-10.0625 22.9129-10.83385 30.0635-37.98197 44.21875-60.40625 4.78666-7.58292 4.86456-10.32735 11.125-18.375 3.27042-4.20404 15.81508-16.91996 16.15625-20.53125 8.41648-13.35729 4.6687-24.09421-1.34375-27.96875-.42673-.0332-8.72673-6.93988-13.78125-7.28125zm.0312 34.0625c-4.03672 11.49585-16.95894 35.41194-25.7187 48.84375-10.18975 15.62447-12.90365 34.02628-25.46875 42.03125 10.85929-9.81059 15.34549-32.85505 25.34375-47.15625 7.71832-11.04005 15.60984-28.29343 25.84375-43.71875z" fill="#ffe000"/><g fill="#e20909"><path d="m225.96156 38.825063c-2.44483 1.805642-3.21356 3.735083-2.0195 5.841671 1.93309 3.370431 6.82048 12.558038 6.76377 16.410181-.0569 2.467606.26935 3.800108 2.31608 4.341906 3.58197.902818 2.56122 2.201574 6.82526 4.609101 1.97558 3.353502.88718 2.264311 3.73033 6.301331-4.79098 5.607153-11.05158 7.799742-16.45852 9.886187-8.95272 3.454708-21.45754 6.449586-17.99729 16.37852 2.54648-7.10943 14.34006-9.575728 19.0631-10.166256 2.42286-.302934 8.34325-3.308468 12.25678-4.631364 3.89403-1.316313 6.12143-2.958211 6.94824-3.74072 2.32683-2.202158 3.08972-1.562274 4.85761-4.78723-2.3314-4.441203-2.7349-5.471989-4.48868-8.015828-1.69457-2.457959-5.472-7.939239-6.72278-8.661547-2.95635-1.745562-4.98878-4.02671-5.84144-7.036115-1.08042-3.791807-2.90569-10.405926-2.84898-15.341403 0-1.564796.51496-3.145553-.96333-3.807518-1.91412.454615-3.80598 1.137734-5.42065 2.419084zm-4.15223 4.703524c-11.14375 2.347184-32.98609-10.979782-26.1437 16.891427 6.32436-13.580956 20.09466.843017 29.97762 3.250074 4.25767 1.036992 5.26943-.426107 4.30288-3.315089-1.43024-5.465405-4.28588-12.613243-8.1368-16.826412z"/><path d="m232.56413 70.916995c-4.32834 0-6.52347 1.205801-10.37088 3.351514-3.84741 2.145712-9.4358-.277303-14.72599 1.439266-5.29019 1.716563-11.0613 4.720568-13.94686 4.291418-2.88556-.429142-10.59098-4.022891-13.46593-4.291418-3.15699-.294868-6.96615-1.313755-11.54222.429143-2.38855.909729-6.25204 4.291425-6.25204 4.291425s3.84741-1.877172 6.73296-2.735457c2.88556-.858285 5.29019-1.126826 8.65667.160602 3.36648 1.28742 6.94246 2.896043 9.82802 4.612613 2.88555 1.716567 7.00439 1.824517 10.8518 1.824517s8.17574-1.71657 12.02316-3.43314c3.84741-1.71657 10.39765 1.99388 13.76413.706452 3.36649-1.287427 5.17872-3.288548 7.90432-4.317745 2.34269-.884612 7.45538-1.632288 7.45538-1.632288s-1.00336-3.9352-2.49259-5.189061c-1.48923-1.25386-4.41993.492159-4.41993.492159z" fill-rule="evenodd" stroke="#000" stroke-width=".002845"/><path d="m105.84248 33.400044c-1.03119-.05144-2.06618.189779-3.17692.779316-3.554361 1.88652-4.160744 2.516079-4.160744 2.516079-.000002 0 4.740634 1.87108 6.517814 4.386439 1.77718 2.51536 2.95546 6.284452 4.14025 5.655612 3.55436 0 7.7066-3.139533 7.7066-3.139533s-.58588-4.387165-4.14025-6.902518c-2.44362-1.729309-4.61812-3.182248-6.88675-3.295395zm50.44135 3.673921s-.0105 1.771733-.5534 4.720431c-.54286 2.948692-2.70551 7.670385-2.70551 7.080648 0 0-1.0951 2.350027 1.61921 4.119245 2.7143 1.769217 3.25891 1.180108 3.25891 1.180108s3.81231-4.131957 3.81231-7.080648c0-2.948699-.28255-5.15318-1.63971-7.659569-1.35715-2.506396-3.79181-2.360215-3.79181-2.360215zm-60.238568 49.052411c-.000002 0-3.081786.426912-5.001093 3.762985-1.919308 3.336071-2.679445 6.248559-2.295583 8.750609.383861 2.50206 1.537221 4.58683 1.537221 4.58683.000001 0-.385878-2.50784 2.685013-5.009887 3.07089-2.502057 6.517817-2.493813 6.517817-2.493813-.000003 0 1.157153-1.667777.389429-4.586835-.767725-2.919055-3.448944-4.592881-3.832804-5.009889zm30.170528 48.117224c-.43185.0521-.61489.2672-.61489.2672.76772-.41701.37273 2.50784-.77886 5.00989s-4.59117 4.16378-4.59117 4.16378c0-.00001 6.12637-.002 8.8134-1.66997 2.68703-1.66804 4.22224-3.76298 4.22224-3.76298 0-.00001-3.06129-2.06664-4.9806-3.31766-.95965-.62552-1.63828-.74238-2.07012-.69026zm3.60734 130.79159c-2.30317 0-5.00109 1.24691-5.00109 1.24691s3.46008 2.09496 4.61166 3.76298c1.15159 1.66804 1.53723 3.74072 1.53723 3.74072-.00001 0 1.14577 2.08091 3.8328 1.24691 2.68703-.83402 4.21667-2.92293 3.8328-3.33993 0-.00001.008-2.07873-2.29558-4.16377-2.30316-2.08507-4.21465-2.49382-6.51782-2.49382zm-24.96447 30.43788c0-.00001-4.978578.82578-7.665606 2.49381-2.687031 1.66802-3.074443 5.4368-3.074443 8.77288v4.16378c0 .00001 3.456287-1.65978 5.759455-2.49381 2.303164-.83402 4.611664 0 4.611664 0s2.68501-4.18386 2.68501-7.10292-2.31608-5.83374-2.31608-5.83374zm90.983 46.71446c-.00001.00001-2.29737 1.66585-3.83281 2.91687-1.53546 1.25103-1.53722 3.74073-1.53722 3.74072.38385-.41699 2.69058 2.9188 3.07444 4.58684.38386 1.66805.75837 5.00989.75836 5.00989 0 .00001 2.30116-3.32563 2.68502-5.41068.38385-2.08505.77886-4.17782.77886-6.67986-.00001-2.50204-1.92665-4.16378-1.92665-4.16378zm-85.59248 1.24691c0 .41703-1.93778 1.24884-2.7055 2.91687-.76773 1.66803-1.90616 2.92074-1.90616 6.2568 0 3.33608.75457 5.00772 1.90616 7.92676 1.15158 2.91907 2.70551 3.31767 2.7055 3.31766 0 0-.38943-1.2326-.38942-3.31766 0-2.08504.76013-2.51802 2.29558-4.18604 1.53544-1.66804 3.8328-2.49382 3.8328-2.49382 0 .00001.0132-4.58464-1.90615-7.5037-1.91931-2.91907-3.8328-2.91686-3.83281-2.91687zm47.48989 100.37597c-.76023.0342-1.47337.22164-2.1931.53439-1.91931.83402-3.46388 1.66996-3.46388 1.66996s2.31229.83185 3.46388 2.91687c1.15158 2.08505 1.52786 3.74266 2.29558 5.41069.76772 1.66802 1.14779 4.6091 1.14779 4.6091 0 .00001 1.9135 1.66391 3.83281 1.24691 1.91931-.41701 3.47121-1.24885 5.39052-2.91687 1.91931-1.66807 1.90058-2.93309 1.51672-2.51608 0-.00002.78645-1.23867-1.51672-3.74072-2.30317-2.50207-3.46186-4.18796-6.14889-5.85601-1.67939-1.04252-3.05767-1.41525-4.32471-1.35824zm-20.61926 47.64964c0 .00001-4.61344 1.25076-6.14888 4.58684-1.53545 3.33609-1.91552 6.2708-1.1478 8.77288.76773 2.50203 1.53722 4.58683 1.53722 4.58683.00001.00001 1.13464-4.16983 3.05395-4.58683 1.9193-.41704 5.38495-.41703 5.00109 0 0-.00002 1.52609-2.10292.75837-5.85601-.76773-3.75306-3.05395-7.50371-3.05395-7.50371zm209.4515.51213c-.53381.0196-1.11142.12548-1.78318.33399-2.68702.83401-5.75945 2.07075-5.75945 2.07075-.00001 0 3.45071 2.101 5.37002 4.18605 1.91932 2.08503 4.61167 6.65759 4.61167 6.65759-.00001.00001 3.06686 2.08698 5.37002 1.66996 2.30317-.41701 2.67567-1.23675 3.44338-2.07075.76773-.83404 1.54659-3.33993.77886-3.33993 0 .00001-.0129-1.25488-2.31608-3.33993-2.30315-2.08505-1.5203-3.33581-4.59117-4.58684-2.30317-.93827-3.52264-1.63954-5.12407-1.58089zm-138.45238 34.93564c-2.30317 0-3.07444 2.5161-3.07444 2.51608 0 .834 1.53722 3.73852 1.53722 6.65759s-1.1478 5.00989-1.1478 5.00989 2.30294-.41894 4.22224-1.66996c1.91931-1.25102 2.69236-3.34382 4.61167-6.67986 1.9193-3.33607 0-4.58684 0-4.58683 0 0-3.84572-1.24691-6.14889-1.24691zm111.00786.15587c-.79846.0367-1.73887.22111-2.7465.69025-2.68704 1.25104-4.9973 1.66173-6.14889 4.16378-1.15159 2.50203-3.06886 6.67767-2.68501 9.59672.38389 2.91906 2.68501 8.75061 2.68501 8.75061s.76015-2.91275 2.29559-4.16377c1.53542-1.25104 3.84572-2.09302 6.14888-2.09302 2.30317 0 3.07444.42305 3.07444.42305 0 .00001 1.92665-1.25488 1.92665-3.33993s0-3.76078 0-6.67985-1.54835-7.08065-2.31608-7.08065c0-.00001-.90333-.32828-2.23409-.26719zm-156.48911 2.36021c-1.44323 0-2.50055.82384-2.50055.82385.38386 0-.36893 2.07874-.36893 4.16378 0 2.08505.7657 5.00767 2.68501 7.92676 1.91931 2.91905 5.75946 4.58682 5.75946 4.58684 0 0-.77886-4.15555-.77886-6.65759 0-2.50205 2.29558-4.58685 2.29558-4.58684 0 0-1.5352-2.50784-4.22223-5.00989-1.00764-.93827-2.00354-1.24691-2.86948-1.24691zm238.94565 33.77781s-3.45072.81368-5.37003 1.6477-2.29558 3.76297-2.29558 3.76298c-.38385 0 2.69058 4.58465 3.07444 7.50371.38386 2.91905-.77886 4.58685-.77886 4.58683 0 0 4.60788-3.7487 5.75946-5.83374 1.15158-2.08505.76392-5.00163 1.14779-7.5037.38386-2.50205-1.53721-4.16377-1.53722-4.16378zm-66.40795 4.16378c.38387 1.25102-.76951 3.34186-1.53722 5.00989-.76773 1.66802-.36716 3.75065 1.16829 7.5037 1.53543 3.75308 1.53518 3.73853 4.22223 6.65759 2.68702 2.91905 3.05395 2.09302 3.05395 2.09303 0 0 .38942-5.01183.38942-6.67986s3.46388-3.74072 3.46388-3.74072-.38007-1.25489-1.1478-3.33993c-.76772-2.08505-1.91906-3.32565-4.22223-5.41068-2.30317-2.08505-5.39052-2.09302-5.39052-2.09302z" fill-rule="evenodd"/></g></g><g fill="#6390c7" transform="matrix(.63943206 0 0 .64004901 278.2863256199 234.97899)"><path d="m-278.89029-210.68398-.34831 24.86048.34831 34.09066v1.43677h-25.12172v-1.43677l.34831-34.61311.0871-12.80033v-1.82862l-.87078.26124-6.31308 1.95923q-.95785.3483-1.65446.3483-1.30616 0-1.30616-1.48031 0-1.08846.65307-1.48031.69662-.39183 3.96202-1.21907l10.92816-2.83001 4.09262-1.08846 15.19494-4.17969z"/><path d="m-240.31518-151.81992.17416-30.78172-.17416-25.77481q-1.39323-.0871-1.95922-.0871-3.74432 0-7.92402 1.74153-4.1797 1.69801-7.22739 4.48447-6.66139 6.13894-6.66139 14.97725 0 8.09817 5.70354 12.01663 3.43955 2.39462 7.09678 2.39462 2.91708 0 5.61647-1.48031 1.52385-.82723 1.95924-.82723 1.132 0 1.132 1.26262 0 1.43677-2.78647 2.65585-2.74292 1.21907-6.00832 1.21907-6.05185 0-10.53631-4.26677-5.18109-4.96339-5.18109-13.1051 0-10.71047 8.75124-17.85079 7.35801-6.0083 17.0671-6.0083 9.2737 0 16.37048 5.35523 11.05878 8.3594 11.05878 24.81695 0 12.97448-7.5757 21.81279-4.65862 5.44231-11.32001 8.22878-5.57293 2.39462-11.36355 2.39462-7.57571 0-13.01802-4.04908-3.962-3.00415-3.962-5.44232 0-.74015.566-1.30616.60953-.56599 1.39323-.56599 1.21908 0 2.17692 1.82861 1.9157 3.52663 4.78925 5.00694 3.26538 1.74154 8.18523 1.74154 1.65447 0 3.65723-.39185z"/><path d="m-181.6688-211.24998q11.18939 0 18.67802 9.09954 7.27092 8.83833 7.27092 22.59649 0 14.2371-8.57707 23.24956-7.2274 7.66279-17.37187 7.66279-6.96616 0-13.10509-3.52663-7.31447-4.26677-11.14586-12.32139-3.04769-6.40016-3.04769-15.45618 0-14.58539 8.35939-23.20602 3.70077-3.8314 8.62063-5.92124 4.96338-2.13338 10.31862-2.17692zm-.87077 2.91707-.21769 28.30004.17415 23.33663.0436 5.13756q8.1417.0871 14.06294-4.78924 4.78923-4.00555 7.31446-10.01386 2.56878-6.05185 2.56878-13.54048 0-13.2357-6.83556-21.0291-3.04768-3.48307-7.09676-5.48585-4.0491-2.00276-8.0111-2.00276-.65307 0-2.00276.0871z"/><path d="m-106.91319-162.3127v12.01663h-24.51217l.13062-6.09539.0436-4.87631v-.87078h-1.17554l-4.1797-.0436-9.70908.13061-2.56877.0436q-2.30755 0-3.22186-.39185-.87076-.43538-.87076-1.52384 0-.7837.82722-1.82862.87077-1.08846 4.61509-5.094l40.7085-43.58205-.0436 3.13477-.1306 14.67248-.0871 17.80724.1306 13.49695q.52247.0871.87078.0871.2177 0 .78369-.17416l4.70216-.17415 1.26262-.0871q1.393232 0 1.393232 1.65446 0 1.39324-1.131999 1.56739-.261233.0871-3.221853.13061h-4.61509zm-24.29448-2.83001v-18.85217l-17.45895 18.76511q4.22324.17414 8.31586.17414l9.14309-.0871z"/></g><g fill="#6390c7" transform="matrix(.63943206 0 0 .64004901 275.180307408 234.97899)"><path d="m-257.13706-242.82374h10.89257v2.1582h-8.32812v5.58594h7.51562v2.1582h-7.51562v9.05176h-2.56445z"/><path d="m-237.95324-236.4507q-1.8789 0-2.9707 1.47266-1.0918 1.45996-1.0918 4.01172 0 2.55176 1.07911 4.02441 1.09179 1.45996 2.98339 1.45996 1.86622 0 2.95801-1.47265 1.0918-1.47266 1.0918-4.01172 0-2.52637-1.0918-3.99902-1.09179-1.48536-2.95801-1.48536zm0-1.98046q3.04688 0 4.78614 1.98046 1.73925 1.98047 1.73925 5.48438 0 3.49121-1.73925 5.48437-1.73926 1.98047-4.78614 1.98047-3.05957 0-4.79882-1.98047-1.72657-1.99316-1.72657-5.48437 0-3.50391 1.72657-5.48438 1.73925-1.98046 4.79882-1.98046z"/><path d="m-215.98913-232.45167v8.58203h-2.33594v-8.50586q0-2.01856-.78711-3.02148-.78711-1.00293-2.36133-1.00293-1.8916 0-2.9834 1.20605-1.09179 1.20605-1.09179 3.28809v8.03613h-2.34864v-14.21875h2.34864v2.20898q.83789-1.28222 1.96777-1.91699 1.14258-.63476 2.62793-.63476 2.45019 0 3.70703 1.52343 1.25684 1.51075 1.25684 4.45606z"/><path d="m-202.18812-235.93019v-7.69336h2.33594v19.75391h-2.33594v-2.13281q-.73633 1.26953-1.86621 1.8916-1.11719.60937-2.69141.60937-2.57715 0-4.20215-2.05664-1.6123-2.05664-1.6123-5.4082 0-3.35156 1.6123-5.4082 1.625-2.05664 4.20215-2.05664 1.57422 0 2.69141.62207 1.12988.60937 1.86621 1.8789zm-7.95996 4.96387q0 2.57715 1.05371 4.0498 1.06641 1.45996 2.91992 1.45996 1.85352 0 2.91992-1.45996 1.06641-1.47265 1.06641-4.0498 0-2.57715-1.06641-4.03711-1.0664-1.47266-2.91992-1.47266-1.85351 0-2.91992 1.47266-1.05371 1.45996-1.05371 4.03711z"/><path d="m-183.11855-231.563v1.14258h-10.74023q.15234 2.41211 1.44726 3.68164 1.30762 1.25683 3.63086 1.25683 1.34571 0 2.60254-.33007 1.26953-.33008 2.51367-.99024v2.20899q-1.25683.5332-2.57714.8125-1.32032.27929-2.67872.27929-3.40234 0-5.3955-1.98047-1.98047-1.98046-1.98047-5.35742 0-3.49121 1.8789-5.53515 1.89161-2.05664 5.09082-2.05664 2.86915 0 4.53223 1.85351 1.67578 1.84082 1.67578 5.01465zm-2.33594-.68555q-.0254-1.91699-1.0791-3.05957-1.04101-1.14258-2.76757-1.14258-1.95508 0-3.13575 1.1045-1.16797 1.10449-1.3457 3.11035zm-2.24707-12.41601h2.52637l-4.13867 4.77343h-1.94238z"/><path d="m-160.17589-231.563v1.14258h-10.74024q.15235 2.41211 1.44727 3.68164 1.30762 1.25683 3.63086 1.25683 1.3457 0 2.60254-.33007 1.26953-.33008 2.51367-.99024v2.20899q-1.25684.5332-2.57715.8125-1.32031.27929-2.67871.27929-3.40234 0-5.39551-1.98047-1.98047-1.98046-1.98047-5.35742 0-3.49121 1.87891-5.53515 1.8916-2.05664 5.09082-2.05664 2.86914 0 4.53223 1.85351 1.67578 1.84082 1.67578 5.01465zm-2.33594-.68555q-.0254-1.91699-1.0791-3.05957-1.04102-1.14258-2.76758-1.14258-1.95508 0-3.13574 1.1045-1.16797 1.10449-1.3457 3.11035z"/><path d="m-144.81335-232.45167v8.58203h-2.33594v-8.50586q0-2.01856-.78711-3.02148-.78711-1.00293-2.36133-1.00293-1.8916 0-2.98339 1.20605-1.0918 1.20605-1.0918 3.28809v8.03613h-2.34863v-14.21875h2.34863v2.20898q.83789-1.28222 1.96777-1.91699 1.14258-.63476 2.62793-.63476 2.4502 0 3.70703 1.52343 1.25684 1.51075 1.25684 4.45606z"/></g><g fill="#0b388b" transform="translate(.162586)"><path d="m442.65525 279.71138-8.068-24.64055-7.07786 19.0971-7.70119-2.90912 11.57696-31.62547 7.64266 2.85535 7.82196 25.46526 7.31981-20.06799 7.39031 2.77613-11.61173 31.71758z"/><path d="m408.93811 267.44341 11.06712-32.48317 7.33759 2.50161-11.01421 32.58275z"/><path d="m398.77438 264.76517 3.45533-12.63932-14.16612-3.89194-3.51842 12.77519-7.82158-2.20234 8.87691-33.02581 7.87127 2.03362-3.21867 12.56867 14.18614 3.76593 3.36578-12.44254 7.85113 2.11204-8.9884 33.223z"/><path d="m179.22484 214.0338 26.9531-2.76625.55882 7.0193-18.39303 1.95216.67408 6.29319 14.90928-1.46038.74448 7.08624-14.92007 1.60584.67088 6.25665 18.46029-1.76589.72242 7.10551-26.95695 2.66956z"/><path d="m47.211284 274.594c1.416981-.76357 4.884896-2.09021 8.74555-3.51509 9.8789-3.64606 11.01588-4.25995 10.792143-5.82691-.311723-2.18274-2.11927-2.44595-9.382451-1.36627-8.72473 1.29695-11.632164 1.28228-14.428656-.0728-2.52499-1.22349-3.49942-2.47304-4.485041-5.75116-1.314992-4.37362 1.304045-9.27033 6.187209-11.56789 5.352462-2.51836 20.245244-7.63249 23.09995-7.93987l-.199055 7.65059c-1.497979.75317-5.474971 1.61631-9.131813 2.89133-9.495246 3.31069-11.002324 4.07128-11.002324 5.55261 0 2.2109 2.865104 2.52589 11.291795 1.24136 6.824722-1.04033 10.624611-.73902 13.336699 1.05751 3.315199 2.196 4.763449 6.87073 3.309316 10.68197-1.016633 2.66463-2.777373 4.40517-6.19712 6.12601-2.516868 1.2665-21.453911 8.52669-22.327311 8.52669z"/><path d="m85.35097 240.51135-11.296623 3.21993-1.851526-6.43996 30.988269-9.08812 1.81646 6.46761-11.191715 3.36881 7.300355 25.75059-8.316853 2.37781z"/><path d="m113.61211 225.53186-5.97795 36.43739 8.30773-1.78836 1.30534-6.43944 14.6553-3.43178 3.99499 5.42461 8.30163-2.02158-21.42891-30.20041zm6.69768 8.5149 6.84165 9.44906-8.74458 1.94752z"/><path d="m361.28488 220.69674c-2.41177.0666-4.57397.52089-6.24445 1.38111-5.24443 2.70064-8.1118 8.79982-8.1118 17.25532 0 4.68651.13707 5.4105 1.61857 8.54066 1.9229 4.06272 3.83983 5.53275 9.12389 6.99753 3.13639.74455 6.96223 1.46869 10.63456 1.49312 2.13027.0142 4.22162-.14638 6.06362-.83307l-1.16497-6.88153c-.50768-.0973-1.34771-.0339-2.26599.03-1.19196.0829-2.57245.18413-4.11334.11701-9.46814-.41242-11.23029-1.86629-11.15809-9.2077.0665-6.77066 1.73476-10.8318 6.40631-11.94892 5.84902-.61844 10.87276 3.54633 15.46702 5.34965l1.67835-6.47401c-.64673-.92846-2.56546-1.92453-4.92423-3.00495-4.27824-1.95962-8.98982-2.92514-13.00945-2.81422z"/><path d="m162.13366 216.24206c-1.37382-.009-6.72975.57139-11.32161 1.64871l-8.18365 1.60142 6.72014 33.86536 8.11712-1.60973c10.44148-1.68891 14.36754-3.52208 17.06499-8.42469 1.40828-2.55954 1.78545-3.21219 1.7765-8.21664-.007-4.2346-.89943-7.6841-2.1202-10.5107-1.57498-3.64675-4.15102-6.10518-7.70515-7.33265-1.61073-.55629-3.5674-1.01576-4.34814-1.02108zm1.03409 8.13762c2.22439 1.37609 3.77022 4.81668 4.24423 9.44773-.17785 8.96111-2.35169 9.67869-11.19391 11.49501l-4.00728-20.65797c3.51064-.71097 4.65739-.90697 6.23315-1.07183 1.70217-.27654 3.53725.0618 4.72381.78706z"/><path d="m309.06217 232.62532c.3948 6.12403.0651 6.52932 1.50266 9.12669 2.48221 4.48498 6.67529 6.8059 14.09948 7.8036 10.14516 1.36337 16.49185-3.10454 18.94017-13.33402.81284-3.39506.82608-9.93272.0249-11.97892-1.97374-5.04169-7.49089-8.5131-15.60751-9.33559-1.3773-.13957-2.82945-.20286-4.35184-.18461-10.49403.1258-15.22345 7.60625-14.60789 17.90285zm24.33237-8.39765c1.14388 1.22226 1.24031 1.71538 1.18595 6.02246-.0742 5.85709-1.2373 9.26489-3.73671 10.95084-3.66625 2.47311-10.9903.6592-12.27908-3.04123-1.35035-3.87741-.0816-12.36927 2.18808-14.64112 2.34894-1.83376 4.85722-1.57504 6.988-1.57932 1.78136-.003 4.25967.79843 5.65376 2.28837z"/><path d="m266.88705 210.13587h-9.08263l-.18156 33.49365 8.91815.18251.29988-11.01871c.0156-.574 1.45799-.66804 2.39361-.66804.76399 0 1.36181.17866 2.26654 1.05281l8.33003 11.37026c5.32142.48026 10.46898 1.32263 10.46898.55926 0-.41173-2.3392-3.17986-4.05864-5.63977l-4.51309-6.70381c2.22471-.79809 6.53127-3.75858 7.46944-5.1571 2.41859-3.60521 2.17861-9.68423-.50349-12.74197-3.14255-3.58266-8.02343-4.72909-21.80722-4.72909zm3.4545 6.71124c2.94586-.043 7.34413.44582 8.74724 1.17209 2.36315 1.2232 2.58541 5.15234.37861 6.69951-1.36871.95966-12.49288 1.58412-12.50774.26374l-.0883-7.84804c.32112-.26678 2.1312-.26775 3.47023-.2873z"/><path d="m235.77321 209.98858c-1.03811-.0112-2.93713.0243-4.1626.0402l-9.01186.0934 1.19996 33.95628c.3389.99222 17.08427.21855 20.82667-.91033 3.28675-.99143 5.5802-3.22497 6.31644-6.15147 1.14868-4.56656.2857-7.58978-2.75761-9.65974l-1.88927-1.2851 1.35675-.89006c3.66139-2.40133 3.85769-8.51131.39069-12.14893-2.07457-2.17654-5.00196-2.96582-12.26917-3.04424zm.36332 6.83401c1.09844.067 2.00529.16459 2.72247.378 1.3898.41356 2.1128 1.62623 2.04667 3.16611-.01 1.47622-.14721 3.01422-1.58832 3.25636-2.788.46845-6.63243.60535-7.08863.11743l-.3091-6.79569c1.53032-.24115 2.73192-.22895 4.21691-.12221zm.1233 12.54904c3.6321 0 5.66197 1.09725 5.66197 3.52171 0 .96907-.47222 1.88551-1.37075 2.6592-1.09612.94368-1.97597 1.18109-4.38216 1.18109-1.65581 0-3.31839.0712-3.459-.15657l-.30781-6.72178c.21472-.34776 2.1105-.48365 3.85775-.48365z"/><path d="m294.27595 245.99347 2.44088-34.2331 7.73207.54938-2.36438 34.31592z"/></g><g fill-rule="evenodd" transform="matrix(.63943206 0 0 .64004901 277.22649 234.97899)"><ellipse cx="138.23517" cy="-174.40985" rx="95.827515" ry="95.626389"/><circle cx="138.23517" cy="-174.40985" fill="#957418" r="93.627747"/></g><g fill="none" stroke="#000" stroke-width="1.6"><path d="m335.00857 71.264668c27.06845 3.544477 47.35344 33.410772 61.34705 57.180922"/><path d="m357.43927 63.428312c25.58849 5.42679 45.39399 33.855117 51.28395 57.917258"/><path d="m356.16091 159.21238c22.68869 4.08001 52.1999-1.34936 69.3441-29.45553"/><path d="m352.15962 171.59192c32.96438 5.06723 53.23261.79242 69.06166-24.29911"/><path d="m336.15449 96.677514c-23.06949 17.605296-22.25089 40.321906-21.5972 58.912826"/><path d="m347.02161 108.41987c-18.00604 20.88149-18.97717 45.36004-16.1068 64.42082"/><path d="m315.69617 89.233545c6.41454-1.544208 17.43715-3.381424 18.68561-.732459 1.4588 3.099367 1.18631 5.314954 1.77271 8.176428 4.26017 2.109179 7.55671 7.018836 10.86712 11.742356 18.82955-1.66941 13.23457 15.45646 19.68813 24.57703"/><path d="m345.58568 180.40457c-.31281-3.69423-1.96706-8.75386 6.75582-8.81265-.70984-4.27742-.73591-8.52373 3.81941-12.56159-5.63007-5.31539-6.86803-10.32422-3.85325-13.79367 3.60151-4.14466 8.41726-8.4567 14.22021-12.42182 5.75804 2.2053 9.85016 3.76355 13.10155 4.61269 8.55087 2.23317 10.38933 2.34628 16.36244-9.34604 4.72772.0556 8.97367-2.17949 12.73136-6.73592 7.72553 3.80822 12.43497 3.79917 8.45726-16.20263"/><path d="m423.46166 105.45321c-1.59931 1.07194-3.59083 1.21149-6.28118-.31027-1.53545-5.03672-3.4794-10.650976-7.45943-14.192719-5.2241-4.648811-7.05213-9.651632-6.16957-14.588401"/><path d="m326.38036 77.417786c-10.32186 10.321904-14.02389 24.098594-14.96221 33.367774-.27031 2.67024-3.21216 3.71258-5.4538 2.98952"/></g></svg>