<?xml version="1.0" encoding="UTF-8"?>
<svg width="566.93" height="566.93" version="1.0" xmlns="http://www.w3.org/2000/svg" xmlns:cc="http://creativecommons.org/ns#" xmlns:dc="http://purl.org/dc/elements/1.1/" xmlns:rdf="http://www.w3.org/1999/02/22-rdf-syntax-ns#">
 <g fill-rule="evenodd">
  <polygon transform="matrix(3.5433e-5 0 0 3.5433e-5 9.0918e-6 -.0005224)" points="1.55e7 7999920 8000140 1.55e7 5e5 7999920 7999860 500030" fill="#f5d133"/>
  <polygon transform="matrix(3.5433e-5 0 0 3.5433e-5 9.0918e-6 -.0005224)" points="14609100 7999940 8000150 14609100 1390950 7999940 7999890 1390950" fill="#043381"/>
  <polygon transform="matrix(3.5433e-5 0 0 3.5433e-5 9.0918e-6 -.0005224)" points="11406300 4593540 4596310 4593540 4596310 11403400 11406300 11403400" fill="#f5d133"/>
  <path d="m325.09 280.26h-22.292v61.669h-40.839v-61.669h-85.728v-102.98h214.58v44.979h-65.721v-26.576h-84.485v61.149h21.354v-21.55h-11.459v-17.904h63.893v17.904h-11.594v21.55h88.013v23.428l-0.0191 109.27h-214.57v-47.246h64.388v25.112h84.485zm-119.16 45.609c2.4296-0.12543 15.564-1.7858 15.564-13.508v-27.423h14.346v30.666c0 9.7459-5.6696 14.877-13.234 18.976-5.6601 3.0667-12.128 3.8172-16.676 3.8172-4.5486 0-10.953-0.75047-16.614-3.8172-7.5604-4.0996-13.23-9.2303-13.23-18.976v-30.666h14.346v27.423c0 11.723 13.072 13.383 15.498 13.508z" fill="#dc4729"/>
 </g>
</svg>
